<?xml version="1.0" encoding="UTF-8" standalone="no"?>
<svg
	width="256"
	height="256"
	viewBox="0 0 32 32"
	version="1.1"
	inkscape:version="1.3.2 (091e20ef0f, 2023-11-25, custom)"
	aria-label="名実ともに退勤"
	sodipodi:docname="meijitsutomonitaikin.svg"
	xmlns:inkscape="http://www.inkscape.org/namespaces/inkscape"
	xmlns:sodipodi="http://sodipodi.sourceforge.net/DTD/sodipodi-0.dtd"
	xmlns="http://www.w3.org/2000/svg"
	xmlns:svg="http://www.w3.org/2000/svg"
	xmlns:rdf="http://www.w3.org/1999/02/22-rdf-syntax-ns#"
	xmlns:cc="http://creativecommons.org/ns#"
	xmlns:dc="http://purl.org/dc/elements/1.1/"
	>
	<title>meijitsutomonitaikin</title>
	<metadata>
		<rdf:RDF>
			<cc:Work>
				<dc:title>名実ともに退勤</dc:title>
				<dc:creator>
					<cc:Agent><dc:title>zawa-ch.</dc:title></cc:Agent>
				</dc:creator>
				<cc:license rdf:resource="http://www.opensource.org/licenses/mit-license.php" />
			</cc:Work>
		</rdf:RDF>
	</metadata>
	<style>
		.typography {
			-inkscape-font-specification:'Zen Antique, Black';
			font-family:'Zen Antique';
			font-stretch:normal;
			font-style:normal;
			font-variant:normal;
			font-weight:900;
			line-height:1;
			text-anchor:middle;
			text-align:center;
		}
		.fg1 { 
			fill:red;
			fill-opacity:1;
			stroke:none;
		}
		.fg2 { 
			fill:black;
			fill-opacity:1;
			stroke:none;
		}
		.fg2-outline { 
			fill:white;
			fill-opacity:1;
			stroke:none;
		}
	</style>
	<sodipodi:namedview
		pagecolor="#505050"
		bordercolor="#eeeeee"
		borderopacity="1"
		inkscape:showpageshadow="0"
		inkscape:pageopacity="0"
		inkscape:pagecheckerboard="0"
		inkscape:deskcolor="#505050"
		inkscape:document-units="px"
		showgrid="false"
		>
		<sodipodi:guide position="0,0" orientation="32,0" inkscape:locked="false" />
		<sodipodi:guide position="16,0" orientation="32,0" inkscape:locked="false" />
		<sodipodi:guide position="32,0" orientation="32,0" inkscape:locked="false" />
		<sodipodi:guide position="0,0" orientation="0,32" inkscape:locked="false" />
		<sodipodi:guide position="0,16" orientation="0,32" inkscape:locked="false" />
		<sodipodi:guide position="0,32" orientation="0,32" inkscape:locked="false" />
	</sodipodi:namedview>
	<g inkscape:groupmode="layer" display="none">
		<text xml:space="preserve" x="16" y="9.5910645" class="typography fg1" style="font-size:11.25px;"><tspan sodipodi:role="line" x="16" y="9.5910645">名実</tspan></text>
		<text xml:space="preserve" x="16" y="31.268543" class="typography fg1" style="font-size:11.25px;"><tspan sodipodi:role="line" x="16" y="31.268543">ともに</tspan></text>
	</g>
	<g inkscape:groupmode="layer" display="inline">
		<path
			d="m 8.2599967,10.389814 q -0.315,0 -0.315,-0.28125 0,-0.10125 0.0225,-0.4949995 0.0225,-0.39375 0.03375,-0.95625 0.0225,-0.5625 0.0225,-1.1475 v -0.43875 q -0.68625,0.25875 -1.395,0.4725 -0.70875,0.2025 -1.44,0.37125 -0.09,-0.05625 -0.09,-0.135 0,-0.045 0.03375,-0.09 1.11375,-0.39375 2.25,-0.9675 1.13625,-0.585 2.1375,-1.40625 -0.18,-0.0225 -0.32625,-0.135 -0.135,-0.1125 -0.14625,-0.3375 -0.01125,-0.36 -0.10125,-0.73125 -0.09,-0.3825 -0.2925,-0.66375 -0.66375,0.6075 -1.45125,1.11375 -0.77625,0.495 -1.65375,0.9225 -0.1575,-0.05625 -0.10125,-0.21375 0.7875,-0.54 1.4625,-1.27125 0.68625,-0.73125 1.20375,-1.56375 0.52875,-0.8325 0.82125,-1.65375005 0.05625,-0.18 0.0675,-0.28125 0.01125,-0.1125 0.0225,-0.16875 0,-0.0675 0.03375,-0.10125 0.0225,-0.03375 0.10125,-0.01125 0.01125,0 0.01125,0 0.21375,0.03375 0.57375,0.12375 0.3600003,0.09 0.6975003,0.19125 0.3375,0.10125 0.48375,0.16875 0.09,0.03375 0.09,0.135 0,0.07875 -0.045,0.135 -0.045,0.0562501 -0.12375,0.0562501 -0.14625,0 -0.225,0.0225 -0.07875,0.0225 -0.16875,0.16875 -0.05625,0.1125 -0.135,0.225 -0.0675,0.10125 -0.135,0.21375 h 2.08125 q 0.10125,0 0.14625,-0.07875 l 0.28125,-0.405 q 0.045,-0.07875 0.135,-0.07875 0.05625,0 0.2475,0.10125 0.2025,0.09 0.45,0.23625 0.25875,0.135 0.495,0.28125 0.23625,0.14625 0.37125,0.23625 0.09,0.0675 0.09,0.19125 0,0.03375 -0.0225,0.10125 -0.05625,0.1575 -0.19125,0.1575 -0.315,0 -0.43875,0.07875 -0.1125,0.07875 -0.27,0.30375 -0.81,1.2375 -1.845,2.12625 -1.02375,0.8775 -2.2050003,1.49625 h 3.4987503 q 0.135,0 0.2025,-0.1125 l 0.225,-0.37125 q 0.05625,-0.10125 0.135,-0.10125 0.0225,0 0.045,0.01125 0.03375,0 0.0675,0.01125 0.1575,0.05625 0.37125,0.1575 0.225,0.10125 0.43875,0.21375 0.225,0.1125 0.36,0.2025 0.135,0.0675 0.135,0.21375 0,0.1575 -0.16875,0.225 -0.045,0.0225 -0.09,0.045 -0.045,0.0225 -0.0675,0.045 -0.135,0.12375 -0.135,0.4275 0,0.61875 0.01125,1.15875 0.0225,0.54 0.03375,0.88875 0.0225,0.3375 0.0225,0.39375 0,0.2024995 -0.36,0.3262495 -0.34875,0.12375 -0.765,0.12375 -0.315,0 -0.315,-0.3037495 v -0.32625 H 9.3399967 v 0.32625 q 0,0.2024995 -0.34875,0.3149995 -0.3375,0.1125 -0.73125,0.1125 z M 13.153747,6.7448145 H 9.3399967 v 2.5425 h 3.8137503 z m -2.64375,-2.32875 q 0.50625,-0.52875 0.945,-1.125 0.43875,-0.6075 0.77625,-1.29375 H 9.9474967 q -0.21375,0.2925 -0.45,0.57375 -0.23625,0.27 -0.495,0.52875 0.70875,0.1575 1.1025003,0.495 0.405,0.3375 0.405,0.82125 z M 16.63,10.401064 q -0.07875,-0.045 -0.07875,-0.135 0,-0.05625 0.03375,-0.09 1.20375,-0.2474995 2.0025,-0.6524995 0.81,-0.41625 1.2825,-1.02375 0.4725,-0.61875 0.68625,-1.47375 h -2.6325 q 0,0 -0.18,0 -0.18,0 -0.46125,0.01125 -0.28125,0.01125 -0.57375,0.045 l -0.135,-0.48375 q 0.5625,0.0675 0.95625,0.07875 0.39375,0.01125 0.39375,0.01125 H 20.635 q 0.05625,-0.25875 0.07875,-0.52875 0.03375,-0.28125 0.045,-0.57375 h -1.3275 q 0,0 -0.19125,0 -0.18,0 -0.46125,0.01125 -0.28125,0.01125 -0.57375,0.045 l -0.135,-0.48375 q 0.55125,0.0675 0.95625,0.07875 0.405,0.01125 0.405,0.01125 h 1.35 v -1.125 q -0.27,0 -0.5175,0 -0.23625,0 -0.43875,0 -0.315,0 -0.5175,0 -0.19125,0 -0.225,0 0,0 -0.19125,0 -0.18,0 -0.46125,0.01125 -0.28125,0.01125 -0.57375,0.045 l -0.135,-0.48375 q 0.55125,0.0675 0.945,0.07875 0.405,0.01125 0.405,0.01125 H 20.77 q -0.01125,-1.02375 -0.1575,-1.33875 -0.03375,-0.0675 -0.01125,-0.135 0.03375,-0.0675 0.12375,-0.0675 0.12375,0 0.36,0.0225 0.23625,0.0225 0.50625,0.05625 0.28125,0.03375 0.5175,0.07875 0.23625,0.03375 0.34875,0.05625 0.135,0.045 0.135,0.16875 0,0.19125 -0.18,0.21375 -0.225,0.03375 -0.225,0.23625 v 0.70875 h 1.36125 q 0.16875,0 0.27,-0.1125 0.07875,-0.09 0.225,-0.28125 0.14625,-0.2025 0.2025,-0.28125 0.0225,-0.0225 0.045,-0.045 0.0225,-0.0225 0.03375,-0.03375 0.045,-0.1125 0.1125,-0.2925 0.0675,-0.19125 0.135,-0.37125 0.0675,-0.19125 0.10125,-0.2925 h -6.3 q 0.05625,0.66375 -0.2475,1.11375 -0.2925,0.43875 -0.82125,0.43875 -0.3825,0 -0.5625,-0.21375 -0.18,-0.21375 -0.18,-0.4725 0,-0.19125 0.07875,-0.36 0.09,-0.16875 0.2475,-0.25875 0.4275,-0.25875 0.66375,-0.52875 0.23625,-0.28125 0.27,-0.7875 0.05625,-0.07875 0.135,-0.07875 0.05625,0 0.09,0.03375 0.19125,0.40500005 0.27,0.77625005 h 2.48625 v -0.70875 q 0,-0.48375005 -0.07875,-0.59625005 -0.03375,-0.09 -0.01125,-0.14625 0.045,-0.0675 0.12375,-0.0675 0.12375,0 0.34875,0.0225 0.23625,0.0225 0.495,0.05625 0.27,0.0225 0.495,0.05625 0.23625,0.03375 0.34875,0.05625 0.135,0.045 0.135,0.18 0,0.18 -0.18,0.2025 -0.225,0.03375 -0.225,0.24750005 v 0.6975 h 2.295 q 0.14625,0 0.19125,-0.10125 0.05625,-0.09 0.12375,-0.21375 0.0675,-0.12375 0.10125,-0.2025 0.0675,-0.1125 0.14625,-0.1125 0.07875,0 0.135,0.045 0.16875,0.09 0.4275,0.27 0.27,0.16875 0.52875,0.36 0.25875,0.18 0.405,0.315 0.10125,0.07875 0.10125,0.23625 0,0.045 -0.0225,0.1125 -0.10125,0.14625 -0.28125,0.14625 H 26.1025 q -0.315,0 -0.6525,0.10125 -0.32625,0.10125 -0.7875,0.4275 0.23625,0.135 0.495,0.34875 0.27,0.21375 0.39375,0.37125 0.05625,0.07875 0.05625,0.135 0,0.14625 -0.12375,0.14625 H 22.1875 v 1.125 h 1.33875 q 0.10125,0 0.1575,-0.01125 0.0675,-0.0225 0.1125,-0.10125 0.07875,-0.1125 0.19125,-0.2925 0.12375,-0.18 0.19125,-0.27 0.0675,-0.09 0.1575,-0.09 0.045,0 0.1125,0.03375 0.225,0.1125 0.5175,0.36 0.30375,0.23625 0.45,0.4275 0.045,0.05625 0.045,0.135 0,0.14625 -0.12375,0.14625 H 22.165 q -0.03375,0.59625 -0.135,1.1025 h 2.52 q 0.10125,0 0.1575,-0.01125 0.05625,-0.0225 0.10125,-0.10125 0.05625,-0.0675 0.14625,-0.19125 0.10125,-0.12375 0.19125,-0.2475 0.10125,-0.135 0.135,-0.19125 0.0675,-0.07875 0.1575,-0.07875 0.045,0 0.1125,0.0225 0.1575,0.0675 0.37125,0.225 0.225,0.1575 0.4275,0.3375 0.2025,0.16875 0.2925,0.2925 0.05625,0.07875 0.05625,0.135 0,0.14625 -0.135,0.14625 h -4.2975 q 0.3375,0.68625 1.02375,1.06875 0.68625,0.3825 1.60875,0.54 0.9225,0.1575 1.9575,0.19125 -0.36,0.30375 -0.61875,0.75375 -0.25875,0.4499995 -0.315,0.8099995 -1.58625,-0.16875 -2.62125,-1.0349995 -1.035,-0.86625 -1.3275,-2.32875 h -0.0225 q -0.315,1.22625 -1.04625,1.92375 -0.72,0.6975 -1.8,1.02375 -1.08,0.3262495 -2.475,0.4274995 z"
			class="typography fg1"
			style="font-size:11.25px;"
			aria-label="名実"
		/>
		<path
			d="m 4.67125,31.617293 q -0.8775,0 -1.56375,-0.2475 -0.675,-0.2475 -1.06875,-0.7425 -0.39375,-0.495 -0.39375,-1.2375 0,-0.66375 0.55125,-1.29375 0.5625,-0.64125 1.5525,-1.2375 -0.37125,-0.46125 -0.37125,-1.7325 v -1.89 q 0,-0.66375 -0.27,-0.8775 -0.01125,-0.0225 -0.01125,-0.05625 0,-0.12375 0.1125,-0.1575 0.27,0.01125 0.54,0.10125 0.27,0.07875 0.52875,0.2925 0.3375,0.25875 0.3375,0.66375 0,0.18 -0.0675,0.3825 -0.10125,0.25875 -0.16875,0.64125 -0.0675,0.37125 -0.0675,0.9675 0,1.04625 0.10125,1.29375 0.36,-0.19125 0.765,-0.3825 0.41625,-0.19125 0.855,-0.37125 0.1125,-0.05625 0.25875,-0.09 0.14625,-0.03375 0.2925,-0.03375 0.12375,0 0.25875,0.03375 0.135,0.03375 0.25875,0.12375 0.1575,0.10125 0.225,0.23625 0.0675,0.12375 0.0675,0.2475 0,0.19125 -0.1575,0.36 -0.1575,0.1575 -0.4275,0.2025 -1.29375,0.23625 -2.23875,0.6075 -0.945,0.37125 -1.4625,0.855 -0.5175,0.48375 -0.5175,1.06875 0,1.125 1.90125,1.125 0.68625,0 1.2825,-0.10125 0.6075,-0.1125 1.1025,-0.2925 0.12375,-0.03375 0.225,-0.03375 0.19125,0 0.3825,0.07875 0.4275,0.21375 0.4275,0.6075 0,0.19125 -0.14625,0.37125 -0.135,0.16875 -0.43875,0.25875 -0.30375,0.07875 -0.77625,0.135 -0.46125,0.0675 -0.9675,0.09 -0.495,0.03375 -0.91125,0.03375 z m 11.835,0.2475 q -0.59625,0 -1.125,-0.23625 -0.5175,-0.23625 -0.855,-0.73125 -0.3375,-0.495 -0.36,-1.27125 -0.01125,-0.225 0,-0.4725 0.01125,-0.2475 0.0225,-0.495 -0.63,-0.2475 -0.9,-0.68625 -0.27,-0.43875 -0.25875,-0.99 0.01125,-0.41625 0.23625,-0.72 0.225,-0.315 0.585,-0.5175 0.36,-0.21375 0.7425,-0.2925 v -0.0675 q -0.55125,-0.12375 -0.855,-0.48375 -0.2925,-0.37125 -0.315,-0.855 0.07875,-0.14625 0.21375,-0.0675 0.12375,0.18 0.39375,0.28125 0.27,0.10125 0.7425,0.135 l 0.1125,-0.68625 q 0.0225,-0.1575 0.03375,-0.30375 0.01125,-0.14625 0.01125,-0.2925 0,-0.28125 -0.045,-0.50625 -0.045,-0.23625 -0.135,-0.37125 0,-0.07875 0.045,-0.12375 0.05625,-0.045 0.12375,-0.03375 0.48375,0.18 0.7875,0.55125 0.30375,0.37125 0.30375,0.855 0,0.2025 -0.045,0.43875 -0.045,0.23625 -0.1125,0.5175 0.2925,0.07875 0.4725,0.25875 0.30375,0.28125 0.30375,0.59625 0,0.18 -0.14625,0.315 -0.135,0.12375 -0.45,0.12375 -0.09,0 -0.2025,-0.01125 -0.1125,-0.0225 -0.23625,-0.045 -0.01125,-0.01125 -0.03375,-0.01125 -0.01125,0 -0.03375,-0.01125 -0.12375,0.45 -0.23625,0.95625 -0.1125,0.50625 -0.19125,1.08 0.135,0 0.28125,0 0.1575,-0.01125 0.315,-0.0225 0.05625,-0.01125 0.1125,-0.01125 0.05625,0 0.10125,0 0.1575,0 0.28125,0.045 0.135,0.045 0.25875,0.16875 0.2025,0.21375 0.2025,0.4725 0,0.225 -0.16875,0.39375 -0.16875,0.16875 -0.495,0.18 -0.27,0 -0.5175,-0.01125 -0.2475,-0.01125 -0.4725,-0.045 v 0.70875 q 0.0225,0.4725 0.21375,0.765 0.2025,0.28125 0.50625,0.405 0.315,0.12375 0.66375,0.12375 0.48375,0 0.8775,-0.1575 0.405,-0.16875 0.6525,-0.54 0.2475,-0.37125 0.2475,-0.97875 0,-0.66375 -0.32625,-1.2825 -0.315,-0.63 -1.0125,-1.18125 v -0.0225 q 0,-0.1575 0.135,-0.1575 1.18125,0.585 1.755,1.27125 0.57375,0.675 0.57375,1.5975 0,0.66375 -0.3375,1.22625 -0.3375,0.5625 -0.95625,0.88875 -0.61875,0.3375 -1.485,0.3375 z m -2.2275,-4.275 q 0.05625,-0.46125 0.1125,-0.91125 0.0675,-0.46125 0.14625,-0.9 -0.3825,0.14625 -0.66375,0.4275 -0.27,0.28125 -0.27,0.64125 0,0.28125 0.18,0.4725 0.18,0.18 0.495,0.27 z m 10.44,3.38625 q -0.135,0.0675 -0.28125,0.0675 -0.1575,0 -0.315,-0.0675 -0.1575,-0.07875 -0.25875,-0.21375 -0.32625,-0.405 -0.495,-1.06875 -0.1575,-0.675 -0.1575,-1.72125 0,-0.79875 0.135,-1.44 0.14625,-0.64125 0.28125,-1.20375 0.14625,-0.57375 0.14625,-1.17 0,-0.225 -0.01125,-0.495 -0.01125,-0.27 -0.0675,-0.41625 0.045,-0.16875 0.18,-0.12375 0.39375,0.28125 0.66375,0.66375 0.28125,0.37125 0.28125,0.9 0,0.45 -0.135,0.81 -0.12375,0.36 -0.2925,0.70875 -0.16875,0.3375 -0.30375,0.7425 -0.12375,0.405 -0.12375,0.9675 0,0.2475 0.01125,0.48375 0.0225,0.225 0.05625,0.3825 0.0225,0.10125 0.10125,0.10125 0.07875,0 0.1125,-0.10125 0.0675,-0.18 0.18,-0.45 0.1125,-0.28125 0.23625,-0.57375 0.135,-0.30375 0.23625,-0.52875 0.045,-0.0225 0.0675,-0.0225 0.09,0 0.135,0.10125 -0.0225,0.10125 -0.09,0.41625 -0.05625,0.315 -0.12375,0.6975 -0.05625,0.3825 -0.09,0.70875 -0.01125,0.05625 -0.01125,0.1125 0,0.05625 0,0.1125 0,0.225 0.045,0.41625 0.045,0.18 0.12375,0.3825 0.0675,0.14625 0.0675,0.315 0,0.14625 -0.07875,0.28125 -0.0675,0.135 -0.225,0.225 z m 4.0275,-0.495 q -1.09125,0 -1.65375,-0.4275 -0.5625,-0.4275 -0.72,-1.44 0.07875,-0.135 0.21375,-0.05625 0.1575,0.34875 0.675,0.5625 0.52875,0.2025 1.17,0.2025 0.945,0 1.8225,-0.23625 0.09,-0.0225 0.18,-0.03375 0.09,-0.0225 0.16875,-0.0225 0.28125,0 0.52875,0.18 0.135,0.09 0.19125,0.225 0.0675,0.12375 0.0675,0.2475 0,0.18 -0.135,0.34875 -0.135,0.16875 -0.41625,0.2475 -0.4725,0.12375 -0.9675,0.16875 -0.495,0.03375 -1.125,0.03375 z m -0.2025,-5.20875 q -0.68625,0 -1.1025,-0.25875 -0.41625,-0.27 -0.70875,-0.7425 0,-0.16875 0.14625,-0.16875 0.19125,0.07875 0.43875,0.1125 0.2475,0.03375 0.52875,0.03375 0.48375,0 1.0125,-0.09 0.52875,-0.10125 0.9675,-0.2475 0.12375,-0.03375 0.2475,-0.03375 0.14625,0 0.2925,0.05625 0.14625,0.05625 0.28125,0.2025 0.2025,0.21375 0.2025,0.39375 0,0.30375 -0.50625,0.48375 -0.37125,0.12375 -0.84375,0.19125 -0.46125,0.05625 -0.95625,0.0675 z"
			class="typography fg1"
			style="font-size:11.25px;"
			aria-label="ともに"
		/>
	</g>
	<g inkscape:groupmode="layer" display="none">
		<text xml:space="preserve" x="16" y="21.715" class="typography fg2" style="font-size:15px;"><tspan sodipodi:role="line" x="16" y="21.715">退勤</tspan></text>
	</g>
	<g inkscape:groupmode="layer" display="inline">
		<g>
			<path
				d="M 6.9648437,8.3496094 C 6.906296,8.3449391 6.8440696,8.3450852 6.7792969,8.3515625 6.52063,8.3774292 6.3152699,8.4776988 6.1367187,8.65625 5.7253838,9.0675849 5.7934044,9.4622443 5.8925781,9.7597656 l -0.00586,-0.017578 c 0.019469,0.062302 0.039758,0.1842821 0.056641,0.3808595 C 5.6767268,9.7939208 5.3543208,9.5298955 4.9707031,9.3300781 l -0.011719,-0.00586 C 4.591839,9.1296274 4.1997632,8.9796601 3.7851563,8.8730469 3.3975822,8.773385 3.0231819,8.7033372 2.6621094,8.6582031 L 2.4648438,8.6328125 2.2734375,8.6914063 C 1.8062593,8.8315597 1.4492187,9.2526076 1.4492187,9.7890625 c 10e-8,0.106437 0.018411,0.3200245 0.1152344,0.5136715 l 0.1113281,0.222657 0.2050782,0.138672 c 0.295295,0.199152 0.4653023,0.415884 0.5546875,0.636718 l 0.00391,0.01172 0.00586,0.01172 c 0.1483777,0.337971 0.2687621,0.729476 0.3574219,1.18164 l -0.00586,-0.03516 c 0.064579,0.408998 0.265164,0.791803 0.6386719,1.058594 l 0.011719,0.0078 0.013672,0.0098 c 0.080644,0.05376 0.1660303,0.09742 0.2539063,0.138672 C 3.4768601,13.766358 3.2650822,13.926259 3.125,14.150391 L 3.03125,14.289063 H 2.9199219 l -0.3359375,-0.01172 c -0.187424,-0.0078 -0.4446519,-0.03732 -0.7832032,-0.09375 L 0.3359375,13.939453 1.1367187,16.8125 1.9570312,16.695312 c 0.2489645,-0.03557 0.4523426,-0.05078 0.6171876,-0.05078 H 2.59375 l 0.1152344,-0.0059 v 2.832031 l -1.125,0.294922 0.054687,-0.01172 C 1.2995939,19.821722 1.0388811,20.006222 0.875,20.333984 l -0.0292969,0.05859 -0.0214844,0.06445 c -0.0768795,0.230639 -0.0545533,0.473462 -0.0351563,0.589844 l 0.0175781,0.111328 0.0449219,0.105469 c 0.0734989,0.171497 0.182484,0.388941 0.3164062,0.646484 l 0.00977,0.02148 0.011719,0.01953 c 0.1427449,0.244705 0.2864078,0.485315 0.4296875,0.720703 0.1379029,0.226555 0.2383863,0.396106 0.3046875,0.509766 l -0.029297,-0.05469 c 0.1965316,0.393063 0.590393,0.613281 0.9960938,0.613281 0.2396117,0 0.4241803,-0.08514 0.5117188,-0.128906 0.382952,-0.191476 0.5617008,-0.509593 0.6191406,-0.828125 0.1153422,-0.119117 0.2420607,-0.251282 0.4199218,-0.445312 0.1262998,-0.137782 0.2656618,-0.294482 0.4003907,-0.44336 0.00284,0.0038 0.00496,0.0079 0.00781,0.01172 l 0.00391,0.0059 0.00391,0.0039 c 0.3758884,0.487262 0.8784166,0.866263 1.4785156,1.160156 0.6608208,0.317194 1.4562668,0.455078 2.328125,0.455078 h 6.9277345 l 0.07422,-0.863281 c 0.01435,-0.165076 0.04765,-0.352926 0.103515,-0.5625 9.11e-4,-0.0034 0.001,-0.0063 0.002,-0.0098 0.06122,-0.194159 0.131881,-0.374263 0.210938,-0.542969 l 0.0039,-0.0059 c 0.09679,-0.184436 0.16766,-0.281801 0.201172,-0.318359 l 1.755859,-1.916016 -2.492187,0.328125 c 0.01578,-0.10643 0.02344,-0.214552 0.02344,-0.326172 0,-0.188695 -0.02565,-0.375773 -0.06641,-0.556641 l -0.0039,-0.01367 c -0.05065,-0.229304 -0.136591,-0.447739 -0.251953,-0.654297 -0.0043,-0.0076 -0.0074,-0.01586 -0.01172,-0.02344 -0.183424,-0.372541 -0.458631,-0.699759 -0.785156,-0.988281 l 0.210937,-0.107422 0.01172,-0.0059 c 0.02166,-0.01181 0.0395,-0.02011 0.04297,-0.02148 0.08156,-0.01451 0.158282,-0.02618 0.228515,-0.0332 l 0.04687,-0.0039 0.04492,-0.0098 c 0.07387,-0.01477 0.138472,-0.0312 0.177735,-0.04102 0.508305,-0.127077 0.668073,-0.451486 0.757812,-0.720703 l 0.01172,-0.03516 0.0078,-0.03516 c 0.1139,-0.4556 -0.01118,-1.006072 -0.539062,-1.304687 -0.146123,-0.08798 -0.335702,-0.184197 -0.548828,-0.285157 -0.003,-0.158678 -0.0081,-0.349481 -0.02344,-0.630859 l -0.002,-0.02734 c -0.01014,-0.369708 -0.0252,-0.784531 -0.04492,-1.248047 -0.0171,-0.40183 -0.02349,-0.803749 -0.02539,-1.207031 C 15.027866,11.141735 15.25,10.783898 15.25,10.345703 15.25,9.8749967 15.038666,9.5411289 14.695313,9.3007813 l -0.01563,-0.011719 -0.01758,-0.011719 C 14.506438,9.17828 14.306962,9.0816134 14.097656,8.9902344 l -0.04883,-0.023437 C 13.838729,8.8634238 13.621521,8.7673689 13.396484,8.6816406 13.183857,8.5918621 12.978024,8.5168655 12.789063,8.4648438 c -0.148489,-0.044093 -0.30919,-0.054687 -0.388672,-0.054687 -0.50836,-1e-7 -0.839701,0.30314 -1.011719,0.6445312 H 8.9160156 C 8.6918167,8.9518373 8.4475038,8.8494968 8.1757813,8.7480469 l -0.023437,-0.00977 C 7.8175886,8.6048783 7.5250238,8.4996319 7.2753906,8.421875 c -0.00254,-7.912e-4 -0.00528,-0.00312 -0.00781,-0.00391 -0.00887,-0.00334 -0.019987,-0.00653 -0.029297,-0.00977 -0.00186,-6.476e-4 -0.00398,-0.00131 -0.00586,-0.00195 h -0.00195 C 7.1537343,8.3801328 7.0662453,8.357698 6.9648437,8.3496094 Z M 5.9941406,13.154297 v 1.234375 c -0.096646,-0.0531 -0.2013211,-0.108473 -0.3125,-0.164063 -0.2104552,-0.105227 -0.4201021,-0.205061 -0.6328125,-0.300781 -0.082939,-0.03732 -0.1612732,-0.06942 -0.2382812,-0.101562 0.375211,-0.06859 0.700627,-0.241734 0.9941406,-0.486328 0.069721,-0.0581 0.1313482,-0.119849 0.1894531,-0.181641 z m 5.4179684,6.224609 c 0.05881,0.076 0.117468,0.151564 0.173829,0.230469 l 0.0059,0.0078 0.0039,0.0059 c 0.07091,0.09574 0.138356,0.194373 0.205078,0.292969 -0.240177,0.01038 -0.475134,0.02265 -0.724609,0.03125 l 0.01172,-0.002 c -0.413539,0.0095 -0.825197,0.01865 -1.2363285,0.02344 C 10.249166,19.811028 10.634737,19.660976 11,19.527344 l 0.0059,-0.002 0.0059,-0.002 c 0.166047,-0.06326 0.261093,-0.09346 0.40039,-0.144531 z"
				class="typography fg2-outline"
				style="font-size:15px"
				sodipodi:nodetypes="csccccsccsccscccsccssccccscccsscsccccscccccccscccsscccccccsscsscscccccccccccccccsscssscscscssscscsccccsccccsscsscccccccscccccssccccccsccccscscssssccccc"
			/>
			<path
				d="m 25.615234,8.2597656 c -0.342427,0 -0.717302,0.1271447 -0.960937,0.5332032 l -0.01758,0.03125 -0.01758,0.033203 c -0.05916,0.1183282 -0.08831,0.2334578 -0.101563,0.34375 -0.0129,-0.0064 -0.02767,-0.011507 -0.04102,-0.017578 L 24.4375,9.1679688 c -0.184417,-0.08226 -0.361569,-0.097656 -0.457031,-0.097656 -0.01582,0 -0.02953,0.00334 -0.04492,0.00391 C 23.790094,8.8668633 23.578533,8.7077395 23.322266,8.6308594 l -0.02148,-0.00781 -0.02148,-0.00391 C 23.118996,8.5790654 22.866604,8.5389144 22.607422,8.5078125 22.369531,8.4692268 22.131114,8.4388167 21.892578,8.4179688 l -0.03906,-0.00391 c -0.239485,-0.029032 -0.458481,-0.048828 -0.632813,-0.048828 -0.223416,0 -0.5011,0.076849 -0.722656,0.265625 -0.05014,-0.012942 -0.101355,-0.024245 -0.150391,-0.03125 -0.146109,-0.031028 -0.329423,-0.06081 -0.53125,-0.085937 l -0.04297,-0.00586 C 19.534831,8.4691375 19.29487,8.438774 19.056641,8.4179688 l -0.03906,-0.00391 c -0.239485,-0.029032 -0.458481,-0.048828 -0.632812,-0.048828 -0.342428,0 -0.814856,0.1758118 -1.011719,0.6679687 -0.147131,0.3364484 -0.09596,0.6640001 0.03516,0.9199219 1.2e-5,2.516e-4 -1.29e-4,0.067729 0,0.072266 -0.185435,-0.01256 -0.384351,-0.028279 -0.609375,-0.050782 l -1.376953,-0.1386719 0.75,2.6796875 0.07031,-0.0059 c -0.141849,0.268912 -0.165522,0.58937 -0.07422,0.863281 l 0.0098,0.02539 0.0098,0.02734 c 0,0 0.0034,0.0327 0.0098,0.171875 0.0093,0.203817 0.01172,0.509895 0.01172,0.947266 0,0.230352 -0.0023,0.473366 -0.01172,0.728516 -0.0098,0.255327 -0.02135,0.487408 -0.03125,0.695312 -0.0043,0.08686 -0.0035,0.122809 -0.0059,0.191406 l -0.667968,-0.06641 0.4375,1.597656 -0.132813,-0.01367 0.570312,2.042969 c -0.05189,0.02631 -0.103396,0.0589 -0.154296,0.09766 -0.415749,0.311812 -0.500554,0.815153 -0.341797,1.220703 9.69e-4,0.0025 9.65e-4,0.0053 0.002,0.0078 0.05298,0.158953 0.131494,0.36567 0.230469,0.599609 l 0.0039,0.0078 0.002,0.0059 c 0.116173,0.264031 0.238283,0.523442 0.365234,0.777344 0.113676,0.237033 0.195132,0.408585 0.240235,0.507812 l 0.0059,0.01563 0.0078,0.01563 c 0.179291,0.358584 0.530771,0.613282 0.982421,0.613282 0.09617,0 0.275057,-0.0157 0.460938,-0.09961 0.229281,-0.101664 0.448185,-0.296488 0.572266,-0.55664 0.169355,-0.05682 0.338682,-0.113307 0.599609,-0.195313 0.341651,-0.107376 0.725139,-0.226928 1.146484,-0.351562 -0.09876,0.511806 0.16895,1.019045 0.638672,1.253906 l 0.353516,0.175781 0.375,-0.126953 c 0.772068,-0.264407 1.468533,-0.566814 2.078125,-0.904297 0.443255,-0.241068 0.849941,-0.516397 1.224609,-0.822265 0.107403,0.04769 0.184633,0.09013 0.238281,0.125 l 0.02344,0.01367 0.01953,0.01172 c 0.02708,0.0981 0.05273,0.296524 0.05273,0.666016 v 0.982422 l 0.982421,-0.03906 c 0.5937,-0.02283 1.145351,-0.115125 1.638672,-0.296875 0.568843,-0.198948 1.01722,-0.541917 1.382813,-1.029297 l 0.0098,-0.01367 c 0.36191,-0.474429 0.624264,-1.099725 0.800782,-1.791015 l 0.002,-0.0098 c 0.187811,-0.710345 0.318864,-1.587864 0.40039,-2.607422 0.0889,-0.99767 0.143813,-2.205883 0.166016,-3.605468 0.283019,-0.183584 0.529297,-0.478055 0.529297,-0.964844 0,-0.429103 -0.201951,-0.746982 -0.509766,-0.966797 -0.156233,-0.109363 -0.361542,-0.220496 -0.572265,-0.320312 -0.193023,-0.09143 -0.392373,-0.179803 -0.59961,-0.263672 l -0.02539,-0.0098 c -0.206595,-0.09214 -0.410616,-0.172805 -0.578125,-0.224609 -0.284573,-0.09035 -0.602294,-0.08122 -0.88086,0.05273 V 10.646484 C 28.563675,10.425737 28.75,10.058326 28.75,9.6542969 28.75,9.0434693 28.373662,8.681098 27.888672,8.5488281 l -0.0098,-0.00195 -0.0098,-0.00195 c -0.155761,-0.03894 -0.408969,-0.084665 -0.691407,-0.125 -0.281689,-0.041732 -0.569542,-0.078329 -0.859375,-0.109375 -0.27831,-0.030923 -0.536972,-0.050781 -0.703125,-0.050781 z M 18.171875,23.490234 c -0.01841,0.0082 -0.03621,0.01846 -0.05469,0.02539 l 0.08984,-0.03906 c -0.01185,0.0059 -0.02334,0.0083 -0.03516,0.01367 z"
				class="typography fg2-outline"
				style="font-size:15px"
				sodipodi:nodetypes="ccsccccsccscscccccccccccccscccccccccccsccccssssccsscsccscscccsccsccsssscccscssccscccscccsscccscccccsccsscccscccscssccscccccscscscccccccscsscccsssccscccsccssccscccscscsccsccscccscscscccsccsccssccscssccscsscsccccsccscccccccccccccsccccssc"
			/>
		</g>
		<g>
			<path
				d="m 6.8949957,20.545 c -0.04,0.02 -0.075,0.03 -0.105,0.03 -0.06,0 -0.105,-0.03 -0.135,-0.09 -0.08,-0.11 -0.19,-0.28 -0.33,-0.51 -0.14,-0.24 -0.28,-0.485 -0.42,-0.735 -0.13,-0.25 -0.23,-0.45 -0.3,-0.6 -0.02,-0.06 -0.02,-0.1 0,-0.12 0.02,-0.02 0.055,-0.035 0.105,-0.045 l 1.23,-0.105 v -7.005 c 0,-0.53 -0.015,-0.94 -0.045,-1.23 -0.02,-0.2899999 -0.055,-0.5149998 -0.105,-0.6749998 -0.02,-0.06 -0.015,-0.105 0.015,-0.135 0.04,-0.04 0.09,-0.045 0.15,-0.015 0.23,0.07 0.52,0.175 0.87,0.315 0.35,0.13 0.645,0.2549999 0.885,0.3749998 h 3.1200003 c 0.1,0 0.17,-0.04 0.21,-0.1199998 0.03,-0.05 0.06,-0.115 0.09,-0.195 l 0.105,-0.21 c 0.04,-0.08 0.095,-0.12 0.165,-0.12 0.05,0 0.09,0.005 0.12,0.015 0.15,0.04 0.33,0.105 0.54,0.195 0.21,0.08 0.415,0.17 0.615,0.27 0.21,0.09 0.37,0.1699998 0.48,0.2399998 0.1,0.07 0.15,0.16 0.15,0.27 0,0.12 -0.06,0.21 -0.18,0.27 l -0.165,0.105 c -0.07,0.05 -0.12,0.11 -0.15,0.18 -0.03,0.06 -0.045,0.16 -0.045,0.3 0,0.47 0.01,0.94 0.03,1.41 0.02,0.47 0.035,0.89 0.045,1.26 0.02,0.36 0.03,0.61 0.03,0.75 0,0.12 -0.1,0.23 -0.3,0.33 0.24,0.1 0.485,0.21 0.735,0.33 0.26,0.12 0.455,0.22 0.585,0.3 0.09,0.05 0.12,0.135 0.09,0.255 -0.02,0.06 -0.05,0.095 -0.09,0.105 -0.04,0.01 -0.085,0.02 -0.135,0.03 -0.1,0.01 -0.205,0.025 -0.315,0.045 -0.1,0.02 -0.205,0.06 -0.315,0.12 l -1.62,0.825 c 0.43,0.22 0.805,0.465 1.125,0.735 0.33,0.27 0.56,0.55 0.69,0.84 0.08,0.14 0.135,0.28 0.165,0.42 0.03,0.13 0.045,0.25 0.045,0.36 0,0.23 -0.06,0.43 -0.18,0.6 -0.11,0.16 -0.26,0.28 -0.45,0.36 -0.04,0.01 -0.085,0.025 -0.135,0.045 -0.05,0.01 -0.1,0.015 -0.15,0.015 -0.3,0 -0.535,-0.145 -0.705,-0.435 -0.17,-0.29 -0.355,-0.57 -0.555,-0.84 -0.2,-0.28 -0.415,-0.545 -0.645,-0.795 -0.27,0.09 -0.615,0.215 -1.035,0.375 -0.41,0.15 -0.8400001,0.315 -1.2900003,0.495 -0.45,0.17 -0.87,0.335 -1.26,0.495 -0.38,0.15 -0.67,0.27 -0.87,0.36 -0.1,0.05 -0.17,0.1 -0.21,0.15 -0.03,0.04 -0.045,0.095 -0.045,0.165 v 0.075 c 0,0.09 -0.035,0.145 -0.105,0.165 z m -3.915,2.22 c -0.04,0.02 -0.07,0.03 -0.09,0.03 -0.07,0 -0.12,-0.03 -0.15,-0.09 -0.07,-0.12 -0.175,-0.295 -0.315,-0.525 -0.14,-0.23 -0.28,-0.465 -0.42,-0.705 -0.13,-0.25 -0.225,-0.445 -0.285,-0.585 -0.01,-0.06 -0.01,-0.105 0,-0.135 0.02,-0.04 0.055,-0.065 0.105,-0.075 l 1.83,-0.48 v -4.515 h -0.105 -0.12 -0.27 c -0.09,-0.01 -0.17,-0.01 -0.24,0 l -0.345,0.015 c -0.22,0 -0.47,0.02 -0.75,0.06 l -0.18,-0.645 c 0.36,0.06 0.66,0.095 0.9,0.105 l 0.375,0.015 h 0.51 c 0.07,0 0.125,-0.03 0.165,-0.09 l 0.33,-0.495 c 0.05,-0.08 0.135,-0.1 0.255,-0.06 0.12,0.04 0.28,0.105 0.48,0.195 0.2,0.09 0.4,0.185 0.6,0.285 0.2,0.1 0.355,0.185 0.465,0.255 0.09,0.06 0.135,0.145 0.135,0.255 0,0.12 -0.06,0.205 -0.18,0.255 -0.03,0.01 -0.055,0.02 -0.075,0.03 -0.02,0.01 -0.04,0.025 -0.06,0.045 -0.13,0.08 -0.195,0.22 -0.195,0.42 v 3.315 c 0,0.28 0.095,0.515 0.285,0.705 0.19,0.19 0.515,0.335 0.975,0.435 0.46,0.09 1.095,0.135 1.905,0.135 0.86,0 1.7250003,-0.01 2.5950003,-0.03 0.87,-0.03 1.685,-0.07 2.445,-0.12 0.76,-0.05 1.405,-0.11 1.935,-0.18 -0.11,0.12 -0.225,0.295 -0.345,0.525 -0.11,0.23 -0.205,0.475 -0.285,0.735 -0.07,0.26 -0.115,0.505 -0.135,0.735 H 8.6649957 c -0.78,0 -1.42,-0.12 -1.92,-0.36 -0.49,-0.24 -0.87,-0.535 -1.14,-0.885 -0.27,-0.36 -0.45,-0.72 -0.54,-1.08 -0.17,0.18 -0.38,0.405 -0.63,0.675 -0.24,0.27 -0.47,0.525 -0.69,0.765 -0.22,0.24 -0.385,0.415 -0.495,0.525 -0.07,0.07 -0.115,0.125 -0.135,0.165 -0.01,0.05 -0.015,0.1 -0.015,0.15 0,0.11 -0.04,0.185 -0.12,0.225 z M 12.069996,14.65 H 8.6349957 v 3.555 c 0.54,-0.05 1.0600001,-0.095 1.5600003,-0.135 0.51,-0.05 0.92,-0.09 1.23,-0.12 -0.7,-0.73 -1.4550001,-1.355 -2.2650003,-1.875 0,-0.02 -0.005,-0.035 -0.015,-0.045 V 16 c 0,-0.11 0.055,-0.175 0.165,-0.195 0.9300003,0.2 1.8250003,0.5 2.6850003,0.9 0.11,-0.2 0.235,-0.45 0.375,-0.75 0.15,-0.31 0.28,-0.58 0.39,-0.81 -0.05,0 -0.1,0.005 -0.15,0.015 h -0.15 c -0.26,0 -0.39,-0.125 -0.39,-0.375 z m 0,-2.19 H 8.6349957 v 1.74 h 3.4350003 z m -7.6200003,0.45 c -0.16,0 -0.315,-0.05 -0.465,-0.15 -0.14,-0.1 -0.225,-0.245 -0.255,-0.435 -0.1,-0.51 -0.24,-0.97 -0.42,-1.38 -0.17,-0.42 -0.47,-0.775 -0.9,-1.0649998 -0.01,-0.02 -0.015,-0.05 -0.015,-0.09 0,-0.1 0.05,-0.165 0.15,-0.195 0.32,0.04 0.655,0.105 1.005,0.195 0.35,0.09 0.675,0.2149998 0.975,0.3749998 0.31,0.16 0.56,0.37 0.75,0.63 0.19,0.26 0.285,0.58 0.285,0.96 0,0.37 -0.12,0.655 -0.36,0.855 -0.24,0.2 -0.49,0.3 -0.75,0.3 z M 12.069996,10.45 H 8.6349957 v 1.56 h 3.4350003 z"
				class="typography fg2"
				style="font-size:15px"
				aria-label="退"
				sodipodi:nodetypes="csccccsccsccscccsccssccccscccsscsccccscccccccscccsscccccccsscsscscccccccccccccccsscssscscscssscscsccccsccccsscsscccccccscccccssccccccsccccscscssssccccc"
			/>
			<path
				d="m 21.55,22.795 c -0.14,-0.07 -0.175,-0.17 -0.105,-0.3 0.58,-0.28 1.09,-0.595 1.53,-0.945 0.44,-0.35 0.815,-0.75 1.125,-1.2 -0.32,0.1 -0.695,0.215 -1.125,0.345 -0.43,0.12 -0.88,0.25 -1.35,0.39 -0.47,0.13 -0.93,0.26 -1.38,0.39 -0.44,0.13 -0.835,0.25 -1.185,0.36 -0.35,0.11 -0.625,0.2 -0.825,0.27 -0.25,0.09 -0.36,0.2 -0.33,0.33 v 0.045 c 0,0.07 -0.04,0.12 -0.12,0.15 -0.02,0.01 -0.045,0.015 -0.075,0.015 -0.06,0 -0.105,-0.03 -0.135,-0.09 -0.05,-0.11 -0.135,-0.29 -0.255,-0.54 -0.12,-0.24 -0.235,-0.485 -0.345,-0.735 -0.11,-0.26 -0.185,-0.455 -0.225,-0.585 -0.02,-0.05 -0.01,-0.09 0.03,-0.12 0.02,-0.02 0.055,-0.03 0.105,-0.03 l 0.285,-0.03 2.685,-0.24 V 19.3 H 19.48 19.15 18.775 18.58 18.37 c -0.13,0 -0.3,0.005 -0.51,0.015 -0.2,0 -0.405,0.01 -0.615,0.03 L 17.08,18.76 c 0.39,0.04 0.735,0.065 1.035,0.075 h 0.465 1.275 V 17.71 h -1.59 l -0.435,0.015 c -0.28,0 -0.58,0.015 -0.9,0.045 l -0.165,-0.6 c 0.4,0.04 0.75,0.065 1.05,0.075 l 0.45,0.015 h 1.59 V 16.105 H 18.73 v 0.15 c 0,0.15 -0.14,0.27 -0.42,0.36 -0.28,0.09 -0.57,0.135 -0.87,0.135 -0.23,0 -0.345,-0.11 -0.345,-0.33 0,-0.07 0.005,-0.205 0.015,-0.405 0.01,-0.21 0.02,-0.445 0.03,-0.705 0.01,-0.27 0.015,-0.525 0.015,-0.765 0,-0.44 -0.005,-0.77 -0.015,-0.99 -0.01,-0.22 -0.035,-0.38 -0.075,-0.48 -0.02,-0.06 -0.01,-0.11 0.03,-0.15 0.03,-0.03 0.08,-0.035 0.15,-0.015 0.11,0.03 0.265,0.08 0.465,0.15 0.21,0.06 0.42,0.125 0.63,0.195 0.21,0.07 0.375,0.13 0.495,0.18 h 3.495 c 0.08,0 0.14,-0.03 0.18,-0.09 l 0.135,-0.255 c 0.04,-0.08 0.12,-0.105 0.24,-0.075 0.13,0.03 0.29,0.08 0.48,0.15 0.19,0.07 0.375,0.145 0.555,0.225 0.19,0.08 0.34,0.15 0.45,0.21 0.07,0.03 0.105,0.085 0.105,0.165 0,0.06 -0.04,0.115 -0.12,0.165 l -0.09,0.06 c -0.11,0.07 -0.165,0.21 -0.165,0.42 0,0.13 0.005,0.315 0.015,0.555 0.01,0.24 0.02,0.465 0.03,0.675 0.01,0.21 0.015,0.34 0.015,0.39 0,0.1 -0.065,0.185 -0.195,0.255 -0.12,0.07 -0.275,0.125 -0.465,0.165 h 0.015 c 0.18,0.1 0.385,0.245 0.615,0.435 0.23,0.19 0.395,0.35 0.495,0.48 0.04,0.05 0.06,0.105 0.06,0.165 0,0.12 -0.05,0.18 -0.15,0.18 h -3.12 v 1.125 h 0.675 c 0.15,0 0.255,-0.045 0.315,-0.135 0.05,-0.09 0.115,-0.195 0.195,-0.315 0.08,-0.13 0.145,-0.23 0.195,-0.3 0.04,-0.07 0.095,-0.105 0.165,-0.105 0.06,0 0.115,0.02 0.165,0.06 0.17,0.1 0.37,0.245 0.6,0.435 0.24,0.18 0.41,0.34 0.51,0.48 0.04,0.05 0.06,0.105 0.06,0.165 0,0.12 -0.05,0.18 -0.15,0.18 h -2.73 v 0.84 l 3,-0.27 c 0.43,-0.74 0.735,-1.625 0.915,-2.655 0.18,-1.03 0.29,-2.265 0.33,-3.705 h -0.135 l -0.33,0.015 c -0.21,0 -0.49,0.01 -0.84,0.03 l -0.18,-0.585 c 0.46,0.04 0.8,0.065 1.02,0.075 l 0.33,0.015 h 0.15 v -0.72 c 0,-0.76 -0.01,-1.335 -0.03,-1.725 -0.02,-0.39 -0.045,-0.6649999 -0.075,-0.8249998 -0.02,-0.16 -0.05,-0.275 -0.09,-0.345 -0.03,-0.07 -0.035,-0.125 -0.015,-0.165 0.03,-0.05 0.08,-0.075 0.15,-0.075 0.13,0 0.33,0.015 0.6,0.045 0.28,0.03 0.555,0.065 0.825,0.105 0.28,0.04 0.48,0.075 0.6,0.105 0.11,0.03 0.165,0.095 0.165,0.195 0,0.15 -0.07,0.235 -0.21,0.255 -0.2,0.03 -0.3,0.1249998 -0.3,0.2849998 v 2.19 c 0,0.11 -0.005,0.225 -0.015,0.345 v 0.33 h 0.9 c 0.06,0 0.1,-0.005 0.12,-0.015 0.02,-0.02 0.045,-0.05 0.075,-0.09 l 0.195,-0.36 c 0.06,-0.09 0.15,-0.115 0.27,-0.075 0.13,0.04 0.295,0.105 0.495,0.195 0.2,0.08 0.395,0.165 0.585,0.255 0.19,0.09 0.335,0.17 0.435,0.24 0.07,0.05 0.105,0.115 0.105,0.195 0,0.08 -0.045,0.145 -0.135,0.195 -0.03,0.01 -0.055,0.02 -0.075,0.03 -0.02,0.01 -0.04,0.025 -0.06,0.045 -0.17,0.1 -0.255,0.27 -0.255,0.51 -0.02,1.46 -0.075,2.695 -0.165,3.705 -0.08,1 -0.205,1.82 -0.375,2.46 -0.16,0.63 -0.375,1.12 -0.645,1.47 -0.26,0.35 -0.58,0.59 -0.96,0.72 -0.38,0.14 -0.83,0.22 -1.35,0.24 0,-0.43 -0.035,-0.755 -0.105,-0.975 -0.07,-0.22 -0.21,-0.39 -0.42,-0.51 C 25.715,21.165 25.41,21.03 25,20.89 v 0 c 0,-0.01 -0.005,-0.02 -0.015,-0.03 -0.43,0.42 -0.93,0.785 -1.5,1.095 -0.56,0.31 -1.205,0.59 -1.935,0.84 z m -2.91,-9.78 c -0.23,0 -0.345,-0.11 -0.345,-0.33 0,-0.1 0.005,-0.26 0.015,-0.48 0.01,-0.22 0.02,-0.47 0.03,-0.75 h -0.12 -0.21 c -0.13,0 -0.3,0.005 -0.51,0.015 -0.21,0 -0.42,0.01 -0.63,0.03 l -0.165,-0.585 c 0.4,0.04 0.75,0.065 1.05,0.075 l 0.45,0.015 h 0.135 c 0.01,-0.1 0.015,-0.2 0.015,-0.3 v -0.3 c 0,-0.4399999 -0.03,-0.7249998 -0.09,-0.8549998 -0.04,-0.06 -0.045,-0.115 -0.015,-0.165 0.02,-0.05 0.065,-0.075 0.135,-0.075 0.13,0 0.315,0.015 0.555,0.045 0.24,0.02 0.48,0.05 0.72,0.09 0.25,0.03 0.435,0.06 0.555,0.09 0.07,0.01 0.115,0.04 0.135,0.09 0.02,0.05 0.03,0.1 0.03,0.15 -0.01,0.07 -0.035,0.12 -0.075,0.15 -0.04,0.03 -0.085,0.05 -0.135,0.06 -0.17,0.01 -0.255,0.1 -0.255,0.2699998 v 0.75 h 1.275 v -0.6 c 0,-0.4399999 -0.03,-0.7249998 -0.09,-0.8549998 -0.04,-0.07 -0.045,-0.125 -0.015,-0.165 0.02,-0.05 0.065,-0.075 0.135,-0.075 0.13,0 0.315,0.015 0.555,0.045 0.24,0.02 0.48,0.05 0.72,0.09 0.25,0.03 0.435,0.06 0.555,0.09 0.1,0.03 0.15,0.095 0.15,0.195 0,0.15 -0.07,0.235 -0.21,0.255 -0.17,0.01 -0.255,0.1 -0.255,0.2699998 v 0.75 h 0.315 c 0.13,0 0.23,-0.05 0.3,-0.15 l 0.225,-0.36 c 0.11,-0.17 0.19,-0.29 0.24,-0.36 0.05,-0.08 0.105,-0.12 0.165,-0.12 0.03,0 0.055,0.005 0.075,0.015 0.03,0.01 0.06,0.025 0.09,0.045 0.11,0.07 0.24,0.17 0.39,0.3 0.15,0.13 0.29,0.265 0.42,0.405 0.14,0.13 0.245,0.24 0.315,0.33 0.04,0.04 0.06,0.095 0.06,0.165 0,0.12 -0.055,0.18 -0.165,0.18 H 22.75 c 0.02,0.29 0.03,0.535 0.03,0.735 0.01,0.2 0.015,0.315 0.015,0.345 0,0.15 -0.135,0.27 -0.405,0.36 -0.27,0.08 -0.55,0.12 -0.84,0.12 -0.24,0 -0.36,-0.11 -0.36,-0.33 v -1.23 h -1.275 v 1.08 c 0,0.15 -0.14,0.27 -0.42,0.36 -0.27,0.08 -0.555,0.12 -0.855,0.12 z m 8.235,7.8 c 0.17,0 0.325,-0.05 0.465,-0.15 0.14,-0.11 0.265,-0.31 0.375,-0.6 0.11,-0.29 0.205,-0.705 0.285,-1.245 0.09,-0.54 0.16,-1.24 0.21,-2.1 0.06,-0.87 0.105,-1.94 0.135,-3.21 H 27.28 c -0.05,1.71 -0.235,3.135 -0.555,4.275 -0.32,1.14 -0.82,2.085 -1.5,2.835 0.22,0.04 0.485,0.085 0.795,0.135 0.32,0.04 0.605,0.06 0.855,0.06 z m -7.02,-6.93 H 18.73 v 1.77 h 1.125 z m 2.64,0 h -1.08 v 1.77 h 1.08 z m 0,2.22 h -1.08 v 1.155 h 1.08 c 0.14,0 0.24,-0.05 0.3,-0.15 0.05,-0.08 0.115,-0.18 0.195,-0.3 0.08,-0.13 0.145,-0.23 0.195,-0.3 -0.05,0 -0.105,0.005 -0.165,0.015 h -0.165 c -0.24,0 -0.36,-0.11 -0.36,-0.33 z"
				class="typography fg2"
				style="font-size:15px"
				aria-label="勤"
				sodipodi:nodetypes="ccsccccsccscscccccccccccccscccccccccccsccccssssccsscsccscscccsccsccsssscccscssccscccscccsscccscccccsccsscccscccscssccscccccscscscccccccscsscccsssccscccsccssccscccscscsccsccscccscscscccsccsccssccscssccscsscsccccsccscccccccccccccsccccssc"
			/>
		</g>
	</g>
</svg>
