<?xml version="1.0" encoding="UTF-8" standalone="no"?>
<!-- Created with Inkscape (http://www.inkscape.org/) -->

<svg
	xmlns="http://www.w3.org/2000/svg"
	xmlns:cc="http://creativecommons.org/ns#"
	xmlns:dc="http://purl.org/dc/elements/1.1/"
	xmlns:inkscape="http://www.inkscape.org/namespaces/inkscape"
	xmlns:rdf="http://www.w3.org/1999/02/22-rdf-syntax-ns#"
	xmlns:sodipodi="http://sodipodi.sourceforge.net/DTD/sodipodi-0.dtd"
	xmlns:svg="http://www.w3.org/2000/svg"
	xmlns:xlink="http://www.w3.org/1999/xlink"
	width="32"
	height="32"
	viewBox="0 0 32 32"
	version="1.1"
	xml:space="preserve"
	inkscape:version="1.4 (e7c3feb100, 2024-10-09)"
	>
	<title>ぐーてんもーげん</title>
	<metadata>
		<rdf:RDF>
			<cc:Work rdf:about="">
				<cc:license rdf:resource="https://www.apache.org/licenses/LICENSE-2.0" />
				<dc:title>ぐーてんもーげん</dc:title>
				<dc:date>2025-06-10</dc:date>
				<dc:creator><cc:Agent><dc:title>zawa-ch.</dc:title></cc:Agent></dc:creator>
				<dc:rights><cc:Agent><dc:title>Copyright 2025 zawa-ch.</dc:title></cc:Agent></dc:rights>
				<dc:identifier>stellar_ch_handwritten_square_gutenmogen</dc:identifier>
				<dc:language>ja_JP</dc:language>
			</cc:Work>
		</rdf:RDF>
	</metadata>
	<sodipodi:namedview
		pagecolor="#505050"
		bordercolor="#eeeeee"
		borderopacity="1"
		inkscape:showpageshadow="0"
		inkscape:pageopacity="0"
		inkscape:pagecheckerboard="0"
		inkscape:deskcolor="#d1d1d1"
		inkscape:document-units="px"
		showgrid="false"
	/>
	<defs>
		<inkscape:path-effect
			id="path-effect3"
			effect="offset"
			is_visible="true"
			lpeversion="1.3"
			linejoin_type="miter"
			unit="px"
			offset="1"
			miter_limit="4"
			attempt_force_join="false"
			update_on_knot_move="true"
		/>
	</defs>
	<g inkscape:groupmode="layer">
		<image
			display="none"
			x="0"
			y="0"
			width="32"
			height="32"
			preserveAspectRatio="none"
			xlink:href="stellar_ch_handwritten_square_gutenmogen.png"
		/>
		<path
			display="none"
			d="M 7.1333333,6.2 7.2666667,6.4666667 M 6,6.4 6.0666667,6.5333333 M 24.133333,6.6666667 C 23.96803,7.3164978 23.769322,7.9581299 23.555534,8.6 c -0.129578,0.3890381 -0.27642,0.8123433 -0.394837,1.2 -0.172286,0.564008 -0.176796,0.887034 -0.46337,1.443931 -0.05537,0.107599 -0.111139,0.198067 -0.163994,0.289402 m -3.8,-4.6666663 -0.133333,0.6 C 18.376347,7.2639201 18.297546,7.1880208 18.066667,6.9333333 L 18.933333,6.8 M 15.2,7.6666667 16.799973,7.2478373 18.066667,6.9333333 M 18.6,7.4666667 c -0.84315,1.106134 -2.135345,3.0253863 -1.286129,4.4520383 0.434005,0.72911 1.320309,0.840231 2.019462,1.014628 M 5,7.9333333 C 4.2834941,8.9342936 3.6511251,9.9918213 2.9449839,11 c -0.2411054,0.344234 -0.7281288,0.843599 -0.6178268,1.295227 0.093402,0.38243 0.6313614,0.579388 0.9397499,0.767326 0.9015956,0.549449 1.7401929,1.194846 2.5997597,1.804114 M 8.8,11.133333 l 1.6,-0.52217 2.066667,-0.344496 M 23,10.8 c 0.246484,-0.07665 0.526149,-0.330589 1.200055,-0.333468 0.58031,-0.0025 1.141247,0.460873 1.666612,0.673057 1.178705,0.476058 2.165086,0.291873 3.2,-0.406256 M 22.6,17.8 22.866667,18.133333 M 21.6,18.266667 21.8,18.6 m 4,0.466667 c -0.10224,0.492696 -0.215035,0.981441 -0.34931,1.46667 -0.126614,0.45754 -0.296143,0.952261 -0.41308,1.399996 -0.109481,0.41919 -0.105577,0.708535 -0.245577,1.129771 -0.09992,0.300645 -0.235301,0.513137 -0.325366,0.670229 m -3.733334,-4 0.220801,1.200055 0.04517,0.999945 -0.04176,1.133334 -0.224213,1.8 M 16.4,20.533333 c 0.0011,0.789244 0.06191,1.712911 0.235352,2.533334 C 16.774879,23.726672 16.959618,24.369832 17.2,25 M 21,20.933333 c 0.280243,-0.04879 0.49351,-0.08928 1,-0.2 M 19.2,21.4 c 0.790342,-0.211438 1.217495,-0.297982 1.733333,-0.4 m -14.7999997,0.133333 -0.2225804,0.729411 0.066987,0.480514 0.5586965,0.157263 0.7968973,-0.03385 m 3.2666667,0.8 c 0.715281,-0.250391 1.458231,-0.433456 2.2,-0.596731 0.614686,-0.135301 1.190192,-0.251853 1.733333,-0.403269 m 10.4,0.666666 c 0.170813,-0.06208 0.330296,-0.117421 0.605239,-0.267108 0.243585,-0.132615 0.558944,-0.345691 0.928095,-0.336318 0.548419,0.01393 1.024552,0.429887 1.533333,0.593893 0.745378,0.240275 1.435152,0.03136 2.066667,-0.3238 M 5.8,22.466667 c -0.1442825,0.351481 -0.201385,0.804826 -0.199265,1.333347 0.00165,0.410775 5.518e-4,0.646444 0.09446,1.066653 0.068611,0.307013 0.1515305,0.581095 0.3062317,0.86405 0.4759038,0.870443 1.3661056,1.044936 2.2652334,0.806014 C 8.7514058,26.407922 9.2156372,26.217948 9.6666667,26 M 3.8,23 C 4.2000598,22.864168 4.6954432,22.774882 5.0592575,22.733948 5.2870712,22.708315 5.4406052,22.688454 5.6,22.666667 m 0.1333333,2 0.6052379,-0.11686 L 8.1333333,24.2 M 5.6,24.733333 c -0.4055664,0.131315 -0.7511022,0.185663 -1.4,0.333334"
			style="stroke:black;fill:none;stroke-linejoin:round;stroke-linecap:round;stroke-width:1.5;stroke-dasharray:none"
		/>
		<path
			d="m 7.1523437,4.4492187 c -0.042698,-4.595e-4 -0.085983,0.00121 -0.1289062,0.00391 -0.2330445,0.014663 -0.4602576,0.076032 -0.671875,0.1816406 l -0.09375,0.046875 C 5.9220545,4.627684 5.5682355,4.6686358 5.2402344,4.8222656 l -0.011719,0.00586 -0.011719,0.00586 C 4.6159318,5.134983 4.2712032,5.7323862 4.2558594,6.3574219 3.989483,6.4834425 3.7533238,6.6697663 3.578125,6.9140625 2.8307738,7.9581138 2.1481712,9.0874114 1.5117187,9.9960938 1.5132288,9.9939378 1.1877028,10.40873 1.0136719,10.691406 0.78426803,11.064023 0.4001117,11.78019 0.62695312,12.708984 0.83668109,13.567705 1.4395452,14.00979 1.7597656,14.21875 c 0.2423131,0.158123 0.6592072,0.375401 0.5976563,0.337891 0.7919617,0.482636 1.6021238,1.103243 2.4980468,1.738281 0.7904933,0.559851 1.8769938,0.375051 2.4375,-0.414063 C 7.8558809,15.089614 7.6709989,13.998329 6.8789062,13.4375 6.1785298,12.941068 5.3741052,12.332062 4.5253906,11.787109 5.2135866,10.786749 5.8062884,9.8111478 6.421875,8.9511719 6.598537,8.7041186 6.6936542,8.4272338 6.7285156,8.1464844 c 0.024425,-0.010036 0.05003,-0.01417 0.074219,-0.025391 0.3829251,0.1153773 0.8024516,0.1019511 1.1914062,-0.064453 L 8.0214844,8.0449219 8.0488281,8.03125 C 8.9160095,7.5981011 9.2652154,6.5516039 8.8320313,5.6835937 L 8.6992188,5.4179687 C 8.3980948,4.8151066 7.7928088,4.4561122 7.1523437,4.4492187 Z M 24.0625,4.9160156 c -0.762283,0.030502 -1.43174,0.5560095 -1.625,1.3203125 -0.150502,0.5916461 -0.33694,1.191973 -0.542969,1.8105469 -0.120405,0.361498 -0.279949,0.8203775 -0.408203,1.2402344 -0.211893,0.6936713 -0.185895,0.8494906 -0.34375,1.1562496 -0.01753,0.03406 -0.0589,0.100625 -0.125,0.214844 -0.295042,0.511648 -0.30079,1.10594 -0.07227,1.603516 -0.205218,-0.492379 -0.627631,-0.8869 -1.1875,-1.027344 -0.399452,-0.09964 -0.716897,-0.175674 -0.882812,-0.236328 -0.01659,-0.0061 -0.03152,-0.01214 -0.04492,-0.01758 -0.01206,-0.0049 -0.02382,-0.0095 -0.0332,-0.01367 0,0 -0.002,-0.002 -0.002,-0.002 -0.03109,-0.101586 -0.0283,-0.294767 0.15039,-0.736328 0.21097,-0.5213262 0.663405,-1.1980956 1.046875,-1.7011722 l 0.0059,-0.00586 0.0039,-0.00586 c 0.09226,-0.125291 0.164862,-0.263838 0.220703,-0.4082031 l 0.03906,-0.052734 0.03906,-0.1699219 C 20.598837,7.5106095 20.73449,7.0245701 20.662109,6.5332031 20.533997,5.7023658 19.841157,5.0929687 19.019531,5.0527344 c -0.05701,-0.00279 -0.114779,-0.00294 -0.173828,0 -0.05905,0.00294 -0.119921,0.00837 -0.179687,0.017578 l -0.8125,0.125 -0.03516,-0.00391 -0.09961,0.025391 -0.181641,0.027344 -0.03125,0.025391 -1.076172,0.2675782 -0.03125,0.00781 h -0.0039 l -0.01367,0.00195 -1.625,0.4277344 c -0.938132,0.2459989 -1.494336,1.1991022 -1.248046,2.1367187 0.236263,0.901001 1.12475,1.4476013 2.02539,1.2714844 -0.318954,1.0137315 -0.41572,2.2673205 0.277344,3.4316405 0.906549,1.522966 2.656488,1.705388 3.101562,1.816406 0.93913,0.233352 1.883012,-0.332694 2.119141,-1.271484 0.08858,-0.352705 0.06409,-0.706531 -0.05078,-1.023437 0.148483,0.286829 0.376192,0.538003 0.677734,0.71289 0.838508,0.483525 1.902582,0.197493 2.388672,-0.640625 0.01488,-0.02571 0.0492,-0.08184 0.08984,-0.152344 0.214701,0.106803 0.613959,0.321923 1.074218,0.507813 1.722987,0.695883 3.417928,0.37648 4.835938,-0.580078 0.802624,-0.54308 1.0124,-1.625905 0.470703,-2.4277346 -0.541603,-0.804178 -1.624856,-1.0146727 -2.429687,-0.4726563 -0.389281,0.2625996 -0.626809,0.3550356 -0.804688,0.3808594 -0.177879,0.025824 -0.368438,0.00961 -0.759766,-0.1484375 0.02936,0.011859 -0.520121,-0.3092443 -0.65625,-0.3789062 -0.165222,-0.08455 -0.355467,-0.1676844 -0.566406,-0.2382813 0.190886,-0.5853491 0.370807,-1.1834562 0.527344,-1.7988281 0.239704,-0.9392559 -0.323561,-1.8886655 -1.263672,-2.1289063 -0.103891,-0.026443 -0.221801,-0.0467 -0.349609,-0.052734 -0.05154,-0.00243 -0.101525,-0.00399 -0.152344,-0.00195 z M 12.445313,8.5175781 c -0.08731,0.00116 -0.176814,0.00859 -0.265625,0.023437 l -2.070313,0.34375 c -0.08654,0.014834 -0.173756,0.036553 -0.2519531,0.0625 L 8.2539063,9.4707031 C 7.3342437,9.7733013 6.8361942,10.755793 7.1367187,11.675781 7.4373778,12.597229 8.421812,13.09721 9.34375,12.796875 l 1.478516,-0.482422 1.93164,-0.322265 C 13.711111,11.833587 14.35321,10.935106 14.193359,9.9765625 14.053975,9.1485237 13.352805,8.5471871 12.53125,8.5175781 c -0.02832,-0.00102 -0.05684,-3.873e-4 -0.08594,0 z m 10.089843,7.5332029 c -0.02884,0.0011 -0.05721,0.0034 -0.08594,0.0059 -0.343779,0.02968 -0.671598,0.161037 -0.94336,0.378906 l -0.02734,0.02148 -0.02539,0.02344 c -0.02447,0.0226 -0.04727,0.04646 -0.07031,0.07031 -0.212825,0.02075 -0.423027,0.08067 -0.61914,0.179688 l -0.03125,0.01563 -0.03125,0.01953 c -0.535809,0.320862 -0.835004,0.878899 -0.84961,1.457031 -0.506532,0.295078 -0.835666,0.830843 -0.863281,1.425781 -0.07717,0.01937 -0.151393,0.03678 -0.240234,0.06055 -0.255773,0.06827 -0.479867,0.192758 -0.669922,0.351563 -0.206756,-0.738066 -0.875643,-1.279444 -1.681641,-1.277344 -0.965526,0.0025 -1.740173,0.779362 -1.74414,1.742188 -0.02937,-0.002 -0.05826,-0.0073 -0.08789,-0.0078 -0.05061,-8.3e-4 -0.101169,2.8e-4 -0.152344,0.0039 -0.105929,0.0075 -0.225383,0.02639 -0.347656,0.06055 -0.456514,0.127267 -1.00839,0.239742 -1.640625,0.378906 -0.763534,0.168066 -1.588509,0.368721 -2.404297,0.654297 -0.4170477,0.146762 -0.7368168,0.437562 -0.9374997,0.792969 -1.564e-4,-0.0046 1.983e-4,-0.009 0,-0.01367 C 9.0509447,21.632555 8.5395631,21.009903 7.8515625,20.796875 7.7315399,20.182274 7.2852867,19.653906 6.6425781,19.458984 6.4737464,19.4076 6.2994133,19.382249 6.125,19.382812 c -0.058138,1.88e-4 -0.1160408,0.0037 -0.1738281,0.0098 -0.686993,0.07192 -1.2815018,0.541963 -1.4921875,1.230469 l -0.1386719,0.451172 c -0.3441797,0.06004 -0.7211382,0.144381 -1.0839844,0.267578 -0.9176546,0.312023 -1.4046936,1.302821 -1.09375,2.21875 0.099478,0.294946 0.2696934,0.543995 0.484375,0.738281 -0.1686269,0.345229 -0.2244346,0.748904 -0.1328125,1.154297 0.2133124,0.946949 1.1478388,1.534979 2.09375,1.320312 0.4490477,0.7058 1.1196617,1.214983 1.8671875,1.447266 0.7870215,0.244556 1.5724868,0.190433 2.2597657,0.0078 0.627415,-0.166721 1.1973793,-0.40418 1.7109372,-0.652344 0.873993,-0.421292 1.238151,-1.463288 0.816407,-2.335938 -0.05129,-0.106392 -0.115367,-0.202193 -0.183594,-0.292968 0.03973,-0.01084 0.07964,-0.01552 0.11914,-0.0293 0.609186,-0.213251 1.285595,-0.382241 1.998047,-0.539063 0.577858,-0.127195 1.220983,-0.25902 1.826172,-0.427734 0.0132,-0.0037 0.02407,-0.01168 0.03711,-0.01563 0.140326,0.568951 0.314611,1.131772 0.527343,1.689453 0.345452,0.904505 1.349607,1.353764 2.25586,1.009766 0.906886,-0.345399 1.358026,-1.352125 1.011718,-2.257813 -0.174611,-0.457748 -0.30841,-0.929985 -0.421875,-1.416016 0.236501,0.119016 0.498751,0.187588 0.771485,0.189454 l -0.1875,1.498046 c -0.121103,0.963515 0.558043,1.836502 1.519531,1.955079 0.963514,0.121102 1.836269,-0.558131 1.955078,-1.521485 l 0.220703,-1.789062 c 0.007,-0.0526 0.01307,-0.103542 0.01563,-0.16211 l 0.0293,-0.808593 c 0.192944,-0.08882 0.363342,-0.211498 0.507813,-0.357422 -0.04946,0.253734 -0.08873,0.473016 -0.113282,0.546875 -0.03137,0.0944 -0.0654,0.144899 -0.18164,0.347656 -0.48503,0.841785 -0.19529,1.911719 0.648437,2.394531 0.842027,0.481191 1.906732,0.190278 2.386719,-0.65039 0.02697,-0.04704 0.08294,-0.161858 0.136719,-0.273438 0.07616,-0.03533 0.158371,-0.07494 0.253906,-0.126953 0.02638,-0.01436 0.05058,-0.02841 0.07422,-0.04102 0,0 0.002,0.002 0.002,0.002 0.231078,0.116419 0.570382,0.281563 1.011719,0.423829 1.351848,0.435771 2.584764,0.03072 3.458984,-0.460938 0.846145,-0.474426 1.145733,-1.537672 0.669922,-2.384766 -0.476025,-0.844497 -1.538857,-1.141481 -2.382813,-0.666015 -0.218112,0.122665 -0.368692,0.177456 -0.457031,0.195312 -0.08834,0.01786 -0.118368,0.01938 -0.214844,-0.01172 0.09936,0.03203 -0.311193,-0.191465 -0.49414,-0.283204 -0.222733,-0.111689 -0.496024,-0.225856 -0.81836,-0.302734 0.109237,-0.421419 0.20353,-0.839769 0.289063,-1.251953 0.196958,-0.949373 -0.408071,-1.871433 -1.357422,-2.068359 -0.118833,-0.02465 -0.235236,-0.03679 -0.351563,-0.03711 -0.469497,-0.0013 -0.902127,0.188951 -1.222656,0.501953 -0.05096,-0.275997 -0.160826,-0.545509 -0.349609,-0.78125 l -0.265625,-0.328125 c -0.28931,-0.362403 -0.710324,-0.596302 -1.171875,-0.648437 -0.08616,-0.0097 -0.173242,-0.01292 -0.259766,-0.0098 z m 1.363281,3.494141 c -0.04281,0.17552 -0.08551,0.350555 -0.132812,0.521484 -0.0167,0.06034 -0.04924,0.163269 -0.07227,0.240235 -0.05024,-0.200437 -0.133603,-0.382356 -0.242187,-0.544922 0.155139,-0.04981 0.305923,-0.120604 0.445312,-0.214844 z"
			style="fill:#7a4d01;fill-opacity:1"
			inkscape:path-effect="#path-effect3"
			inkscape:original-d="M 6.7988281,5.5292969 A 0.75000006,0.75000006 0 0 0 6.6308594,6.03125 0.75000006,0.75000006 0 0 0 5.6640625,5.7285156 0.75000006,0.75000006 0 0 0 5.3300781,6.7363281 l 0.066406,0.1328125 A 0.75000006,0.75000006 0 0 0 6.4023437,7.2050781 0.75000006,0.75000006 0 0 0 6.7089844,6.9003906 0.75000006,0.75000006 0 0 0 7.6015625,7.1367187 0.75000006,0.75000006 0 0 0 7.9375,6.1308594 L 7.8046875,5.8652344 A 0.75000006,0.75000006 0 0 0 6.7988281,5.5292969 Z M 24.318359,5.9394531 A 0.75000006,0.75000006 0 0 0 23.40625,6.4824219 c -0.15898,0.6249747 -0.352036,1.2489686 -0.5625,1.8808594 -0.127439,0.3826165 -0.27593,0.8093556 -0.400391,1.2167968 -0.194591,0.6370299 -0.178061,0.8654889 -0.412109,1.3203129 -0.03988,0.0775 -0.08661,0.154353 -0.146484,0.257812 a 0.75000006,0.75000006 0 0 0 0.273437,1.023438 0.75000006,0.75000006 0 0 0 1.023438,-0.273438 c 0.04584,-0.07921 0.11078,-0.182611 0.18164,-0.320312 0.02791,-0.05424 0.01907,-0.07776 0.04297,-0.128907 0.292644,-0.122362 0.401657,-0.240499 0.796875,-0.242187 0.178993,-7.71e-4 0.677769,0.334388 1.382812,0.619141 1.375709,0.555624 2.733019,0.307013 3.900391,-0.480469 A 0.75000006,0.75000006 0 0 0 29.6875,10.314453 0.75000006,0.75000006 0 0 0 28.646484,10.111328 c -0.902456,0.608776 -1.516345,0.728523 -2.498047,0.332031 -0.345686,-0.139615 -0.969544,-0.730791 -1.951171,-0.7265621 -0.144688,6.181e-4 -0.10987,0.044366 -0.238282,0.0625 0.09857,-0.307039 0.203691,-0.626451 0.308594,-0.9414063 C 24.48469,8.1860412 24.687749,7.52625 24.859375,6.8515625 A 0.75000006,0.75000006 0 0 0 24.318359,5.9394531 Z m -5.5,0.1191406 -0.865234,0.1328125 a 0.75007506,0.75007506 0 0 0 -0.02344,0.019531 0.75000006,0.75000006 0 0 0 -0.04297,-0.00586 l -1.267578,0.3144531 a 0.75007506,0.75007506 0 0 0 -0.0098,0.00195 L 15.009728,6.9414021 A 0.75000006,0.75000006 0 0 0 14.474571,7.8574178 0.75000006,0.75000006 0 0 0 15.390587,8.392574 L 16.984375,7.9746094 17.5,7.8476562 c -0.310448,0.4572506 -0.639692,0.8667156 -0.873047,1.4433594 -0.368382,0.9103084 -0.542767,2.0277034 0.04297,3.0117184 0.646423,1.085964 1.855099,1.200943 2.482422,1.357422 a 0.75000006,0.75000006 0 0 0 0.908203,-0.544922 0.75000006,0.75000006 0 0 0 -0.544922,-0.910156 C 18.744642,12.012764 18.180571,11.907413 17.958984,11.535156 17.695505,11.09252 17.741379,10.53603 18.017578,9.8535156 18.293777,9.1710009 18.790488,8.4555289 19.197266,7.921875 a 0.75000006,0.75000006 0 0 0 0.128906,-0.2851563 0.75007506,0.75007506 0 0 0 0.0059,-0.00781 l 0.05273,-0.2363281 A 0.75000006,0.75000006 0 0 0 19.673828,6.6855469 0.75000006,0.75000006 0 0 0 18.818359,6.0585937 Z M 4.8769531,7.1933594 A 0.75000006,0.75000006 0 0 0 4.390625,7.4960937 C 3.6501597,8.5305254 3.0155403,9.5916579 2.3300781,10.570313 c -0.082186,0.117338 -0.2825129,0.348373 -0.4648437,0.644531 -0.1823308,0.296157 -0.3982079,0.722953 -0.2675782,1.257812 0.1184007,0.484786 0.4577368,0.744251 0.7089844,0.908203 0.2512477,0.163953 0.482186,0.26856 0.5703125,0.322266 0.8552058,0.521178 1.6809669,1.154706 2.5566406,1.775391 A 0.75000006,0.75000006 0 0 0 6.4785156,15.300781 0.75000006,0.75000006 0 0 0 6.3007812,14.253906 C 5.4573214,13.656055 4.6042354,12.999595 3.65625,12.421875 3.435988,12.287643 3.2451328,12.200165 3.1269531,12.123047 3.0087735,12.045928 3.031642,12.014832 3.0566406,12.117188 3.0769684,12.200419 3.0486964,12.152491 3.1425781,12 3.2364599,11.847509 3.3996738,11.656583 3.5585938,11.429688 4.285414,10.391985 4.9168285,9.3366295 5.609375,8.3691406 A 0.75000006,0.75000006 0 0 0 5.4375,7.3242187 0.75000006,0.75000006 0 0 0 4.8769531,7.1933594 Z m 7.4667969,2.3339844 -2.066406,0.34375 a 0.75007506,0.75007506 0 0 0 -0.109375,0.027344 L 8.5664063,10.419922 a 0.75000006,0.75000006 0 0 0 -0.4785157,0.945312 0.75000006,0.75000006 0 0 0 0.9453125,0.480469 l 1.5449219,-0.503906 2.011719,-0.335938 A 0.75000006,0.75000006 0 0 0 13.207031,10.142578 0.75000006,0.75000006 0 0 0 12.34375,9.5273438 Z m 10.339844,7.5273432 a 0.75000006,0.75000006 0 0 0 -0.552735,0.160157 0.75000006,0.75000006 0 0 0 -0.228515,0.414062 0.75000006,0.75000006 0 0 0 -0.6875,-0.0059 0.75000006,0.75000006 0 0 0 -0.257813,1.029297 l 0.199219,0.333984 a 0.75000006,0.75000006 0 0 0 1.029297,0.255859 0.75000006,0.75000006 0 0 0 0.328125,-0.511718 0.75000006,0.75000006 0 0 0 0.822265,-0.01172 0.75000006,0.75000006 0 0 0 0.117188,-1.054688 l -0.267578,-0.332031 a 0.75000006,0.75000006 0 0 0 -0.501953,-0.277344 z m 3.269531,1.277344 a 0.75000006,0.75000006 0 0 0 -0.886719,0.582031 c -0.09999,0.48186 -0.209347,0.955406 -0.33789,1.419922 -0.117782,0.425622 -0.288427,0.921638 -0.416016,1.410157 -0.131905,0.50505 -0.126158,0.762301 -0.232422,1.082031 -0.06933,0.208608 -0.157458,0.347945 -0.263672,0.533203 a 0.75000006,0.75000006 0 0 0 0.277344,1.025391 0.75000006,0.75000006 0 0 0 1.023437,-0.279297 c 0.05067,-0.08838 0.16477,-0.333211 0.265625,-0.552735 0.146368,-0.05608 0.285728,-0.104416 0.513672,-0.228515 0.301136,-0.163948 0.480789,-0.245918 0.550782,-0.244141 0.180568,0.0046 0.591088,0.320945 1.322265,0.556641 0.994802,0.320677 1.938697,0.02513 2.664063,-0.382813 a 0.75000006,0.75000006 0 0 0 0.287109,-1.021484 0.75000006,0.75000006 0 0 0 -1.021484,-0.285156 c -0.537665,0.302379 -0.972796,0.423544 -1.46875,0.263671 -0.286385,-0.09232 -0.827871,-0.607585 -1.744141,-0.630859 -0.318545,-0.0081 -0.408306,0.112793 -0.623047,0.203125 0.099,-0.335301 0.208185,-0.680878 0.310547,-1.050781 0.140007,-0.505941 0.25684,-1.01014 0.361328,-1.513672 a 0.75000006,0.75000006 0 0 0 -0.582031,-0.886719 z m -5.355469,0.664063 a 0.75000006,0.75000006 0 0 0 -0.601562,0.873047 l 0.101562,0.554687 c -0.32635,0.07047 -0.597735,0.119778 -1.091797,0.251953 a 0.75000006,0.75000006 0 0 0 -0.53125,0.917969 0.75000006,0.75000006 0 0 0 0.919922,0.53125 c 0.392677,-0.105052 0.590595,-0.13823 0.853516,-0.197266 v 0.0078 l -0.03906,1.070312 -0.220703,1.767578 a 0.75000006,0.75000006 0 0 0 0.652344,0.837891 0.75000006,0.75000006 0 0 0 0.837891,-0.652344 l 0.222656,-1.798828 a 0.75007506,0.75007506 0 0 0 0.0059,-0.06641 l 0.04102,-1.132813 a 0.75007506,0.75007506 0 0 0 0,-0.06055 l -0.01563,-0.347657 c 0.140195,-0.02841 0.215232,-0.03948 0.427734,-0.08594 A 0.75000006,0.75000006 0 0 0 22.732422,20.572266 0.75000006,0.75000006 0 0 0 21.839844,20 c -0.147342,0.03221 -0.181173,0.03492 -0.285157,0.05664 l -0.08398,-0.458985 A 0.75000006,0.75000006 0 0 0 20.59766,18.996093 Z m -4.199219,0.787109 a 0.75000006,0.75000006 0 0 0 -0.748046,0.751953 c 0.0012,0.826953 0.06229,1.790334 0.251953,2.6875 0.146842,0.694609 0.342314,1.375537 0.597656,2.044922 a 0.75000006,0.75000006 0 0 0 0.966797,0.433594 0.75000006,0.75000006 0 0 0 0.433594,-0.96875 c -0.225423,-0.590951 -0.399039,-1.194911 -0.53125,-1.820313 -0.157219,-0.74368 -0.217703,-1.62737 -0.21875,-2.378906 a 0.75000006,0.75000006 0 0 0 -0.751954,-0.75 z M 6.3515625,20.416016 a 0.75000006,0.75000006 0 0 0 -0.9355469,0.498046 l -0.2226562,0.730469 a 0.75007506,0.75007506 0 0 0 -0.025391,0.320313 c -0.06542,0.008 -0.1112806,0.0142 -0.1933593,0.02344 C 4.56555,22.034306 4.0423887,22.1248 3.5585938,22.289062 a 0.75000006,0.75000006 0 0 0 -0.46875,0.951172 0.75000006,0.75000006 0 0 0 0.9511718,0.470703 c 0.2450725,-0.08321 0.5666308,-0.135084 0.8535156,-0.179687 -0.0032,0.0954 -0.043361,0.173614 -0.042969,0.271484 4.438e-4,0.110499 0.026543,0.227494 0.029297,0.332032 -0.2400328,0.05677 -0.4248751,0.104958 -0.8476563,0.201171 A 0.75000006,0.75000006 0 0 0 3.46875,25.232422 0.75000006,0.75000006 0 0 0 4.3671875,25.798828 c 0.3465948,-0.07888 0.5554573,-0.137029 0.8027344,-0.193359 0.057951,0.162325 0.08323,0.318667 0.1738281,0.484375 0.3222585,0.589421 0.8425388,1.000009 1.4082031,1.175781 0.5656644,0.175772 1.1542961,0.14297 1.7070313,-0.0039 0.5467738,-0.145292 1.0543749,-0.354557 1.5332031,-0.585938 A 0.75000006,0.75000006 0 0 0 10.341797,25.673828 0.75000006,0.75000006 0 0 0 9.3398438,25.324219 C 8.9166129,25.528734 8.4969363,25.700173 8.0742188,25.8125 7.7278261,25.90455 7.4204601,25.90334 7.1972656,25.83398 6.9740712,25.76463 6.8138015,25.652112 6.6601562,25.37109 c -0.01881,-0.0344 -0.022925,-0.07913 -0.039063,-0.113282 l 1.6562501,-0.322265 a 0.75000006,0.75000006 0 0 0 0.5917968,-0.878906 0.75000006,0.75000006 0 0 0 -0.8789062,-0.59375 l -1.6367188,0.320312 c -1.433e-4,-0.246814 0.045803,-0.368837 0.074219,-0.548828 A 0.75007506,0.75007506 0 0 0 6.5683594,23.25 l 0.796875,-0.0332 A 0.75000006,0.75000006 0 0 0 8.0820313,22.43555 0.75000006,0.75000006 0 0 0 7.3007812,21.7168 l -0.5683593,0.02539 0.1191406,-0.390625 a 0.75000006,0.75000006 0 0 0 -0.5,-0.935546 z m 7.9804685,1.128906 c -0.50703,0.141349 -1.071002,0.255588 -1.693359,0.392578 -0.754032,0.165974 -1.526565,0.354858 -2.287109,0.621094 a 0.75000006,0.75000006 0 0 0 -0.4589849,0.955078 0.75000006,0.75000006 0 0 0 0.9550779,0.460937 c 0.670018,-0.234546 1.383775,-0.411689 2.113282,-0.572265 0.607014,-0.133613 1.194186,-0.25258 1.773437,-0.414063 a 0.75000006,0.75000006 0 0 0 0.521484,-0.923828 0.75000006,0.75000006 0 0 0 -0.923828,-0.519531 z"
		/>
		<path
			d="M 6.7988281,5.5292969 A 0.75000006,0.75000006 0 0 0 6.6308594,6.03125 0.75000006,0.75000006 0 0 0 5.6640625,5.7285156 0.75000006,0.75000006 0 0 0 5.3300781,6.7363281 l 0.066406,0.1328125 A 0.75000006,0.75000006 0 0 0 6.4023437,7.2050781 0.75000006,0.75000006 0 0 0 6.7089844,6.9003906 0.75000006,0.75000006 0 0 0 7.6015625,7.1367187 0.75000006,0.75000006 0 0 0 7.9375,6.1308594 L 7.8046875,5.8652344 A 0.75000006,0.75000006 0 0 0 6.7988281,5.5292969 Z M 24.318359,5.9394531 A 0.75000006,0.75000006 0 0 0 23.40625,6.4824219 c -0.15898,0.6249747 -0.352036,1.2489686 -0.5625,1.8808594 -0.127439,0.3826165 -0.27593,0.8093556 -0.400391,1.2167968 -0.194591,0.6370299 -0.178061,0.8654889 -0.412109,1.3203129 -0.03988,0.0775 -0.08661,0.154353 -0.146484,0.257812 a 0.75000006,0.75000006 0 0 0 0.273437,1.023438 0.75000006,0.75000006 0 0 0 1.023438,-0.273438 c 0.04584,-0.07921 0.11078,-0.182611 0.18164,-0.320312 0.02791,-0.05424 0.01907,-0.07776 0.04297,-0.128907 0.292644,-0.122362 0.401657,-0.240499 0.796875,-0.242187 0.178993,-7.71e-4 0.677769,0.334388 1.382812,0.619141 1.375709,0.555624 2.733019,0.307013 3.900391,-0.480469 A 0.75000006,0.75000006 0 0 0 29.6875,10.314453 0.75000006,0.75000006 0 0 0 28.646484,10.111328 c -0.902456,0.608776 -1.516345,0.728523 -2.498047,0.332031 -0.345686,-0.139615 -0.969544,-0.730791 -1.951171,-0.7265621 -0.144688,6.181e-4 -0.10987,0.044366 -0.238282,0.0625 0.09857,-0.307039 0.203691,-0.626451 0.308594,-0.9414063 C 24.48469,8.1860412 24.687749,7.52625 24.859375,6.8515625 A 0.75000006,0.75000006 0 0 0 24.318359,5.9394531 Z m -5.5,0.1191406 -0.865234,0.1328125 a 0.75007506,0.75007506 0 0 0 -0.02344,0.019531 0.75000006,0.75000006 0 0 0 -0.04297,-0.00586 l -1.267578,0.3144531 a 0.75007506,0.75007506 0 0 0 -0.0098,0.00195 l -1.599609,0.4199218 a 0.75000006,0.75000006 0 0 0 -0.535157,0.9160157 0.75000006,0.75000006 0 0 0 0.916016,0.5351562 L 16.984375,7.9746094 17.5,7.8476562 c -0.310448,0.4572506 -0.639692,0.8667156 -0.873047,1.4433594 -0.368382,0.9103084 -0.542767,2.0277034 0.04297,3.0117184 0.646423,1.085964 1.855099,1.200943 2.482422,1.357422 a 0.75000006,0.75000006 0 0 0 0.908203,-0.544922 0.75000006,0.75000006 0 0 0 -0.544922,-0.910156 C 18.744642,12.012764 18.180571,11.907413 17.958984,11.535156 17.695505,11.09252 17.741379,10.53603 18.017578,9.8535156 18.293777,9.1710009 18.790488,8.4555289 19.197266,7.921875 a 0.75000006,0.75000006 0 0 0 0.128906,-0.2851563 0.75007506,0.75007506 0 0 0 0.0059,-0.00781 l 0.05273,-0.2363281 A 0.75000006,0.75000006 0 0 0 19.673828,6.6855469 0.75000006,0.75000006 0 0 0 18.818359,6.0585937 Z M 4.8769531,7.1933594 A 0.75000006,0.75000006 0 0 0 4.390625,7.4960937 C 3.6501597,8.5305254 3.0155403,9.5916579 2.3300781,10.570313 c -0.082186,0.117338 -0.2825129,0.348373 -0.4648437,0.644531 -0.1823308,0.296157 -0.3982079,0.722953 -0.2675782,1.257812 0.1184007,0.484786 0.4577368,0.744251 0.7089844,0.908203 0.2512477,0.163953 0.482186,0.26856 0.5703125,0.322266 0.8552058,0.521178 1.6809669,1.154706 2.5566406,1.775391 A 0.75000006,0.75000006 0 0 0 6.4785156,15.300781 0.75000006,0.75000006 0 0 0 6.3007812,14.253906 C 5.4573214,13.656055 4.6042354,12.999595 3.65625,12.421875 3.435988,12.287643 3.2451328,12.200165 3.1269531,12.123047 3.0087735,12.045928 3.031642,12.014832 3.0566406,12.117188 3.0769684,12.200419 3.0486964,12.152491 3.1425781,12 3.2364599,11.847509 3.3996738,11.656583 3.5585938,11.429688 4.285414,10.391985 4.9168285,9.3366295 5.609375,8.3691406 A 0.75000006,0.75000006 0 0 0 5.4375,7.3242187 0.75000006,0.75000006 0 0 0 4.8769531,7.1933594 Z m 7.4667969,2.3339844 -2.066406,0.34375 a 0.75007506,0.75007506 0 0 0 -0.109375,0.027344 L 8.5664063,10.419922 a 0.75000006,0.75000006 0 0 0 -0.4785157,0.945312 0.75000006,0.75000006 0 0 0 0.9453125,0.480469 l 1.5449219,-0.503906 2.011719,-0.335938 A 0.75000006,0.75000006 0 0 0 13.207031,10.142578 0.75000006,0.75000006 0 0 0 12.34375,9.5273438 Z m 10.339844,7.5273432 a 0.75000006,0.75000006 0 0 0 -0.552735,0.160157 0.75000006,0.75000006 0 0 0 -0.228515,0.414062 0.75000006,0.75000006 0 0 0 -0.6875,-0.0059 0.75000006,0.75000006 0 0 0 -0.257813,1.029297 l 0.199219,0.333984 a 0.75000006,0.75000006 0 0 0 1.029297,0.255859 0.75000006,0.75000006 0 0 0 0.328125,-0.511718 0.75000006,0.75000006 0 0 0 0.822265,-0.01172 0.75000006,0.75000006 0 0 0 0.117188,-1.054688 l -0.267578,-0.332031 a 0.75000006,0.75000006 0 0 0 -0.501953,-0.277344 z m 3.269531,1.277344 a 0.75000006,0.75000006 0 0 0 -0.886719,0.582031 c -0.09999,0.48186 -0.209347,0.955406 -0.33789,1.419922 -0.117782,0.425622 -0.288427,0.921638 -0.416016,1.410157 -0.131905,0.50505 -0.126158,0.762301 -0.232422,1.082031 -0.06933,0.208608 -0.157458,0.347945 -0.263672,0.533203 a 0.75000006,0.75000006 0 0 0 0.277344,1.025391 0.75000006,0.75000006 0 0 0 1.023437,-0.279297 c 0.05067,-0.08838 0.16477,-0.333211 0.265625,-0.552735 0.146368,-0.05608 0.285728,-0.104416 0.513672,-0.228515 0.301136,-0.163948 0.480789,-0.245918 0.550782,-0.244141 0.180568,0.0046 0.591088,0.320945 1.322265,0.556641 0.994802,0.320677 1.938697,0.02513 2.664063,-0.382813 a 0.75000006,0.75000006 0 0 0 0.287109,-1.021484 0.75000006,0.75000006 0 0 0 -1.021484,-0.285156 c -0.537665,0.302379 -0.972796,0.423544 -1.46875,0.263671 -0.286385,-0.09232 -0.827871,-0.607585 -1.744141,-0.630859 -0.318545,-0.0081 -0.408306,0.112793 -0.623047,0.203125 0.099,-0.335301 0.208185,-0.680878 0.310547,-1.050781 0.140007,-0.505941 0.25684,-1.01014 0.361328,-1.513672 a 0.75000006,0.75000006 0 0 0 -0.582031,-0.886719 z m -5.355469,0.664063 a 0.75000006,0.75000006 0 0 0 -0.601562,0.873047 l 0.101562,0.554687 c -0.32635,0.07047 -0.597735,0.119778 -1.091797,0.251953 a 0.75000006,0.75000006 0 0 0 -0.53125,0.917969 0.75000006,0.75000006 0 0 0 0.919922,0.53125 c 0.392677,-0.105052 0.590595,-0.13823 0.853516,-0.197266 v 0.0078 l -0.03906,1.070312 -0.220703,1.767578 a 0.75000006,0.75000006 0 0 0 0.652344,0.837891 0.75000006,0.75000006 0 0 0 0.837891,-0.652344 l 0.222656,-1.798828 a 0.75007506,0.75007506 0 0 0 0.0059,-0.06641 l 0.04102,-1.132813 a 0.75007506,0.75007506 0 0 0 0,-0.06055 l -0.01563,-0.347657 c 0.140195,-0.02841 0.215232,-0.03948 0.427734,-0.08594 A 0.75000006,0.75000006 0 0 0 22.732422,20.572266 0.75000006,0.75000006 0 0 0 21.839844,20 c -0.147342,0.03221 -0.181173,0.03492 -0.285157,0.05664 l -0.08398,-0.458985 a 0.75000006,0.75000006 0 0 0 -0.873047,-0.601562 z m -4.199219,0.787109 a 0.75000006,0.75000006 0 0 0 -0.748046,0.751953 c 0.0012,0.826953 0.06229,1.790334 0.251953,2.6875 0.146842,0.694609 0.342314,1.375537 0.597656,2.044922 a 0.75000006,0.75000006 0 0 0 0.966797,0.433594 0.75000006,0.75000006 0 0 0 0.433594,-0.96875 c -0.225423,-0.590951 -0.399039,-1.194911 -0.53125,-1.820313 -0.157219,-0.74368 -0.217703,-1.62737 -0.21875,-2.378906 a 0.75000006,0.75000006 0 0 0 -0.751954,-0.75 z M 6.3515625,20.416016 a 0.75000006,0.75000006 0 0 0 -0.9355469,0.498046 l -0.2226562,0.730469 a 0.75007506,0.75007506 0 0 0 -0.025391,0.320313 c -0.06542,0.008 -0.1112806,0.0142 -0.1933593,0.02344 C 4.56555,22.034306 4.0423887,22.1248 3.5585938,22.289062 a 0.75000006,0.75000006 0 0 0 -0.46875,0.951172 0.75000006,0.75000006 0 0 0 0.9511718,0.470703 c 0.2450725,-0.08321 0.5666308,-0.135084 0.8535156,-0.179687 -0.0032,0.0954 -0.043361,0.173614 -0.042969,0.271484 4.438e-4,0.110499 0.026543,0.227494 0.029297,0.332032 -0.2400328,0.05677 -0.4248751,0.104958 -0.8476563,0.201171 A 0.75000006,0.75000006 0 0 0 3.46875,25.232422 0.75000006,0.75000006 0 0 0 4.3671875,25.798828 c 0.3465948,-0.07888 0.5554573,-0.137029 0.8027344,-0.193359 0.057951,0.162325 0.08323,0.318667 0.1738281,0.484375 0.3222585,0.589421 0.8425388,1.000009 1.4082031,1.175781 0.5656644,0.175772 1.1542961,0.14297 1.7070313,-0.0039 0.5467738,-0.145292 1.0543749,-0.354557 1.5332031,-0.585938 A 0.75000006,0.75000006 0 0 0 10.341797,25.673828 0.75000006,0.75000006 0 0 0 9.3398438,25.324219 c -0.4232309,0.204515 -0.8429075,0.375954 -1.265625,0.488281 -0.3463927,0.09205 -0.6537587,0.09084 -0.8769532,0.02148 -0.2231944,-0.06935 -0.3834641,-0.181868 -0.5371094,-0.46289 -0.01881,-0.0344 -0.022925,-0.07913 -0.039063,-0.113282 l 1.6562501,-0.322265 a 0.75000006,0.75000006 0 0 0 0.5917968,-0.878906 0.75000006,0.75000006 0 0 0 -0.8789062,-0.59375 l -1.6367188,0.320312 c -1.433e-4,-0.246814 0.045803,-0.368837 0.074219,-0.548828 A 0.75007506,0.75007506 0 0 0 6.5683594,23.25 l 0.796875,-0.0332 a 0.75000006,0.75000006 0 0 0 0.7167969,-0.78125 0.75000006,0.75000006 0 0 0 -0.7812501,-0.71875 l -0.5683593,0.02539 0.1191406,-0.390625 a 0.75000006,0.75000006 0 0 0 -0.5,-0.935546 z m 7.9804685,1.128906 c -0.50703,0.141349 -1.071002,0.255588 -1.693359,0.392578 -0.754032,0.165974 -1.526565,0.354858 -2.287109,0.621094 a 0.75000006,0.75000006 0 0 0 -0.4589849,0.955078 0.75000006,0.75000006 0 0 0 0.9550779,0.460937 c 0.670018,-0.234546 1.383775,-0.411689 2.113282,-0.572265 0.607014,-0.133613 1.194186,-0.25258 1.773437,-0.414063 a 0.75000006,0.75000006 0 0 0 0.521484,-0.923828 0.75000006,0.75000006 0 0 0 -0.923828,-0.519531 z"
			style="fill:#fea711;fill-opacity:1"
		/>
	</g>
</svg>
