<?xml version="1.0" encoding="UTF-8" standalone="no"?>
<svg xmlns="http://www.w3.org/2000/svg" xmlns:inkscape="http://www.inkscape.org/namespaces/inkscape" xmlns:sodipodi="http://sodipodi.sourceforge.net/DTD/sodipodi-0.dtd" xmlns:xlink="http://www.w3.org/1999/xlink" xmlns:rdf="http://www.w3.org/1999/02/22-rdf-syntax-ns#" xmlns:cc="http://creativecommons.org/ns#" xmlns:dc="http://purl.org/dc/elements/1.1/" width="110" height="28" role="img" aria-label="元帥">
	<title>元帥</title>
	<metadata>
		<rdf:RDF>
			<cc:Work>
				<dc:title>元帥</dc:title>
				<dc:creator>
					<cc:Agent><dc:title>zawa-ch.</dc:title></cc:Agent>
				</dc:creator>
				<cc:license
					 rdf:resource="http://www.opensource.org/licenses/mit-license.php" />
			</cc:Work>
		</rdf:RDF>
	</metadata>
	<defs>
		<linearGradient id="s" x2="0" y2="100%">
			<stop offset="0" stop-color="#bbb" stop-opacity=".1"/>
			<stop offset="1" stop-opacity=".1"/>
		</linearGradient>
	</defs>
	<clipPath id="r">
		<rect width="110" height="20" rx="3" fill="#fff"/>
	</clipPath>
	<style>
	.bg {
		fill: #00051f;
	}
	.fg {
		fill: #fff;
	}
	text.fg {
		font-style: normal;
		font-variant: normal;
		font-weight: normal;
		font-stretch: normal;
		line-height: 1;
		font-family: 'Zen Antique';
		-inkscape-font-specification: 'Zen Antique, Normal';
		font-variant-ligatures: normal;
		font-variant-caps: normal;
		font-variant-numeric: normal;
		font-variant-east-asian: normal;
		text-align: start;
		letter-spacing: 0px;
		writing-mode: lr-tb;
		direction: ltr;
		text-anchor: start;
	}
	.shadow {
		fill: #010101;
		fill-opacity: .3;
	}
	.star {
		fill: #ffd75f;
	}
	.belt {
		fill: #ffd75f;
	}
	</style>
	<g transform="translate(0, 4)" clip-path="url(#r)">
		<rect width="0" height="20" fill="#555"/>
		<rect x="0" width="110" height="20" class="bg"/>
		<rect width="110" height="20" fill="url(#s)"/>
	</g>
	<g>
		<path d="m 18,4 3,10 -3,10 h 2 l 3,-10 -3,-10 Z m 4,0 3,10 -3,10 h 8 l 3,-10 -3,-10 Z" class="belt" />
		<path
			sodipodi:type="star"
			inkscape:flatsided="false"
			sodipodi:sides="6"
			sodipodi:cx="10"
			sodipodi:cy="14"
			sodipodi:r1="6"
			sodipodi:r2="3.48"
			sodipodi:arg1="-1.5707963"
			sodipodi:arg2="-1.0471975"
			inkscape:rounded="0"
			inkscape:randomized="0"
			d="M 10,8 11.74,10.986232 15.196153,11 13.48,14 15.196152,17 11.74,17.013769 10,20 8.26,17.013768 4.8038475,17 6.52,14 4.8038477,11 8.26,10.986231 Z"
			inkscape:transform-center-y="-0.57294902"
			class="star"
		/>
	</g>
	<g>
		<text xml:space="preserve" x="37" y="16" class="fg" style="font-size:12px"><tspan sodipodi:role="line" x="35" y="16">元帥</tspan></text>
		<g class="fg" aria-label="OF-10">
			<path d="m 39,20 h 2 v 2 h -2 z m -1,-1 v 4 h 4 v -4 z" />
			<path d="m 43,23 v -4 h 4 v 1 h -3 v 1 h 2 v 1 h -2 v 1 z" />
			<path d="m 48,22 v 1 h 4 v -1 z" />
			<path d="m 53,19 h 2 v 4 h -1 v -3 h -1 z" />
			<path d="m 57,20 h 2 v 2 h -2 z m -1,-1 v 4 h 4 v -4 z" />
		</g>
	</g>
</svg>
