<?xml version="1.0" encoding="UTF-8" standalone="no"?>
<svg xmlns="http://www.w3.org/2000/svg" xmlns:inkscape="http://www.inkscape.org/namespaces/inkscape" xmlns:sodipodi="http://sodipodi.sourceforge.net/DTD/sodipodi-0.dtd" xmlns:xlink="http://www.w3.org/1999/xlink" xmlns:rdf="http://www.w3.org/1999/02/22-rdf-syntax-ns#" xmlns:cc="http://creativecommons.org/ns#" xmlns:dc="http://purl.org/dc/elements/1.1/" width="110" height="28" role="img" aria-label="少佐">
	<title>少佐</title>
	<metadata>
		<rdf:RDF>
			<cc:Work>
				<dc:title>少佐</dc:title>
				<dc:creator>
					<cc:Agent><dc:title>zawa-ch.</dc:title></cc:Agent>
				</dc:creator>
				<cc:license
					 rdf:resource="https://www.apache.org/licenses/LICENSE-2.0" />
			</cc:Work>
		</rdf:RDF>
	</metadata>
	<defs>
		<linearGradient id="s" x2="0" y2="100%">
			<stop offset="0" stop-color="#bbb" stop-opacity=".1"/>
			<stop offset="1" stop-opacity=".1"/>
		</linearGradient>
	</defs>
	<clipPath id="r">
		<rect width="110" height="20" rx="3" fill="#fff"/>
	</clipPath>
	<style>
	.bg {
		fill: #00051f;
	}
	.fg {
		fill: #fff;
	}
	text.fg {
		font-style: normal;
		font-variant: normal;
		font-weight: normal;
		font-stretch: normal;
		line-height: 1;
		font-family: 'Zen Antique';
		-inkscape-font-specification: 'Zen Antique, Normal';
		font-variant-ligatures: normal;
		font-variant-caps: normal;
		font-variant-numeric: normal;
		font-variant-east-asian: normal;
		text-align: start;
		letter-spacing: 0px;
		writing-mode: lr-tb;
		direction: ltr;
		text-anchor: start;
	}
	.shadow {
		fill: #010101;
		fill-opacity: .3;
	}
	.star {
		fill: #a0dc64;
	}
	.belt {
		fill: #ffd75f;
	}
	</style>
	<g transform="translate(0, 4)" clip-path="url(#r)">
		<rect width="0" height="20" fill="#555"/>
		<rect x="0" width="110" height="20" class="bg"/>
		<rect width="110" height="20" fill="url(#s)"/>
	</g>
	<g>
		<path d="m 18,4 3,10 -3,10 h 4 l 3,-10 -3,-10 Z" class="belt" />
		<path
			sodipodi:type="star"
			inkscape:flatsided="false"
			sodipodi:sides="5"
			sodipodi:cx="7.6698728"
			sodipodi:cy="16.5"
			sodipodi:r1="3"
			sodipodi:r2="1.5"
			sodipodi:arg1="-1.5707963"
			sodipodi:arg2="-0.94247777"
			inkscape:rounded="0"
			inkscape:randomized="0"
			d="m 7.6698728,13.5 0.8816779,1.786475 1.9714913,0.286474 -1.4265845,1.390577 0.336771,1.963525 L 7.6698727,18 5.9065169,18.927051 6.243288,16.963525 4.8167032,15.572949 6.7881949,15.286474 Z"
			inkscape:transform-center-y="-0.75"
			class="star"
			transform="translate(-2,-2.2135255)"
		/>
		<path
			sodipodi:type="star"
			inkscape:flatsided="false"
			sodipodi:sides="5"
			sodipodi:cx="16.330128"
			sodipodi:cy="16.5"
			sodipodi:r1="3"
			sodipodi:r2="1.5"
			sodipodi:arg1="-1.5707963"
			sodipodi:arg2="-0.94247777"
			inkscape:rounded="0"
			inkscape:randomized="0"
			d="m 16.330128,13.5 0.881678,1.786475 1.971491,0.286474 -1.426585,1.390577 0.336771,1.963525 L 16.330128,18 l -1.763356,0.927051 0.336771,-1.963526 -1.426585,-1.390576 1.971492,-0.286475 z"
			inkscape:transform-center-y="-0.75"
			class="star"
			transform="translate(-2,-2.2135255)"
		/>
	</g>
	<g>
		<text xml:space="preserve" x="37" y="16" class="fg" style="font-size:12px"><tspan sodipodi:role="line" x="35" y="16">少佐</tspan></text>
		<g class="fg" aria-label="AF.OF-3">
			<path d="m 41,21 v -1 h -2 v 1 z m -3,-2 h 4 v 4 h -1 v -1 h -2 v 1 h -1 z" />
			<path d="m 43,23 v -4 h 4 v 1 h -3 v 1 h 2 v 1 h -2 v 1 z" />
			<path d="m 47,22 v 1 h 1 v -1 z" />
			<path d="m 50,20 h 2 v 2 h -2 z m -1,-1 v 4 h 4 v -4 z" />
			<path d="m 54,23 v -4 h 4 v 1 h -3 v 1 h 2 v 1 h -2 v 1 z" />
			<path d="m 59,22 v 1 h 4 v -1 z" />
			<path d="m 64,19 v 1 h 3 v 1 h -2 v 1 h -1 v 1 h 4 v -4 z" />
		</g>
	</g>
</svg>
