<?xml version="1.0" encoding="UTF-8" standalone="no"?>
<svg xmlns="http://www.w3.org/2000/svg" xmlns:xlink="http://www.w3.org/1999/xlink" width="110" height="28" role="img" aria-label="空士長">
	<title>空士長</title>
	<metadata>
		<rdf:RDF>
			<cc:Work>
				<dc:title>空士長</dc:title>
				<dc:creator>
					<cc:Agent><dc:title>zawa-ch.</dc:title></cc:Agent>
				</dc:creator>
				<cc:license
					 rdf:resource="http://www.opensource.org/licenses/mit-license.php" />
			</cc:Work>
		</rdf:RDF>
	</metadata>
	<defs>
		<linearGradient id="s" x2="0" y2="100%">
			<stop offset="0" stop-color="#bbb" stop-opacity=".1"/>
			<stop offset="1" stop-opacity=".1"/>
		</linearGradient>
	</defs>
	<clipPath id="r">
		<rect width="110" height="20" rx="3" fill="#fff"/>
	</clipPath>
	<style>
	.bg {
		fill: #00051f;
	}
	.fg {
		fill: #fff;
	}
	text.fg {
		font-style: normal;
		font-variant: normal;
		font-weight: normal;
		font-stretch: normal;
		line-height: 1;
		font-family: 'Zen Antique';
		-inkscape-font-specification: 'Zen Antique, Normal';
		font-variant-ligatures: normal;
		font-variant-caps: normal;
		font-variant-numeric: normal;
		font-variant-east-asian: normal;
		text-align: start;
		letter-spacing: 0px;
		writing-mode: lr-tb;
		direction: ltr;
		text-anchor: start;
	}
	.shadow {
		fill: #010101;
		fill-opacity: .3;
	}
	.star {
		fill: #a0dc64;
	}
	.belt {
		fill: #ffd75f;
	}
	</style>
	<g transform="translate(0, 4)" clip-path="url(#r)">
		<rect width="0" height="20" fill="#555"/>
		<rect x="0" width="110" height="20" class="bg"/>
		<rect width="110" height="20" fill="url(#s)"/>
	</g>
	<g>
		<path d="m 21,4 -3,20 h 2 l 3,-20 Z m 4,0 -3,20 h 2 l 3,-20 z m 4,0 -3,20 h 2 l 3,-20 z m 4,0 -3,20 h 2 l 3,-20 z" class="belt" />
		<path
			sodipodi:type="star"
			inkscape:flatsided="false"
			sodipodi:sides="4"
			sodipodi:cx="10"
			sodipodi:cy="14"
			sodipodi:r1="6"
			sodipodi:r2="3"
			sodipodi:arg1="-1.5707963"
			sodipodi:arg2="-0.78539814"
			inkscape:rounded="0"
			inkscape:randomized="0"
			d="M 10,8 12.12132,11.87868 16,14 12.12132,16.12132 9.9999998,20 7.8786796,16.12132 4,14 7.8786797,11.87868 Z"
			inkscape:transform-center-y="-0.57294902"
			class="star"
		/>
	</g>
	<g>
		<text xml:space="preserve" x="37" y="16" class="fg" style="font-size:12px"><tspan sodipodi:role="line" x="35" y="16">空士長</tspan></text>
		<g class="fg" aria-label="AF.OR-4">
			<path d="m 41,21 v -1 h -2 v 1 z m -3,-2 h 4 v 4 h -1 v -1 h -2 v 1 h -1 z" />
			<path d="m 43,23 v -4 h 4 v 1 h -3 v 1 h 2 v 1 h -2 v 1 z" />
			<path d="m 47,22 v 1 h 1 v -1 z" />
			<path d="m 50,20 h 2 v 2 h -2 z m -1,-1 v 4 h 4 v -4 z" />
			<path d="m 54,19 v 4 h 1 v -1 h 2 v 1 h 1 v -1 h -1 v -1 h 1 v -1 h -1 v -1 z m 1,1 h 2 v 1 h -2 z" />
			<path d="m 59,22 v 1 h 4 v -1 z" />
			<path d="m 64,19 v 3 h 3 v 1 h 1 v -4 h -1 v 2 h -2 v -2 z" />
		</g>
	</g>
</svg>
