<?xml version="1.0" encoding="UTF-8" standalone="no"?>
<svg
	width="256"
	height="256"
	viewBox="0 0 32 32"
	version="1.1"
	inkscape:version="1.3.2 (091e20ef0f, 2023-11-25, custom)"
	aria-label="一緒にブラックホール実験しよ…？"
	sodipodi:docname="square_issyoniblackholejikkenshiyo.svg"
	xmlns:inkscape="http://www.inkscape.org/namespaces/inkscape"
	xmlns:sodipodi="http://sodipodi.sourceforge.net/DTD/sodipodi-0.dtd"
	xmlns="http://www.w3.org/2000/svg"
	xmlns:svg="http://www.w3.org/2000/svg"
	xmlns:rdf="http://www.w3.org/1999/02/22-rdf-syntax-ns#"
	xmlns:cc="http://creativecommons.org/ns#"
	xmlns:dc="http://purl.org/dc/elements/1.1/"
>
	<title>square_issyoniblackholejikkenshiyo</title>
	<metadata>
		<rdf:RDF>
			<cc:Work>
				<dc:title>一緒にブラックホール実験しよ…？</dc:title>
				<dc:creator>
					<cc:Agent><dc:title>zawa-ch.</dc:title></cc:Agent>
				</dc:creator>
				<cc:license
					 rdf:resource="https://www.apache.org/licenses/LICENSE-2.0" />
			</cc:Work>
		</rdf:RDF>
	</metadata>
	<style>
		.typography {
			-inkscape-font-specification:'源柔ゴシック, Black';
			font-family:'源柔ゴシック';
			font-stretch:normal;
			font-style:normal;
			font-variant:normal;
			font-weight:900;
			line-height:1;
			text-anchor:middle;
			text-align:center;
		}
		.fg { 
			fill:#e8383d;
			fill-opacity:1;
			stroke:none;
		}
	</style>
	<sodipodi:namedview
		pagecolor="#505050"
		bordercolor="#eeeeee"
		borderopacity="1"
		inkscape:showpageshadow="0"
		inkscape:pageopacity="0"
		inkscape:pagecheckerboard="0"
		inkscape:deskcolor="#505050"
		inkscape:document-units="px"
		showgrid="false"
		>
		<sodipodi:guide position="0,0" orientation="32,0" />
		<sodipodi:guide position="16,0" orientation="32,0" />
		<sodipodi:guide position="32,0" orientation="32,0" />
		<sodipodi:guide position="0,0" orientation="0,32" />
		<sodipodi:guide position="0,10.6667" orientation="0,32" />
		<sodipodi:guide position="0,21.3333" orientation="0,32" />
		<sodipodi:guide position="0,32" orientation="0,32" />
	</sodipodi:namedview>
	<g inkscape:groupmode="layer" display="none">
		<text xml:space="preserve" x="16.000776" y="9.2670641" class="typography fg" style="font-size:10.8575px" ><tspan sodipodi:role="line" x="16.000776" y="9.2670641">一緒に</tspan><tspan sodipodi:role="line" x="16.000776" y="20.124586">ブラックホール</tspan><tspan sodipodi:role="line" x="16.000776" y="30.982109">実験しよ…？</tspan></text>
	</g>
	<g inkscape:groupmode="layer">
		<g  style="font-size:10.8575px" class="typography fg" aria-label="一緒に&#10;ブラックホール&#10;実験しよ…？">
			<path
				d="M 0,4.5593199 Q 0,4.3048473 0.1847826,4.1245958 0.38043478,3.9337413 0.64130434,3.9337413 H 9.7282608 q 0.2608696,0 0.4456522,0.1908545 0.195652,0.1802515 0.195652,0.4347241 v 0.4771363 q 0,0.2544726 -0.195652,0.4453271 Q 9.9891304,5.6620348 9.7282608,5.6620348 H 0.64130434 q -0.26086956,0 -0.45652174,-0.1802515 Q 0,5.2909288 0,5.0364562 Z m 19.380435,2.2054297 q 0.08695,0 0.08695,-0.074221 v -0.402915 q 0,-0.084824 -0.08695,-0.084824 h -1.76087 q -0.07609,0 -0.07609,0.084824 v 0.402915 q 0,0.074221 0.07609,0.074221 z m -1.836958,1.7388965 q 0,0.074221 0.07609,0.074221 h 1.76087 q 0.08695,0 0.08695,-0.074221 V 8.079525 q 0,-0.084824 -0.08695,-0.084824 h -1.76087 q -0.07609,0 -0.07609,0.084824 z M 13.250001,4.5381139 q -0.01086,0.021206 0,0.042412 0.01086,0.010603 0.03261,0.010603 l 0.445652,-0.031809 q 0.08695,0 0.05435,-0.074221 -0.07609,-0.1802514 -0.152172,-0.3286938 -0.01086,-0.021206 -0.04348,-0.021206 -0.02175,0 -0.03261,0.021206 -0.195652,0.2438696 -0.304347,0.381709 z M 18.434783,2.269066 q -0.08696,0 -0.08696,0.074221 v 0.5513574 q 0,0.074221 0.08696,0.074221 h 0.07609 q 0.08695,0 0.130434,-0.063618 0.250001,-0.3180908 0.423913,-0.5725634 0.01086,-0.021206 0,-0.042412 -0.01086,-0.021206 -0.03261,-0.021206 z m 3.130435,1.3995996 q 0,0.2544727 -0.184784,0.4453272 -0.184781,0.1802514 -0.456522,0.1802514 h -1.467391 q -0.07609,0 -0.130434,0.063618 -0.250001,0.2650757 -0.510869,0.5195483 -0.02174,0.021206 -0.01086,0.042412 0.01086,0.010603 0.03261,0.010603 h 1.543478 q 0.271738,0 0.456522,0.1908545 0.184782,0.1802514 0.184782,0.4347241 v 4.1245777 q 0,0.2650756 -0.184782,0.4453272 -0.184784,0.180252 -0.456522,0.180252 h -0.52174 q -0.163042,0 -0.282608,-0.116634 -0.108696,-0.10603 -0.108696,-0.2650756 0,-0.053015 -0.05434,-0.053015 h -1.826087 q -0.04348,0 -0.04348,0.053015 0,0.1484426 -0.119565,0.2544726 -0.108695,0.106031 -0.26087,0.106031 h -0.434782 q -0.271738,0 -0.456522,-0.180252 -0.1848,-0.1802512 -0.1848,-0.4453269 V 6.8601769 q 0,-0.042412 -0.05435,-0.021206 -0.152173,0.084824 -0.326085,0.042412 Q 15.543478,6.8283678 15.434782,6.6905284 15.228261,6.4254527 14.989131,6.1709801 14.945652,6.117965 14.880435,6.149774 l -0.02175,0.010603 q -0.07609,0.031809 -0.163044,0.031809 -0.08695,0 -0.173912,-0.042412 -0.173914,-0.095427 -0.228261,-0.2756787 -0.01086,-0.063618 -0.07609,-0.053015 l -0.206521,0.021206 q -0.07609,0 -0.07609,0.084824 v 0.7316088 q 0,0.031809 0.02175,0.053015 0.02175,0.010603 0.05435,0 l 0.347825,-0.1060303 q 0.108697,-0.031809 0.206523,-0.031809 0.152173,0 0.293477,0.074221 0.25,0.1060303 0.336957,0.360503 0.119565,0.3605029 0.206522,0.7104028 0.01086,0.074221 0.01086,0.1484424 0,0.1696484 -0.08695,0.3286938 -0.141305,0.2226636 -0.402173,0.3074878 -0.08695,0.021206 -0.163045,0.021206 -0.141304,0 -0.271738,-0.074221 Q 14.293486,8.3233943 14.239138,8.0901277 14.130443,7.5493733 13.956529,7.051031 q 0,-0.010603 -0.01086,-0.010603 -0.01086,0 -0.01086,0.010603 v 2.6189477 q 0,0.2650757 -0.195652,0.4453273 -0.184783,0.180252 -0.445653,0.180252 h -0.09782 q -0.271738,0 -0.456522,-0.180252 Q 12.554348,9.9350548 12.554348,9.6699791 V 7.0722374 q 0,0 -0.01086,0 -0.130436,1.0390967 -0.369566,1.8555298 -0.07609,0.2332666 -0.304348,0.3180908 -0.108696,0.042412 -0.217391,0.042412 -0.130435,0 -0.25,-0.063618 h -0.01086 Q 11.15218,9.1186217 11.054354,8.8747521 q -0.06522,-0.1484424 -0.06522,-0.2968848 0,-0.095427 0.02175,-0.1908545 0.152174,-0.5513574 0.239131,-1.2935693 0.03261,-0.2544727 0.228259,-0.4135181 0.163045,-0.1166333 0.358696,-0.1166333 0.04348,0 0.09783,0.010603 l 0.54348,0.084824 q 0.07609,0.010603 0.07609,-0.063618 V 6.0331407 q 0,-0.074221 -0.08695,-0.074221 l -0.717391,0.063618 q -0.03261,0 -0.06522,0 -0.228262,0 -0.413045,-0.1484424 -0.206518,-0.1590454 -0.239126,-0.4241211 l -0.01086,-0.095427 q -0.01086,-0.042412 -0.01086,-0.084824 0,-0.2014576 0.141304,-0.371106 0.163044,-0.1908545 0.423913,-0.2014575 l 0.119566,-0.010603 q 0.07609,0 0.130435,-0.063618 0.02175,-0.031809 0.119564,-0.1696485 0.09783,-0.1378393 0.163044,-0.2120605 0.04347,-0.063618 0,-0.1378394 -0.271758,-0.4241217 -0.739148,-0.954273 -0.184784,-0.2014575 -0.206523,-0.4771363 0,-0.031809 0,-0.053015 0,-0.2438696 0.141305,-0.4453271 l 0.271739,-0.371106 q 0.05435,-0.074221 0.152174,-0.084824 0.09782,-0.010603 0.163044,0.063618 0.03261,0.010603 0.04347,-0.010603 0.27174,-0.5831665 0.489131,-1.17693603 0.09783,-0.24386963 0.326087,-0.36050294 0.141305,-0.0742212 0.282609,-0.0742212 0.09782,0 0.206522,0.0424121 l 0.173912,0.0530151 q 0.239131,0.0848242 0.336957,0.31809082 0.04348,0.0954273 0.04348,0.20145752 0,0.1166333 -0.06522,0.24386963 -0.565218,1.0496997 -0.923914,1.6010571 -0.04348,0.063618 0.01086,0.1272363 0.05435,0.053015 0.108697,0.1378394 0.02175,0.021206 0.04347,0.021206 0.03261,0 0.05435,-0.021206 0.315217,-0.5301514 0.576087,-1.0178906 0.130435,-0.2332666 0.380434,-0.3180909 0.108697,-0.042412 0.228261,-0.042412 0.130434,0 0.271739,0.063618 l 0.130436,0.053015 q 0.22826,0.1060303 0.293478,0.3392969 0.02175,0.084824 0.02175,0.1590454 0,0.1484424 -0.08695,0.2862818 -0.52174,0.7422119 -1.032609,1.4208056 -0.01086,0.010603 0,0.031809 0.01086,0.010603 0.02175,0 l 0.239131,-0.095427 q 0.130434,-0.053015 0.271738,-0.053015 0.119566,0 0.239132,0.042412 0.260869,0.084824 0.369564,0.3286939 0.358696,0.7316089 0.554348,1.3571875 0.02174,0.074221 0.09782,0.031809 0.847827,-0.4559302 1.663044,-1.1239209 0.01086,-0.010603 0,-0.031809 0,-0.021206 -0.02175,-0.021206 h -1.445652 q -0.27174,0 -0.456521,-0.1802514 -0.184784,-0.1908545 -0.184784,-0.4453272 v -0.074221 q 0,-0.2544726 0.184784,-0.4347241 0.184781,-0.1908545 0.456521,-0.1908545 h 0.98913 q 0.07609,0 0.07609,-0.074221 v -0.551358 q 0,-0.074221 -0.07609,-0.074221 h -0.663039 q -0.260869,0 -0.456522,-0.1802515 Q 15.478261,1.89796 15.478261,1.6434874 v -0.053015 q 0,-0.2650756 0.184782,-0.4453271 0.195653,-0.18025147 0.456522,-0.18025147 h 0.663043 q 0.07609,0 0.07609,-0.0848242 V 0.62559675 q 0,-0.26507569 0.184782,-0.44532715 Q 17.23913,1.8130988e-5 17.5,1.8130988e-5 h 0.206522 q 0.271739,0 0.456522,0.180251469012 0.184781,0.18025146 0.184781,0.44532715 v 0.25447266 q 0,0.0848242 0.08696,0.0848242 h 0.467391 q 0.249999,0 0.423913,0.16964849 0.173912,0.1696484 0.173912,0.402915 0,0.010603 0.01086,0.021206 0.02174,0 0.02174,-0.010603 0.206522,-0.3711059 0.380434,-0.78462401 0.108697,-0.24386964 0.347827,-0.36050294 0.141305,-0.0636182 0.282609,-0.0636182 0.108695,0 0.206522,0.0318091 l 0.184782,0.0636182 q 0.250001,0.0742212 0.369565,0.30748779 0.05434,0.1166333 0.05434,0.24386963 0,0.10603033 -0.04348,0.22266363 -0.402174,0.9330664 -0.891304,1.6964843 -0.01086,0.021206 0,0.042412 0.01086,0.021206 0.03261,0.021206 h 0.46739 q 0.271741,0 0.456522,0.1908545 0.184783,0.1802515 0.184783,0.4347241 z m 5.902173,-0.402915 Q 27.195652,3.2445445 26.999999,3.05369 26.815217,2.8628355 26.815217,2.5977598 v -0.424121 q 0,-0.2544727 0.184782,-0.4135181 0.173914,-0.1590454 0.402174,-0.1590454 0.02175,0 0.04347,0.010603 0.782609,0.053015 1.619566,0.053015 0.945653,0 1.956522,-0.074221 0.03261,0 0.05435,0 0.22826,0 0.402174,0.1484424 0.184782,0.1696485 0.184782,0.4241211 v 0.4347241 q 0,0.2650757 -0.184782,0.4559302 -0.184783,0.1908545 -0.456522,0.2014575 -0.923913,0.053015 -1.826087,0.053015 -0.880435,0 -1.728261,-0.042412 z m -1.173914,3.477793 Q 26.336953,6.4784679 26.565216,6.3194225 26.75,6.1815831 26.98913,6.1815831 q 0.03261,0 0.07609,0 l 0.23913,0.021206 q 0.250001,0.021206 0.402175,0.2226635 0.141304,0.1802515 0.141304,0.3923121 0,0.031809 0,0.063618 -0.01086,0.1166333 -0.01086,0.2332666 0,0.3498999 0.326087,0.5089453 0.336957,0.1484424 1.032609,0.1484424 1.097827,0 2.152173,-0.1696484 0.04348,-0.010603 0.09783,-0.010603 0.184783,0 0.347826,0.1166333 0.184784,0.1590454 0.195654,0.402915 l 0.01086,0.5089453 q 0,0.2756787 -0.173913,0.4877393 -0.173913,0.2014575 -0.445653,0.2332666 -0.945652,0.1060303 -2.271738,0.1060303 -1.423914,0 -2.163044,-0.4771363 -0.728262,-0.4877392 -0.728262,-1.3677905 0,-0.4029151 0.07609,-0.8588452 z M 23.434782,1.3678087 q 0.03261,-0.2544727 0.228262,-0.42412113 0.173912,-0.14844238 0.402173,-0.14844238 0.03261,0 0.05434,0 l 0.586956,0.0530151 q 0.239131,0.010603 0.380435,0.21206061 0.08696,0.1378393 0.08696,0.2862817 0,0.074221 -0.02174,0.1484424 -0.07609,0.2968848 -0.119566,0.4983423 -0.141303,0.6149756 -0.336957,1.8979419 -0.184782,1.2723633 -0.184782,1.929751 0,0.1060303 0,0.1696484 0,0.021206 0.01086,0.031809 0.02174,0 0.03261,-0.021206 0.05435,-0.1166333 0.152174,-0.3074877 0.09783,-0.1696485 0.293478,-0.2120606 0.04348,-0.010603 0.09783,-0.010603 0.130435,0 0.249999,0.084824 0.184784,0.1378394 0.250001,0.3605029 0.03261,0.1060303 0.03261,0.2120606 0,0.1060303 -0.03261,0.2226636 -0.217392,0.6573877 -0.391305,1.2829663 -0.173914,0.6255786 -0.25,1.0072876 -0.04348,0.1590454 -0.06522,0.3711059 -0.02175,0.2650757 -0.206523,0.4559302 -0.173912,0.1908545 -0.423912,0.2120606 l -0.260869,0.010603 q -0.03261,0 -0.05434,0 -0.250001,0 -0.456523,-0.1378394 Q 23.260862,9.3943002 23.206515,9.1292245 22.913036,7.750831 22.913036,6.1921859 q 0,-0.5725634 0.05434,-1.2829663 0.06522,-0.7104028 0.108695,-1.1133179 0.05435,-0.402915 0.163044,-1.1133178 Q 23.34781,1.972181 23.34781,1.961578 23.43476,1.3784115 23.43476,1.3678085 Z"
			/>
			<path
				d="m 3.40696,12.002645 q 0.03184,0.13784 0.0091,0.286282 -0.022746,0.137839 -0.086425,0.190854 -0.00455,0.0106 -0.00455,0.03181 0,0.0106 0.00455,0.02121 l 0.090973,0.127236 q 0.095522,0.148442 0.1319118,0.402915 0.022742,0.137839 0.022742,0.286282 0,0.116633 -0.018194,0.243869 -0.00455,0.06362 -0.018194,0.169649 -0.0091,0.09543 -0.013647,0.10603 -0.077328,0.710403 -0.1455578,1.229951 -0.063682,0.519549 -0.2183366,1.325379 -0.1546551,0.795227 -0.3366023,1.378393 -0.286567,0.901257 -0.7095945,1.632866 -0.4184784,0.731609 -0.9370279,1.208746 -0.063682,0.05301 -0.1364606,0.05301 -0.0454862,0 -0.0955225,-0.02121 -0.1182654,-0.07422 -0.20014187,-0.286282 L 0.49125632,19.74285 q -0.0409393,-0.116633 -0.0409393,-0.243869 0,-0.05302 0.009099,-0.116634 0.0272929,-0.201457 0.11371715,-0.254472 0.98251513,-0.667991 1.56929473,-2.353872 0.3866381,-1.113318 0.5094526,-2.724979 0.00455,-0.08482 -0.03184,-0.08482 H 0.60497475 q -0.1501065,0 -0.33660237,0.02121 -0.004547,0 -0.0136465,0 -0.10007116,0 -0.17284986,-0.159045 Q 5.6114933e-8,13.646117 5.6114933e-8,13.402248 v -0.614976 q 0,-0.243869 0.08187604388507,-0.413518 0.06823003,-0.148442 0.16375251,-0.148442 0.009099,0 0.0227455,0 0.21833654,0.04241 0.33660236,0.04241 H 2.6609804 q 0.1273628,0 0.2046906,-0.02121 0.0091,0 0.013647,-0.02121 0.0091,-0.03181 0.00455,-0.05301 -0.040939,-0.180252 -0.081876,-0.339297 -0.03184,-0.116634 -0.03184,-0.24387 0,-0.08482 0.013647,-0.169648 0.027293,-0.212061 0.1182657,-0.296885 0.054584,-0.05302 0.1137172,-0.05302 0.040939,0 0.086425,0.03181 0.1046198,0.07422 0.1592039,0.286282 0.077328,0.307487 0.1455578,0.614975 z m 0.077328,-0.45593 q -0.03184,-0.127236 -0.03184,-0.254473 0,-0.07422 0.013647,-0.159045 0.027293,-0.212061 0.1137171,-0.296885 0.054584,-0.05302 0.1137172,-0.05302 0.045487,0 0.090973,0.04241 0.1046198,0.07422 0.1592039,0.286282 0.054584,0.21206 0.1137171,0.445327 0.031841,0.127236 0.031841,0.254473 0,0.08482 -0.013647,0.169648 -0.036387,0.222664 -0.1273632,0.318091 -0.050035,0.05301 -0.1046193,0.05301 -0.045487,0 -0.090973,-0.04241 -0.1000711,-0.08482 -0.1501069,-0.296885 -0.063681,-0.265075 -0.1182653,-0.466533 z m 4.2803084,2.820405 q 0.050035,0 0.095522,0 0.2410801,0 0.3911866,0.212061 l 0.045486,0.06362 q 0.095522,0.137839 0.1273631,0.402915 0.013646,0.116633 0.013646,0.222664 0,0.148442 -0.022744,0.275678 -0.2729208,1.834324 -0.6868508,2.915833 -0.5640364,1.484424 -1.410091,2.20543 -0.063682,0.05301 -0.1273631,0.05301 -0.050035,0 -0.1046196,-0.03181 Q 5.967867,20.612301 5.8859907,20.389636 L 5.6813005,19.848881 q -0.040938,-0.116633 -0.040938,-0.243869 0,-0.05301 0.00455,-0.116633 0.03184,-0.201458 0.1182658,-0.265076 0.8415058,-0.540755 1.3418607,-1.707088 0.2774696,-0.646784 0.4184787,-1.495026 0.00455,-0.03181 -0.00455,-0.05302 -0.00455,-0.02121 -0.018195,-0.02121 H 5.4174772 q -0.1501064,0 -0.3229563,0.0106 -0.00455,0 -0.013646,0 -0.100071,0 -0.1773986,-0.159045 -0.077328,-0.169648 -0.077328,-0.424121 v -0.445327 q 0,-0.254473 0.077328,-0.424121 0.072779,-0.159046 0.1728499,-0.159046 0.0091,0 0.018195,0.0106 0.1955932,0.02121 0.3229563,0.02121 H 7.632685 q 0.06823,0 0.1319118,-0.0106 z M 5.531194,13.317421 q -0.00455,0 -0.0091,0 -0.1046196,0 -0.1773985,-0.169649 -0.081877,-0.169648 -0.081877,-0.424121 v -0.445327 q 0,-0.24387 0.081877,-0.413518 0.072779,-0.159046 0.1728499,-0.159046 0.00455,0 0.013646,0 0.1319117,0.0106 0.2547261,0.0106 h 1.7648881 q 0.127363,0 0.2820182,-0.0106 0.0091,0 0.013646,0 0.1000709,0 0.1728498,0.159046 0.081877,0.169648 0.081877,0.413518 v 0.445327 q 0,0.254473 -0.081877,0.424121 -0.072779,0.169649 -0.1773986,0.169649 -0.00455,0 -0.0091,0 -0.1637525,-0.0106 -0.2911155,-0.0106 H 5.7859201 q -0.1273631,0 -0.2547261,0.0106 z m 5.212788,1.335981 q -0.01819,-0.116633 -0.01819,-0.222664 0,-0.127236 0.02274,-0.243869 0.04549,-0.222664 0.145557,-0.307488 l 0.159205,-0.116633 q 0.05003,-0.04241 0.09552,-0.04241 0.05914,0 0.118266,0.06362 0.104619,0.116633 0.145557,0.360503 0.100072,0.593769 0.200142,1.229951 0.01819,0.10603 0.01819,0.21206 0,0.13784 -0.0273,0.265076 -0.05003,0.233267 -0.154655,0.318091 l -0.168301,0.137839 q -0.04549,0.03181 -0.08642,0.03181 -0.05914,0 -0.118265,-0.06362 -0.09552,-0.116633 -0.131912,-0.360503 -0.09552,-0.66799 -0.200142,-1.26176 z m 1.473773,-0.169648 q 0.01819,-0.24387 0.10462,-0.371106 0.05458,-0.08483 0.113717,-0.08483 0.03639,0 0.06823,0.02121 l 0.286567,0.212061 q 0.104619,0.08482 0.154655,0.307488 0.0273,0.137839 0.0273,0.286282 0,0.09543 -0.0091,0.190854 -0.01819,0.127236 -0.04549,0.360503 -0.213789,1.834324 -0.627718,3.074878 -0.532195,1.632866 -1.332764,2.52352 -0.07277,0.08482 -0.150106,0.08482 -0.04093,0 -0.07733,-0.02121 -0.118266,-0.05301 -0.20469,-0.265066 L 10.3119,20.294213 q -0.05004,-0.116634 -0.05004,-0.254473 0,-0.05301 0.0091,-0.10603 0.02274,-0.201458 0.109169,-0.275679 0.363894,-0.318091 0.718692,-0.858845 0.354797,-0.540755 0.582231,-1.219348 0.195592,-0.561961 0.336602,-1.388997 0.141009,-0.827036 0.200142,-1.707087 z m -2.5518102,0.795227 q -0.022744,-0.116634 -0.022744,-0.233267 0,-0.10603 0.018195,-0.222664 0.040938,-0.233266 0.141009,-0.31809 L 9.975255,14.36712 q 0.050035,-0.04241 0.100071,-0.04241 0.05914,0 0.113717,0.05302 0.109168,0.09543 0.154656,0.339297 0.113717,0.625579 0.231982,1.346585 0.01819,0.10603 0.01819,0.222663 0,0.127237 -0.02729,0.254473 -0.04549,0.233267 -0.150107,0.328694 l -0.186495,0.159038 q -0.04549,0.04241 -0.09098,0.04241 -0.05458,0 -0.113717,-0.06362 -0.095524,-0.10603 -0.1319115,-0.3499 -0.122805,-0.78462 -0.2274247,-1.378389 z m 7.3188282,-2.597742 q 0.05914,-0.0106 0.113717,-0.0106 0.218337,0 0.37754,0.222663 l 0.118266,0.169649 q 0.09098,0.137839 0.122814,0.392312 0.0091,0.09543 0.0091,0.190854 0,0.159046 -0.0273,0.296885 -0.03639,0.180252 -0.05914,0.339297 -0.291115,2.088796 -0.805116,3.562617 -0.313858,0.901258 -0.709594,1.601057 -0.395735,0.6998 -0.937029,1.272364 -0.07733,0.08482 -0.163752,0.08482 -0.03184,0 -0.06823,-0.0106 -0.122814,-0.04241 -0.213788,-0.233267 L 14.47385,19.99733 q -0.05458,-0.106032 -0.05458,-0.254475 0,-0.04241 0.0045,-0.08482 0.01819,-0.201458 0.104619,-0.275679 0.577682,-0.466533 0.950675,-1.060302 0.372991,-0.604373 0.677753,-1.410203 0.204691,-0.530152 0.377541,-1.293569 0.17285,-0.774021 0.231982,-1.346585 0.0091,-0.07422 -0.0273,-0.07422 h -1.091683 q -0.03184,0 -0.05458,0.06362 -0.427576,1.229951 -0.937028,2.163018 -0.09552,0.159045 -0.213788,0.159045 0,0 0,0 -0.118266,0 -0.218338,-0.169648 l -0.200141,-0.3499 q -0.07733,-0.127237 -0.07733,-0.339297 0,-0.233267 0.08642,-0.371106 0.236531,-0.381709 0.432124,-0.795227 0.200142,-0.424121 0.350248,-0.848242 0.150107,-0.424122 0.24108,-0.721006 0.09098,-0.296885 0.200143,-0.689197 0.07733,-0.275679 0.154654,-0.710403 0.04549,-0.24387 0.14101,-0.3499 0.05914,-0.07422 0.122814,-0.07422 0.04094,0 0.08188,0.03181 l 0.313859,0.24387 q 0.09552,0.07422 0.127364,0.296884 0.01365,0.08482 0.01365,0.159046 0,0.137839 -0.03184,0.254473 -0.05458,0.21206 -0.127364,0.487739 -0.0045,0.02121 0,0.05302 0.0091,0.02121 0.01819,0.02121 h 0.718767 q 0.09098,0 0.195593,-0.03181 z m 2.137879,3.329351 q 0.05914,-0.233267 0.163752,-0.318091 0.04549,-0.03181 0.09098,-0.03181 0.05914,0 0.118266,0.06362 l 0.154655,0.169648 q 0.100071,0.106031 0.131912,0.3499 0.01365,0.09543 0.01365,0.180252 0,0.148442 -0.03639,0.286281 -0.27747,1.081509 -0.591329,2.025179 -0.07278,0.201457 -0.186496,0.243869 -0.02274,0 -0.04094,0 -0.09098,0 -0.168301,-0.116633 l -0.163753,-0.265076 q -0.08642,-0.137839 -0.100071,-0.381709 0,-0.03181 0,-0.06362 0,-0.201457 0.05914,-0.360503 0.318407,-0.837639 0.554939,-1.781308 z m 2.86112,-1.325379 h -0.968868 q -0.03639,0 -0.03639,0.07422 v 4.856187 q 0,0.508945 -0.136459,0.80583 -0.136461,0.296885 -0.400285,0.296885 -0.304761,0 -0.541293,-0.03181 -0.118265,-0.02121 -0.200142,-0.222664 -0.08188,-0.190854 -0.09552,-0.466533 l -0.01365,-0.371106 q 0,-0.02121 0,-0.05301 0,-0.201458 0.06368,-0.339297 0.06368,-0.137839 0.150106,-0.137839 0.0091,0 0.02275,0 0.14101,0.03181 0.245629,0.03181 0.08642,0 0.122814,-0.07422 0.03639,-0.08482 0.03639,-0.296884 0.0045,-0.307488 0.0045,-3.997342 0,-0.07422 -0.03184,-0.07422 h -1.082586 q -0.10462,0 -0.213788,0.0106 -0.0045,0 -0.0091,0 -0.10462,0 -0.177399,-0.169648 -0.08188,-0.169649 -0.08188,-0.424121 v -0.477137 q 0,-0.243869 0.08188,-0.413518 0.06823,-0.148442 0.163753,-0.148442 0.0091,0 0.02274,0 0.122815,0.02121 0.213789,0.02121 h 1.082585 q 0.03184,0 0.03184,-0.07422 v -0.646785 q 0,-0.169648 -0.0091,-0.424121 0,-0.03181 0,-0.05302 0,-0.212061 0.06368,-0.381709 0.06823,-0.180252 0.17285,-0.180252 h 0.295664 q 0.109168,0 0.177399,0.180252 0.05458,0.159045 0.05458,0.360503 0,0.04241 0,0.07422 -0.01365,0.275679 -0.01365,0.434724 v 0.636182 q 0,0.07422 0.03639,0.07422 h 0.96432 q 0.10462,0 0.236531,-0.0106 0.0091,0 0.01819,0 0.09552,0 0.168301,0.148442 0.08188,0.169649 0.08188,0.413518 v 0.466534 q 0,0.254472 -0.07733,0.424121 -0.07733,0.169648 -0.181947,0.169648 -0.0045,0 -0.0091,0 -0.118265,-0.0106 -0.231982,-0.0106 z m -0.518549,2.014575 q -0.04549,-0.148442 -0.04549,-0.318091 0,-0.06362 0.0091,-0.137839 0.02274,-0.243869 0.118265,-0.360503 l 0.14101,-0.180251 q 0.07278,-0.09543 0.145557,-0.09543 0.03639,0 0.07278,0.02121 0.109168,0.05302 0.177399,0.275678 0.245629,0.827036 0.500355,1.823721 0.03639,0.137839 0.03639,0.296885 0,0.08482 -0.0091,0.169648 -0.03184,0.254473 -0.131911,0.371106 l -0.191045,0.24387 q -0.05914,0.08482 -0.122814,0.08482 -0.03639,0 -0.07733,-0.03181 -0.104619,-0.07422 -0.154655,-0.307488 -0.24108,-1.0497 -0.468514,-1.85553 z m 2.078746,0.254473 q -0.0045,0 -0.01365,0 -0.100071,0 -0.17285,-0.169648 -0.08188,-0.169649 -0.08188,-0.424122 v -0.827036 q 0,-0.243869 0.08188,-0.424121 0.07277,-0.159045 0.17285,-0.159045 0.0045,0 0.01365,0 0.332054,0.04241 0.536744,0.04241 h 2.474483 q 0.127363,0 0.304761,-0.03181 0.0091,0 0.01819,0 0.09552,0 0.168301,0.159045 0.08188,0.169649 0.08188,0.413518 v 0.827036 q 0,0.254473 -0.08188,0.434725 -0.07278,0.159045 -0.168301,0.159045 -0.0091,0 -0.01819,0 -0.191044,-0.03181 -0.304761,-0.03181 h -2.474483 q -0.236531,0 -0.536744,0.03181 z m 4.985357,3.329351 q -0.07733,0.201457 -0.195594,0.222663 -0.01819,0 -0.03639,0 -0.100072,0 -0.181947,-0.127236 l -0.241083,-0.371106 q -0.08642,-0.137839 -0.08642,-0.381709 0,-0.212061 0.06823,-0.360503 0.391188,-0.848242 0.577683,-2.173621 0.131912,-0.922463 0.131912,-4.241211 0,-0.275678 -0.0045,-0.498342 -0.0045,-0.03181 -0.0045,-0.06362 0,-0.201458 0.05914,-0.371106 0.06823,-0.190855 0.168303,-0.190855 h 0.291115 q 0.109168,0 0.177399,0.190855 0.06368,0.169648 0.06368,0.381709 l -0.0091,0.530151 q 0,3.477793 -0.136461,4.697141 -0.177398,1.579852 -0.641364,2.756788 z m 1.983225,0.137839 q -0.09552,0.127236 -0.213789,0.127236 -0.0045,0 -0.0091,0 -0.118266,0 -0.204691,-0.169648 l -0.05914,-0.10603 q -0.168301,-0.328694 -0.168301,-0.901258 0,-0.05302 0,-0.116633 0.0045,-0.148442 0.0045,-0.286282 v -6.223977 l -0.0091,-0.445327 q 0,-0.212061 0.06368,-0.381709 0.06823,-0.190855 0.172849,-0.190855 h 0.300214 q 0.104619,0 0.177398,0.190855 0.05914,0.169648 0.05914,0.392312 l -0.0045,0.445327 v 5.259102 q 0,0.03181 0.0091,0.05301 0.0091,0.0106 0.02275,0 0.436673,-0.45593 0.836956,-1.548042 0.06368,-0.180252 0.159204,-0.180252 0,0 0.0045,0 0.100071,0.0106 0.154655,0.190855 l 0.127363,0.434724 Q 32,17.166315 32,17.43139 q 0,0.307488 -0.08642,0.519549 -0.286567,0.710402 -0.673205,1.388996 -0.38209,0.667991 -0.727789,1.081509 z"
			/>
			<path
				d="m 0.82768501,24.514218 q 0,0.08482 0.0438485,0.08482 H 1.9677994 q 0.027404,0 0.027404,-0.05302 0,-0.169649 0.060295,-0.286282 0.060294,-0.116633 0.147996,-0.116633 h 0.4056183 q 0.087701,0 0.147996,0.116633 0.065776,0.116633 0.065776,0.286282 0,0.05302 0.021924,0.05302 h 1.134635 q 0.043851,0 0.043851,-0.08482 v -0.477137 q 0,-0.08482 -0.043851,-0.08482 H 0.87152986 q -0.0438485,0 -0.0438485,0.08482 z m 4.10003379,4.294226 q 0,0.254472 -0.098664,0.445327 -0.093182,0.180251 -0.2247345,0.180251 h -1.353888 q -0.010962,0 -0.016444,0.02121 -0.00548,0.0106 0.00548,0.03181 0.5042823,0.848243 1.4470708,1.113318 0.1041452,0.02121 0.1425145,0.212061 0.010963,0.06362 0.010963,0.137839 0,0.10603 -0.032888,0.201458 -0.060295,0.169648 -0.1205892,0.3499 -0.076738,0.243869 -0.2082905,0.360503 -0.087701,0.09543 -0.1808838,0.09543 -0.038369,0 -0.08222,-0.02121 Q 3.5902736,31.681868 3.16273,31.183526 2.7406678,30.695787 2.4391945,29.900559 q -0.021924,-0.06362 -0.049333,-0.0106 -0.5152451,1.261761 -1.71017476,1.96156 -0.0548134,0.03181 -0.11510763,0.03181 -0.0767394,0 -0.15347732,-0.06362 -0.13155205,-0.10603 -0.21925306,-0.328693 -0.0548134,-0.148443 -0.10962677,-0.286282 -0.04933312,-0.10603 -0.04933312,-0.233267 0,-0.05302 0.01096438,-0.116633 0.03288844,-0.201458 0.13703339,-0.24387 0.89345629,-0.424121 1.33196249,-1.134524 0.010965,-0.0106 0.00548,-0.02121 0,-0.02121 -0.010965,-0.02121 H 0.32339788 q -0.13703282,0 -0.23021574,-0.180251 Q -3.237512e-8,29.062914 -3.237512e-8,28.808442 v -0.106031 q 0,-0.265075 0.09318217237512,-0.445327 0.09318311,-0.180251 0.23021574,-0.180251 H 1.9129832 q 0.043854,0 0.054814,-0.08482 0.010965,-0.127237 0.021924,-0.328694 0,-0.08482 -0.038369,-0.08482 H 0.94827446 q -0.13155206,0 -0.23021629,-0.180251 -0.0931822,-0.180251 -0.0931822,-0.445327 0,-0.265076 0.0931822,-0.445327 0.0986642,-0.180252 0.23021629,-0.180252 H 1.9568389 q 0.038369,0 0.038369,-0.08482 v -0.307488 q 0,-0.07422 -0.038369,-0.07422 h -1.096266 q -0.13703339,0 -0.23021575,-0.180251 -0.0931822,-0.190855 -0.0931822,-0.445328 v -0.10603 q 0,-0.07422 -0.0438538,-0.07422 h -0.1479955 q -0.13703339,0 -0.23021622,-0.180252 -0.09318216,-0.190854 -0.09318216,-0.445327 v -1.219348 q 0,-0.254473 0.09318216,-0.434724 0.0931831,-0.190854 0.23021622,-0.190854 H 1.9787616 q 0.038369,0 0.038369,-0.07422 V 22.3512 q 0,-0.265076 0.093182,-0.445327 0.098664,-0.180252 0.2302162,-0.180252 h 0.1973279 q 0.1315515,0 0.2247344,0.180252 0.098664,0.180251 0.098664,0.445327 v 0.159045 q 0,0.07422 0.038369,0.07422 h 1.6443988 q 0.1370332,0 0.2302158,0.190854 0.093182,0.180251 0.093182,0.434724 v 1.219348 q 0,0.254473 -0.093182,0.445327 -0.093182,0.180252 -0.2302158,0.180252 h -0.098664 q -0.043851,0 -0.043851,0.07422 v 0.10603 q 0,0.254473 -0.093182,0.445328 -0.093182,0.180251 -0.2302157,0.180251 h -1.216856 q -0.038369,0 -0.038369,0.07422 v 0.307488 q 0,0.08482 0.038369,0.08482 h 1.0853033 q 0.1315519,0 0.2247345,0.180252 0.098664,0.180251 0.098664,0.445327 0,0.265076 -0.098664,0.445327 -0.093182,0.180251 -0.2247345,0.180251 H 2.8557729 q -0.038369,0 -0.043848,0.08482 0,0.127236 -0.016445,0.328694 0,0.08482 0.038369,0.08482 h 1.7704692 q 0.1315519,0 0.2247344,0.180251 0.098664,0.180252 0.098664,0.445327 z m 1.1127097,0.03181 q 0,0.0106 0.00548,0.0106 h 0.032887 q 0.016444,-0.0106 0.032888,-0.0106 0.1041453,0 0.1863652,0.127236 0.093182,0.148442 0.1041453,0.381709 0.016444,0.45593 0.016444,0.922463 0,0.09543 0,0.190855 0,0.137839 -0.054813,0.254473 -0.049332,0.10603 -0.1260705,0.127236 -0.065776,0.0106 -0.1151079,-0.07422 -0.049332,-0.09543 -0.049332,-0.222664 0.00548,-0.169648 0.00548,-0.339297 0,-0.614975 -0.038369,-1.240554 0,-0.0106 -0.00548,-0.0106 0,0 0,0.0106 -0.043851,1.367791 -0.2028092,2.046384 -0.038369,0.169649 -0.1315518,0.212061 -0.032888,0.02121 -0.065776,0.02121 -0.054813,0 -0.1096265,-0.06362 -0.08222,-0.07422 -0.1041453,-0.254473 -0.010962,-0.06362 -0.010962,-0.137839 0,-0.09543 0.021925,-0.190855 0.1205893,-0.583166 0.1644399,-1.579851 0.00548,-0.169648 0.071257,-0.275679 0.071257,-0.10603 0.1589586,-0.07422 l 0.1699212,0.07422 q 0.043851,0.0106 0.043851,0.09543 z m 0.416581,0.286281 q -0.016444,-0.127236 0.021925,-0.233266 0.038369,-0.116633 0.1041452,-0.13784 0.065776,-0.02121 0.1260706,0.05302 0.060295,0.07422 0.076738,0.201457 0.071257,0.59377 0.098664,1.113318 0.010962,0.148442 -0.038369,0.265076 -0.043851,0.10603 -0.1151079,0.137839 -0.065776,0.02121 -0.1205892,-0.05301 -0.054813,-0.08482 -0.060295,-0.222664 -0.027406,-0.519548 -0.093182,-1.123921 z m 0.7893113,-2.17362 q 0,0.07422 0.038369,0.07422 h 0.301473 q 0.1370332,0 0.2302158,0.190855 0.087701,0.169648 0.087701,0.402915 0,1.728293 -0.1096264,3.064274 0,0.02121 0.00548,0.04241 0.010963,0.0106 0.021925,0 0.6084275,-0.667991 0.8605686,-1.696485 0.00548,-0.02121 -0.00548,-0.04241 -0.00548,-0.02121 -0.021925,-0.02121 H 8.2987359 q -0.1370333,0 -0.2302158,-0.180251 -0.093182,-0.190855 -0.093182,-0.445328 v -1.749499 q 0,-0.265076 0.093182,-0.445327 0.093182,-0.180252 0.2302158,-0.180252 h 0.5481328 q 0.043851,0 0.043851,-0.08482 v -0.24387 q 0,-0.08482 -0.043851,-0.08482 H 8.6330969 q -0.1096266,0 -0.1863652,-0.148442 -0.076738,-0.148443 -0.076738,-0.3499 0,-0.02121 -0.010963,-0.02121 -0.00548,-0.0106 -0.010962,0 -0.060295,0.09543 -0.1205892,0.180251 -0.071257,0.106031 -0.1479958,0.106031 -0.03837,0 -0.076738,-0.02121 -0.1205892,-0.06362 -0.1808838,-0.286282 -0.071257,-0.265076 -0.1479959,-0.508946 -0.00548,0 -0.010963,0 -0.00548,0 -0.00548,0.0106 0,0.159045 -0.060295,0.275678 -0.054813,0.116634 -0.1370332,0.116634 H 7.2846901 q -0.038369,0 -0.038369,0.07422 v 0.318091 q 0,0.08482 0.038369,0.08482 h 0.071257 q 0.1260706,0 0.2137718,0.169648 0.087701,0.169649 0.087701,0.413518 0,0.24387 -0.087701,0.413518 -0.087701,0.169649 -0.2137718,0.169649 h -0.071257 q -0.038369,0 -0.038369,0.08482 z M 6.3583456,26.55 q -0.038369,0 -0.038369,0.08482 v 0.318091 q 0,0.07422 0.038369,0.07422 h 0.2028091 q 0.043851,0 0.043851,-0.07422 V 26.63482 q 0,-0.08482 -0.043851,-0.08482 z m 0.2466598,-1.569248 q 0,-0.07422 -0.043851,-0.07422 H 6.3583457 q -0.038369,0 -0.038369,0.07422 v 0.318091 q 0,0.08482 0.038369,0.08482 h 0.2028091 q 0.043851,0 0.043851,-0.08482 z m 0,-1.558645 q 0,-0.08482 -0.043851,-0.08482 H 6.3583457 q -0.038369,0 -0.038369,0.08482 v 0.222663 q 0,0.08482 0.038369,0.08482 h 0.2028091 q 0.043851,0 0.043851,-0.08482 z m 2.1322368,0.880051 q -0.010963,0.0106 -0.00548,0.03181 0.00548,0.02121 0.016444,0.02121 h 0.9373072 q 0.010962,0 0.010962,-0.0106 0.00548,-0.02121 0,-0.04241 -0.2850291,-0.59377 -0.4713943,-1.166333 -0.010962,-0.02121 -0.027406,-0.02121 -0.010963,0 -0.016444,0.02121 -0.1699212,0.56196 -0.4439876,1.166333 z m -0.1096266,3.46719 q 0,0.07422 0.043851,0.07422 h 0.1479959 q 0.038369,0 0.043851,-0.07422 0.016444,-0.233267 0.021925,-0.604373 0.00548,-0.08482 -0.038369,-0.08482 H 8.6714662 q -0.043851,0 -0.043851,0.08482 z m 1.2113736,0.07422 q 0.043851,0 0.043851,-0.07422 v -0.604373 q 0,-0.08482 -0.043851,-0.08482 H 9.6471427 q -0.038369,0 -0.038369,0.08482 -0.00548,0.296885 -0.016444,0.604373 0,0.07422 0.038369,0.07422 z m 0.7344978,0.498342 q 0,0.254473 -0.09866,0.445328 -0.09318,0.180251 -0.224734,0.180251 H 9.8499518 q -0.016444,0 -0.021925,0.02121 -0.00548,0.02121 0,0.04241 0.2631042,0.890655 0.6796852,1.431409 0.09866,0.127236 0.115107,0.3499 0.0055,0.04241 0.0055,0.08482 0,0.180251 -0.06029,0.318091 -0.05481,0.127236 -0.109627,0.265076 -0.0877,0.222663 -0.213771,0.275678 -0.03289,0.0106 -0.06578,0.0106 -0.09318,0 -0.175403,-0.116633 -0.4001369,-0.614976 -0.6796846,-1.696484 -0.00548,-0.02121 -0.021925,-0.02121 -0.010963,0 -0.016444,0.02121 -0.3124357,1.081508 -0.9099006,1.791911 -0.08222,0.09543 -0.1699211,0.09543 -0.043851,0 -0.08222,-0.02121 -0.1315518,-0.06362 -0.2247345,-0.275678 -0.065776,-0.13784 -0.1315518,-0.275679 -0.010962,-0.02121 -0.027406,-0.02121 -0.010962,0.0106 -0.016444,0.04241 -0.027406,0.148442 -0.060295,0.233267 -0.1315519,0.360503 -0.3453237,0.424121 -0.071257,0.03181 -0.1699212,0.04241 -0.016444,0.0106 -0.027406,0.0106 -0.1151079,0 -0.2082905,-0.169649 -0.1041453,-0.169648 -0.1425146,-0.445327 -0.00548,-0.06362 -0.00548,-0.116633 0,-0.137839 0.043851,-0.254473 0.060295,-0.159045 0.1699211,-0.190854 0.065776,-0.0106 0.115108,-0.13784 0.049332,-0.127236 0.08222,-0.678593 0,-0.02121 -0.00548,-0.02121 -0.00548,-0.0106 -0.010962,-0.0106 -0.065776,0.04241 -0.1260706,-0.02121 -0.054813,-0.06362 -0.071257,-0.190855 -0.043851,-0.381709 -0.1260705,-0.80583 -0.021925,-0.10603 0.00548,-0.212061 0.027406,-0.116633 0.087701,-0.159045 0.060295,-0.04241 0.1205892,0.0106 0.065776,0.05302 0.093182,0.169649 0.027406,0.137839 0.054813,0.286281 0,0.0106 0.00548,0.0106 0.010962,0 0.010962,-0.0106 0.010962,-0.508945 0.016444,-0.742212 0,-0.07422 -0.03837,-0.07422 H 5.9801341 q -0.1370332,0 -0.2302158,-0.180251 -0.093182,-0.190855 -0.093182,-0.445327 V 22.7011 q 0,-0.254473 0.093182,-0.434724 0.093182,-0.190855 0.2302158,-0.190855 h 1.4635147 q 0.1315519,0 0.2247345,0.190855 0.098664,0.180251 0.098664,0.434724 v 0.0106 q 0,0.265076 -0.098664,0.445327 -0.093182,0.180251 -0.2247345,0.180251 H 7.2846903 q -0.038369,0 -0.038369,0.08482 v 0.222663 q 0,0.08482 0.038369,0.08482 h 0.1425146 q 0.093182,0 0.1589584,0.13784 0.071257,0.127236 0.071257,0.318091 0,0.0106 0.010963,0.02121 0.010962,0.0106 0.016444,0 0.2740665,-0.339297 0.531689,-0.869449 Q 8.4796199,22.80713 8.665985,22.24517 8.748205,21.990697 8.8742756,21.842255 9.0058274,21.693812 9.148342,21.693812 h 0.054813 q 0.3124358,0 0.5097636,0.519549 0.3891744,0.996684 0.8112364,1.548042 0.109627,0.137839 0.142515,0.381709 0.0055,0.07422 0.0055,0.148442 0,0.159045 -0.03837,0.296885 -0.04385,0.137839 -0.0877,0.286281 -0.06029,0.222664 -0.180884,0.286282 -0.03837,0.02121 -0.07674,0.02121 -0.07674,0 -0.147996,-0.10603 -0.01096,-0.0106 -0.02192,-0.03181 -0.0055,-0.0106 -0.01644,0 -0.0055,0.0106 -0.0055,0.03181 0,0.190854 -0.07674,0.339297 -0.071258,0.137839 -0.1754028,0.137839 h -0.197333 q -0.038369,0 -0.038369,0.08482 v 0.24387 q 0,0.08482 0.038369,0.08482 H 10.25009 q 0.131552,0 0.224735,0.180252 0.09866,0.180251 0.09866,0.445327 z m 1.447071,-5.42875 q 0,-0.04241 0,-0.07422 0,-0.201457 0.06578,-0.3499 0.08222,-0.190854 0.202809,-0.190854 0,0 0.0055,0 l 0.433025,0.0106 q 0.131552,0 0.213772,0.190854 0.07126,0.159046 0.07126,0.371106 0,0.03181 0,0.06362 -0.03289,0.572564 -0.04385,1.007288 -0.06577,2.714375 -0.06577,4.644126 0,1.357188 0.685166,1.357188 0.981157,0 1.660842,-1.675279 0.07674,-0.190854 0.197328,-0.190854 0.0055,0 0.01097,0 0.109627,0 0.186366,0.169648 l 0.202809,0.477136 q 0.09866,0.233267 0.09866,0.519549 0,0.265075 -0.0877,0.466533 -0.169921,0.392312 -0.383693,0.731609 -0.213772,0.328694 -0.4988,0.625578 -0.279549,0.307488 -0.641316,0.477137 -0.361768,0.180251 -0.750942,0.180251 -0.750942,0 -1.167523,-0.678594 -0.4111,-0.678593 -0.4111,-2.046384 0,-0.752815 0.02193,-2.735581 0.02741,-1.982766 0.02741,-2.322063 0,-0.530151 -0.03289,-1.028494 z m 6.873587,6.202771 v -0.116633 q 0,-0.08482 -0.03837,-0.09543 -0.180884,-0.05301 -0.37273,-0.05301 -0.268585,0 -0.427543,0.169648 -0.153478,0.159046 -0.153478,0.45593 0,0.604373 0.570058,0.604373 0.241179,0 0.32888,-0.212061 0.09318,-0.222663 0.09318,-0.752815 z m 2.302158,0.06362 q 0.104145,0.169648 0.126071,0.445327 0.0055,0.05301 0.0055,0.10603 0,0.201458 -0.06578,0.392312 l -0.16444,0.498342 q -0.06577,0.201458 -0.191847,0.233267 -0.02193,0 -0.03837,0 -0.09867,0 -0.180884,-0.137839 -0.405619,-0.689197 -0.833162,-1.15573 -0.01097,-0.0106 -0.02741,0.0106 -0.01097,0.0106 -0.01097,0.03181 v 0.07422 q 0,1.993369 -1.277149,1.993369 -0.317917,0 -0.581021,-0.116633 -0.263105,-0.106031 -0.476876,-0.3499 -0.213772,-0.233267 -0.334361,-0.646785 -0.12059,-0.424121 -0.12059,-0.996684 0,-0.954273 0.411101,-1.548042 0.411099,-0.604373 1.173004,-0.604373 0.08222,0 0.219253,0.02121 0.03837,0 0.03837,-0.07422 -0.03837,-1.3996 -0.03837,-2.163018 0,-0.6998 -0.01097,-1.61166 -0.01097,-0.466533 -0.02193,-0.752815 0,-0.03181 0,-0.05301 0,-0.212061 0.07126,-0.381709 0.08222,-0.180251 0.20829,-0.180251 h 0.361767 q 0.126072,0 0.213773,0.180251 0.07674,0.169648 0.07674,0.392312 l -0.02193,0.795227 q -0.0055,0.190855 -0.0055,0.519548 0,0.08483 0.03837,0.08483 0.674203,-0.03181 1.140116,-0.09543 0.01644,-0.0106 0.02741,-0.0106 0.115108,0 0.208291,0.159046 0.09866,0.169648 0.104144,0.424121 l 0.0055,0.296885 q 0.0055,0.265075 -0.0877,0.466533 -0.0877,0.190854 -0.224735,0.201457 -0.482356,0.06362 -1.162041,0.09543 -0.03837,0 -0.03837,0.08482 0.01644,0.667991 0.05481,1.866133 0,0.08482 0.03837,0.10603 0.772868,0.466533 1.392257,1.3996 z m 1.474476,-1.632867 q -0.147995,-0.286281 -0.147995,-0.689196 0,-0.413518 0.147995,-0.689197 0.147996,-0.286282 0.356287,-0.286282 0.20829,0 0.356287,0.286282 0.147995,0.275679 0.147995,0.689197 0,0.402915 -0.147995,0.689196 -0.147997,0.286282 -0.356287,0.286282 -0.208291,0 -0.356287,-0.286282 z m 1.869134,0 q -0.147997,-0.286281 -0.147997,-0.689196 0,-0.413518 0.147997,-0.689197 0.147996,-0.286282 0.356286,-0.286282 0.20829,0 0.356286,0.286282 0.147996,0.275679 0.147996,0.689197 0,0.402915 -0.147996,0.689196 -0.147996,0.286282 -0.356286,0.286282 -0.20829,0 -0.356286,-0.286282 z m 1.869132,0 q -0.147995,-0.286281 -0.147995,-0.689196 0,-0.413518 0.147995,-0.689197 0.147997,-0.286282 0.356287,-0.286282 0.20829,0 0.356287,0.286282 0.147995,0.275679 0.147995,0.689197 0,0.402915 -0.147995,0.689196 -0.147997,0.286282 -0.356287,0.286282 -0.20829,0 -0.356287,-0.286282 z m 4.53854,-0.04241 q -0.147996,0.59377 -0.367249,0.59377 h -0.241179 q -0.142514,0 -0.241178,-0.190855 -0.06578,-0.137839 -0.06578,-0.296884 0,-0.06362 0.01097,-0.13784 0.04933,-0.307488 0.16992,-0.583166 0.12059,-0.286282 0.257623,-0.48774 0.142515,-0.201457 0.274067,-0.392312 0.131551,-0.190854 0.213772,-0.402915 0.0877,-0.21206 0.0877,-0.445327 0,-0.434724 -0.169922,-0.646784 -0.169921,-0.222664 -0.460431,-0.222664 -0.312435,0 -0.570058,0.360503 -0.109627,0.159045 -0.241179,0.159045 -0.0055,0 -0.01097,0 -0.120589,0 -0.219253,-0.159045 l -0.07674,-0.127236 q -0.104145,-0.190855 -0.104145,-0.466534 0,-0.243869 0.09318,-0.413518 0.53717,-0.91186 1.244261,-0.91186 0.652278,0 1.057897,0.572563 Q 32,23.878039 32,24.991357 q 0,0.371106 -0.0877,0.678594 -0.08222,0.296884 -0.219254,0.519548 -0.131552,0.222663 -0.274066,0.413518 -0.142515,0.190854 -0.279548,0.424121 -0.131552,0.233267 -0.191846,0.477136 z m -1.15656,2.406887 q 0,-0.519548 0.186365,-0.848242 0.186365,-0.339297 0.476875,-0.339297 0.290511,0 0.476875,0.339297 0.186366,0.328694 0.186366,0.848242 0,0.519549 -0.186366,0.858846 -0.186364,0.339297 -0.476875,0.339297 -0.29051,0 -0.476875,-0.339297 -0.186365,-0.339297 -0.186365,-0.858846 z"
			/>
		</g>
	</g>
</svg>
