<?xml version="1.0" encoding="UTF-8" standalone="no"?>
<!-- Created with Inkscape (http://www.inkscape.org/) -->

<svg
	xmlns="http://www.w3.org/2000/svg"
	xmlns:cc="http://creativecommons.org/ns#"
	xmlns:dc="http://purl.org/dc/elements/1.1/"
	xmlns:inkscape="http://www.inkscape.org/namespaces/inkscape"
	xmlns:rdf="http://www.w3.org/1999/02/22-rdf-syntax-ns#"
	xmlns:sodipodi="http://sodipodi.sourceforge.net/DTD/sodipodi-0.dtd"
	xmlns:svg="http://www.w3.org/2000/svg"
	xmlns:xlink="http://www.w3.org/1999/xlink"
	width="32"
	height="32"
	viewBox="0 0 32 32"
	version="1.1"
	xml:space="preserve"
	inkscape:version="1.4 (e7c3feb100, 2024-10-09)"
	>
	<title>ここテストに出ます</title>
	<metadata>
		<rdf:RDF>
			<cc:Work rdf:about="">
				<cc:license rdf:resource="https://www.apache.org/licenses/LICENSE-2.0" />
				<dc:title>ここテストに出ます</dc:title>
				<dc:date>2025-06-02</dc:date>
				<dc:creator><cc:Agent><dc:title>zawa-ch.</dc:title></cc:Agent></dc:creator>
				<dc:rights><cc:Agent><dc:title>Copyright 2025 zawa-ch.</dc:title></cc:Agent></dc:rights>
				<dc:identifier>stellar_ch_handwritten_square_kokotesutonidemasu</dc:identifier>
				<dc:language>ja_JP</dc:language>
			</cc:Work>
		</rdf:RDF>
	</metadata>
	<sodipodi:namedview
		pagecolor="#505050"
		bordercolor="#eeeeee"
		borderopacity="1"
		inkscape:showpageshadow="0"
		inkscape:pageopacity="0"
		inkscape:pagecheckerboard="0"
		inkscape:deskcolor="#d1d1d1"
		inkscape:document-units="px"
		showgrid="false"
	/>
	<defs>
		<inkscape:path-effect
			effect="offset"
			id="path-effect2"
			is_visible="true"
			lpeversion="1.3"
			linejoin_type="miter"
			unit="px"
			offset="1"
			miter_limit="4"
			attempt_force_join="false"
			update_on_knot_move="true"
		/>
	</defs>
	<g inkscape:groupmode="layer">
		<image
			display="none"
			x="-0.75131017"
			y="-2.399152"
			width="36.553574"
			height="36.553574"
			preserveAspectRatio="none"
			xlink:href="stellar_ch_handwritten_square_kokotesutonidemasu.png"
		/>
		<path
			style="fill:#f9efec;stroke:none;fill-opacity:1"
			d="M 7.6367187,0.62304687 C 7.5592618,0.62236282 7.4834138,0.62493679 7.40625,0.62890625 5.4062466,0.73179057 3.2882292,2.3969195 3.7382813,4.7207031 3.754965,4.8068476 3.775883,4.8922466 3.7988281,4.9765625 3.5437228,4.9335627 3.271534,4.949358 2.9941406,5.0371094 2.0835887,5.3251571 1.8015737,6.2271282 1.6875,6.4785156 1.4728349,6.9515783 1.0668436,7.4480658 0.64257812,8.0917969 0.38429899,8.4836816 -0.03077976,9.2417835 0.33203125,10.089844 c 0.3032986,0.708949 0.99557345,1.047807 1.46093745,1.224609 0.3722913,0.141442 1.0256473,0.308681 1.1796876,0.359375 0.2829793,0.09313 1.5514677,0.720064 2.5312499,0.28125 C 6.4012522,11.553181 6.6900793,10.574772 6.3710937,9.7714844 6.7635906,9.5938352 7.1442609,9.3961345 7.515625,9.1816406 7.7874483,9.0246396 8.0951758,8.7967069 8.2753906,8.6757813 8.4813504,8.5375805 8.644082,8.4585024 8.7167969,8.4394531 c 0.070124,-0.018371 0.2380596,-0.024917 0.4960937,-0.00391 0.2257799,0.018385 0.6460686,0.064161 1.0097654,0.033203 1.567871,-0.1334581 3.14551,-0.4022026 4.685547,-0.9824219 0.651603,-0.245497 1.849414,-0.6446532 2.570313,-1.4921875 0.612226,-0.7197724 0.709334,-1.9618688 -0.244141,-2.6386718 -0.75263,-0.5342406 -1.56905,-0.2671184 -2.066406,-0.017578 -0.217123,0.1089376 -0.928647,0.5511112 -0.96875,0.5703125 -1.001968,0.4797393 -2.130638,0.7814271 -3.271485,0.9140625 0.03818,-0.2560869 0.05856,-0.5220848 0.04492,-0.796875 C 10.946239,3.4930304 10.817116,2.9271677 10.574219,2.421875 9.9738768,1.1730037 8.7985731,0.63330772 7.6367187,0.62304687 Z M 21.320312,1.8417969 c -0.04603,4.7e-4 -0.09227,4.162e-4 -0.136718,0.00195 -0.248431,0.00859 -0.499475,0.036102 -0.730469,0.082031 -0.897133,0.1783798 -2.168567,1.2388197 -1.705078,2.484375 0.126246,0.3392675 0.356403,0.5880632 0.628906,0.7753907 -0.767919,0.720916 -0.615993,1.9909018 0.216797,2.6425781 0.689714,0.5397128 1.755574,0.6539041 2.171875,0.7285156 0.275272,0.049337 0.813519,0.1279994 1.333984,-0.1074218 1.193922,-0.5400381 1.341019,-2.142184 0.351563,-2.9375001 -0.03371,-0.027098 -0.06911,-0.044412 -0.103516,-0.068359 C 24.658878,4.9159864 24.71573,3.1301432 23.529297,2.375 22.866292,1.953007 22.010696,1.8347465 21.320312,1.8417969 Z m 5.269532,0.6074219 c -0.04541,1.962e-4 -0.09136,0.00189 -0.136719,0.00391 -0.256657,0.011414 -0.535299,0.052775 -0.8125,0.1542969 -1.302603,0.477066 -1.679726,2.2741228 -0.421875,3.0761718 -0.05792,0.025014 -0.115939,0.050846 -0.173828,0.083984 -1.171185,0.6704287 -1.037938,2.1855114 -0.115235,2.8984375 0.473407,0.3657792 1.095462,0.5118203 1.333985,0.59375 0.3535,0.1214239 0.949521,0.3673834 1.455078,0.4921875 0.393697,0.09719 1.087666,0.2006578 1.705078,-0.2363281 C 30.477509,8.7698597 30.249934,7.3716275 29.384766,6.7128906 29.221795,6.5888038 29.035151,6.4818383 28.841797,6.3828125 28.995634,6.3626854 29.154,6.3286142 29.314453,6.2636719 30.774634,5.6726775 30.653167,3.8357361 29.449219,3.1230469 29.036279,2.8786018 28.591916,2.7917481 28.34375,2.7324219 27.948853,2.6380185 27.270999,2.4462749 26.589844,2.4492188 Z M 7.3984375,4.2441406 c -1.667e-4,0.011145 5.988e-4,0.021614 0,0.033203 -0.00682,-0.00724 -0.011341,-0.014401 -0.017578,-0.021484 0.00662,-0.00381 0.00653,-0.00631 0.013672,-0.00977 0.00158,-7.643e-4 0.00231,-0.00121 0.00391,-0.00195 z M 24.664062,11.486328 c -0.228259,0.0029 -0.456426,0.05153 -0.675781,0.148438 -1.142326,0.504642 -1.055026,1.786723 -1.074219,2.130859 -0.06479,1.161903 -0.08543,2.561024 0.148438,3.818359 0.167161,0.898741 1.046179,2.026493 2.337891,1.556641 0.144503,-0.05256 0.268013,-0.120009 0.380859,-0.195313 0.05901,0.05239 0.118614,0.104611 0.1875,0.152344 0.487624,0.337896 1.109105,0.410381 1.349609,0.455078 0.542218,0.100771 1.703011,0.423189 2.648438,0.246094 1.62211,-0.30385 1.957537,-2.393665 0.53125,-3.207031 -0.564135,-0.321711 -1.303623,-0.352193 -1.558594,-0.388672 -0.327932,-0.04692 -1.121724,-0.252267 -1.724609,-0.265625 -0.0533,-0.0012 -0.106237,-0.0014 -0.160157,0 -0.05392,0.0014 -0.108767,0.0038 -0.162109,0.0078 -0.139507,0.01057 -0.269275,0.03952 -0.394531,0.07617 -0.01735,-0.250537 -0.03124,-0.496671 -0.04102,-0.736328 0.588935,0.190966 1.226683,0.04116 1.300781,0.03906 0.165287,-0.0047 1.173041,0.188608 1.8125,0.02734 1.562717,-0.394096 1.732841,-2.38635 0.408204,-3.171875 -0.592695,-0.351474 -1.393763,-0.447558 -1.976563,-0.451172 -0.04674,-2.9e-4 -0.09363,-8.4e-4 -0.140625,0 -0.328991,0.0059 -0.659974,0.04068 -0.943359,0.09961 -0.291211,0.06056 -0.576464,0.204385 -0.830078,0.396484 -0.299696,-0.423856 -0.772192,-0.711711 -1.326172,-0.736328 -0.03263,-0.0015 -0.06505,-0.0024 -0.09766,-0.002 z M 4.5664062,12.855469 c -0.1330421,-7.14e-4 -0.2659631,7.61e-4 -0.3984375,0.0039 -0.3545917,0.0084 -0.7205657,0.03069 -1.0839843,0.07617 -0.9721564,0.12166 -2.29018857,1.18254 -1.7773438,2.457031 0.1473367,0.366152 0.4168067,0.630175 0.7226563,0.818359 0.3826707,0.235452 0.861987,0.321228 1.3261719,0.335938 -0.093448,0.222716 -0.1981265,0.459303 -0.2988282,0.710937 -0.1024698,0.256055 -0.5333629,1.067816 -0.2695312,1.888672 0.4887232,1.520566 2.318326,1.43942 3.1113281,0.355469 0.3784256,-0.517267 0.5756577,-1.177644 0.7050781,-1.517578 0.1540379,-0.404594 0.3316463,-0.856683 0.4785156,-1.339844 0.5813162,0.08628 1.2962483,0.139316 1.8417969,-0.04102 C 10.328636,16.139154 10.509608,14.251809 9.2773438,13.484375 8.5812528,13.050862 7.5917261,13.067464 7.265625,13.035156 6.4337245,12.952738 5.4977011,12.860464 4.5664062,12.855469 Z m 0.734375,8.25 c -0.4805456,0.01315 -0.9322699,0.239577 -1.2480468,0.65039 -0.8787948,-0.730407 -2.2718121,-0.435273 -2.6972657,0.716797 -0.1995458,0.540343 -0.1030154,1.127602 -0.083984,1.337891 0.043434,0.479946 0.098392,1.11038 0.3984375,1.685547 -0.1151546,0.09337 -0.2211485,0.205594 -0.3164063,0.33789 -0.50289513,0.698429 -0.3007292,1.640844 -0.2929687,1.816407 0.01285,0.290704 -0.027292,0.996776 0.3535156,1.613281 0.5406533,0.87528 1.4982136,1.08712 2.0703125,1.193359 1.2364496,0.229612 2.4371353,0.119557 3.4453125,0.128906 -0.00742,-6.9e-5 0.079663,0.0097 0.2148437,0.04883 0.1013859,0.02937 0.3725166,0.115799 0.5410157,0.158203 0.4879451,0.122794 1.2517026,0.2045 1.8710937,-0.419922 0.4841474,-0.488078 0.5610444,-1.123232 0.5820314,-1.492188 0.03099,-0.544798 0.211973,-2.103921 -0.6503907,-3.013672 0.334401,-0.517554 0.4837529,-1.12075 0.5390627,-1.753906 0.03668,-0.419876 0.125806,-1.345031 -0.5312502,-2.021484 -0.2311154,-0.237941 -0.5166994,-0.429166 -0.8613282,-0.513672 -0.6864669,-0.168328 -1.2388451,0.117608 -1.6132812,0.566406 -0.01158,-0.02134 -0.020856,-0.04353 -0.033203,-0.06445 -0.3243097,-0.549476 -0.9606718,-0.994493 -1.6875,-0.974609 z m 20.4023438,6.46875 c -0.02454,6.14e-4 -0.04931,0.0023 -0.07422,0.0039 -0.127137,0.0083 -0.252179,0.03094 -0.367187,0.0625 -0.394992,0.108388 -0.718151,0.336842 -0.941407,0.640625 -0.933192,1.26979 0.129721,3.187238 1.773438,2.724609 1.408097,-0.396316 1.72525,-2.29058 0.589844,-3.125 -0.286591,-0.210618 -0.61243,-0.315853 -0.980469,-0.30664 z M 4.4590201,10.581622 c -0.3461404,0.04198 -0.9456837,0.126383 -1.4353241,0.57219 -0.8881564,0.808649 -0.7902401,2.308242 0.3921302,2.85436 0.7156282,0.330537 1.6117789,0.08577 1.7876595,0.0697 0.2469491,-0.02256 0.6111628,0.0041 1.035703,0.03001 0.3980065,0.02431 0.9499161,0.04571 1.459827,-0.07435 1.6480692,-0.388047 1.8783515,-2.586149 0.3293928,-3.289458 -0.5943587,-0.269869 -1.2842412,-0.206996 -1.5445419,-0.207157 -0.553688,-3.4e-4 -1.3232038,-0.0404 -2.0248565,0.04471 m 8.0155579,2.3936 c -0.711149,0.905118 -1.492572,1.747852 -2.337278,2.545793 -0.2344166,0.221439 -1.242712,0.893341 -1.5768769,1.745532 -0.5553219,1.416187 0.8375134,2.720821 2.2156599,2.234411 1.109161,-0.391478 2.082149,-1.598576 2.546793,-2.12121 l -0.747352,0.335572 h 0.07615 l -0.640061,-0.231676 c 0.722071,0.60153 1.645765,1.140753 2.283975,1.577251 0.298478,0.20414 1.076828,0.780843 1.990294,0.49984 1.310323,-0.403091 1.50288,-1.958449 0.733492,-2.857463 -0.360615,-0.421369 -0.895968,-0.739578 -1.128781,-0.902587 -0.464577,-0.325284 -1.102293,-0.798976 -1.799807,-1.079356 l 0.469139,1.467159 c 0.211646,-0.330472 0.735543,-0.966624 1.016721,-1.555096 0.11896,-0.248966 0.235174,-0.556143 0.283876,-0.900196 0.0792,-0.559461 -0.01432,-1.091597 -0.299131,-1.538521 -0.930479,-1.460121 -3.417963,-1.251446 -4.182664,-1.209724 -0.155403,0.0085 -0.692117,-0.0205 -1.132486,0.106403 -1.1093867,0.319677 -1.719375,1.64632 -0.9715311,2.674421 0.5575382,0.766475 1.4867661,0.74653 1.8433701,0.750265 0.759224,0.008 1.422378,-0.02503 1.985736,0.06458 m 5.922937,1.748668 c 0.410522,0.07258 0.843484,0.20461 1.309823,0.357311 0.292044,0.09563 1.01332,0.396753 1.764427,0.144994 1.399419,-0.469068 1.496361,-2.206929 0.423237,-3.020629 -0.936065,-0.709772 -2.371882,-0.953034 -3.284318,-0.988706 l 0.959431,0.944432 c -0.01804,-0.328595 0.05317,-1.548995 -0.65361,-2.264636 -1.116301,-1.130313 -2.89053,-0.290685 -2.9781,1.194871 -0.03703,0.628082 0.07931,1.382801 0.101226,1.787826 0.03627,0.670316 0.0089,1.393735 0.0089,2.154416 0,0.321839 -0.165621,1.485661 0.35655,2.280729 0.83519,1.271685 2.61014,0.917635 3.088583,-0.425954 0.370214,-1.03965 0.07794,-2.619676 0.07794,-3.149393 m 0.493248,7.472952 c -0.558326,-0.113162 -1.514792,-0.236403 -2.312984,0.278484 -1.072323,0.691727 -1.148717,2.382659 0.04341,3.048956 0.447169,0.249932 0.940129,0.242222 1.224954,0.221134 0.265837,-0.01968 0.529373,-0.0487 0.564857,-0.04683 l -0.80984,-1.504658 c 0.01828,-0.03116 0.05246,-0.06197 0.0556,-0.06415 3.5e-4,-2.42e-4 3.35e-4,-2.22e-4 -7.9e-5,4.3e-5 -4.6e-4,2.95e-4 -0.0014,8.92e-4 -0.0029,0.0018 -0.0016,9.66e-4 -0.0039,0.0023 -0.0069,0.0039 -0.0033,0.0018 -0.0075,0.0039 -0.01249,0.0063 -0.0056,0.0027 -0.01221,0.0058 -0.0199,0.0091 -0.0085,0.0037 -0.01839,0.0079 -0.02949,0.01227 -0.01234,0.0049 -0.02624,0.01015 -0.04162,0.01571 -0.193534,0.06985 -0.927998,0.223492 -1.413375,0.68651 -1.128214,1.076241 -0.956451,2.840026 0.346105,3.690445 0.563435,0.367856 1.164022,0.406374 1.578004,0.418307 l -0.878027,-1.421059 c -0.154211,0.331799 -0.447196,0.996903 -0.196615,1.725001 0.503059,1.461694 2.279804,1.333531 3.065833,0.370619 0.551595,-0.675721 1.096473,-1.720561 1.027316,-2.803968 -0.01721,-0.269692 -0.204564,-0.976436 -0.205149,-0.993991 -0.0018,-0.05306 0.101252,-0.680807 0.117308,-0.935573 l -1.101755,0.931707 c 0.149846,0.01563 0.611191,0.116185 0.992673,0.171393 0.408731,0.05915 1.001986,0.120142 1.56897,-0.141519 1.183451,-0.546159 1.323213,-2.133451 0.33288,-2.921861 C 23.78,22.938002 22.522411,22.976079 22.073435,22.951387 l 0.945083,0.996249 c -6.71e-4,-0.299565 0.07024,-1.09531 -0.356438,-1.745262 -0.692546,-1.054955 -2.322058,-1.111537 -2.981241,0.05766 -0.362756,0.643424 -0.196188,1.433371 -0.182508,1.613334 m -7.313591,0.533428 v 0.22846 l 1.129763,-0.991545 c -0.331353,-0.04336 -1.171957,-0.220406 -1.898967,0.190297 -1.199671,0.677706 -1.237901,2.409127 0.02318,3.068531 0.553494,0.289425 1.28933,0.24245 1.448976,0.253429 l -0.896254,-1.260404 c -0.0024,0.0088 -0.0024,0.006 0.0027,-0.0047 0.0023,-0.0048 0.0055,-0.01124 0.0099,-0.01866 0.03456,-0.05919 0.06745,-0.08958 0.117829,-0.120744 0.0037,-0.0023 0.0071,-0.0043 0.01,-0.0059 0.0032,-0.0018 0.0059,-0.0032 0.0079,-0.0042 0.0022,-0.0011 0.0037,-0.0018 0.0043,-0.002 6.34e-4,-2.79e-4 1.89e-4,-6.6e-5 -0.0014,5.45e-4 -0.0018,6.78e-4 -0.0049,0.0018 -0.0095,0.0034 -0.01908,0.0064 -0.485878,0.114311 -0.608396,0.151348 -0.853115,0.257891 -1.7905948,1.002858 -1.738791,2.210353 0.081438,1.898297 2.340483,2.732477 3.808905,1.913904 0.311483,-0.173636 0.65443,-0.505168 0.742945,-0.576372 0.0118,-0.0095 0.02233,-0.01765 0.03147,-0.02447 0.0082,-0.0061 0.01531,-0.01118 0.02116,-0.01517 0.0053,-0.0036 0.0095,-0.0063 0.01271,-0.0083 0.0029,-0.0018 0.0049,-0.0029 0.0059,-0.0035 8.77e-4,-4.87e-4 0.0012,-6.19e-4 8.36e-4,-4.58e-4 -2.91e-4,1.46e-4 -0.0011,5.28e-4 -0.0023,0.0011 -0.017,0.0076 -0.05132,0.02125 -0.109255,0.01823 -0.0053,-2.75e-4 -0.0101,-7.13e-4 -0.01419,-0.0012 0.232299,0.02819 0.647081,0.219519 1.096855,0.458467 0.339831,0.180537 1.138808,0.62749 1.998532,0.15786 1.176292,-0.642555 1.046452,-2.096874 0.28901,-2.854675 -0.833224,-0.833618 -2.150841,-1.198811 -3.058818,-1.31816 l 0.859627,1.132887 0.07615,-0.533073 -1.190748,0.838218 c 0.327652,0.06716 1.161685,0.303047 1.906578,0.02872 1.337987,-0.49276 1.494574,-2.217342 0.376869,-3.017212 -0.635769,-0.454972 -1.497929,-0.473419 -1.823266,-0.508457 l 0.7801,1.45568 c -0.09533,0.183288 -0.169123,0.200794 -0.293761,0.229454 -0.0055,0.0013 -0.0093,0.002 -0.01141,0.0023 -0.0023,3.74e-4 -0.0024,3.26e-4 -4.48e-4,1.24e-4 0.0022,-2.25e-4 0.0069,-6.38e-4 0.01403,-9.94e-4 0.0079,-3.95e-4 0.01872,-7.2e-4 0.03217,-8.03e-4 0.01494,-9.3e-5 0.03312,1.11e-4 0.05418,6.52e-4 0.02341,6.01e-4 0.05037,0.0016 0.08056,0.0029 0.03145,0.0013 0.07366,0.0033 0.112396,0.0047 0.508998,0.0196 1.471338,-0.0315 1.869283,-1.122621 0.117404,-0.321905 0.153451,-0.672235 0.05762,-1.02244 -0.309989,-1.132862 -1.701497,-1.355306 -2.073937,-1.429271 -0.0026,-5.15e-4 -0.705175,-0.369895 -1.122188,-0.428319 -0.651002,-0.09122 -1.307591,0.287448 -1.36789,0.307482 -0.06364,0.02114 -0.847965,0.09785 -1.303688,0.349645 -1.201718,0.663984 -1.436583,2.534541 0.01015,3.171027 0.626009,0.275409 1.453095,0.09876 1.579204,0.09288"
			inkscape:path-effect="#path-effect2"
			inkscape:original-d="m 6.5594046,6.7392414 v 0.076153 L 3.8178865,7.9576938 C 4.0523807,7.5678661 4.2923874,7.1375517 4.2493083,6.6648752 4.2062217,6.1921128 3.7691,5.8390812 3.2940382,5.9893635 2.8816585,6.1198174 2.7580974,6.5381747 2.597667,6.8917199 2.3089829,7.5279 1.8601386,8.0639175 1.4784329,8.6430733 1.2742408,8.9528922 1.0922979,9.3269631 1.2510576,9.6980593 1.5269985,10.343061 2.6868048,10.527388 3.2848136,10.72419 3.7902032,10.890511 4.5690101,11.278407 5.0952359,11.042727 5.5625421,10.833433 5.6234156,10.258983 5.2933946,9.9005878 5.0627316,9.650094 4.7478569,9.552992 4.4271128,9.4807594 V 9.4046061 C 5.3481618,9.1697529 6.1947686,8.7903066 7.0163242,8.3157895 7.4766085,8.0499362 7.9455485,7.608111 8.4632365,7.4724909 8.9933963,7.3336032 9.5930987,7.5197451 10.138609,7.4733113 11.651337,7.344547 13.129138,7.088192 14.555499,6.550801 15.277385,6.2788241 16.202946,5.9488536 16.716635,5.3449285 17.008064,5.0023061 17.059253,4.4572761 16.656587,4.1714527 16.043573,3.736316 15.17063,4.5533811 14.631652,4.8114419 13.084916,5.5520144 11.313356,5.9008767 9.6055357,5.9015553 9.8121998,5.3073283 10.005436,4.7119346 9.9737745,4.0738766 9.9531454,3.6581571 9.854147,3.2313148 9.6734864,2.8554916 8.4998211,0.4139549 4.2163654,1.9317496 4.7197282,4.5307963 4.8166047,5.0310054 5.0686643,5.5059036 5.3990989,5.8904047 5.7205402,6.2644431 6.1076,6.5469292 6.5594046,6.7392414 M 20.647917,2.9063758 c -0.60703,0.1206977 -1.481719,0.9868738 -0.654347,1.4927953 0.383132,0.2342769 0.85378,0.023091 1.263417,0.014314 0.524844,-0.011246 1.073299,0.2713124 1.593051,0.1435985 C 23.536684,4.3883598 23.52839,3.560244 22.991241,3.2183584 22.389054,2.8350751 21.332873,2.770184 20.647917,2.9063758 M 7.9301636,5.6730955 C 7.610772,5.5708179 7.2979122,5.4555678 7.0191409,5.264327 6.8179081,5.1262783 6.6338346,4.9567833 6.4961821,4.7541479 5.6231919,3.4690428 8.2488707,2.3905912 8.396248,4.0739673 8.4163362,4.3034171 8.3909579,4.5367597 8.3327722,4.7591701 8.2478597,5.0837419 8.0853984,5.3782107 7.9301636,5.6730955 M 25.984658,3.5462976 c -0.557486,0.2041739 -0.776601,0.9699085 -0.207613,1.3102069 0.258884,0.1548327 0.596946,0.1338957 0.886827,0.168061 0.644738,0.075991 1.65863,0.5609495 2.27593,0.3111018 C 29.593682,5.0710156 29.469494,4.2966264 28.940427,3.98344 28.689736,3.8350401 28.391121,3.771878 28.110782,3.7048604 27.475499,3.5529908 26.624975,3.3117884 25.984658,3.5462976 m -5.705727,2.2249688 c -0.562126,0.246643 -0.499068,0.9325826 -0.06834,1.2696366 0.443362,0.346938 1.189888,0.4334611 1.731767,0.5305793 0.245553,0.04401 0.509379,0.074747 0.744288,-0.031509 C 23.192349,7.3112322 23.245204,6.6295131 22.82496,6.2917247 22.63753,6.1410705 22.399207,6.0794585 22.170757,6.0218277 21.640408,5.8880365 20.811007,5.5378077 20.278931,5.7712664 m 5.262392,0.8638266 c -0.499217,0.28577 -0.408427,0.9235863 0,1.2391571 0.297601,0.2299426 0.69663,0.3199958 1.046394,0.4401356 0.454877,0.1562458 0.903018,0.3518441 1.370759,0.4673127 0.294998,0.072825 0.625194,0.1021497 0.887266,-0.083337 0.44226,-0.3130191 0.322295,-0.8948405 -0.06575,-1.190297 C 28.180717,7.0517724 27.155503,6.8170354 26.43541,6.6141839 26.147769,6.5331548 25.814887,6.478494 25.541323,6.635093 M 3.3609669,8.7192266 3.5132734,9.1761463 3.132507,9.0238397 3.3609669,8.7192266 m 1.2184547,2.8551204 c -0.3143042,0.03812 -0.6402953,0.09838 -0.8824907,0.318894 -0.3857801,0.351245 -0.3643792,0.974952 0.1382123,1.207091 0.3937306,0.181858 0.8689798,0.01901 1.2773491,-0.01831 0.7546037,-0.06895 1.6267078,0.150161 2.3573353,-0.02187 0.7230669,-0.17025 0.8267853,-1.096042 0.1451509,-1.40554 -0.3443311,-0.156344 -0.7634042,-0.117465 -1.1317272,-0.117693 -0.6306188,-3.88e-4 -1.276676,-0.03864 -1.9038297,0.03743 m 8.6814714,2.018689 c -0.744732,0.947861 -1.560474,1.827013 -2.436905,2.654923 -0.430989,0.407129 -1.1086252,0.812489 -1.3325916,1.383651 -0.2387633,0.608896 0.3670164,1.132775 0.9518496,0.926361 0.802328,-0.283181 1.579931,-1.221379 2.132268,-1.84265 h 0.07615 c 0.675752,0.562943 1.480778,1.022482 2.208445,1.520163 0.322424,0.220518 0.720199,0.496053 1.131734,0.369455 0.56406,-0.17352 0.609262,-0.852425 0.267766,-1.251456 -0.255408,-0.298438 -0.623707,-0.510364 -0.942583,-0.733631 -0.513675,-0.359661 -1.014185,-0.735512 -1.599216,-0.970677 0.31117,-0.485872 0.706549,-0.923718 0.956536,-1.446912 0.09203,-0.192605 0.166006,-0.39707 0.196037,-0.609224 0.253498,-1.790811 -2.314228,-1.670841 -3.437172,-1.609573 -0.299773,0.01636 -0.618413,-0.01526 -0.910089,0.06879 -0.481678,0.138799 -0.757036,0.68907 -0.439737,1.125278 0.240769,0.330997 0.675498,0.33469 1.045216,0.338562 0.71211,0.0075 1.426573,-0.03531 2.132289,0.07694 m 5.939956,1.751526 c 0.493374,0.08723 0.971221,0.235928 1.446912,0.391691 0.358035,0.117239 0.757517,0.273855 1.135425,0.147186 0.605652,-0.203007 0.599149,-0.925099 0.136847,-1.275641 -0.686365,-0.520437 -1.876553,-0.753359 -2.719184,-0.786302 -0.02738,-0.49884 0.0092,-1.236229 -0.366616,-1.616758 -0.495293,-0.50151 -1.230434,-0.09184 -1.26833,0.551038 -0.03255,0.552146 0.07167,1.123795 0.101498,1.674946 0.03967,0.733144 0.01038,1.474365 0.01038,2.208446 0,0.534769 -0.116669,1.261177 0.192402,1.731775 0.369887,0.5632 1.100617,0.377441 1.310677,-0.212461 0.293481,-0.824165 0.02,-1.950434 0.01999,-2.81392 m 5.192079,-2.795891 c -0.503084,0.222246 -0.455237,0.815466 -0.480744,1.272825 -0.06395,1.14677 -0.07842,2.444325 0.132627,3.578988 0.08736,0.46969 0.467938,0.998871 1.013042,0.800593 0.437113,-0.158995 0.540015,-0.614284 0.517238,-1.028846 -0.04323,-0.786718 -0.128621,-1.572279 -0.129613,-2.360742 -6.97e-4,-0.553376 0.09496,-1.210472 -0.0473,-1.748892 -0.116637,-0.441438 -0.57041,-0.706024 -1.005249,-0.513926 m 2.72828,0.258328 c -0.687318,0.142934 -1.266062,1.05203 -0.443596,1.48983 0.32958,0.175438 0.703497,0.03713 1.052404,0.02725 0.517888,-0.01466 1.086785,0.186324 1.595468,0.05804 0.686365,-0.173092 0.71512,-1.004264 0.144121,-1.342873 C 28.8829,12.691327 27.774371,12.671169 27.121207,12.807 M 4.6555726,15.420715 c 0.018746,0.749962 -0.396529,1.52298 -0.6708451,2.208445 -0.1476519,0.368956 -0.3776395,0.804002 -0.2469974,1.210467 0.2182389,0.679007 1.0061504,0.547626 1.3539721,0.07219 0.2726504,-0.372684 0.4147261,-0.85514 0.5774907,-1.282656 0.2678193,-0.703451 0.5428768,-1.385113 0.6617518,-2.132292 0.6315972,0.100718 1.6645562,0.359848 2.2777315,0.157163 C 9.205394,15.456786 9.2675765,14.657351 8.7481153,14.333839 8.3098917,14.060921 7.6669731,14.081103 7.1686308,14.031731 5.8817663,13.904238 4.4983751,13.767268 3.2087289,13.928657 c -0.6485291,0.08116 -1.5011432,0.90947 -0.6554762,1.429797 0.5066487,0.311733 1.5452283,0.17526 2.1023199,0.06226 m 22.3137894,1.52312 c -0.707068,0.05358 -1.070664,0.888597 -0.430784,1.331994 0.274454,0.190181 0.642274,0.235071 0.962978,0.294673 0.694943,0.129155 1.577815,0.377192 2.282298,0.24523 0.70699,-0.132432 0.840656,-1.000637 0.21881,-1.355256 -0.350045,-0.199621 -0.815724,-0.210576 -1.206502,-0.266485 -0.583279,-0.08345 -1.237856,-0.294783 -1.8268,-0.250156 M 4.5794193,28.062159 3.5894267,27.909853 c -6.94e-5,-0.436078 0.064439,-0.95893 -0.1586723,-1.353508 -0.2591293,-0.458277 -0.9331031,-0.602587 -1.2673979,-0.138311 -0.2440505,0.338941 -0.1206352,0.80286 -0.1036458,1.187206 0.017154,0.388073 -0.00649,0.787747 0.2061975,1.132075 0.302326,0.489445 0.8698835,0.638103 1.3996718,0.736485 1.1035898,0.204939 2.1654845,0.101274 3.2745909,0.11156 0.6112784,0.0057 1.3936982,0.601396 1.9082546,0.08266 0.2214332,-0.223231 0.2751318,-0.54341 0.2922517,-0.844386 0.039003,-0.685663 0.1348079,-1.791831 -0.4157765,-2.308634 -0.5180133,-0.486232 -1.2130718,-0.105361 -1.23193,0.557561 -0.00933,0.328128 0.048714,0.660743 0.056426,0.9896 h -1.370759 l 0.076153,-1.827678 c 0.4960805,-4.7e-4 1.0526789,0.0341 1.5137725,-0.181399 0.8996204,-0.42044 1.181826,-1.112203 1.2617424,-2.027046 0.036359,-0.416227 0.065284,-0.910493 -0.2508883,-1.235999 -0.6511578,-0.670388 -1.2801696,0.112649 -1.3027578,0.779135 -0.012025,0.354811 -0.00342,0.711101 -0.00342,1.06609 l -1.1422992,0.07615 c 0,-0.658128 0.1443352,-1.533821 -0.2041855,-2.124306 C 5.858887,22.133261 5.1912798,21.878856 4.828743,22.382 4.527473,22.800114 4.795845,23.335539 4.792836,23.796153 4.791496,24.00088 4.759574,24.27959 4.5327487,24.356733 4.2662854,24.447363 3.9729324,24.247679 3.8798034,24.004027 3.7045271,23.545457 3.8571764,23.027286 3.5091485,22.619907 3.1525701,22.202521 2.4881172,22.291812 2.293497,22.818817 c -0.1055729,0.285877 -0.052242,0.607786 -0.025561,0.902605 0.068557,0.757555 0.1350473,1.485961 0.8675613,1.905703 0.390804,0.223938 1.1248016,0.221567 1.3961581,0.597388 0.319427,0.442397 0.075476,1.332322 0.047764,1.837646 M 20.495454,23.797576 c -0.493448,-0.100012 -1.127402,-0.148226 -1.572269,0.138743 -0.462351,0.29825 -0.522372,1.049781 -0.01078,1.335718 0.385698,0.215575 0.931385,0.02628 1.354591,0.0486 -0.321932,0.548702 -1.16864,0.436067 -1.643446,0.889001 -0.660865,0.630421 -0.564206,1.628929 0.202543,2.129528 0.323268,0.211055 0.685087,0.245251 1.060136,0.256062 -0.141609,0.304685 -0.274261,0.639964 -0.157889,0.978099 0.218634,0.635266 1.002798,0.48362 1.345597,0.06368 0.461422,-0.565256 0.851491,-1.364161 0.804016,-2.107904 -0.02241,-0.351109 -0.194982,-0.674835 -0.206626,-1.024404 -0.01135,-0.340812 0.0972,-0.690069 0.118734,-1.031755 0.584095,0.06092 1.488722,0.370401 2.038881,0.116505 0.499663,-0.230593 0.548567,-0.897571 0.129071,-1.231534 -0.489554,-0.389737 -1.342987,-0.375231 -1.939492,-0.408037 -8.88e-4,-0.396105 0.03533,-0.851816 -0.192405,-1.198719 -0.295343,-0.449896 -0.994466,-0.496144 -1.274182,-9e-6 -0.175119,0.310611 -0.08205,0.710049 -0.05648,1.046422 m -7.310714,0.609226 v 0.22846 c -0.412854,-0.05403 -0.894196,-0.147022 -1.27735,0.06943 -0.521703,0.294715 -0.553104,1.025251 -0.0053,1.311692 0.308071,0.161092 0.716233,0.118704 1.054205,0.141946 -0.16,0.587525 -0.637204,0.540894 -1.142239,0.693563 -0.550508,0.166415 -1.055819,0.586802 -1.029071,1.210272 0.04737,1.10418 1.46322,1.56255 2.322917,1.083311 0.439539,-0.245021 0.736393,-0.797437 1.296667,-0.729448 0.505164,0.0613 1.003234,0.333085 1.445551,0.568071 0.323517,0.17187 0.691169,0.359376 1.04998,0.163373 0.504954,-0.275833 0.416363,-0.914732 0.06113,-1.270134 -0.600021,-0.600304 -1.660464,-0.925659 -2.481868,-1.033628 l 0.07615,-0.533073 c 0.422251,0.08655 0.939725,0.224816 1.360188,0.06997 0.573003,-0.211028 0.619319,-0.92295 0.140501,-1.265609 -0.370442,-0.265098 -0.910558,-0.280272 -1.348383,-0.327424 0.369423,-0.710279 1.464691,0.166855 1.804722,-0.765467 0.293378,-0.804402 -0.72849,-1.020361 -1.271649,-1.12823 -0.382263,-0.07592 -0.687355,-0.365767 -1.066146,-0.418836 -0.33708,-0.04723 -0.60983,0.165145 -0.913839,0.266151 -0.371003,0.123261 -0.785116,0.08241 -1.135362,0.27593 -0.520069,0.287353 -0.712466,1.098101 -0.07077,1.380413 0.338261,0.148816 0.774262,0.02587 1.129976,0.0093 m 12.340403,4.197689 c -0.88798,0.243666 -0.63107,1.699463 0.297469,1.438123 0.882523,-0.248391 0.639029,-1.695103 -0.297469,-1.438123 z"
		/>
		<path
			d="m 6.5594046,6.7392414 v 0.076153 L 3.8178865,7.9576938 C 4.0523807,7.5678661 4.2923874,7.1375517 4.2493083,6.6648752 4.2062217,6.1921128 3.7691,5.8390812 3.2940382,5.9893635 2.8816585,6.1198174 2.7580974,6.5381747 2.597667,6.8917199 2.3089829,7.5279 1.8601386,8.0639175 1.4784329,8.6430733 1.2742408,8.9528922 1.0922979,9.3269631 1.2510576,9.6980593 1.5269985,10.343061 2.6868048,10.527388 3.2848136,10.72419 3.7902032,10.890511 4.5690101,11.278407 5.0952359,11.042727 5.5625421,10.833433 5.6234156,10.258983 5.2933946,9.9005878 5.0627316,9.650094 4.7478569,9.552992 4.4271128,9.4807594 V 9.4046061 C 5.3481618,9.1697529 6.1947686,8.7903066 7.0163242,8.3157895 7.4766085,8.0499362 7.9455485,7.608111 8.4632365,7.4724909 8.9933963,7.3336032 9.5930987,7.5197451 10.138609,7.4733113 11.651337,7.344547 13.129138,7.088192 14.555499,6.550801 15.277385,6.2788241 16.202946,5.9488536 16.716635,5.3449285 17.008064,5.0023061 17.059253,4.4572761 16.656587,4.1714527 16.043573,3.736316 15.17063,4.5533811 14.631652,4.8114419 13.084916,5.5520144 11.313356,5.9008767 9.6055357,5.9015553 9.8121998,5.3073283 10.005436,4.7119346 9.9737745,4.0738766 9.9531454,3.6581571 9.854147,3.2313148 9.6734864,2.8554916 8.4998211,0.4139549 4.2163654,1.9317496 4.7197282,4.5307963 4.8166047,5.0310054 5.0686643,5.5059036 5.3990989,5.8904047 5.7205402,6.2644431 6.1076,6.5469292 6.5594046,6.7392414 M 20.647917,2.9063758 c -0.60703,0.1206977 -1.481719,0.9868738 -0.654347,1.4927953 0.383132,0.2342769 0.85378,0.023091 1.263417,0.014314 0.524844,-0.011246 1.073299,0.2713124 1.593051,0.1435985 C 23.536684,4.3883598 23.52839,3.560244 22.991241,3.2183584 22.389054,2.8350751 21.332873,2.770184 20.647917,2.9063758 M 7.9301636,5.6730955 C 7.610772,5.5708179 7.2979122,5.4555678 7.0191409,5.264327 6.8179081,5.1262783 6.6338346,4.9567833 6.4961821,4.7541479 5.6231919,3.4690428 8.2488707,2.3905912 8.396248,4.0739673 8.4163362,4.3034171 8.3909579,4.5367597 8.3327722,4.7591701 8.2478597,5.0837419 8.0853984,5.3782107 7.9301636,5.6730955 M 25.984658,3.5462976 c -0.557486,0.2041739 -0.776601,0.9699085 -0.207613,1.3102069 0.258884,0.1548327 0.596946,0.1338957 0.886827,0.168061 0.644738,0.075991 1.65863,0.5609495 2.27593,0.3111018 C 29.593682,5.0710156 29.469494,4.2966264 28.940427,3.98344 28.689736,3.8350401 28.391121,3.771878 28.110782,3.7048604 27.475499,3.5529908 26.624975,3.3117884 25.984658,3.5462976 m -5.705727,2.2249688 c -0.562126,0.246643 -0.499068,0.9325826 -0.06834,1.2696366 0.443362,0.346938 1.189888,0.4334611 1.731767,0.5305793 0.245553,0.04401 0.509379,0.074747 0.744288,-0.031509 C 23.192349,7.3112322 23.245204,6.6295131 22.82496,6.2917247 22.63753,6.1410705 22.399207,6.0794585 22.170757,6.0218277 21.640408,5.8880365 20.811007,5.5378077 20.278931,5.7712664 m 5.262392,0.8638266 c -0.499217,0.28577 -0.408427,0.9235863 0,1.2391571 0.297601,0.2299426 0.69663,0.3199958 1.046394,0.4401356 0.454877,0.1562458 0.903018,0.3518441 1.370759,0.4673127 0.294998,0.072825 0.625194,0.1021497 0.887266,-0.083337 0.44226,-0.3130191 0.322295,-0.8948405 -0.06575,-1.190297 C 28.180717,7.0517724 27.155503,6.8170354 26.43541,6.6141839 26.147769,6.5331548 25.814887,6.478494 25.541323,6.635093 M 3.3609669,8.7192266 3.5132734,9.1761463 3.132507,9.0238397 3.3609669,8.7192266 m 1.2184547,2.8551204 c -0.3143042,0.03812 -0.6402953,0.09838 -0.8824907,0.318894 -0.3857801,0.351245 -0.3643792,0.974952 0.1382123,1.207091 0.3937306,0.181858 0.8689798,0.01901 1.2773491,-0.01831 0.7546037,-0.06895 1.6267078,0.150161 2.3573353,-0.02187 0.7230669,-0.17025 0.8267853,-1.096042 0.1451509,-1.40554 -0.3443311,-0.156344 -0.7634042,-0.117465 -1.1317272,-0.117693 -0.6306188,-3.88e-4 -1.276676,-0.03864 -1.9038297,0.03743 m 8.6814714,2.018689 c -0.744732,0.947861 -1.560474,1.827013 -2.436905,2.654923 -0.430989,0.407129 -1.1086252,0.812489 -1.3325916,1.383651 -0.2387633,0.608896 0.3670164,1.132775 0.9518496,0.926361 0.802328,-0.283181 1.579931,-1.221379 2.132268,-1.84265 h 0.07615 c 0.675752,0.562943 1.480778,1.022482 2.208445,1.520163 0.322424,0.220518 0.720199,0.496053 1.131734,0.369455 0.56406,-0.17352 0.609262,-0.852425 0.267766,-1.251456 -0.255408,-0.298438 -0.623707,-0.510364 -0.942583,-0.733631 -0.513675,-0.359661 -1.014185,-0.735512 -1.599216,-0.970677 0.31117,-0.485872 0.706549,-0.923718 0.956536,-1.446912 0.09203,-0.192605 0.166006,-0.39707 0.196037,-0.609224 0.253498,-1.790811 -2.314228,-1.670841 -3.437172,-1.609573 -0.299773,0.01636 -0.618413,-0.01526 -0.910089,0.06879 -0.481678,0.138799 -0.757036,0.68907 -0.439737,1.125278 0.240769,0.330997 0.675498,0.33469 1.045216,0.338562 0.71211,0.0075 1.426573,-0.03531 2.132289,0.07694 m 5.939956,1.751526 c 0.493374,0.08723 0.971221,0.235928 1.446912,0.391691 0.358035,0.117239 0.757517,0.273855 1.135425,0.147186 0.605652,-0.203007 0.599149,-0.925099 0.136847,-1.275641 -0.686365,-0.520437 -1.876553,-0.753359 -2.719184,-0.786302 -0.02738,-0.49884 0.0092,-1.236229 -0.366616,-1.616758 -0.495293,-0.50151 -1.230434,-0.09184 -1.26833,0.551038 -0.03255,0.552146 0.07167,1.123795 0.101498,1.674946 0.03967,0.733144 0.01038,1.474365 0.01038,2.208446 0,0.534769 -0.116669,1.261177 0.192402,1.731775 0.369887,0.5632 1.100617,0.377441 1.310677,-0.212461 0.293481,-0.824165 0.02,-1.950434 0.01999,-2.81392 m 5.192079,-2.795891 c -0.503084,0.222246 -0.455237,0.815466 -0.480744,1.272825 -0.06395,1.14677 -0.07842,2.444325 0.132627,3.578988 0.08736,0.46969 0.467938,0.998871 1.013042,0.800593 0.437113,-0.158995 0.540015,-0.614284 0.517238,-1.028846 -0.04323,-0.786718 -0.128621,-1.572279 -0.129613,-2.360742 -6.97e-4,-0.553376 0.09496,-1.210472 -0.0473,-1.748892 -0.116637,-0.441438 -0.57041,-0.706024 -1.005249,-0.513926 m 2.72828,0.258328 c -0.687318,0.142934 -1.266062,1.05203 -0.443596,1.48983 0.32958,0.175438 0.703497,0.03713 1.052404,0.02725 0.517888,-0.01466 1.086785,0.186324 1.595468,0.05804 0.686365,-0.173092 0.71512,-1.004264 0.144121,-1.342873 -0.586704,-0.347921 -1.695233,-0.368079 -2.348397,-0.232248 M 4.6555726,15.420715 c 0.018746,0.749962 -0.396529,1.52298 -0.6708451,2.208445 -0.1476519,0.368956 -0.3776395,0.804002 -0.2469974,1.210467 0.2182389,0.679007 1.0061504,0.547626 1.3539721,0.07219 0.2726504,-0.372684 0.4147261,-0.85514 0.5774907,-1.282656 0.2678193,-0.703451 0.5428768,-1.385113 0.6617518,-2.132292 0.6315972,0.100718 1.6645562,0.359848 2.2777315,0.157163 C 9.205394,15.456786 9.2675765,14.657351 8.7481153,14.333839 8.3098917,14.060921 7.6669731,14.081103 7.1686308,14.031731 5.8817663,13.904238 4.4983751,13.767268 3.2087289,13.928657 c -0.6485291,0.08116 -1.5011432,0.90947 -0.6554762,1.429797 0.5066487,0.311733 1.5452283,0.17526 2.1023199,0.06226 m 22.3137894,1.52312 c -0.707068,0.05358 -1.070664,0.888597 -0.430784,1.331994 0.274454,0.190181 0.642274,0.235071 0.962978,0.294673 0.694943,0.129155 1.577815,0.377192 2.282298,0.24523 0.70699,-0.132432 0.840656,-1.000637 0.21881,-1.355256 -0.350045,-0.199621 -0.815724,-0.210576 -1.206502,-0.266485 -0.583279,-0.08345 -1.237856,-0.294783 -1.8268,-0.250156 M 4.5794193,28.062159 3.5894267,27.909853 c -6.94e-5,-0.436078 0.064439,-0.95893 -0.1586723,-1.353508 -0.2591293,-0.458277 -0.9331031,-0.602587 -1.2673979,-0.138311 -0.2440505,0.338941 -0.1206352,0.80286 -0.1036458,1.187206 0.017154,0.388073 -0.00649,0.787747 0.2061975,1.132075 0.302326,0.489445 0.8698835,0.638103 1.3996718,0.736485 1.1035898,0.204939 2.1654845,0.101274 3.2745909,0.11156 0.6112784,0.0057 1.3936982,0.601396 1.9082546,0.08266 0.2214332,-0.223231 0.2751318,-0.54341 0.2922517,-0.844386 0.039003,-0.685663 0.1348079,-1.791831 -0.4157765,-2.308634 -0.5180133,-0.486232 -1.2130718,-0.105361 -1.23193,0.557561 -0.00933,0.328128 0.048714,0.660743 0.056426,0.9896 h -1.370759 l 0.076153,-1.827678 c 0.4960805,-4.7e-4 1.0526789,0.0341 1.5137725,-0.181399 0.8996204,-0.42044 1.181826,-1.112203 1.2617424,-2.027046 0.036359,-0.416227 0.065284,-0.910493 -0.2508883,-1.235999 -0.6511578,-0.670388 -1.2801696,0.112649 -1.3027578,0.779135 -0.012025,0.354811 -0.00342,0.711101 -0.00342,1.06609 l -1.1422992,0.07615 c 0,-0.658128 0.1443352,-1.533821 -0.2041855,-2.124306 C 5.858887,22.133261 5.1912798,21.878856 4.828743,22.382 c -0.30127,0.418114 -0.032898,0.953539 -0.035907,1.414153 -0.00134,0.204727 -0.033262,0.483437 -0.2600873,0.56058 -0.2664633,0.09063 -0.5598163,-0.109054 -0.6529453,-0.352706 -0.1752763,-0.45857 -0.022627,-0.976741 -0.3706549,-1.38412 -0.3565784,-0.417386 -1.0210313,-0.328095 -1.2156515,0.19891 -0.1055729,0.285877 -0.052242,0.607786 -0.025561,0.902605 0.068557,0.757555 0.1350473,1.485961 0.8675613,1.905703 0.390804,0.223938 1.1248016,0.221567 1.3961581,0.597388 0.319427,0.442397 0.075476,1.332322 0.047764,1.837646 M 20.495454,23.797576 c -0.493448,-0.100012 -1.127402,-0.148226 -1.572269,0.138743 -0.462351,0.29825 -0.522372,1.049781 -0.01078,1.335718 0.385698,0.215575 0.931385,0.02628 1.354591,0.0486 -0.321932,0.548702 -1.16864,0.436067 -1.643446,0.889001 -0.660865,0.630421 -0.564206,1.628929 0.202543,2.129528 0.323268,0.211055 0.685087,0.245251 1.060136,0.256062 -0.141609,0.304685 -0.274261,0.639964 -0.157889,0.978099 0.218634,0.635266 1.002798,0.48362 1.345597,0.06368 0.461422,-0.565256 0.851491,-1.364161 0.804016,-2.107904 -0.02241,-0.351109 -0.194982,-0.674835 -0.206626,-1.024404 -0.01135,-0.340812 0.0972,-0.690069 0.118734,-1.031755 0.584095,0.06092 1.488722,0.370401 2.038881,0.116505 0.499663,-0.230593 0.548567,-0.897571 0.129071,-1.231534 -0.489554,-0.389737 -1.342987,-0.375231 -1.939492,-0.408037 -8.88e-4,-0.396105 0.03533,-0.851816 -0.192405,-1.198719 -0.295343,-0.449896 -0.994466,-0.496144 -1.274182,-9e-6 -0.175119,0.310611 -0.08205,0.710049 -0.05648,1.046422 m -7.310714,0.609226 v 0.22846 c -0.412854,-0.05403 -0.894196,-0.147022 -1.27735,0.06943 -0.521703,0.294715 -0.553104,1.025251 -0.0053,1.311692 0.308071,0.161092 0.716233,0.118704 1.054205,0.141946 -0.16,0.587525 -0.637204,0.540894 -1.142239,0.693563 -0.550508,0.166415 -1.055819,0.586802 -1.029071,1.210272 0.04737,1.10418 1.46322,1.56255 2.322917,1.083311 0.439539,-0.245021 0.736393,-0.797437 1.296667,-0.729448 0.505164,0.0613 1.003234,0.333085 1.445551,0.568071 0.323517,0.17187 0.691169,0.359376 1.04998,0.163373 0.504954,-0.275833 0.416363,-0.914732 0.06113,-1.270134 -0.600021,-0.600304 -1.660464,-0.925659 -2.481868,-1.033628 l 0.07615,-0.533073 c 0.422251,0.08655 0.939725,0.224816 1.360188,0.06997 0.573003,-0.211028 0.619319,-0.92295 0.140501,-1.265609 -0.370442,-0.265098 -0.910558,-0.280272 -1.348383,-0.327424 0.369423,-0.710279 1.464691,0.166855 1.804722,-0.765467 0.293378,-0.804402 -0.72849,-1.020361 -1.271649,-1.12823 -0.382263,-0.07592 -0.687355,-0.365767 -1.066146,-0.418836 -0.33708,-0.04723 -0.60983,0.165145 -0.913839,0.266151 -0.371003,0.123261 -0.785116,0.08241 -1.135362,0.27593 -0.520069,0.287353 -0.712466,1.098101 -0.07077,1.380413 0.338261,0.148816 0.774262,0.02587 1.129976,0.0093 m 12.340403,4.197689 c -0.88798,0.243666 -0.63107,1.699463 0.297469,1.438123 0.882523,-0.248391 0.639029,-1.695103 -0.297469,-1.438123 z"
			style="fill:orangered;stroke:none"
		/>
	</g>
</svg>
