<?xml version="1.0" encoding="UTF-8" standalone="no"?>
<!-- Created with Inkscape (http://www.inkscape.org/) -->

<svg
	xmlns="http://www.w3.org/2000/svg"
	xmlns:cc="http://creativecommons.org/ns#"
	xmlns:dc="http://purl.org/dc/elements/1.1/"
	xmlns:inkscape="http://www.inkscape.org/namespaces/inkscape"
	xmlns:rdf="http://www.w3.org/1999/02/22-rdf-syntax-ns#"
	xmlns:sodipodi="http://sodipodi.sourceforge.net/DTD/sodipodi-0.dtd"
	xmlns:svg="http://www.w3.org/2000/svg"
	xmlns:xlink="http://www.w3.org/1999/xlink"
	width="32"
	height="32"
	viewBox="0 0 32 32"
	version="1.1"
	xml:space="preserve"
	inkscape:version="1.4 (e7c3feb100, 2024-10-09)"
	>
	<title>古事記にあったわ</title>
	<metadata>
		<rdf:RDF>
			<cc:Work rdf:about="">
				<cc:license rdf:resource="https://www.apache.org/licenses/LICENSE-2.0" />
				<dc:title>古事記にあったわ</dc:title>
				<dc:date>2025-06-02</dc:date>
				<dc:creator><cc:Agent><dc:title>zawa-ch.</dc:title></cc:Agent></dc:creator>
				<dc:rights><cc:Agent><dc:title>Copyright 2025 zawa-ch.</dc:title></cc:Agent></dc:rights>
				<dc:identifier>stellar_ch_handwritten_square_kojikiniattawa</dc:identifier>
				<dc:language>ja_JP</dc:language>
			</cc:Work>
		</rdf:RDF>
	</metadata>
	<sodipodi:namedview
		pagecolor="#505050"
		bordercolor="#eeeeee"
		borderopacity="1"
		inkscape:showpageshadow="0"
		inkscape:pageopacity="0"
		inkscape:pagecheckerboard="0"
		inkscape:deskcolor="#d1d1d1"
		inkscape:document-units="px"
		showgrid="false"
	/>
	<defs>
		<inkscape:path-effect
			effect="offset"
			id="path-effect2"
			is_visible="true"
			lpeversion="1.3"
			linejoin_type="miter"
			unit="px"
			offset="1"
			miter_limit="4"
			attempt_force_join="false"
			update_on_knot_move="true"
		/>
	</defs>
	<g inkscape:groupmode="layer">
		<image
			display="none"
			x="-2.355279"
			y="-2.70467"
			width="36.553574"
			height="36.553574"
			preserveAspectRatio="none"
			xlink:href="stellar_ch_handwritten_square_kojikiniattawa.png"
		/>
		<path
			style="fill:#1a4c30;fill-opacity:1"
			d="M 4.8066406,1.3886719 C 4.1700157,1.3817101 3.5778212,1.7204978 3.265625,2.3242188 3.0865373,2.6705364 3.0471606,2.9548332 3.0898438,3.4238281 c -0.00456,5.399e-4 -0.00714,0.00141 -0.011719,0.00195 -1.4859994,0.175055 -1.8903859,0.3196914 -2.37109375,0.8671874 -0.78290693,0.8916818 -0.6030908,2.2473056 0.50976565,2.7753907 0.579854,0.2751588 0.9499208,0.2756265 1.5234375,0.00781 -0.046344,0.021641 0.4565889,-0.069103 0.65625,-0.1035157 0.00288,0.038016 0.00657,0.075315 0.00977,0.1152344 C 2.7309586,7.2059093 2.101762,7.3999168 1.7167969,7.8574219 1.614333,7.9791927 1.4825311,8.1764266 1.3925781,8.4101563 0.87158325,8.7503817 0.60546875,9.3697938 0.60546875,9.9296875 c 0,0.6333385 0.92613715,3.0548405 1.29882815,3.5039065 0.1680513,0.202487 0.4124638,0.381653 0.65625,0.480469 0.4023842,0.163102 0.6239382,0.191685 1.4160156,0.0098 0.1147101,-0.02635 0.5809378,-0.09102 1.1210937,-0.134765 0.8102339,-0.06562 1.8615988,-0.111329 2.7265625,-0.111329 0.2252414,0 1.3242862,0.0081 1.7050782,-0.136718 0.4281388,-0.162778 0.8194021,-0.47893 0.9843751,-1.050782 0.01761,-0.06105 0.02858,-0.129436 0.04102,-0.195312 0.195004,0.193178 0.446938,0.350475 0.800781,0.427734 0.43015,0.09392 1.025197,0.07038 1.679687,0.04102 0.164602,-0.0074 0.300314,-0.0108 0.445313,-0.01563 0.137899,0.341423 0.365617,0.668976 0.699219,0.863281 0.488579,0.284443 1.292276,0.272713 1.761718,0.02149 0.350364,-0.187509 0.590443,-0.519318 0.736328,-0.869141 h 0.353516 1.601562 l 0.521485,-0.521484 c 0.235673,-0.235616 0.375291,-0.454999 0.445312,-0.712891 0.133092,-0.01061 0.255249,-0.02336 0.369141,-0.04102 0.09881,0.390249 0.244164,0.666041 0.541016,0.962891 0.06743,0.06743 0.199605,0.187311 0.371093,0.296875 0.151149,0.370866 0.421072,0.686217 0.705078,0.859375 0.652582,0.397885 1.183722,0.383396 1.873047,-0.01367 0.01709,-0.007 0.06282,-0.02536 0.125,-0.04492 0.142374,-0.04479 0.366215,-0.09876 0.609375,-0.138672 0.289008,-0.04743 1.010296,-0.170494 1.384766,-0.447265 0.233091,-0.172277 0.400004,-0.410987 0.517578,-0.671875 0.04033,0.02627 0.07486,0.05482 0.117188,0.08008 0.687595,0.41039 1.291811,0.541639 2.513671,0.621094 1.162159,0.07557 1.899202,0.100831 2.47461,-0.326172 0.645307,-0.478882 0.888815,-1.400497 0.539062,-2.136719 -0.23294,-0.490334 -0.596616,-0.7651685 -1.070312,-0.9121095 0.06264,-0.05065 0.124991,-0.1054604 0.189453,-0.1699219 0.373579,-0.3735848 0.497702,-0.7087153 0.564453,-1.3320312 0.0778,-0.7265042 -0.05741,-2.2344236 -0.265625,-2.9355469 C 30.860127,4.175957 30.180591,3.4145123 29.207031,3.0625 28.797501,2.9144251 27.971688,2.8664665 27.388672,2.859375 c -0.194339,-0.00236 -0.360614,-5.9e-5 -0.476563,0.00391 -0.185968,0.00636 -0.502539,0.027196 -0.71875,0.085937 -0.424838,0.1154233 -0.784057,0.3665921 -1.041015,0.6875 -0.191699,-0.045237 -0.403992,-0.06252 -0.56836,-0.0625 -0.0647,7.7e-6 -0.120501,0.00116 -0.164062,0.00195 -0.118769,0.00216 -0.276513,0.013509 -0.421875,0.021484 -0.041,-0.911828 -0.84781,-1.741121 -1.927735,-1.7421876 C 21.298089,1.8547062 20.627631,2.2813944 20.375,3.046875 20.254348,3.4124553 20.260594,3.7724649 20.359375,4.0996094 19.962221,4.2169168 19.742069,4.3570765 19.503906,4.6191406 19.21652,4.9353697 19.071702,5.3041729 19.046875,5.671875 18.935202,5.4325096 18.787975,5.2135877 18.607422,5.0175781 c 0.0046,-0.00358 0.009,-0.00612 0.01367,-0.00977 C 19.6174,4.2241185 19.398569,2.7315572 18.353516,2.1230469 17.901669,1.8599455 17.400929,1.8358228 16.40625,1.7988281 15.95722,1.7821278 15.672408,1.7688724 15.519531,1.7539062 15.423298,1.7444854 15.413535,1.7386282 15.417969,1.7402344 15.30706,1.6647629 14.914704,1.3984375 14.5,1.3984375 c -0.379315,0 -0.975011,0.2137262 -1.351562,0.5878906 -0.558131,0.083785 -1.45443,0.2830568 -1.916016,0.5625 -0.707496,0.4283141 -1.073023,1.231517 -0.917969,1.9765625 -0.0061,0.00586 -0.01152,0.012188 -0.01758,0.017578 C 10.310475,4.1182298 10.157152,3.6902778 9.8300781,3.3242188 9.5952145,3.0613611 9.2692055,2.786383 8.65625,2.7617188 8.2748555,2.7463721 7.722628,2.8272426 7.0371094,2.921875 7.0361786,2.9220035 6.8050867,2.9519405 6.5996094,2.9785156 6.4972768,2.4259044 6.347158,2.1664862 6.0078125,1.8632812 5.7033446,1.5912392 5.3302351,1.4274202 4.9355469,1.3945312 c -0.04277,-0.00356 -0.086465,-0.0054 -0.1289063,-0.00586 z m 4.9414063,4.3554687 c -7.819e-4,0.024354 -0.00586,0.045307 -0.00586,0.070312 0,0.094571 -0.013454,0.6080926 0.2968755,0.9824219 0,0 0.002,0 0.002,0 8.76e-4,0.00105 0.0011,0.00285 0.002,0.00391 0.06637,0.07922 0.147218,0.1537404 0.246094,0.2148438 -0.111831,-0.069116 -0.169475,-0.1139907 -0.208985,-0.1484375 0.0049,0.00886 0.01043,0.01769 0.01563,0.027344 0.0071,0.013122 0.01391,0.026627 0.02149,0.041016 0.0084,0.015988 0.01649,0.03349 0.02539,0.050781 0.0099,0.019213 0.02094,0.040044 0.03125,0.060547 0.02578,0.051257 0.05155,0.1061156 0.07813,0.1621094 0.03238,0.068217 0.184664,0.4285771 0.435547,0.7324218 -0.113446,0.1693724 -0.190237,0.347235 -0.228516,0.5507813 C 10.353191,8.5753767 10.276013,8.6535891 10.21875,8.7167969 10.068811,8.4025805 9.8677887,8.1298256 9.59375,7.8671875 8.9563354,7.2562908 7.9870662,6.9771625 6.9570312,6.9042969 6.9451147,6.7710846 6.9308485,6.6132839 6.921875,6.5078125 7.2599113,6.4601546 7.5838529,6.4156583 7.5957031,6.4140625 8.1133791,6.3443511 8.7121967,6.2618486 8.9648438,6.1953125 9.3612878,6.0909065 9.5880815,5.9084085 9.7480469,5.7441406 Z M 19.277344,6.640625 c 0.17054,0.2890197 0.428436,0.5379146 0.765625,0.7070312 0.01943,0.00974 0.04347,0.022416 0.06445,0.033203 -0.01188,0.2673439 0.03955,0.5365669 0.148437,0.7929687 -0.29065,-0.097835 -0.632754,-0.1529094 -1.029297,-0.1875 -0.03569,-0.00311 -0.06534,-0.0049 -0.0957,-0.00781 -0.03826,-0.04583 -0.07877,-0.089306 -0.121093,-0.1328125 0.181525,-0.3142782 0.273583,-0.6858323 0.271484,-1.109375 -1.59e-4,-0.0326 -0.0026,-0.063605 -0.0039,-0.095703 z m -2.613282,7.441406 c -0.486307,0.0048 -0.867467,0.05297 -1.234374,0.292969 -0.810525,0.530174 -1.181613,1.555928 -0.697266,2.460937 0.17947,0.335349 0.42063,0.546085 0.708984,0.675782 -0.371117,0.12804 -0.666283,0.372873 -0.86914,0.677734 -0.01248,-0.05245 -0.03272,-0.142722 -0.03906,-0.167969 -0.04925,-0.196101 -0.149058,-0.894585 -0.175781,-1.419922 -0.02082,-0.409269 -0.04961,-0.840652 -0.126953,-1.15039 -0.178165,-0.713504 -0.629668,-1.035841 -1.154297,-1.208984 -0.160934,-0.05311 -0.322071,-0.07768 -0.474609,-0.08203 -0.05085,-0.0015 -0.0999,-8.07e-4 -0.148438,0.002 -0.56133,0.03193 -1.189006,0.355161 -1.466797,0.964844 -0.321237,0.705045 -0.12289,2.631386 -0.04101,3.074219 0.228411,1.235401 0.522379,2.112213 1.433593,2.445312 0.78219,0.285934 1.633318,-0.08354 2.058594,-0.738281 0.31295,0.709098 0.952326,0.957485 2.019531,1.103516 0.103572,0.01417 0.241119,0.02681 0.367188,0.04102 -0.427423,0.218638 -0.731463,0.612618 -0.898438,1.111328 -1.380954,0.267823 -1.99414,0.799073 -1.99414,1.917969 0,0.489719 0.165429,0.883149 0.527343,1.220703 0.08243,0.07688 0.171538,0.152973 0.267579,0.22461 -0.05319,0.151772 -0.112961,0.323483 -0.144532,0.414062 -0.15027,0.431138 -0.297488,0.880771 -0.349609,1.205078 -0.120064,0.747065 0.147697,1.224444 0.568359,1.607422 0.415953,0.378653 0.796964,0.501332 1.345703,0.427735 0.508827,-0.06825 0.855495,-0.252752 1.126953,-0.605469 0.189514,0.49918 0.611279,0.927738 1.208985,1.125 0.276184,0.09115 0.912217,0.17144 1.183594,0.195312 0.757449,0.06663 1.667199,0.112201 2.261718,-0.277343 0.827577,-0.542242 0.967883,-1.656079 0.462891,-2.427735 0.713607,-0.822196 0.436813,-2.148713 -0.595703,-2.708984 0.775813,-0.841895 0.523214,-2.355755 -0.617188,-2.828125 -0.4608,-0.190869 -0.846275,-0.151545 -1.720703,-0.0332 -0.0633,0.0086 -0.235746,0.03261 -0.380859,0.05273 -0.163488,-0.248634 -0.388473,-0.457696 -0.648438,-0.601562 0.284629,-0.06546 0.507569,-0.18921 0.742188,-0.423829 0.946495,-0.946495 0.468231,-2.579156 -0.783203,-2.93164 0.06644,-0.01875 0.131072,-0.03729 0.208984,-0.06445 0.727434,-0.253585 1.142578,-0.915408 1.142578,-1.648438 0,-0.268934 -0.05718,-0.533313 -0.189453,-0.787109 -0.480997,-0.922894 -1.619484,-1.126057 -2.669922,-1.134766 -0.07399,-6.13e-4 -0.145371,-6.84e-4 -0.214844,0 z M 3.9140625,20.654297 c -0.9474733,-0.01071 -1.5591774,0.739582 -1.7285156,1.617187 -0.3526897,0.01543 -0.7429636,0.06271 -1.0429688,0.205078 -0.99954306,0.474314 -1.31538432,1.771288 -0.6269531,2.646485 0.1720145,0.218679 0.36894266,0.376382 0.5898437,0.488281 -0.14028299,0.117777 -0.26761308,0.240183 -0.37304683,0.365234 -1.26888571,1.504988 -0.68244181,3.611381 1.18750003,4.222657 0.8744413,0.28585 1.8124814,0.107804 2.703125,-0.332032 0.04345,-0.02146 0.080667,-0.04079 0.1171875,-0.05859 0.4179712,0.174589 0.9030518,0.188019 1.3066406,0.04687 0.078677,0.05319 0.1631403,0.10227 0.2558594,0.146484 0.7010432,0.334304 1.4462818,0.190437 1.9882812,-0.351562 0.3603666,-0.360367 0.5279625,-0.836658 0.5917969,-1.335938 0.017293,0.0037 0.033189,0.01037 0.050781,0.01367 0.203788,0.03823 0.3983273,0.03822 0.5917968,0.0098 0.081142,0.670315 0.6158324,1.442944 1.3867184,1.566406 1.003297,0.160696 1.833993,-0.530797 2.423829,-1.332031 0.845084,-1.147968 0.925638,-2.459127 -0.04883,-3.433594 -0.577304,-0.577305 -1.204154,-0.741493 -2.205078,-0.742188 -0.778555,-5.4e-4 -2.19268,0.231103 -2.9550779,0.921875 C 8.1004,25.187695 8.0622961,25.06205 8.0058594,24.947266 8.1585221,24.71188 8.2462573,24.44839 8.28125,24.1875 8.3565008,23.626463 8.243757,23.259609 7.8515625,22.820312 l -0.5195313,-0.585937 -1.5,-0.0332 -0.1582031,-0.0039 C 5.6036146,21.694715 5.4486133,21.447016 5.1035156,21.138672 4.813468,20.879514 4.4478939,20.689702 4.0292969,20.658203 c -0.039413,-0.003 -0.076912,-0.0035 -0.1152344,-0.0039 z m 21.1777345,0.464844 c -0.06451,6.56e-4 -0.130007,0.0053 -0.197266,0.01367 -0.34975,0.04363 -0.655595,0.188051 -0.921875,0.41211 -0.585123,0.492347 -0.730206,1.085469 -0.595703,1.830078 0,0 0,0.002 0,0.002 -0.684411,0.652812 -0.891131,1.327435 -0.511719,2.160156 0.08308,0.182349 0.225805,0.358421 0.400391,0.511719 -0.05693,0.468655 0.07612,0.929892 0.412109,1.3125 0,0 0,0.002 0,0.002 5.23e-4,0.02463 0.0017,0.05139 0.002,0.08203 3.07e-4,0.03486 -2.9e-5,0.07277 0,0.115235 2.17e-4,0.304695 0.02116,0.825294 0.115235,1.164062 0.441858,1.590947 2.567621,1.816362 3.28125,0.3125 0.21057,-0.443717 0.219878,-0.786477 0.175781,-1.609375 v -0.0039 c 0.08718,-0.0065 0.179465,-0.0119 0.271484,-0.01563 0.153567,-0.0062 0.308503,-0.0083 0.441407,-0.0059 1.58e-4,3e-6 0.171132,0.0097 0.246093,0.01367 -7.22e-4,0.0079 -9.81e-4,0.01494 -0.002,0.02344 -0.01463,0.127818 -0.06046,0.318566 -0.148437,0.537109 -0.375395,0.93251 -0.336966,1.581003 0.289062,2.207032 0.618389,0.618381 1.655229,0.616749 2.302735,0.107422 1.063187,-0.836299 1.34525,-3.037287 0.908203,-4.1875 -0.465378,-1.224774 -1.389451,-1.91142 -2.732422,-2.179688 -0.01685,-0.50176 -0.226143,-0.978056 -0.65625,-1.361328 -0.396113,-0.35298 -1.013079,-0.45136 -1.529297,-0.4375 -0.316353,-0.57827 -0.851322,-1.012971 -1.550781,-1.005859 z"
			inkscape:path-effect="#path-effect2"
			inkscape:original-d="m 29.057584,29.476649 c -0.29769,-0.29769 -0.311593,-0.525032 -0.06897,-1.127726 0.289163,-0.718293 0.302898,-1.330757 0.03622,-1.614889 -0.101983,-0.108656 -0.324732,-0.235318 -0.494997,-0.281471 -0.372088,-0.10086 -1.727397,-0.04626 -2.077003,0.08367 l -0.244365,0.09082 0.04577,0.854112 c 0.03808,0.710623 0.02415,0.899687 -0.08296,1.125391 -0.313154,0.659923 -1.214691,0.564876 -1.412948,-0.148965 -0.04309,-0.155161 -0.07854,-0.558856 -0.07878,-0.897101 -3.83e-4,-0.553762 -0.01899,-0.632427 -0.186858,-0.790134 -0.269337,-0.253029 -0.313805,-0.557555 -0.134372,-0.920221 0.08216,-0.166068 0.116032,-0.301943 0.07526,-0.301943 -0.187,0 -0.579434,-0.254224 -0.657744,-0.426096 -0.184196,-0.404267 -0.113238,-0.645454 0.305579,-1.03866 l 0.392283,-0.368295 -0.09124,-0.407709 c -0.113309,-0.50632 -0.05546,-0.751853 0.234668,-0.995979 0.521671,-0.438956 1.131126,-0.09685 1.312254,0.736604 0.04227,0.194507 0.05643,0.199925 0.327098,0.12519 0.404826,-0.111778 1.05131,-0.04215 1.249648,0.134591 0.363782,0.324169 0.423354,0.763088 0.171483,1.263458 l -0.102426,0.20348 0.512918,0.04973 c 1.379277,0.13372 2.156901,0.634597 2.536586,1.633846 0.337622,0.888548 0.01037,2.574378 -0.591669,3.047939 -0.280063,0.220297 -0.739465,0.206336 -0.975444,-0.02964 z M 2.2308077,29.248703 C 1.0388069,28.859043 0.68312261,27.585257 1.4968257,26.620148 1.8060188,26.253423 2.4851185,25.833944 3.0431504,25.664986 l 0.4742332,-0.143587 -0.051291,-0.310253 c -0.02821,-0.170639 -0.067918,-0.338257 -0.088241,-0.372486 -0.020322,-0.03423 -0.3376073,-0.03871 -0.7050779,-0.01 -0.7700914,0.06024 -1.1372919,-0.0266 -1.3715045,-0.32435 -0.2877436,-0.365806 -0.1548,-0.92204 0.2683679,-1.122846 0.166154,-0.07885 0.471677,-0.117884 0.9223261,-0.117853 l 0.6738705,4.8e-5 -0.026143,-0.377181 c -0.070112,-1.011536 0.657911,-1.574081 1.2975156,-1.002594 0.2247416,0.200806 0.2482922,0.265304 0.2760145,0.755921 l 0.030308,0.536383 1.064307,0.02465 1.064307,0.02465 0.2306003,0.258301 c 0.200248,0.224301 0.2250794,0.299462 0.1886545,0.57103 C 7.2634846,24.262926 7.1827631,24.424913 7.050113,24.539013 6.8662983,24.697157 6.7765025,24.71051 5.8970544,24.71051 H 4.9433342 l 0.053083,0.247498 c 0.075824,0.353528 0.085951,0.361728 0.4467066,0.361728 0.2265053,0 0.3673795,-0.04529 0.4603218,-0.14799 0.3872196,-0.427872 1.2604354,-0.107084 1.2604354,0.46304 0,0.120989 0.084111,0.300708 0.1982142,0.423521 0.3620036,0.389638 0.5111534,0.780255 0.5467048,1.431798 0.038643,0.7082 -0.071066,1.198825 -0.3248099,1.452569 -0.2539978,0.253998 -0.5370976,0.305931 -0.8511978,0.156147 -0.3707388,-0.176793 -0.4887982,-0.495607 -0.3874335,-1.046246 0.043285,-0.235137 0.05494,-0.522193 0.025898,-0.637903 L 6.3184546,27.204291 6.131904,27.379546 c -0.1768691,0.16616 -0.1802156,0.184923 -0.064484,0.361552 0.2640517,0.402994 0.091236,1.004188 -0.3353956,1.166783 -0.24612,0.0938 -0.6023604,0.0345 -0.784836,-0.130634 -0.121691,-0.110129 -0.1840711,-0.0944 -0.7665298,0.193237 -0.7370842,0.364002 -1.3986618,0.4584 -1.9498509,0.278219 z m 1.4095084,-1.73796 C 4.0707003,27.249902 4.1612519,27.010784 3.8112594,27.059335 3.496378,27.103015 2.9246432,27.377156 2.7412088,27.572413 L 2.568135,27.756641 H 2.90136 c 0.2409645,0 0.4455604,-0.06808 0.7389561,-0.245898 z m 7.4290199,1.405313 c -0.259871,-0.04162 -0.554711,-0.441362 -0.554711,-0.752068 0,-0.21885 0.07469,-0.344653 0.418843,-0.70546 0.230364,-0.241512 0.418843,-0.466672 0.418843,-0.500355 0,-0.122066 -0.979956,0.03405 -1.465581,0.233484 -0.3752167,0.15409 -0.5643483,0.191799 -0.7692153,0.153365 -0.5024832,-0.09427 -0.7241353,-0.617382 -0.4699043,-1.109011 0.225402,-0.435879 1.3985596,-0.840416 2.4351256,-0.839697 0.80062,5.56e-4 1.156605,0.107154 1.498031,0.44858 0.568059,0.568059 0.550646,1.318732 -0.0495,2.133974 -0.504634,0.685496 -1.010131,1.009552 -1.461931,0.937188 z m 8.685106,-0.01592 c -0.384002,-0.03378 -0.815892,-0.100266 -0.959756,-0.147745 -0.656914,-0.216802 -0.843951,-0.89024 -0.365884,-1.317392 0.238713,-0.213291 0.285372,-0.226068 0.645572,-0.176787 0.213544,0.02922 0.791691,0.07953 1.284772,0.111801 0.786778,0.0515 0.919461,0.08024 1.084018,0.234836 0.350225,0.329019 0.317842,0.928357 -0.06367,1.17833 -0.238396,0.156203 -0.7557,0.193434 -1.625056,0.116957 z m -4.279241,-0.887414 c -0.373786,-0.340301 -0.367967,-0.539158 0.05095,-1.741066 0.204378,-0.58638 0.397743,-1.126116 0.429701,-1.199414 0.04528,-0.103859 0.02159,-0.133268 -0.107355,-0.133268 -0.211722,0 -0.443537,-0.119991 -0.707559,-0.366242 -0.158892,-0.148197 -0.209422,-0.266595 -0.209422,-0.490698 0,-0.566966 0.240625,-0.755245 1.199746,-0.938756 0.319,-0.06103 0.585069,-0.118901 0.591265,-0.128592 0.0062,-0.0097 0.05982,-0.202642 0.119158,-0.42878 0.128083,-0.488101 0.389499,-0.723524 0.803406,-0.723524 0.349704,0 0.713323,0.368131 0.713323,0.722174 0,0.184905 0.02723,0.224693 0.133268,0.194721 0.0733,-0.02072 0.568235,-0.09654 1.09986,-0.168484 0.805843,-0.10906 1.005909,-0.11453 1.203006,-0.03289 0.552787,0.228972 0.609238,1.086193 0.08983,1.364169 -0.07237,0.03873 -0.764561,0.161496 -1.538198,0.272809 -0.773638,0.111314 -1.430224,0.225532 -1.459081,0.253819 -0.06963,0.06826 -0.823052,2.020177 -1.082002,2.803194 -0.23335,0.705605 -0.367895,0.861913 -0.790727,0.918626 -0.254098,0.03408 -0.336171,0.007 -0.539173,-0.177798 z m 5.16781,-1.258545 c -0.188479,-0.03957 -0.736783,-0.05789 -1.218452,-0.04071 -1.180503,0.0421 -1.446913,-0.09581 -1.446913,-0.749038 0,-0.43627 0.373579,-0.766113 0.949142,-0.838025 0.495413,-0.0619 1.506799,-0.0023 2.092595,0.12335 0.887938,0.190429 1.062285,1.216021 0.258661,1.521559 -0.103416,0.03932 -0.211499,0.06773 -0.240186,0.06314 -0.02869,-0.0046 -0.206368,-0.04072 -0.394847,-0.08028 z m -4.050696,-6.731802 c -0.900431,-0.12321 -1.161779,-0.246201 -1.279202,-0.601994 -0.149223,-0.45215 0.111462,-0.911455 0.565673,-0.996665 0.205592,-0.03857 1.583681,0.111099 2.188498,0.237683 0.571669,0.119647 0.803542,0.870583 0.394974,1.279151 -0.175885,0.175885 -0.25847,0.199655 -0.666341,0.19179 -0.256065,-0.0049 -0.797687,-0.05442 -1.203602,-0.109965 z M 12.72307,19.706766 c -0.390783,-0.142853 -0.587802,-0.560369 -0.796125,-1.687118 -0.137697,-0.74476 -0.155957,-2.204124 -0.03101,-2.478355 0.133103,-0.292129 0.541581,-0.45675 0.86692,-0.349379 0.469641,0.154996 0.539655,0.326187 0.597367,1.460625 0.02972,0.584249 0.115397,1.267942 0.202207,1.613624 0.08285,0.329907 0.150633,0.662417 0.150633,0.738911 0,0.471058 -0.551531,0.861974 -0.989993,0.701692 z m 4.835733,-3.006121 c -0.167537,-0.04104 -0.567347,-0.05417 -0.888466,-0.02917 -0.651578,0.05072 -0.905411,-0.02314 -1.057768,-0.307827 -0.212032,-0.396185 -0.061,-0.874124 0.364112,-1.152195 0.159984,-0.104648 0.357459,-0.133068 0.893741,-0.128622 1.233977,0.01023 1.868757,0.323103 1.868757,0.921082 0,0.335646 -0.179013,0.602217 -0.473308,0.704809 -0.268314,0.09353 -0.293487,0.09325 -0.707068,-0.0081 z M 2.93473,12.986597 C 2.8495073,12.952053 2.7318851,12.86608 2.6733474,12.795547 2.4335207,12.506573 1.6046915,10.283236 1.6046915,9.9288736 c 0,-0.3361826 0.1924328,-0.6500203 0.4546058,-0.7414143 0.1731086,-0.060346 0.2307737,-0.1275505 0.2307737,-0.26895 0,-0.1036759 0.086581,-0.2913979 0.1924032,-0.4171599 C 2.6817157,8.2645643 3.1528266,8.1171399 4.1056665,7.9934052 4.511411,7.9407156 4.5123248,7.9399862 4.4717831,7.7011882 4.4494294,7.5695207 4.4079217,7.119103 4.3795439,6.7002599 4.3511661,6.2814169 4.316927,5.9195415 4.3034571,5.8960925 4.2599812,5.8204079 2.5645354,6.0535992 2.3166387,6.1693591 2.016027,6.3097352 1.9527613,6.3091843 1.6457904,6.163517 1.1710671,5.938246 1.0849962,5.378802 1.4594478,4.9523252 1.7420868,4.6304171 1.9612737,4.5628797 3.19506,4.4175361 3.713746,4.3564334 4.1528004,4.2917654 4.1707362,4.2738295 4.1886721,4.2558937 4.165477,3.9646329 4.1191916,3.6265835 4.0477544,3.1048355 4.0529143,2.9773761 4.1533345,2.7831847 4.3848861,2.3354132 4.9440406,2.2534792 5.3419531,2.609014 5.5511031,2.7958894 5.588164,2.8931197 5.661251,3.4467001 5.728229,3.954009 5.7686218,4.0729718 5.8738962,4.0729718 c 0.071479,0 0.6565509,-0.072693 1.3001608,-0.1615401 1.5608307,-0.2154648 1.6503587,-0.2117381 1.910608,0.079531 0.2861237,0.320228 0.2851278,0.68259 -0.00276,1.0047941 C 8.8713997,5.2313519 8.8429635,5.2388881 7.4636464,5.4246301 6.6914529,5.5286155 6.01216,5.6275696 5.9541064,5.6445281 5.8460775,5.6760854 5.8480356,5.7597093 5.9944305,7.3666011 l 0.046831,0.5140346 0.389965,0.00235 c 1.133194,0.00683 2.0009175,0.2546604 2.4718149,0.7059674 0.524676,0.5028482 0.6773453,1.0394217 0.7100235,2.4954559 0.025469,1.134799 -0.042576,1.370004 -0.4400622,1.521128 -0.1052469,0.04002 -0.7123138,0.07275 -1.3490376,0.07275 -1.500013,0 -3.4627899,0.130302 -4.0726687,0.27037 C 3.211955,13.07253 3.1534398,13.075249 2.93473,12.986597 Z m 2.1462756,-1.748723 c 0.6639119,-0.04419 1.6141163,-0.101652 2.1115654,-0.12769 l 0.9044529,-0.04734 -0.038059,-0.531921 C 8.0142814,9.9064083 7.8517624,9.6342846 7.4627852,9.5326709 7.0759371,9.4316133 4.0866298,9.5198465 3.5846767,9.6471381 3.0946869,9.771396 3.0990279,9.7377808 3.445953,10.721355 c 0.1561653,0.442747 0.2689542,0.657875 0.3321927,0.633608 0.052661,-0.02021 0.6389481,-0.0729 1.3028599,-0.117089 z m 17.0260434,1.516243 c -0.223855,-0.136484 -0.396409,-0.496116 -0.337827,-0.704089 0.0088,-0.03141 -0.05588,-0.05711 -0.143834,-0.05711 -0.08796,0 -0.271454,-0.111532 -0.407771,-0.24785 C 21.020168,11.54762 20.95203,11.395363 20.882543,10.996336 20.738028,10.166471 20.765774,9.7624379 20.983403,9.527612 21.08685,9.4159909 21.271861,9.30459 21.394538,9.2800547 l 0.223048,-0.04461 -0.182674,-0.269186 c -0.19006,-0.280069 -0.212326,-0.4111537 -0.11302,-0.6653843 0.03876,-0.099224 0.01094,-0.2296448 -0.08122,-0.3807664 -0.207837,-0.3408097 -0.182063,-0.6954385 0.06868,-0.94498 0.192006,-0.1910849 0.287456,-0.2160111 1.147768,-0.2997331 0.824206,-0.080208 0.969248,-0.076652 1.192388,0.029235 0.293345,0.1392012 0.459065,0.4686521 0.395533,0.7863158 -0.02666,0.1332735 -0.0016,0.2743085 0.0643,0.3612719 0.146201,0.1930623 0.140627,0.6768008 -0.01046,0.9073823 -0.115115,0.1756882 -0.541965,0.346903 -1.095125,0.4392685 -0.104711,0.017484 -0.01084,0.036456 0.208604,0.04216 1.093219,0.028416 2.161026,0.9021156 2.146019,1.7559136 -0.0094,0.534193 -0.160477,1.002208 -0.374638,1.160493 -0.112664,0.08327 -0.50126,0.191734 -0.951916,0.265698 -0.470119,0.07716 -0.880658,0.193606 -1.072837,0.304305 -0.379545,0.218627 -0.52943,0.223321 -0.851946,0.02668 z m 0.744407,-1.668078 c 0.146595,-0.03758 0.367556,-0.09115 0.491025,-0.119037 0.173444,-0.03917 0.199417,-0.06656 0.11423,-0.120455 -0.262221,-0.165894 -0.986021,-0.02454 -0.986021,0.192565 0,0.135086 0.02494,0.138159 0.380766,0.04693 z M 22.145452,9.357692 c -0.0253,-0.025305 -0.09099,-0.028011 -0.145961,-0.00601 -0.06075,0.02431 -0.0427,0.042355 0.04601,0.046009 0.08028,0.00331 0.125256,-0.014692 0.09995,-0.039997 z m -7.461437,3.390653 c -0.184144,-0.107254 -0.361726,-0.474055 -0.361726,-0.747156 0,-0.125261 -0.0257,-0.241808 -0.05711,-0.258994 -0.03141,-0.01719 -0.605419,-0.0066 -1.275567,0.02342 -1.470064,0.06596 -1.685947,0.01894 -1.896889,-0.413157 -0.120164,-0.246146 -0.130493,-0.337159 -0.05959,-0.525016 0.07546,-0.199918 0.06318,-0.254113 -0.102135,-0.450574 -0.251348,-0.29871 -0.24788,-0.6617564 0.0092,-0.9673258 0.108434,-0.1288665 0.262644,-0.2343027 0.342689,-0.2343027 0.119799,0 0.145537,-0.055648 0.145537,-0.3146595 0,-0.260422 0.04553,-0.3576029 0.264162,-0.563796 C 11.912299,8.0896075 11.938774,8.0326996 11.849828,7.9588806 11.791,7.9100577 11.721436,7.7725355 11.695242,7.6532757 11.669049,7.5340159 11.598173,7.4174663 11.537742,7.3942765 11.47731,7.3710867 11.305632,7.0945944 11.156235,6.7798493 11.006838,6.4651041 10.852762,6.187906 10.813845,6.1638535 c -0.03892,-0.024052 -0.07076,-0.1814214 -0.07076,-0.3497086 0,-0.2389318 0.05043,-0.3564037 0.230137,-0.5361134 0.209792,-0.2097926 0.261965,-0.226129 0.590187,-0.1848011 0.532196,0.067011 0.540884,0.066288 1.159661,-0.096513 0.314132,-0.082649 0.699658,-0.1716445 0.856725,-0.1977687 0.216399,-0.035993 0.285574,-0.083556 0.285574,-0.1963543 0,-0.081871 -0.01412,-0.1488558 -0.03138,-0.1488558 -0.201992,0 -1.231117,0.2473236 -1.406493,0.3380142 C 12.066632,4.9783636 11.754181,4.9434776 11.49876,4.688056 11.125146,4.3144418 11.243408,3.7105027 11.75027,3.4036512 c 0.256601,-0.1553456 0.962236,-0.348761 1.603183,-0.4394346 0.248508,-0.035156 0.389258,-0.098956 0.444011,-0.2012619 0.07925,-0.148077 0.496811,-0.365355 0.702135,-0.365355 0.05833,0 0.224139,0.080138 0.368471,0.178084 0.239633,0.1626193 0.369907,0.1820816 1.500186,0.224119 1.010767,0.037593 1.282316,0.071976 1.480692,0.1874863 0.478848,0.2788222 0.558213,0.9164787 0.153673,1.2346896 -0.180465,0.1419544 -0.304534,0.1556063 -1.414151,0.1556063 -1.077847,0 -1.211067,0.013715 -1.170106,0.1204583 0.02542,0.066252 0.04622,0.1469024 0.04622,0.1792229 0,0.03232 0.236011,0.097741 0.524469,0.1453788 1.444861,0.2386136 2.286793,0.9428955 2.29153,1.9168798 0.0026,0.5245543 -0.205704,0.8441874 -0.673445,1.0336138 l -0.392708,0.1590392 0.289858,0.086844 c 0.3247,0.097282 0.89768,0.5527899 0.965959,0.7679173 0.03655,0.115173 0.157599,0.1503938 0.670685,0.1951509 0.82274,0.071768 1.096184,0.1905735 1.24203,0.5396315 0.09097,0.2177127 0.09759,0.3292911 0.03144,0.5297216 -0.130062,0.394093 -0.255603,0.452765 -1.058213,0.494557 l -0.731244,0.03808 0.02582,0.360805 c 0.02269,0.317126 -0.0019,0.388574 -0.203563,0.590188 l -0.229383,0.229383 h -1.186234 -1.186233 v 0.232242 c 0,0.287126 -0.181382,0.651043 -0.376549,0.755493 -0.18585,0.09946 -0.610997,0.09738 -0.784791,-0.0038 z M 13.846331,6.4345616 c 0.09424,-4.61e-4 0.171345,-0.029919 0.171345,-0.065463 0,-0.068342 -0.841377,0.03979 -0.911107,0.1170935 -0.02245,0.024883 0.09627,0.023634 0.263804,-0.00278 0.167537,-0.02641 0.381718,-0.048395 0.475958,-0.048855 z m 14.945081,5.5601794 c -1.104757,-0.07184 -1.554582,-0.176911 -2.067207,-0.48287 -0.791635,-0.472485 -1.080783,-1.18408 -1.088712,-2.6793193 -0.0035,-0.6601284 0.02458,-0.8959805 0.132496,-1.1127092 0.213042,-0.4278672 0.391056,-0.477566 1.824009,-0.5092341 l 1.275567,-0.02819 V 6.9475772 c 0,-0.4546774 -0.172756,-1.2196828 -0.305383,-1.3523099 -0.174856,-0.1748563 -1.179496,-0.2654168 -1.736644,-0.156545 -0.316738,0.061893 -0.460277,0.05588 -0.660212,-0.027658 -0.696693,-0.2910972 -0.504912,-1.2818415 0.289932,-1.4977911 0.395418,-0.1074303 2.037361,-0.047453 2.412307,0.088117 0.654398,0.2366123 1.119281,0.747496 1.332002,1.4638042 0.166112,0.5593606 0.293098,1.9586813 0.230659,2.5417346 -0.04518,0.4218874 -0.09296,0.548011 -0.2775,0.7325537 -0.200535,0.2005344 -0.255233,0.2175701 -0.544621,0.1696212 -0.176933,-0.029316 -0.805163,-0.068807 -1.396067,-0.087757 l -1.074369,-0.034455 0.0372,0.4035962 c 0.05674,0.6155987 0.179801,0.9212439 0.416615,1.0347449 0.3191,0.152938 1.005196,0.243673 1.847232,0.244291 0.871995,6.41e-4 1.226854,0.124613 1.400009,0.4891 0.140784,0.296347 0.03546,0.705134 -0.232999,0.904357 -0.244843,0.181695 -0.623499,0.209194 -1.814313,0.13176 z M 20.491764,6.4526434 C 20.005613,6.2088148 19.892013,5.6782871 20.243206,5.2918479 c 0.185933,-0.2045926 0.304819,-0.2474141 1.05995,-0.3817823 1.374396,-0.2445603 3.328705,-0.4075877 3.642912,-0.3038899 0.582406,0.1922112 0.752827,0.8898366 0.310352,1.2704374 -0.209553,0.1802498 -0.32486,0.2006232 -1.871891,0.3307392 -0.565438,0.047557 -1.370759,0.1521113 -1.789602,0.2323423 -0.91394,0.1750688 -0.78299,0.1735317 -1.103163,0.012949 z M 21.910396,4.3782025 C 21.432858,4.2290283 21.182037,3.7929728 21.324854,3.3602317 21.433558,3.0308554 21.693028,2.8544335 22.068206,2.854804 c 0.770965,7.614e-4 1.202887,0.7700507 0.726135,1.2933087 -0.229856,0.2522788 -0.547898,0.3350647 -0.883945,0.2300898 z"
		/>
		<path
			d="m 29.057584,29.476649 c -0.29769,-0.29769 -0.311593,-0.525032 -0.06897,-1.127726 0.289163,-0.718293 0.302898,-1.330757 0.03622,-1.614889 -0.101983,-0.108656 -0.324732,-0.235318 -0.494997,-0.281471 -0.372088,-0.10086 -1.727397,-0.04626 -2.077003,0.08367 l -0.244365,0.09082 0.04577,0.854112 c 0.03808,0.710623 0.02415,0.899687 -0.08296,1.125391 -0.313154,0.659923 -1.214691,0.564876 -1.412948,-0.148965 -0.04309,-0.155161 -0.07854,-0.558856 -0.07878,-0.897101 -3.83e-4,-0.553762 -0.01899,-0.632427 -0.186858,-0.790134 -0.269337,-0.253029 -0.313805,-0.557555 -0.134372,-0.920221 0.08216,-0.166068 0.116032,-0.301943 0.07526,-0.301943 -0.187,0 -0.579434,-0.254224 -0.657744,-0.426096 -0.184196,-0.404267 -0.113238,-0.645454 0.305579,-1.03866 l 0.392283,-0.368295 -0.09124,-0.407709 c -0.113309,-0.50632 -0.05546,-0.751853 0.234668,-0.995979 0.521671,-0.438956 1.131126,-0.09685 1.312254,0.736604 0.04227,0.194507 0.05643,0.199925 0.327098,0.12519 0.404826,-0.111778 1.05131,-0.04215 1.249648,0.134591 0.363782,0.324169 0.423354,0.763088 0.171483,1.263458 l -0.102426,0.20348 0.512918,0.04973 c 1.379277,0.13372 2.156901,0.634597 2.536586,1.633846 0.337622,0.888548 0.01037,2.574378 -0.591669,3.047939 -0.280063,0.220297 -0.739465,0.206336 -0.975444,-0.02964 z M 2.2308077,29.248703 C 1.0388069,28.859043 0.68312261,27.585257 1.4968257,26.620148 1.8060188,26.253423 2.4851185,25.833944 3.0431504,25.664986 l 0.4742332,-0.143587 -0.051291,-0.310253 c -0.02821,-0.170639 -0.067918,-0.338257 -0.088241,-0.372486 -0.020322,-0.03423 -0.3376073,-0.03871 -0.7050779,-0.01 -0.7700914,0.06024 -1.1372919,-0.0266 -1.3715045,-0.32435 -0.2877436,-0.365806 -0.1548,-0.92204 0.2683679,-1.122846 0.166154,-0.07885 0.471677,-0.117884 0.9223261,-0.117853 l 0.6738705,4.8e-5 -0.026143,-0.377181 c -0.070112,-1.011536 0.657911,-1.574081 1.2975156,-1.002594 0.2247416,0.200806 0.2482922,0.265304 0.2760145,0.755921 l 0.030308,0.536383 1.064307,0.02465 1.064307,0.02465 0.2306003,0.258301 c 0.200248,0.224301 0.2250794,0.299462 0.1886545,0.57103 -0.027913,0.208107 -0.1086345,0.370094 -0.2412846,0.484194 C 6.8662983,24.697157 6.7765025,24.71051 5.8970544,24.71051 H 4.9433342 l 0.053083,0.247498 c 0.075824,0.353528 0.085951,0.361728 0.4467066,0.361728 0.2265053,0 0.3673795,-0.04529 0.4603218,-0.14799 0.3872196,-0.427872 1.2604354,-0.107084 1.2604354,0.46304 0,0.120989 0.084111,0.300708 0.1982142,0.423521 0.3620036,0.389638 0.5111534,0.780255 0.5467048,1.431798 0.038643,0.7082 -0.071066,1.198825 -0.3248099,1.452569 -0.2539978,0.253998 -0.5370976,0.305931 -0.8511978,0.156147 -0.3707388,-0.176793 -0.4887982,-0.495607 -0.3874335,-1.046246 0.043285,-0.235137 0.05494,-0.522193 0.025898,-0.637903 L 6.3184546,27.204291 6.131904,27.379546 c -0.1768691,0.16616 -0.1802156,0.184923 -0.064484,0.361552 0.2640517,0.402994 0.091236,1.004188 -0.3353956,1.166783 -0.24612,0.0938 -0.6023604,0.0345 -0.784836,-0.130634 -0.121691,-0.110129 -0.1840711,-0.0944 -0.7665298,0.193237 -0.7370842,0.364002 -1.3986618,0.4584 -1.9498506,0.278219 z m 1.4095084,-1.73796 C 4.0707003,27.249902 4.1612519,27.010784 3.8112594,27.059335 3.496378,27.103015 2.9246432,27.377156 2.7412088,27.572413 L 2.568135,27.756641 H 2.90136 c 0.2409645,0 0.4455604,-0.06808 0.7389561,-0.245898 z m 7.4290199,1.405313 c -0.259871,-0.04162 -0.554711,-0.441362 -0.554711,-0.752068 0,-0.21885 0.07469,-0.344653 0.418843,-0.70546 0.230364,-0.241512 0.418843,-0.466672 0.418843,-0.500355 0,-0.122066 -0.979956,0.03405 -1.465581,0.233484 -0.3752167,0.15409 -0.5643483,0.191799 -0.7692153,0.153365 -0.5024832,-0.09427 -0.7241353,-0.617382 -0.4699043,-1.109011 0.225402,-0.435879 1.3985596,-0.840416 2.4351256,-0.839697 0.80062,5.56e-4 1.156605,0.107154 1.498031,0.44858 0.568059,0.568059 0.550646,1.318732 -0.0495,2.133974 -0.504634,0.685496 -1.010131,1.009552 -1.46193,0.937188 z m 8.685106,-0.01592 c -0.384002,-0.03378 -0.815892,-0.100266 -0.959756,-0.147745 -0.656914,-0.216802 -0.843951,-0.89024 -0.365884,-1.317392 0.238713,-0.213291 0.285372,-0.226068 0.645572,-0.176787 0.213544,0.02922 0.791691,0.07953 1.284772,0.111801 0.786778,0.0515 0.919461,0.08024 1.084018,0.234836 0.350225,0.329019 0.317842,0.928357 -0.06367,1.17833 -0.238396,0.156203 -0.7557,0.193434 -1.625056,0.116957 z m -4.279241,-0.887414 c -0.373786,-0.340301 -0.367967,-0.539158 0.05095,-1.741066 0.204378,-0.58638 0.397743,-1.126116 0.429701,-1.199414 0.04528,-0.103859 0.02159,-0.133268 -0.107355,-0.133268 -0.211722,0 -0.443537,-0.119991 -0.707559,-0.366242 -0.158892,-0.148197 -0.209422,-0.266595 -0.209422,-0.490698 0,-0.566966 0.240625,-0.755245 1.199746,-0.938756 0.319,-0.06103 0.585069,-0.118901 0.591265,-0.128592 0.0062,-0.0097 0.05982,-0.202642 0.119158,-0.42878 0.128083,-0.488101 0.389499,-0.723524 0.803406,-0.723524 0.349704,0 0.713323,0.368131 0.713323,0.722174 0,0.184905 0.02723,0.224693 0.133268,0.194721 0.0733,-0.02072 0.568235,-0.09654 1.09986,-0.168484 0.805843,-0.10906 1.005909,-0.11453 1.203006,-0.03289 0.552787,0.228972 0.609238,1.086193 0.08983,1.364169 -0.07237,0.03873 -0.764561,0.161496 -1.538198,0.272809 -0.773638,0.111314 -1.430224,0.225532 -1.459081,0.253819 -0.06963,0.06826 -0.823052,2.020177 -1.082002,2.803194 -0.23335,0.705605 -0.367895,0.861913 -0.790727,0.918626 -0.254098,0.03408 -0.336171,0.007 -0.539173,-0.177798 z m 5.16781,-1.258545 c -0.188479,-0.03957 -0.736783,-0.05789 -1.218452,-0.04071 -1.180503,0.0421 -1.446913,-0.09581 -1.446913,-0.749038 0,-0.43627 0.373579,-0.766113 0.949142,-0.838025 0.495413,-0.0619 1.506799,-0.0023 2.092595,0.12335 0.887938,0.190429 1.062285,1.216021 0.258661,1.521559 -0.103416,0.03932 -0.211499,0.06773 -0.240186,0.06314 -0.02869,-0.0046 -0.206368,-0.04072 -0.394847,-0.08028 z m -4.050696,-6.731802 c -0.900431,-0.12321 -1.161779,-0.246201 -1.279202,-0.601994 -0.149223,-0.45215 0.111462,-0.911455 0.565673,-0.996665 0.205592,-0.03857 1.583681,0.111099 2.188498,0.237683 0.571669,0.119647 0.803542,0.870583 0.394974,1.279151 -0.175885,0.175885 -0.25847,0.199655 -0.666341,0.19179 -0.256065,-0.0049 -0.797687,-0.05442 -1.203602,-0.109965 z M 12.72307,19.706766 c -0.390783,-0.142853 -0.587802,-0.560369 -0.796125,-1.687118 -0.137697,-0.74476 -0.155957,-2.204124 -0.03101,-2.478355 0.133103,-0.292129 0.541581,-0.45675 0.86692,-0.349379 0.469641,0.154996 0.539655,0.326187 0.597367,1.460625 0.02972,0.584249 0.115397,1.267942 0.202207,1.613624 0.08285,0.329907 0.150633,0.662417 0.150633,0.738911 0,0.471058 -0.551531,0.861974 -0.989993,0.701692 z m 4.835733,-3.006121 c -0.167537,-0.04104 -0.567347,-0.05417 -0.888466,-0.02917 -0.651578,0.05072 -0.905411,-0.02314 -1.057768,-0.307827 -0.212032,-0.396185 -0.061,-0.874124 0.364112,-1.152195 0.159984,-0.104648 0.357459,-0.133068 0.893741,-0.128622 1.233977,0.01023 1.868757,0.323103 1.868757,0.921082 0,0.335646 -0.179013,0.602217 -0.473308,0.704809 -0.268314,0.09353 -0.293487,0.09325 -0.707068,-0.0081 z M 2.93473,12.986597 C 2.8495073,12.952053 2.7318851,12.86608 2.6733474,12.795547 2.4335207,12.506573 1.6046915,10.283236 1.6046915,9.9288736 c 0,-0.3361826 0.1924328,-0.6500203 0.4546058,-0.7414143 0.1731086,-0.060346 0.2307737,-0.1275505 0.2307737,-0.26895 0,-0.1036759 0.086581,-0.2913979 0.1924032,-0.4171599 C 2.6817157,8.2645643 3.1528266,8.1171399 4.1056665,7.9934052 4.511411,7.9407156 4.5123248,7.9399862 4.4717831,7.7011882 4.4494294,7.5695207 4.4079217,7.119103 4.3795439,6.7002599 4.3511661,6.2814169 4.316927,5.9195415 4.3034571,5.8960925 4.2599812,5.8204079 2.5645354,6.0535992 2.3166387,6.1693591 2.016027,6.3097352 1.9527613,6.3091843 1.6457904,6.163517 1.1710671,5.938246 1.0849962,5.378802 1.4594478,4.9523252 1.7420868,4.6304171 1.9612737,4.5628797 3.19506,4.4175361 3.713746,4.3564334 4.1528004,4.2917654 4.1707362,4.2738295 4.1886721,4.2558937 4.165477,3.9646329 4.1191916,3.6265835 4.0477544,3.1048355 4.0529143,2.9773761 4.1533345,2.7831847 4.3848861,2.3354132 4.9440406,2.2534792 5.3419531,2.609014 5.5511031,2.7958894 5.588164,2.8931197 5.661251,3.4467001 5.728229,3.954009 5.7686218,4.0729718 5.8738962,4.0729718 c 0.071479,0 0.6565509,-0.072693 1.3001608,-0.1615401 1.5608307,-0.2154648 1.6503587,-0.2117381 1.910608,0.079531 0.2861237,0.320228 0.2851278,0.68259 -0.00276,1.0047941 C 8.8713997,5.2313519 8.8429635,5.2388881 7.4636464,5.4246301 6.6914529,5.5286155 6.01216,5.6275696 5.9541064,5.6445281 5.8460775,5.6760854 5.8480356,5.7597093 5.9944305,7.3666011 l 0.046831,0.5140346 0.389965,0.00235 c 1.133194,0.00683 2.0009175,0.2546604 2.4718149,0.7059674 0.524676,0.5028482 0.6773453,1.0394217 0.7100235,2.4954556 0.025469,1.134799 -0.042576,1.370004 -0.4400622,1.521128 -0.1052469,0.04002 -0.7123138,0.07275 -1.3490376,0.07275 -1.500013,0 -3.4627899,0.130302 -4.0726687,0.27037 C 3.211955,13.07253 3.1534398,13.075249 2.93473,12.986597 Z m 2.1462756,-1.748723 c 0.6639119,-0.04419 1.6141163,-0.101652 2.1115654,-0.12769 l 0.9044529,-0.04734 -0.038059,-0.531921 C 8.0142814,9.9064083 7.8517624,9.6342846 7.4627852,9.5326709 7.0759371,9.4316133 4.0866298,9.5198465 3.5846767,9.6471381 3.0946869,9.771396 3.0990279,9.7377808 3.445953,10.721355 c 0.1561653,0.442747 0.2689542,0.657875 0.3321927,0.633608 0.052661,-0.02021 0.6389481,-0.0729 1.3028599,-0.117089 z m 17.0260434,1.516243 c -0.223855,-0.136484 -0.396409,-0.496116 -0.337827,-0.704089 0.0088,-0.03141 -0.05588,-0.05711 -0.143834,-0.05711 -0.08796,0 -0.271454,-0.111532 -0.407771,-0.24785 -0.197449,-0.197448 -0.265587,-0.349705 -0.335074,-0.748732 -0.144515,-0.829865 -0.116769,-1.2338981 0.10086,-1.468724 0.103447,-0.1116211 0.288458,-0.223022 0.411135,-0.2475573 l 0.223048,-0.04461 -0.182674,-0.269186 c -0.19006,-0.280069 -0.212326,-0.4111537 -0.11302,-0.6653843 0.03876,-0.099224 0.01094,-0.2296448 -0.08122,-0.3807664 -0.207837,-0.3408097 -0.182063,-0.6954385 0.06868,-0.94498 0.192006,-0.1910849 0.287456,-0.2160111 1.147768,-0.2997331 0.824206,-0.080208 0.969248,-0.076652 1.192388,0.029235 0.293345,0.1392012 0.459065,0.4686521 0.395533,0.7863158 -0.02666,0.1332735 -0.0016,0.2743085 0.0643,0.3612719 0.146201,0.1930623 0.140627,0.6768008 -0.01046,0.9073823 -0.115115,0.1756882 -0.541965,0.346903 -1.095125,0.4392685 -0.104711,0.017484 -0.01084,0.036456 0.208604,0.04216 1.093219,0.028416 2.161026,0.902116 2.146019,1.755914 -0.0094,0.534193 -0.160477,1.002208 -0.374638,1.160493 -0.112664,0.08327 -0.50126,0.191734 -0.951916,0.265698 -0.470119,0.07716 -0.880658,0.193606 -1.072837,0.304305 -0.379545,0.218627 -0.52943,0.223321 -0.851946,0.02668 z m 0.744407,-1.668078 c 0.146595,-0.03758 0.367556,-0.09115 0.491025,-0.119037 0.173444,-0.03917 0.199417,-0.06656 0.11423,-0.120455 -0.262221,-0.165894 -0.986021,-0.02454 -0.986021,0.192565 0,0.135086 0.02494,0.138159 0.380766,0.04693 z M 22.145452,9.357692 c -0.0253,-0.025305 -0.09099,-0.028011 -0.145961,-0.00601 -0.06075,0.02431 -0.0427,0.042355 0.04601,0.046009 0.08028,0.00331 0.125256,-0.014692 0.09995,-0.039997 z m -7.461437,3.390653 c -0.184144,-0.107254 -0.361726,-0.474055 -0.361726,-0.747156 0,-0.125261 -0.0257,-0.241808 -0.05711,-0.258994 -0.03141,-0.01719 -0.605419,-0.0066 -1.275567,0.02342 -1.470064,0.06596 -1.685947,0.01894 -1.896889,-0.413157 -0.120164,-0.246146 -0.130493,-0.337159 -0.05959,-0.525016 0.07546,-0.199918 0.06318,-0.254113 -0.102135,-0.450574 -0.251348,-0.29871 -0.24788,-0.6617564 0.0092,-0.9673258 0.108434,-0.1288665 0.262644,-0.2343027 0.342689,-0.2343027 0.119799,0 0.145537,-0.055648 0.145537,-0.3146595 0,-0.260422 0.04553,-0.3576029 0.264162,-0.563796 C 11.912299,8.0896075 11.938774,8.0326996 11.849828,7.9588806 11.791,7.9100577 11.721436,7.7725355 11.695242,7.6532757 11.669049,7.5340159 11.598173,7.4174663 11.537742,7.3942765 11.47731,7.3710867 11.305632,7.0945944 11.156235,6.7798493 11.006838,6.4651041 10.852762,6.187906 10.813845,6.1638535 c -0.03892,-0.024052 -0.07076,-0.1814214 -0.07076,-0.3497086 0,-0.2389318 0.05043,-0.3564037 0.230137,-0.5361134 0.209792,-0.2097926 0.261965,-0.226129 0.590187,-0.1848011 0.532196,0.067011 0.540884,0.066288 1.159661,-0.096513 0.314132,-0.082649 0.699658,-0.1716445 0.856725,-0.1977687 0.216399,-0.035993 0.285574,-0.083556 0.285574,-0.1963543 0,-0.081871 -0.01412,-0.1488558 -0.03138,-0.1488558 -0.201992,0 -1.231117,0.2473236 -1.406493,0.3380142 C 12.066632,4.9783636 11.754181,4.9434776 11.49876,4.688056 11.125146,4.3144418 11.243408,3.7105027 11.75027,3.4036512 c 0.256601,-0.1553456 0.962236,-0.348761 1.603183,-0.4394346 0.248508,-0.035156 0.389258,-0.098956 0.444011,-0.2012619 0.07925,-0.148077 0.496811,-0.365355 0.702135,-0.365355 0.05833,0 0.224139,0.080138 0.368471,0.178084 0.239633,0.1626193 0.369907,0.1820816 1.500186,0.224119 1.010767,0.037593 1.282316,0.071976 1.480692,0.1874863 0.478848,0.2788222 0.558213,0.9164787 0.153673,1.2346896 -0.180465,0.1419544 -0.304534,0.1556063 -1.414151,0.1556063 -1.077847,0 -1.211067,0.013715 -1.170106,0.1204583 0.02542,0.066252 0.04622,0.1469024 0.04622,0.1792229 0,0.03232 0.236011,0.097741 0.524469,0.1453788 1.444861,0.2386136 2.286793,0.9428955 2.29153,1.9168798 0.0026,0.5245543 -0.205704,0.8441874 -0.673445,1.0336138 l -0.392708,0.1590392 0.289858,0.086844 c 0.3247,0.097282 0.89768,0.5527899 0.965959,0.7679173 0.03655,0.115173 0.157599,0.1503938 0.670685,0.1951509 0.82274,0.071768 1.096184,0.1905735 1.24203,0.5396315 0.09097,0.2177127 0.09759,0.3292911 0.03144,0.529722 -0.130062,0.394093 -0.255603,0.452765 -1.058213,0.494557 l -0.731244,0.03808 0.02582,0.360805 c 0.02269,0.317126 -0.0019,0.388574 -0.203563,0.590188 l -0.229383,0.229383 h -1.186234 -1.186233 v 0.232242 c 0,0.287126 -0.181382,0.651043 -0.376549,0.755493 -0.18585,0.09946 -0.610997,0.09738 -0.784791,-0.0038 z M 13.846331,6.4345616 c 0.09424,-4.61e-4 0.171345,-0.029919 0.171345,-0.065463 0,-0.068342 -0.841377,0.03979 -0.911107,0.1170935 -0.02245,0.024883 0.09627,0.023634 0.263804,-0.00278 0.167537,-0.02641 0.381718,-0.048395 0.475958,-0.048855 z m 14.945081,5.5601794 c -1.104757,-0.07184 -1.554582,-0.176911 -2.067207,-0.48287 -0.791635,-0.472485 -1.080783,-1.18408 -1.088712,-2.6793193 -0.0035,-0.6601284 0.02458,-0.8959805 0.132496,-1.1127092 0.213042,-0.4278672 0.391056,-0.477566 1.824009,-0.5092341 l 1.275567,-0.02819 V 6.9475772 c 0,-0.4546774 -0.172756,-1.2196828 -0.305383,-1.3523099 -0.174856,-0.1748563 -1.179496,-0.2654168 -1.736644,-0.156545 -0.316738,0.061893 -0.460277,0.05588 -0.660212,-0.027658 -0.696693,-0.2910972 -0.504912,-1.2818415 0.289932,-1.4977911 0.395418,-0.1074303 2.037361,-0.047453 2.412307,0.088117 0.654398,0.2366123 1.119281,0.747496 1.332002,1.4638042 0.166112,0.5593606 0.293098,1.9586813 0.230659,2.5417346 -0.04518,0.4218874 -0.09296,0.548011 -0.2775,0.7325537 -0.200535,0.2005344 -0.255233,0.2175701 -0.544621,0.1696212 -0.176933,-0.029316 -0.805163,-0.068807 -1.396067,-0.087757 l -1.074369,-0.034455 0.0372,0.4035962 c 0.05674,0.6155987 0.179801,0.9212437 0.416615,1.0347447 0.3191,0.152938 1.005196,0.243673 1.847232,0.244291 0.871995,6.41e-4 1.226854,0.124613 1.400009,0.4891 0.140784,0.296347 0.03546,0.705134 -0.232999,0.904357 -0.244843,0.181695 -0.623499,0.209194 -1.814313,0.13176 z M 20.491764,6.4526434 C 20.005613,6.2088148 19.892013,5.6782871 20.243206,5.2918479 c 0.185933,-0.2045926 0.304819,-0.2474141 1.05995,-0.3817823 1.374396,-0.2445603 3.328705,-0.4075877 3.642912,-0.3038899 0.582406,0.1922112 0.752827,0.8898366 0.310352,1.2704374 -0.209553,0.1802498 -0.32486,0.2006232 -1.871891,0.3307392 -0.565438,0.047557 -1.370759,0.1521113 -1.789602,0.2323423 -0.91394,0.1750688 -0.78299,0.1735317 -1.103163,0.012949 z M 21.910396,4.3782025 C 21.432858,4.2290283 21.182037,3.7929728 21.324854,3.3602317 21.433558,3.0308554 21.693028,2.8544335 22.068206,2.854804 c 0.770965,7.614e-4 1.202887,0.7700507 0.726135,1.2933087 -0.229856,0.2522788 -0.547898,0.3350647 -0.883945,0.2300898 z"
			style="fill:#3cb371;fill-opacity:1"
		/>
	</g>
</svg>
