<?xml version="1.0" encoding="UTF-8" standalone="no"?>
<!-- Created with Inkscape (http://www.inkscape.org/) -->

<svg
	xmlns="http://www.w3.org/2000/svg"
	xmlns:cc="http://creativecommons.org/ns#"
	xmlns:dc="http://purl.org/dc/elements/1.1/"
	xmlns:inkscape="http://www.inkscape.org/namespaces/inkscape"
	xmlns:rdf="http://www.w3.org/1999/02/22-rdf-syntax-ns#"
	xmlns:sodipodi="http://sodipodi.sourceforge.net/DTD/sodipodi-0.dtd"
	xmlns:svg="http://www.w3.org/2000/svg"
	xmlns:xlink="http://www.w3.org/1999/xlink"
	width="32"
	height="32"
	viewBox="0 0 32 32"
	version="1.1"
	xml:space="preserve"
	inkscape:version="1.4 (e7c3feb100, 2024-10-09)"
	>
	<title>にゃん</title>
	<metadata>
		<rdf:RDF>
			<cc:Work rdf:about="">
				<cc:license rdf:resource="http://www.opensource.org/licenses/mit-license.php" />
				<dc:title>にゃん</dc:title>
				<dc:date>2025-06-02</dc:date>
				<dc:creator><cc:Agent><dc:title>zawa-ch.</dc:title></cc:Agent></dc:creator>
				<dc:rights><cc:Agent><dc:title>Copyright 2025 zawa-ch.</dc:title></cc:Agent></dc:rights>
				<dc:identifier>stellar_ch_handwritten_squared_meow</dc:identifier>
				<dc:language>ja_JP</dc:language>
			</cc:Work>
		</rdf:RDF>
	</metadata>
	<sodipodi:namedview
		pagecolor="#505050"
		bordercolor="#eeeeee"
		borderopacity="1"
		inkscape:showpageshadow="0"
		inkscape:pageopacity="0"
		inkscape:pagecheckerboard="0"
		inkscape:deskcolor="#d1d1d1"
		inkscape:document-units="px"
		showgrid="false"
	/>
	<defs>
		<inkscape:path-effect
			id="path-effect3"
			effect="offset"
			is_visible="true"
			lpeversion="1.3"
			linejoin_type="miter"
			unit="px"
			offset="1"
			miter_limit="4"
			attempt_force_join="false"
			update_on_knot_move="true"
		/>
	</defs>
	<g inkscape:groupmode="layer">
		<image
			display="none"
			x="-1.9232115"
			y="-2.2726026"
			width="35.473404"
			height="35.473404"
			preserveAspectRatio="none"
			xlink:href="stellar_ch_handwritten_squared_meow.png"
		/>
		<path
			display="none"
			d="M 3.3977991,11.325536 C 4.2448061,10.135973 4.8476574,8.7367117 5.6001178,7.4825835 5.7406344,7.2483847 5.8920195,6.9595638 6.0512334,6.7476026 6.1660983,6.5946839 6.2996533,6.466813 6.5020073,6.4230233 6.7416302,6.3711686 6.9843914,6.448026 7.2407512,6.560908 c 1.06802,0.4702786 2.0649663,1.4715563 2.8822138,2.2490774 0.456043,0.4338752 0.514824,0.4450031 0.960738,0.8896859 m 8.942254,0.4434177 c 0.548465,-0.4133473 1.164738,-0.9342447 1.699767,-1.3945187 0.697387,-0.5999448 1.37946,-1.2075216 2.069282,-1.8040654 0.339375,-0.2934826 0.689543,-0.5968505 1.108544,-0.5344272 0.219393,0.032684 0.366531,0.146058 0.504718,0.27537 0.183284,0.171514 0.377828,0.4387784 0.538475,0.64933 1.188146,1.5572276 1.914938,3.2668393 2.873662,4.9514963 m -3.916855,3.842952 c -0.278746,0.885193 -0.67859,1.681391 -1.090239,2.512699 -0.104404,0.210838 -0.274985,0.701404 -0.313689,0.886835 -0.07224,0.346129 -0.09406,0.441952 -0.111253,0.589798 -0.004,0.03474 -0.04112,0.137206 0.04209,0.252445 0.09158,0.126842 0.25836,0.111093 0.292075,0.114161 0.147573,0.01344 0.430948,-0.0271 0.88541,0.01688 0.260829,0.02524 0.654034,0.09547 0.960738,0.23226 0.814215,0.363129 1.505925,0.994802 2.364893,1.253842 0.367835,0.110926 0.826622,0.178031 1.182447,0.213609 0.316237,0.03162 0.524014,0.06118 0.886835,0.06142 m -27.417985,-5.542719 -0.2744561,1.699767 -0.021156,0.960738 0.021156,0.73903 0.070938,0.443417 0.4991298,2.143185 m 4.1385638,-5.616622 c 0.9795588,-0.224023 1.6600552,-0.294832 2.5866023,-0.221709 m 3.7690492,1.404156 c 0.264016,0.144454 0.505973,0.5553 0.592363,0.812932 0.08049,0.240029 0.12062,0.285868 0.178656,0.363754 0.02461,0.03303 0.07611,0.151949 0.264762,0.181167 0.126281,0.01956 0.212846,-0.04718 0.220569,-0.05115 0.09102,-0.04679 0.151018,-0.138218 0.591223,-0.242523 0.441861,-0.104698 0.486745,-0.257328 0.812932,-0.281699 0.483111,-0.03609 0.517178,0.0074 1.108544,0.03336 0.25092,0.011 0.443481,0.04066 0.66507,0.09614 0.443395,0.111005 0.637208,0.361203 0.631197,0.787785 -0.0057,0.402587 -0.06839,0.541931 -0.261626,0.886835 m -2.290991,-2.438797 0.0739,0.517321 m -1.625864,0.739029 c -0.186589,0.18068 -0.324948,0.128063 -1.108544,0.886835 m 1.25635,-0.812932 c 0.09925,0.11161 0.206917,0.131595 0.350184,0.517433 0.05064,0.136372 0.156975,0.554908 0.270691,0.738917 0.323959,0.524213 0.84853,1.266832 1.374504,1.551961 m 6.872972,-2.143185 -1.182447,1.404156 M 6.8712366,21.598042 8.2014892,22.03855 10.122965,22.484877"
			style="stroke:black;fill:none;stroke-linejoin:round;stroke-linecap:round;stroke-width:2.0;stroke-dasharray:none"
		/>
		<path
			d="M 6.7167969,4.4042969 C 6.5131546,4.4009214 6.3011912,4.4209009 6.0800781,4.46875 5.258046,4.646639 4.7174598,5.1930151 4.453125,5.5449219 4.1891946,5.896292 3.9513458,6.344109 3.8847656,6.4550781 3.0415697,7.8604355 2.4400717,9.2242875 1.7695312,10.166016 1.1308126,11.062969 1.3412967,12.3161 2.2382813,12.955078 c 0.8969536,0.638719 2.1500589,0.42827 2.7890624,-0.46875 0.8557881,-1.201895 1.5307397,-2.6364635 2.1035157,-3.6542967 0.1139799,0.085224 0.231446,0.1750709 0.3515625,0.2753906 0.4099276,0.3423662 0.8453041,0.756171 1.2617187,1.1523441 0.5000678,0.47576 0.5357022,0.466472 0.9277344,0.857422 0.779751,0.777384 2.05037,0.773934 2.828125,-0.0059 0.777384,-0.779751 0.77579,-2.0504662 -0.0039,-2.8281249 C 12.000979,7.7894553 11.906961,7.7466493 11.501953,7.3613281 10.759479,6.6549451 9.5773716,5.4043885 8.046875,4.7304687 7.7923368,4.6183888 7.3163493,4.4142346 6.7167969,4.4042969 Z m 18.1953121,0 c -0.63615,-0.02571 -1.208847,0.1865975 -1.58789,0.4042968 -0.401079,0.2303547 -0.686609,0.4922224 -0.837891,0.6230469 -0.705039,0.6097034 -1.384972,1.2162408 -2.064453,1.8007813 -0.523685,0.4505147 -1.121563,0.9522234 -1.599609,1.3125 -0.879722,0.6624763 -1.057009,1.9210661 -0.394532,2.8007811 0.662477,0.87972 1.920767,1.057236 2.800782,0.394531 0.608144,-0.458323 1.265069,-1.015701 1.800781,-1.476562 0.536049,-0.4611497 1.060058,-0.9224581 1.576172,-1.373047 0.867731,1.240127 1.536255,2.732471 2.476562,4.384766 0.544338,0.956964 1.769845,1.293666 2.726563,0.75 0.959228,-0.544399 1.29602,-1.771443 0.75,-2.728516 C 29.703761,9.7947735 28.868485,7.8660427 27.537109,6.1210937 27.426246,5.9757897 27.159878,5.5844068 26.775391,5.2246094 26.519662,4.9853053 25.96908,4.5485745 25.197266,4.4335937 25.107758,4.4202588 25.012675,4.4083612 24.912109,4.4042969 Z m 0,9.7246091 c -0.06636,-4.32e-4 -0.13098,0.0015 -0.197265,0.0078 -0.782442,0.07433 -1.470674,0.605992 -1.71875,1.390625 -0.216893,0.688767 -0.561336,1.391974 -0.97461,2.226562 -0.219513,0.443294 -0.371696,0.853465 -0.478515,1.365235 -0.03841,0.184027 -0.06641,0.321062 -0.08984,0.447265 l -0.814453,0.966797 c -0.70809,0.84231 -0.599224,2.105465 0.242187,2.814453 0.841284,0.709038 2.105363,0.603016 2.816407,-0.238281 l 0.52539,-0.625 c 0.06107,1.7e-5 0.122969,0.003 0.19336,0.0098 2.8e-5,2e-6 0.338015,0.06842 0.33789,0.06836 0.266003,0.118634 1.445928,0.991338 2.601563,1.339844 0.571668,0.172395 1.142471,0.24726 1.560547,0.289062 0.279928,0.02799 0.606874,0.07194 1.085937,0.07227 1.101262,0 2,-0.89874 2,-2 2e-6,-1.099799 -0.896958,-1.997851 -1.998047,-2 -0.259312,-1.71e-4 -0.338455,-0.01569 -0.689453,-0.05078 -0.264216,-0.02642 -0.685244,-0.103241 -0.802734,-0.138672 -0.05576,-0.01682 -0.190414,-0.07656 -0.371094,-0.181641 -0.237142,-0.137916 -0.703508,-0.440459 -1.115234,-0.666016 -0.196108,-0.107433 -0.408258,-0.216679 -0.640625,-0.320312 -0.136388,-0.06083 -0.270499,-0.110741 -0.400391,-0.154297 0.295059,-0.614184 0.593641,-1.283053 0.826172,-2.021484 0.330232,-1.050712 -0.256585,-2.177955 -1.306641,-2.507813 -0.192809,-0.06073 -0.392707,-0.09245 -0.591797,-0.09375 z M 2.5,14.720703 c -0.9389212,0.03941 -1.7356331,0.730142 -1.88867188,1.679688 l -0.27734374,1.707031 c -0.0140637,0.0905 -0.0220023,0.183468 -0.0234375,0.269531 l -0.0214844,0.957031 c -8.5952e-4,0.03385 -9.6036e-4,0.06792 0,0.105469 l 0.0214844,0.734375 c 0.002237,0.08635 0.0110477,0.172253 0.0253906,0.263672 L 0.40625,20.876953 c 0.00743,0.04717 0.0164317,0.09357 0.0273438,0.140625 l 0.49804688,2.144531 C 1.1823514,24.234249 2.2630417,24.902931 3.3359375,24.652344 4.4062553,24.40156 5.0762967,23.325661 4.828125,22.253906 L 4.3457031,20.179687 4.3066406,19.931641 4.2890625,19.371094 4.3066406,18.595703 4.5585937,17.039062 C 4.7339542,15.95177 3.9915015,14.921319 2.9042969,14.746094 2.7661993,14.723821 2.62938,14.715272 2.5,14.720703 Z m 6.4472656,0.121094 c -0.8051782,0.0023 -1.5456822,0.109611 -2.3730469,0.298828 -1.0731222,0.245479 -1.7489085,1.320725 -1.5039062,2.394531 0.245479,1.073123 1.3207749,1.748897 2.3945312,1.503906 C 8.3471302,18.837286 8.6847366,18.80115 9.4472656,18.861328 10.545365,18.94867 11.512734,18.125224 11.599609,17.027344 11.68689,15.92789 10.859628,14.959725 9.7617188,14.875 9.4835763,14.853049 9.2148801,14.841036 8.9472656,14.841797 Z m 4.3886724,1.429687 c -0.0488,0.001 -0.09785,0.0032 -0.146485,0.0078 -0.642988,0.06074 -1.240514,0.432449 -1.568359,1.033203 -0.354827,0.64771 -0.309576,1.408702 0.04883,2 -0.352687,0.438888 -0.487239,0.994467 -0.414063,1.527344 -0.200657,-0.138769 -0.42846,-0.244374 -0.679687,-0.302735 L 8.7363281,20.107422 7.5,19.699219 c -0.1986109,-0.06578 -0.3997921,-0.09848 -0.5957031,-0.101563 -0.065304,-0.001 -0.1293025,0.0027 -0.1933594,0.0078 -0.783821,0.06305 -1.4785128,0.57927 -1.7382813,1.363281 -0.346235,1.045337 0.2246853,2.181152 1.2695313,2.527344 l 1.3359375,0.443359 0.00781,0.002 c 0.057899,0.0183 0.1165584,0.03393 0.1757812,0.04687 l -0.013672,-0.002 1.921875,0.447266 c 1.0733821,0.250198 2.1532661,-0.423675 2.4023441,-1.498047 0.05652,-0.244599 0.06239,-0.489359 0.0293,-0.72461 0.469198,0.319764 1.045188,0.422045 1.582031,0.296875 0.365179,0.565476 0.930844,1.314769 1.841797,1.808594 0.967941,0.524582 2.185761,0.1634 2.710937,-0.804687 0.117578,-0.216951 0.189009,-0.446276 0.220703,-0.677735 0.596854,-0.08489 1.150116,-0.433662 1.466797,-0.998047 0.263327,-0.470005 0.505631,-1.130046 0.515625,-1.835937 0.0075,-0.531714 -0.134232,-1.224216 -0.580078,-1.785156 -0.44541,-0.560392 -1.062947,-0.844662 -1.566406,-0.970703 -0.312705,-0.0783 -0.634721,-0.128246 -0.980469,-0.148438 -0.404944,-0.454424 -1.004757,-0.711576 -1.640625,-0.664062 l -0.126953,0.0098 -0.121094,0.04102 c -0.230216,0.07813 -0.437772,0.195915 -0.61914,0.34375 -0.13594,-0.10788 -0.290094,-0.210844 -0.46875,-0.308594 -0.314739,-0.172036 -0.658407,-0.253218 -1,-0.246094 z"
			style="fill:#734d26;fill-opacity:1;stroke-linecap:round;stroke-linejoin:round"
			inkscape:path-effect="#path-effect3"
			inkscape:original-d="M 25.050781,5.421875 C 24.567598,5.3498898 24.124296,5.5023135 23.822266,5.6757812 23.520235,5.849249 23.310078,6.0409615 23.140625,6.1875 22.443386,6.7904579 21.762941,7.397744 21.074219,7.9902344 20.544221,8.4461797 19.937348,8.9567391 19.423828,9.34375 a 1,1 0 0 0 -0.197266,1.400391 1,1 0 0 0 1.400391,0.197265 c 0.583411,-0.439683 1.209939,-0.970944 1.75,-1.4355466 0.706052,-0.6073993 1.389861,-1.2145578 2.072266,-1.8046875 0.142243,-0.1230082 0.237075,-0.1953437 0.308593,-0.2441407 0.07551,0.079224 0.235905,0.276471 0.394532,0.484375 1.093338,1.4329686 1.803714,3.0912428 2.798828,4.8398438 a 1,1 0 0 0 1.363281,0.375 1,1 0 0 0 0.375,-1.365234 C 28.767119,10.170303 28.025142,8.4100023 26.742187,6.7285156 26.59292,6.5328782 26.395737,6.2395005 26.091797,5.9550781 25.907947,5.7830359 25.539074,5.4946182 25.050781,5.421875 Z M 6.2910156,5.4453125 C 5.7842341,5.5549808 5.4295966,5.909989 5.2519531,6.1464844 5.0135657,6.4638492 4.8591161,6.7738653 4.7421875,6.96875 3.9421298,8.3022088 3.3461194,9.6757276 2.5839844,10.746094 a 1,1 0 0 0 0.234375,1.394531 1,1 0 0 0 1.3945312,-0.234375 c 0.931879,-1.30876 1.5392775,-2.7334055 2.2441406,-3.9082031 0.1389577,-0.2316006 0.249377,-0.421578 0.3339844,-0.5507813 0.02785,0.00816 -0.027317,-0.00337 0.046875,0.029297 0.7989608,0.3518044 1.7620784,1.2654915 2.5957032,2.0585938 0.4809458,0.4575675 0.5226523,0.4535014 0.9433592,0.8730466 a 1,1 0 0 0 1.414063,-0.002 1,1 0 0 0 -0.002,-1.4140624 C 11.317942,8.5223673 11.24364,8.4961204 10.8125,8.0859375 10.01163,7.3239975 8.9816105,6.2352372 7.6445312,5.6464844 7.3282935,5.5072365 6.8667407,5.3207249 6.2910156,5.4453125 Z M 25.203125,15.175781 a 1,1 0 0 0 -1.253906,0.652344 c -0.248057,0.787734 -0.618006,1.534612 -1.03125,2.369141 -0.185921,0.375456 -0.309782,0.711561 -0.396485,1.126953 -0.07092,0.339805 -0.102365,0.481457 -0.125,0.673828 l -0.992187,1.177734 a 1,1 0 0 0 0.121094,1.408203 1,1 0 0 0 1.408203,-0.11914 l 0.828125,-0.982422 c 0.297762,0.01298 0.446755,-0.01372 0.75,0.01563 0.17972,0.01739 0.517776,0.09124 0.65039,0.15039 0.61264,0.27323 1.335288,0.950933 2.482422,1.296875 0.481162,0.145102 0.976078,0.212457 1.371094,0.251954 0.297992,0.0298 0.569445,0.06613 0.986328,0.06641 a 1,1 0 0 0 1,-1 1,1 0 0 0 -0.998047,-1 c -0.308758,-2.04e-4 -0.45458,-0.0232 -0.789062,-0.05664 -0.316634,-0.03166 -0.737679,-0.09903 -0.992188,-0.175781 -0.570802,-0.172137 -1.230303,-0.757909 -2.246094,-1.210938 -0.480793,-0.214433 -0.929546,-0.281364 -1.271484,-0.314453 -0.0895,-0.0087 -0.06091,0.0031 -0.144531,-0.002 0.06356,-0.182512 0.133646,-0.388099 0.148437,-0.417969 0.410054,-0.828087 0.839002,-1.673598 1.148438,-2.65625 A 1,1 0 0 0 25.203125,15.175781 Z M 2.7441406,15.732422 a 1,1 0 0 0 -1.1464844,0.828125 l -0.2753906,1.701172 a 1.0001,1.0001 0 0 0 -0.011719,0.136718 l -0.021484,0.960938 a 1.0001,1.0001 0 0 0 0,0.05078 l 0.021484,0.738281 a 1.0001,1.0001 0 0 0 0.011719,0.128907 l 0.072266,0.443359 a 1.0001,1.0001 0 0 0 0.013672,0.07031 L 1.90625,22.933594 a 1,1 0 0 0 1.2011719,0.746093 1,1 0 0 0 0.7460937,-1.199218 L 3.3632813,20.371094 3.3085943,20.025391 3.2890633,19.376953 3.3085943,18.511719 3.5722661,16.878906 A 1,1 0 0 0 2.7441406,15.732422 Z m 6.9394532,0.138672 C 8.6682874,15.790966 7.82991,15.878981 6.796875,16.115234 A 1,1 0 0 0 6.0449219,17.3125 1,1 0 0 0 7.2421875,18.064453 C 8.1682701,17.85266 8.6895559,17.799116 9.5273438,17.865234 A 1,1 0 0 0 10.603516,16.947266 1,1 0 0 0 9.6835938,15.871094 Z m 4.1718752,1.523437 a 1,1 0 0 0 -1.357422,0.398438 1,1 0 0 0 0.396484,1.357422 c -0.210715,-0.115291 0.115663,0.224106 0.125,0.251953 0.0058,0.01736 0.01317,0.01984 0.01953,0.03711 -0.181809,0.133632 -0.122051,0.03271 -0.507813,0.40625 a 1,1 0 0 0 -0.02344,1.414063 1,1 0 0 0 1.414062,0.02148 c 0.108493,-0.105056 0.08802,-0.0644 0.166016,-0.132813 0.04029,0.1166 0.06281,0.217759 0.166015,0.384766 0.355715,0.575599 0.827423,1.405229 1.748047,1.904297 a 1,1 0 0 0 1.355469,-0.402344 1,1 0 0 0 -0.402344,-1.355469 c -0.131324,-0.07119 -0.707797,-0.726391 -1,-1.199218 0.04811,0.07784 -0.01914,-0.04879 -0.05859,-0.169922 -0.01497,-0.04597 -0.0335,-0.103405 -0.04687,-0.148438 0.08596,-0.03731 0.234541,-0.08382 0.273438,-0.103515 0.09522,-0.04821 -0.02549,-0.005 -0.01367,-0.0059 0.420113,-0.03138 0.351663,0.0071 0.990234,0.03516 0.118969,0.0052 0.198999,0.02586 0.285157,0.04102 -0.0042,0.03257 0.02895,0.05108 -0.07813,0.242188 a 1,1 0 0 0 0.382812,1.359375 1,1 0 0 0 1.361328,-0.382813 c 0.204295,-0.364641 0.381549,-0.858226 0.388672,-1.361328 0.0052,-0.367446 -0.08866,-0.802923 -0.363281,-1.148437 -0.274622,-0.345515 -0.665291,-0.532896 -1.025391,-0.623047 -0.272539,-0.06824 -0.556148,-0.111536 -0.863281,-0.125 -0.190638,-0.0084 -0.303956,-0.0022 -0.429688,-0.01172 a 1,1 0 0 0 -1.011718,-0.648438 1,1 0 0 0 -0.677735,0.904297 c -0.0206,0.0066 -0.03554,0.01967 -0.07617,0.0293 -0.09263,0.02195 -0.141922,0.05194 -0.220704,0.07617 C 14.623612,18.06884 14.42502,17.70612 13.855471,17.394496 Z m 0.271484,1.322266 c -0.02294,0.01339 -0.04658,0.02842 -0.04492,0.02734 0.0034,-0.0022 0.01326,-0.01051 0.02539,-0.01758 0.0048,-0.0028 0.01403,-0.0067 0.01953,-0.0098 z m -6.9414061,1.93164 a 1,1 0 0 0 -1.2636719,0.634766 1,1 0 0 0 0.6347656,1.263672 l 1.3300781,0.441406 a 1.0001,1.0001 0 0 0 0.087891,0.02344 l 1.921875,0.447265 a 1,1 0 0 0 1.2011713,-0.748047 1,1 0 0 0 -0.748047,-1.199218 l -1.8769524,-0.4375 z"
		/>
		<path
			d="M 25.050781,5.421875 C 24.567598,5.3498898 24.124296,5.5023135 23.822266,5.6757812 23.520235,5.849249 23.310078,6.0409615 23.140625,6.1875 22.443386,6.7904579 21.762941,7.397744 21.074219,7.9902344 20.544221,8.4461797 19.937348,8.9567391 19.423828,9.34375 a 1,1 0 0 0 -0.197266,1.400391 1,1 0 0 0 1.400391,0.197265 c 0.583411,-0.439683 1.209939,-0.970944 1.75,-1.4355466 0.706052,-0.6073993 1.389861,-1.2145578 2.072266,-1.8046875 0.142243,-0.1230082 0.237075,-0.1953437 0.308593,-0.2441407 0.07551,0.079224 0.235905,0.276471 0.394532,0.484375 1.093338,1.4329686 1.803714,3.0912428 2.798828,4.8398438 a 1,1 0 0 0 1.363281,0.375 1,1 0 0 0 0.375,-1.365234 C 28.767119,10.170303 28.025142,8.4100023 26.742187,6.7285156 26.59292,6.5328782 26.395737,6.2395005 26.091797,5.9550781 25.907947,5.7830359 25.539074,5.4946182 25.050781,5.421875 Z M 6.2910156,5.4453125 C 5.7842341,5.5549808 5.4295966,5.909989 5.2519531,6.1464844 5.0135657,6.4638492 4.8591161,6.7738653 4.7421875,6.96875 3.9421298,8.3022088 3.3461194,9.6757276 2.5839844,10.746094 a 1,1 0 0 0 0.234375,1.394531 1,1 0 0 0 1.3945312,-0.234375 c 0.931879,-1.30876 1.5392775,-2.7334055 2.2441406,-3.9082031 0.1389577,-0.2316006 0.249377,-0.421578 0.3339844,-0.5507813 0.02785,0.00816 -0.027317,-0.00337 0.046875,0.029297 0.7989608,0.3518044 1.7620784,1.2654915 2.5957032,2.0585938 0.4809458,0.4575675 0.5226523,0.4535014 0.9433592,0.8730467 a 1,1 0 0 0 1.414063,-0.002 1,1 0 0 0 -0.002,-1.4140625 C 11.317942,8.5223673 11.24364,8.4961204 10.8125,8.0859375 10.01163,7.3239975 8.9816105,6.2352372 7.6445312,5.6464844 7.3282935,5.5072365 6.8667407,5.3207249 6.2910156,5.4453125 Z M 25.203125,15.175781 a 1,1 0 0 0 -1.253906,0.652344 c -0.248057,0.787734 -0.618006,1.534612 -1.03125,2.369141 -0.185921,0.375456 -0.309782,0.711561 -0.396485,1.126953 -0.07092,0.339805 -0.102365,0.481457 -0.125,0.673828 l -0.992187,1.177734 a 1,1 0 0 0 0.121094,1.408203 1,1 0 0 0 1.408203,-0.11914 l 0.828125,-0.982422 c 0.297762,0.01298 0.446755,-0.01372 0.75,0.01563 0.17972,0.01739 0.517776,0.09124 0.65039,0.15039 0.61264,0.27323 1.335288,0.950933 2.482422,1.296875 0.481162,0.145102 0.976078,0.212457 1.371094,0.251954 0.297992,0.0298 0.569445,0.06613 0.986328,0.06641 a 1,1 0 0 0 1,-1 1,1 0 0 0 -0.998047,-1 c -0.308758,-2.04e-4 -0.45458,-0.0232 -0.789062,-0.05664 -0.316634,-0.03166 -0.737679,-0.09903 -0.992188,-0.175781 -0.570802,-0.172137 -1.230303,-0.757909 -2.246094,-1.210938 -0.480793,-0.214433 -0.929546,-0.281364 -1.271484,-0.314453 -0.0895,-0.0087 -0.06091,0.0031 -0.144531,-0.002 0.06356,-0.182512 0.133646,-0.388099 0.148437,-0.417969 0.410054,-0.828087 0.839002,-1.673598 1.148438,-2.65625 A 1,1 0 0 0 25.203125,15.175781 Z M 2.7441406,15.732422 a 1,1 0 0 0 -1.1464844,0.828125 l -0.2753906,1.701172 a 1.0001,1.0001 0 0 0 -0.011719,0.136718 l -0.021484,0.960938 a 1.0001,1.0001 0 0 0 0,0.05078 l 0.021484,0.738281 a 1.0001,1.0001 0 0 0 0.011719,0.128907 l 0.072266,0.443359 a 1.0001,1.0001 0 0 0 0.013672,0.07031 L 1.90625,22.933594 a 1,1 0 0 0 1.2011719,0.746093 1,1 0 0 0 0.7460937,-1.199218 l -0.4902343,-2.109375 -0.054687,-0.345703 -0.019531,-0.648438 0.019531,-0.865234 0.2636718,-1.632813 a 1,1 0 0 0 -0.828125,-1.146484 z m 6.9394532,0.138672 C 8.6682874,15.790966 7.82991,15.878981 6.796875,16.115234 A 1,1 0 0 0 6.0449219,17.3125 1,1 0 0 0 7.2421875,18.064453 C 8.1682701,17.85266 8.6895559,17.799116 9.5273438,17.865234 A 1,1 0 0 0 10.603516,16.947266 1,1 0 0 0 9.6835938,15.871094 Z m 4.1718752,1.523437 a 1,1 0 0 0 -1.357422,0.398438 1,1 0 0 0 0.396484,1.357422 c -0.210715,-0.115291 0.115663,0.224106 0.125,0.251953 0.0058,0.01736 0.01317,0.01984 0.01953,0.03711 -0.181809,0.133632 -0.122051,0.03271 -0.507813,0.40625 a 1,1 0 0 0 -0.02344,1.414063 1,1 0 0 0 1.414062,0.02148 c 0.108493,-0.105056 0.08802,-0.0644 0.166016,-0.132813 0.04029,0.1166 0.06281,0.217759 0.166015,0.384766 0.355715,0.575599 0.827423,1.405229 1.748047,1.904297 a 1,1 0 0 0 1.355469,-0.402344 1,1 0 0 0 -0.402344,-1.355469 c -0.131324,-0.07119 -0.707797,-0.726391 -1,-1.199218 0.04811,0.07784 -0.01914,-0.04879 -0.05859,-0.169922 -0.01497,-0.04597 -0.0335,-0.103405 -0.04687,-0.148438 0.08596,-0.03731 0.234541,-0.08382 0.273438,-0.103515 0.09522,-0.04821 -0.02549,-0.005 -0.01367,-0.0059 0.420113,-0.03138 0.351663,0.0071 0.990234,0.03516 0.118969,0.0052 0.198999,0.02586 0.285157,0.04102 -0.0042,0.03257 0.02895,0.05108 -0.07813,0.242188 a 1,1 0 0 0 0.382812,1.359375 1,1 0 0 0 1.361328,-0.382813 c 0.204295,-0.364641 0.381549,-0.858226 0.388672,-1.361328 0.0052,-0.367446 -0.08866,-0.802923 -0.363281,-1.148437 -0.274622,-0.345515 -0.665291,-0.532896 -1.025391,-0.623047 -0.272539,-0.06824 -0.556148,-0.111536 -0.863281,-0.125 -0.190638,-0.0084 -0.303956,-0.0022 -0.429688,-0.01172 a 1,1 0 0 0 -1.011718,-0.648438 1,1 0 0 0 -0.677735,0.904297 c -0.0206,0.0066 -0.03554,0.01967 -0.07617,0.0293 -0.09263,0.02195 -0.141922,0.05194 -0.220704,0.07617 -0.147874,-0.370578 -0.346466,-0.733298 -0.916015,-1.044922 z m 0.271484,1.322266 c -0.02294,0.01339 -0.04658,0.02842 -0.04492,0.02734 0.0034,-0.0022 0.01326,-0.01051 0.02539,-0.01758 0.0048,-0.0028 0.01403,-0.0067 0.01953,-0.0098 z m -6.9414061,1.93164 a 1,1 0 0 0 -1.2636719,0.634766 1,1 0 0 0 0.6347656,1.263672 l 1.3300781,0.441406 a 1.0001,1.0001 0 0 0 0.087891,0.02344 l 1.921875,0.447265 a 1,1 0 0 0 1.2011716,-0.748047 1,1 0 0 0 -0.748047,-1.199218 l -1.8769527,-0.4375 z"
			style="fill:#ee7800;fill-opacity:1;stroke-linecap:round;stroke-linejoin:round"
		/>
	</g>
</svg>
