<?xml version="1.0" encoding="UTF-8" standalone="no"?>
<!-- Created with Inkscape (http://www.inkscape.org/) -->

<svg
	xmlns="http://www.w3.org/2000/svg"
	xmlns:cc="http://creativecommons.org/ns#"
	xmlns:dc="http://purl.org/dc/elements/1.1/"
	xmlns:inkscape="http://www.inkscape.org/namespaces/inkscape"
	xmlns:rdf="http://www.w3.org/1999/02/22-rdf-syntax-ns#"
	xmlns:sodipodi="http://sodipodi.sourceforge.net/DTD/sodipodi-0.dtd"
	xmlns:svg="http://www.w3.org/2000/svg"
	xmlns:xlink="http://www.w3.org/1999/xlink"
	width="32"
	height="32"
	viewBox="0 0 32 32"
	version="1.1"
	xml:space="preserve"
	inkscape:version="1.4 (e7c3feb100, 2024-10-09)"
	>
	<title>おきて</title>
	<metadata>
		<rdf:RDF>
			<cc:Work rdf:about="">
				<cc:license rdf:resource="http://www.opensource.org/licenses/mit-license.php" />
				<dc:title>おきて</dc:title>
				<dc:date>2025-06-02</dc:date>
				<dc:creator><cc:Agent><dc:title>zawa-ch.</dc:title></cc:Agent></dc:creator>
				<dc:rights><cc:Agent><dc:title>Copyright 2025 zawa-ch.</dc:title></cc:Agent></dc:rights>
				<dc:identifier>stellar_ch_handwritten_square_okite</dc:identifier>
				<dc:language>ja_JP</dc:language>
			</cc:Work>
		</rdf:RDF>
	</metadata>
	<sodipodi:namedview
		pagecolor="#505050"
		bordercolor="#eeeeee"
		borderopacity="1"
		inkscape:showpageshadow="0"
		inkscape:pageopacity="0"
		inkscape:pagecheckerboard="0"
		inkscape:deskcolor="#d1d1d1"
		inkscape:document-units="px"
		showgrid="false"
	/>
	<defs>
		<linearGradient id="linearGradient3" inkscape:collect="always">
			<stop style="stop-color:#dcd4f7;stop-opacity:1;" offset="0" />
			<stop style="stop-color:#eed4f7;stop-opacity:1;" offset="1" />
		</linearGradient>
		<inkscape:path-effect
			id="path-effect3"
			effect="offset"
			is_visible="true"
			lpeversion="1.3"
			linejoin_type="miter"
			unit="px"
			offset="1"
			miter_limit="4"
			attempt_force_join="false"
			update_on_knot_move="true"
		/>
		<linearGradient
			id="linearGradient4"
			inkscape:collect="always"
			xlink:href="#linearGradient3"
			x1="-0.089438112"
			y1="15.990376"
			x2="30.714831"
			y2="15.990376"
			gradientUnits="userSpaceOnUse"
		/>
	</defs>
	<g inkscape:groupmode="layer">
		<image
			display="none"
			x="-2.355279"
			y="-2.70467"
			width="36.553574"
			height="36.553574"
			preserveAspectRatio="none"
			xlink:href="stellar_ch_handwritten_square_okite.png"
		/>
		<path
			display="none"
			d="m 4.6508226,3.5398989 c 0.2287475,0.3717399 0.415077,1.2433054 0.4512787,1.5992188 0.024951,0.245295 -0.057523,0.460336 0.2514938,0.5241418 0.1742266,0.035973 0.5643541,-0.071942 0.6679865,-0.088141 C 6.2803118,5.5346765 7.0229904,5.3546142 7.3923407,5.215271 M 5.2600489,5.7483439 C 5.079509,6.3706846 4.8131399,6.2145295 4.4223628,6.2715445 4.2565282,6.2957398 3.9326437,6.3695179 3.7369833,6.4337816 3.1143556,6.6382808 2.366301,6.7374046 1.9093046,7.1952562 M 10.590778,5.9768038 11.123851,6.3575702 M 5.2600489,6.0529571 c 0.038756,0.072621 0.093648,0.1322712 0.1180494,0.2406818 0.015842,0.070383 0.029546,0.1344209 0.032906,0.2925073 0.018987,0.8935182 0.078437,1.330212 0.079032,1.7514092 C 5.4901465,8.4155098 5.4754594,8.6385477 5.385796,8.9467816 5.238973,9.4515109 5.3109053,9.4569119 5.2562293,9.9367743 5.2261334,10.200912 5.1409176,10.664163 4.9692445,10.925651 4.685824,11.357353 4.1661403,11.601089 3.66083,11.598456 3.0520674,11.595283 2.8168168,11.168074 2.8024602,10.622154 2.7919017,10.220664 2.9486692,9.7710558 3.2815324,9.5178127 3.5157558,9.3396143 4.0417393,9.1812281 4.2700562,9.1440997 4.7732738,9.0622712 4.9561417,9.0469211 5.2600489,9.0229349 M 5.564662,8.7183218 c 0.3797368,0 0.605294,0 1.370759,0 0.4023065,0 0.6336504,-0.010565 0.9899926,0.044951 0.7277312,0.113377 1.4533533,0.2517162 2.0561385,0.7165817 M 12.72307,12.982905 c 0.447863,0.554775 0.457135,0.725441 0.609226,0.91384 l -0.609226,0.53654 -1.523065,0.986525 M 16.9115,14.734431 c -0.317727,0.226232 -0.700293,0.412499 -0.913839,0.57303 -0.148344,0.111515 -0.307396,0.394544 -0.685321,0.394397 -0.469163,-1.81e-4 -0.518717,-0.352436 -0.702127,-0.738967 -0.256531,-0.540633 -0.476648,-0.754303 -0.400391,-1.06497 0.05746,-0.234096 0.25531,-0.335332 0.417138,-0.430419 0.191534,-0.112543 0.601399,-0.28759 0.837628,-0.408443 m -2.132292,0.837686 h 0.761533 m 0.913839,1.751525 -0.609226,0.52514 -1.294605,0.769466 m 2.436904,-1.218453 0.147253,0.164412 c 0.266825,0.367144 0.463594,0.821481 1.0712,1.587114 m -5.178423,1.827678 c 0.672188,0.642883 1.394866,1.005713 2.284598,1.228088 0.311747,0.07792 0.678056,0.132469 0.989993,0.174931 0.177702,0.02419 0.283023,0.03852 0.45692,0.04278 0.413859,0.01014 0.377529,0.0011 0.761532,0.0011 m 12.641445,7.691481 c -0.962261,-0.08401 -2.182128,-0.557326 -2.605547,-1.523066 -0.125637,-0.286553 -0.244879,-0.701159 -0.287985,-0.989992 -0.03683,-0.246748 -0.07142,-0.398901 -0.07504,-0.68538 -0.0048,-0.381642 0.0379,-0.701343 0.141438,-1.066146 0.0986,-0.347393 0.312045,-0.756127 0.424952,-1.066146 0.182596,-0.501366 0.174864,-0.599642 0.230222,-0.758476 0.01589,-0.04558 0.02963,-0.130394 0.154893,-0.267359 0.115966,-0.126803 0.282017,-0.211132 0.342044,-0.244972 0.310627,-0.175117 0.642208,-0.312192 0.913486,-0.404565 m -6.549182,1.751526 c 0.97005,-0.397978 1.952922,-0.680523 2.969978,-0.942044 0.335743,-0.08633 0.918871,-0.191619 1.218452,-0.232515 0.643715,-0.08787 0.824095,-0.03531 0.989993,0.03226"
			style="stroke:black;fill:none;stroke-linejoin:round;stroke-linecap:round;stroke-width:2;stroke-dasharray:none"
		/>
		<path
			d="M 4.5917969,1.5410156 C 4.2540062,1.5507193 3.9122825,1.6463267 3.6035156,1.8359375 2.7134959,2.382283 2.4041622,3.5210043 2.8652344,4.4375 c 0.011652,0.042469 0.023139,0.087802 0.039063,0.1445312 C 2.4629393,4.6759264 1.3492674,4.922566 0.4921875,5.78125 -0.28525484,6.5610046 -0.2826671,7.8325955 0.49609375,8.609375 0.68857301,8.8018131 0.91067742,8.9456779 1.1484375,9.0429688 0.88677766,9.5747109 0.78886286,10.14636 0.80273438,10.673828 c 0.0143571,0.545923 0.12499816,1.222445 0.62890622,1.869141 0.5291217,0.679055 1.409052,1.050467 2.21875,1.054687 1.1406668,0.0059 2.293005,-0.512208 2.9902344,-1.574218 0.3177754,-0.484027 0.4579225,-0.946795 0.5273437,-1.304688 0.1936369,-0.0011 0.3051244,-9.65e-4 0.4492188,0.02148 0.6673308,0.103967 1.0222644,0.229928 1.1445313,0.324219 0.8722297,0.672036 2.1323282,0.507022 2.8046872,-0.365234 0.556366,-0.7221047 0.532436,-1.7046441 0.01563,-2.4042971 C 12.03706,8.187638 12.458027,7.9299743 12.75,7.5214844 13.392151,6.6248901 13.184379,5.3683109 12.287109,4.7285156 L 11.751953,4.3476562 C 11.429302,4.1176727 11.048325,3.9887565 10.654297,3.9765625 c -0.0333,-0.00103 -0.0664,-6.656e-4 -0.09961,0 -0.09962,0.002 -0.19871,0.011182 -0.294922,0.027344 C 9.8824196,4.0675467 9.5357588,4.240367 9.2558594,4.4921875 8.8672235,3.4902518 7.7489647,2.9757621 6.7382812,3.3261719 6.6553004,3.0662534 6.5347125,2.7866523 6.3535156,2.4921875 5.9935336,1.9071056 5.3806777,1.5688093 4.7363281,1.5410156 c -0.04799,-0.00207 -0.096275,-0.00139 -0.1445312,0 z M 5.1015625,5.1386719 C 5.3527943,7.6116837 3.1259468,5.4041927 3.1171875,5.375 c 4.702e-4,0.00375 0.00144,0.011134 0.00195,0.015625 -4.06e-4,-0.00159 -0.00247,-0.0086 -0.00391,-0.017578 -0.00122,-0.00759 -9.618e-4,-0.018523 -0.00195,-0.03125 z m 3.625,1.5546875 c 0.026203,0.068727 0.061914,0.1334526 0.095703,0.1992187 -0.088665,-0.017031 -0.1848289,-0.038796 -0.2675781,-0.052734 0.061763,-0.044267 0.1161971,-0.096077 0.171875,-0.1464843 z m 4.0136715,4.2890626 c -0.06584,-7.65e-4 -0.132194,0.0014 -0.201171,0.0078 -0.39343,0.03661 -0.76473,0.190562 -1.070313,0.4375 -0.583326,0.470576 -0.831355,1.204274 -0.712891,1.896485 l -0.644531,0.416015 c -0.9236141,0.599177 -1.1879675,1.842777 -0.5898436,2.765625 0.3395164,0.52524 0.8874686,0.835605 1.4667966,0.898438 -0.320161,0.100385 -0.616867,0.272092 -0.853515,0.519531 -0.7590153,0.795345 -0.7319655,2.062264 0.0625,2.824219 0.935893,0.895091 2.021305,1.434113 3.183593,1.724609 0.437162,0.109264 0.889162,0.171839 1.205079,0.214844 0.18022,0.02453 0.39467,0.05562 0.675781,0.0625 0.449902,0.01102 0.457665,0 0.8125,0 1.101262,0 2,-0.898738 2,-2 0,-0.554126 -0.229306,-1.055089 -0.595703,-1.417969 0.183468,-0.0706 0.361646,-0.160869 0.523437,-0.289062 0.86454,-0.684474 1.009872,-1.947908 0.324219,-2.810547 -0.01512,-0.01906 -0.02307,-0.0328 -0.03711,-0.05078 0.708537,-0.674201 0.835154,-1.788433 0.251954,-2.607422 -0.276179,-0.387694 -0.666373,-0.647577 -1.09375,-0.765625 -0.02789,-0.224316 -0.09263,-0.447804 -0.201172,-0.660156 -0.501037,-0.980944 -1.710304,-1.372594 -2.691406,-0.871094 -0.02114,0.01082 -0.244114,0.112646 -0.486329,0.230469 -0.313087,-0.285441 -0.709218,-0.468554 -1.136718,-0.513672 -0.06148,-0.0064 -0.125567,-0.01095 -0.191407,-0.01172 z m 2.091797,7.261719 c 0.100355,0.140282 0.219842,0.296325 0.361328,0.474609 0.0044,0.0055 0.0092,0.01014 0.01367,0.01563 -0.0246,-0.0035 -0.01719,-9.37e-4 -0.08203,-0.0098 -0.291661,-0.03971 -0.622113,-0.0945 -0.775391,-0.132812 -0.02668,-0.0067 -0.04481,-0.0129 -0.07031,-0.01953 z M 27.902344,19.4375 c -0.196306,0.005 -0.397108,0.0383 -0.59375,0.105469 -0.297075,0.101158 -0.647333,0.242602 -1.009766,0.427734 -0.312862,-0.01292 -0.624706,0.01252 -0.976562,0.06055 -0.373716,0.05102 -0.997242,0.161629 -1.447266,0.277344 -1.049583,0.269885 -2.130345,0.576801 -3.228516,1.027343 -1.019779,0.416997 -1.511157,1.590456 -1.09375,2.609375 0.416997,1.01978 1.589381,1.511598 2.609375,1.09375 0.518726,-0.212814 1.061049,-0.392251 1.628907,-0.558593 -0.03257,0.258819 -0.04828,0.520191 -0.04492,0.787109 0.0057,0.448929 0.07116,0.779541 0.09766,0.957031 0.07558,0.506489 0.224763,1.021745 0.433594,1.498047 0.860738,1.963182 2.846134,2.58701 4.265625,2.710938 1.095555,0.09448 2.067165,-0.72082 2.164062,-1.816407 0.09675,-1.096949 -0.718503,-2.071055 -1.816406,-2.167968 -0.1886,-0.01647 -0.495159,-0.105874 -0.714844,-0.21875 -0.08787,-0.04515 -0.163756,-0.0935 -0.21289,-0.13086 -0.0074,-0.0056 -0.01337,-0.01061 -0.01953,-0.01563 -0.0055,-0.0045 -0.01111,-0.0098 -0.01563,-0.01367 -0.02174,-0.07403 -0.128913,-0.437546 -0.128906,-0.4375 -0.04527,-0.30335 -0.05086,-0.265445 -0.05273,-0.414062 -0.003,-0.236963 0.0019,-0.266926 0.06641,-0.494141 -0.0077,0.02716 0.328764,-0.792008 0.378906,-0.929687 0.0492,-0.135078 0.08719,-0.246803 0.121094,-0.353516 0.101155,-0.04382 0.203389,-0.08348 0.285156,-0.111328 1.043615,-0.354365 1.605803,-1.49717 1.25,-2.541016 -0.266717,-0.780749 -0.967083,-1.29184 -1.751953,-1.347656 -0.06433,-0.0046 -0.127924,-0.0056 -0.193359,-0.0039 z"
			style="fill:url(#linearGradient4);fill-opacity:1;stroke-linecap:round;stroke-linejoin:round"
			inkscape:path-effect="#path-effect3"
			inkscape:original-d="m 4.1269531,2.6875 a 1,1 0 0 0 -0.328125,1.3769531 c -0.00984,-0.015996 0.290717,1.0000274 0.3085938,1.1757813 -3.068e-4,-0.00302 0.00975,0.074655 0.00781,0.080078 C 3.8907614,5.3606461 3.6612858,5.4070247 3.4257813,5.484375 2.9377372,5.6446708 1.9926452,5.6953268 1.2011719,6.4882812 a 1,1 0 0 0 0.00195,1.4140625 1,1 0 0 0 1.4140625,0 C 2.739707,7.779595 3.2916168,7.6334682 4.0488281,7.3847656 c 0.076533,-0.025137 0.2644967,-0.065998 0.3945313,-0.09375 0.016716,0.2926595 0.030431,0.6443317 0.037109,0.8203125 C 4.3523381,8.1283369 4.2898518,8.1269026 4.109375,8.15625 3.6765039,8.2266426 3.2569065,8.2805331 2.6757813,8.7226563 2.0094118,9.2296317 1.7848215,9.9672947 1.8027344,10.648438 c 0.010772,0.4096 0.096462,0.866687 0.4179687,1.279296 0.3215068,0.41261 0.8979245,0.66712 1.4355469,0.669922 0.8304358,0.0043 1.6520047,-0.366887 2.1484375,-1.123047 C 6.1904138,10.887081 6.2107558,10.395209 6.25,10.050781 6.270234,9.8731987 6.2681,9.814666 6.271484,9.71875 h 0.6640625 c 0.4198139,0 0.5637096,-0.00921 0.8359375,0.033203 0.7053812,0.109895 1.2281679,0.2330771 1.5996094,0.519531 A 1,1 0 0 0 10.773438,10.089844 1,1 0 0 0 10.591797,8.6875 C 9.7576679,8.0442231 8.8301593,7.8922496 8.0800781,7.7753906 7.6396216,7.7067701 7.320346,7.71875 6.9355469,7.71875 H 6.4628906 c -0.019491,-0.3285876 -0.04088,-0.5964442 -0.052734,-1.1542969 -5.699e-4,-0.026815 -0.00634,-0.036133 -0.00781,-0.0625 0.4049366,-0.07646 0.9011119,-0.1845703 1.34375,-0.3515625 A 1,1 0 0 0 8.328125,4.8613281 1,1 0 0 0 7.0390625,4.2792969 C 6.835037,4.3562687 6.1514538,4.5240823 5.9589844,4.5644531 5.8949586,4.0920446 5.8600582,3.5975853 5.5019531,3.015625 a 1,1 0 0 0 -1.375,-0.328125 z m 6.2988279,2.3027344 a 1,1 0 0 0 -0.6484372,0.40625 1,1 0 0 0 0.2324222,1.3945312 L 10.542969,7.171875 A 1,1 0 0 0 11.9375,6.9394531 1,1 0 0 0 11.705078,5.5429687 L 11.171875,5.1621094 A 1,1 0 0 0 10.425781,4.9902344 Z M 4.1699219,10.21875 c -0.011954,0.04568 -0.049243,0.176685 -0.037109,0.158203 -0.04658,0.07095 -0.1869,0.104465 -0.3085937,0.146485 0.023833,-0.09561 0.062978,-0.209348 0.0625,-0.208985 -0.058768,0.04471 0.1286609,-0.03657 0.2832031,-0.0957 z m 8.6582031,1.769531 a 1,1 0 0 0 -0.732422,0.216797 1,1 0 0 0 -0.15039,1.40625 c 0.03991,0.04944 0.03199,0.05295 0.0625,0.09375 l -1.351563,0.875 a 1,1 0 0 0 -0.294922,1.382813 1,1 0 0 0 1.382813,0.296875 l 1.523437,-0.986328 a 1.0001,1.0001 0 0 0 0.117188,-0.08984 l 0.144531,-0.126953 c 0.05827,0.105426 0.121397,0.215254 0.177734,0.333984 0.002,0.0043 0.0097,0.01895 0.01172,0.02344 l -1.125,0.669921 a 1,1 0 0 0 -0.349609,1.369141 1,1 0 0 0 1.371093,0.349609 l 1.294922,-0.769531 a 1.0001,1.0001 0 0 0 0.140625,-0.101562 l 0.08594,-0.07422 c 0.177541,0.292856 0.333357,0.60202 0.839844,1.240234 a 1,1 0 0 0 1.404296,0.16211 1,1 0 0 0 0.16211,-1.40625 C 17.207558,16.430872 17.078743,16.1925 16.908206,15.912114 17.081323,15.811985 17.22128,15.741731 17.49219,15.548833 a 1,1 0 0 0 0.234375,-1.394531 1,1 0 0 0 -1.394531,-0.234375 c -0.201689,0.143609 -0.519566,0.299937 -0.857422,0.539062 -0.05567,-0.112172 -0.07917,-0.154133 -0.123046,-0.234375 0.160358,-0.07596 0.347921,-0.162616 0.568359,-0.27539 a 1,1 0 0 0 0.435547,-1.345703 1,1 0 0 0 -1.345703,-0.435547 c -0.167258,0.08557 -0.550388,0.238728 -0.888672,0.4375 -0.03374,0.01983 -0.157626,0.233389 -0.244141,0.291015 h -0.01367 c -0.08088,-0.145718 -0.06132,-0.169392 -0.361328,-0.541015 A 1,1 0 0 0 12.82813,11.988286 Z m -1.269531,6.316406 a 1,1 0 0 0 -0.701172,0.308594 1,1 0 0 0 0.03125,1.41211 c 0.795099,0.760435 1.719978,1.223029 2.734375,1.476562 0.384013,0.09598 0.775977,0.151524 1.097656,0.195313 0.177728,0.02419 0.347504,0.04737 0.566406,0.05273 0.426976,0.01046 0.418801,0 0.78711,0 a 1,1 0 0 0 1,-1 1,1 0 0 0 -1,-1 c -0.399698,0 -0.337539,0.0098 -0.738281,0 -0.128892,-0.0032 -0.168027,-0.01097 -0.345704,-0.03516 -0.302194,-0.04114 -0.643331,-0.09249 -0.882812,-0.152344 -0.765068,-0.191217 -1.286661,-0.457091 -1.835938,-0.982422 a 1,1 0 0 0 -0.71289,-0.275391 z m 16.072265,2.185547 c -0.321659,0.109529 -0.700675,0.263526 -1.082031,0.478516 7.55e-4,-4.25e-4 -0.05023,0.03906 -0.05469,0.04102 -0.0607,-0.01074 -0.0912,-0.03254 -0.154297,-0.03711 -0.253716,-0.01839 -0.52208,-4.13e-4 -0.882813,0.04883 -0.355179,0.04849 -0.915745,0.14882 -1.332031,0.25586 -1.034809,0.266086 -2.063876,0.559449 -3.099609,0.984375 a 1,1 0 0 0 -0.546875,1.304687 1,1 0 0 0 1.304687,0.546875 c 0.904367,-0.37103 1.840541,-0.641481 2.839844,-0.898437 0.143407,-0.03687 0.382764,-0.07537 0.621094,-0.119141 -0.101544,0.225261 -0.214449,0.442489 -0.31836,0.808594 -0.12572,0.442958 -0.185513,0.888326 -0.179687,1.351562 0.0046,0.362482 0.05374,0.604617 0.08594,0.820313 0.06222,0.416937 0.186688,0.845821 0.361328,1.24414 0.658788,1.502572 2.22203,2.011242 3.435547,2.117188 a 1,1 0 0 0 1.082031,-0.908203 1,1 0 0 0 -0.908203,-1.083985 c -0.711004,-0.06207 -1.589293,-0.498825 -1.777343,-0.927734 -0.07663,-0.174786 -0.190857,-0.575599 -0.214844,-0.736328 -0.04146,-0.2778 -0.06179,-0.340304 -0.06445,-0.550781 -0.0038,-0.300048 0.02216,-0.492649 0.103515,-0.779297 0.05135,-0.180926 0.247475,-0.572808 0.402344,-0.998047 0.184308,-0.506065 0.208633,-0.671289 0.216797,-0.710938 0.0016,-5e-5 -0.02086,0.01574 0.0625,-0.03125 0.239899,-0.135243 0.523244,-0.252907 0.744141,-0.328125 a 1,1 0 0 0 0.625,-1.269531 1,1 0 0 0 -1.269532,-0.623047 z"
		/>
		<path
			d="m 4.1269531,2.6875 a 1,1 0 0 0 -0.328125,1.3769531 c -0.00984,-0.015996 0.290717,1.0000274 0.3085938,1.1757813 -3.068e-4,-0.00302 0.00975,0.074655 0.00781,0.080078 C 3.8907614,5.3606461 3.6612858,5.4070247 3.4257813,5.484375 2.9377372,5.6446708 1.9926452,5.6953268 1.2011719,6.4882812 a 1,1 0 0 0 0.00195,1.4140625 1,1 0 0 0 1.4140625,0 C 2.739707,7.779595 3.2916168,7.6334682 4.0488281,7.3847656 c 0.076533,-0.025137 0.2644967,-0.065998 0.3945313,-0.09375 0.016716,0.2926595 0.030431,0.6443317 0.037109,0.8203125 C 4.3523381,8.1283369 4.2898518,8.1269026 4.109375,8.15625 3.6765039,8.2266426 3.2569065,8.2805331 2.6757813,8.7226563 2.0094118,9.2296317 1.7848215,9.9672947 1.8027344,10.648438 c 0.010772,0.4096 0.096462,0.866687 0.4179687,1.279296 0.3215068,0.41261 0.8979245,0.66712 1.4355469,0.669922 0.8304358,0.0043 1.6520047,-0.366887 2.1484375,-1.123047 0.3857263,-0.587528 0.4060683,-1.0794 0.4453125,-1.423828 0.020234,-0.1775823 0.0181,-0.236115 0.021484,-0.332031 h 0.6640625 c 0.4198139,0 0.5637096,-0.00921 0.8359375,0.033203 0.7053812,0.109895 1.2281679,0.2330771 1.5996094,0.5195309 A 1,1 0 0 0 10.773438,10.089844 1,1 0 0 0 10.591797,8.6875 C 9.7576679,8.0442231 8.8301593,7.8922496 8.0800781,7.7753906 7.6396216,7.7067701 7.320346,7.71875 6.9355469,7.71875 H 6.4628906 c -0.019491,-0.3285876 -0.04088,-0.5964442 -0.052734,-1.1542969 -5.699e-4,-0.026815 -0.00634,-0.036133 -0.00781,-0.0625 0.4049366,-0.07646 0.9011119,-0.1845703 1.34375,-0.3515625 A 1,1 0 0 0 8.328125,4.8613281 1,1 0 0 0 7.0390625,4.2792969 C 6.835037,4.3562687 6.1514538,4.5240823 5.9589844,4.5644531 5.8949586,4.0920446 5.8600582,3.5975853 5.5019531,3.015625 a 1,1 0 0 0 -1.375,-0.328125 z m 6.2988279,2.3027344 a 1,1 0 0 0 -0.6484372,0.40625 1,1 0 0 0 0.2324222,1.3945312 L 10.542969,7.171875 A 1,1 0 0 0 11.9375,6.9394531 1,1 0 0 0 11.705078,5.5429687 L 11.171875,5.1621094 A 1,1 0 0 0 10.425781,4.9902344 Z M 4.1699219,10.21875 c -0.011954,0.04568 -0.049243,0.176685 -0.037109,0.158203 -0.04658,0.07095 -0.1869,0.104465 -0.3085937,0.146485 0.023833,-0.09561 0.062978,-0.209348 0.0625,-0.208985 -0.058768,0.04471 0.1286609,-0.03657 0.2832031,-0.0957 z m 8.6582031,1.769531 a 1,1 0 0 0 -0.732422,0.216797 1,1 0 0 0 -0.15039,1.40625 c 0.03991,0.04944 0.03199,0.05295 0.0625,0.09375 l -1.351563,0.875 a 1,1 0 0 0 -0.294922,1.382813 1,1 0 0 0 1.382813,0.296875 l 1.523437,-0.986328 a 1.0001,1.0001 0 0 0 0.117188,-0.08984 l 0.144531,-0.126953 c 0.05827,0.105426 0.121397,0.215254 0.177734,0.333984 0.002,0.0043 0.0097,0.01895 0.01172,0.02344 l -1.125,0.669921 a 1,1 0 0 0 -0.349609,1.369141 1,1 0 0 0 1.371093,0.349609 l 1.294922,-0.769531 a 1.0001,1.0001 0 0 0 0.140625,-0.101562 l 0.08594,-0.07422 c 0.177541,0.292856 0.333357,0.60202 0.839844,1.240234 a 1,1 0 0 0 1.404296,0.16211 1,1 0 0 0 0.16211,-1.40625 c -0.335414,-0.422649 -0.464229,-0.661021 -0.634766,-0.941407 0.173117,-0.100129 0.313074,-0.170383 0.583984,-0.363281 a 1,1 0 0 0 0.234375,-1.394531 1,1 0 0 0 -1.394531,-0.234375 c -0.201689,0.143609 -0.519566,0.299937 -0.857422,0.539062 -0.05567,-0.112172 -0.07917,-0.154133 -0.123046,-0.234375 0.160358,-0.07596 0.347921,-0.162616 0.568359,-0.27539 a 1,1 0 0 0 0.435547,-1.345703 1,1 0 0 0 -1.345703,-0.435547 c -0.167258,0.08557 -0.550388,0.238728 -0.888672,0.4375 -0.03374,0.01983 -0.157626,0.233389 -0.244141,0.291015 h -0.01367 c -0.08088,-0.145718 -0.06132,-0.169392 -0.361328,-0.541015 a 1,1 0 0 0 -0.673828,-0.367188 z m -1.269531,6.316406 a 1,1 0 0 0 -0.701172,0.308594 1,1 0 0 0 0.03125,1.41211 c 0.795099,0.760435 1.719978,1.223029 2.734375,1.476562 0.384013,0.09598 0.775977,0.151524 1.097656,0.195313 0.177728,0.02419 0.347504,0.04737 0.566406,0.05273 0.426976,0.01046 0.418801,0 0.78711,0 a 1,1 0 0 0 1,-1 1,1 0 0 0 -1,-1 c -0.399698,0 -0.337539,0.0098 -0.738281,0 -0.128892,-0.0032 -0.168027,-0.01097 -0.345704,-0.03516 -0.302194,-0.04114 -0.643331,-0.09249 -0.882812,-0.152344 -0.765068,-0.191217 -1.286661,-0.457091 -1.835938,-0.982422 a 1,1 0 0 0 -0.71289,-0.275391 z m 16.072265,2.185547 c -0.321659,0.109529 -0.700675,0.263526 -1.082031,0.478516 7.55e-4,-4.25e-4 -0.05023,0.03906 -0.05469,0.04102 -0.0607,-0.01074 -0.0912,-0.03254 -0.154297,-0.03711 -0.253716,-0.01839 -0.52208,-4.13e-4 -0.882813,0.04883 -0.355179,0.04849 -0.915745,0.14882 -1.332031,0.25586 -1.034809,0.266086 -2.063876,0.559449 -3.099609,0.984375 a 1,1 0 0 0 -0.546875,1.304687 1,1 0 0 0 1.304687,0.546875 c 0.904367,-0.37103 1.840541,-0.641481 2.839844,-0.898437 0.143407,-0.03687 0.382764,-0.07537 0.621094,-0.119141 -0.101544,0.225261 -0.214449,0.442489 -0.31836,0.808594 -0.12572,0.442958 -0.185513,0.888326 -0.179687,1.351562 0.0046,0.362482 0.05374,0.604617 0.08594,0.820313 0.06222,0.416937 0.186688,0.845821 0.361328,1.24414 0.658788,1.502572 2.22203,2.011242 3.435547,2.117188 a 1,1 0 0 0 1.082031,-0.908203 1,1 0 0 0 -0.908203,-1.083985 c -0.711004,-0.06207 -1.589293,-0.498825 -1.777343,-0.927734 -0.07663,-0.174786 -0.190857,-0.575599 -0.214844,-0.736328 -0.04146,-0.2778 -0.06179,-0.340304 -0.06445,-0.550781 -0.0038,-0.300048 0.02216,-0.492649 0.103515,-0.779297 0.05135,-0.180926 0.247475,-0.572808 0.402344,-0.998047 0.184308,-0.506065 0.208633,-0.671289 0.216797,-0.710938 0.0016,-5e-5 -0.02086,0.01574 0.0625,-0.03125 0.239899,-0.135243 0.523244,-0.252907 0.744141,-0.328125 a 1,1 0 0 0 0.625,-1.269531 1,1 0 0 0 -1.269532,-0.623047 z"
			style="fill:#9952e0;fill-opacity:1;stroke-linecap:round;stroke-linejoin:round"
		/>
	</g>
</svg>
