<?xml version="1.0" encoding="UTF-8" standalone="no"?>
<!-- Created with Inkscape (http://www.inkscape.org/) -->

<svg
	xmlns="http://www.w3.org/2000/svg"
	xmlns:cc="http://creativecommons.org/ns#"
	xmlns:dc="http://purl.org/dc/elements/1.1/"
	xmlns:inkscape="http://www.inkscape.org/namespaces/inkscape"
	xmlns:rdf="http://www.w3.org/1999/02/22-rdf-syntax-ns#"
	xmlns:sodipodi="http://sodipodi.sourceforge.net/DTD/sodipodi-0.dtd"
	xmlns:svg="http://www.w3.org/2000/svg"
	xmlns:xlink="http://www.w3.org/1999/xlink"
	width="32"
	height="32"
	viewBox="0 0 32 32"
	version="1.1"
	xml:space="preserve"
	inkscape:version="1.4 (e7c3feb100, 2024-10-09)"
	>
	<title>あさ〜〜</title>
	<metadata>
		<rdf:RDF>
			<cc:Work rdf:about="">
				<cc:license rdf:resource="http://www.opensource.org/licenses/mit-license.php" />
				<dc:title>あさ〜〜</dc:title>
				<dc:date>2025-06-02</dc:date>
				<dc:creator><cc:Agent><dc:title>zawa-ch.</dc:title></cc:Agent></dc:creator>
				<dc:rights><cc:Agent><dc:title>Copyright 2025 zawa-ch.</dc:title></cc:Agent></dc:rights>
				<dc:identifier>stellar_ch_handwritten_squared_moooorning</dc:identifier>
				<dc:language>ja_JP</dc:language>
			</cc:Work>
		</rdf:RDF>
	</metadata>
	<sodipodi:namedview
		pagecolor="#505050"
		bordercolor="#eeeeee"
		borderopacity="1"
		inkscape:showpageshadow="0"
		inkscape:pageopacity="0"
		inkscape:pagecheckerboard="0"
		inkscape:deskcolor="#d1d1d1"
		inkscape:document-units="px"
		showgrid="false"
	/>
	<defs>
		<linearGradient id="linearGradient2" inkscape:collect="always">
			<stop style="stop-color:#734426;stop-opacity:1;" offset="0" />
			<stop style="stop-color:#736a26;stop-opacity:1;" offset="1" />
		</linearGradient>
		<inkscape:path-effect
			id="path-effect2"
			effect="offset"
			is_visible="true"
			lpeversion="1.3"
			linejoin_type="miter"
			unit="px"
			offset="1"
			miter_limit="4"
			attempt_force_join="false"
			update_on_knot_move="true"
		/>
		<linearGradient
			id="linearGradient3"
			inkscape:collect="always"
			xlink:href="#linearGradient2"
			x1="0"
			y1="0"
			x2="32"
			y2="32"
			gradientUnits="userSpaceOnUse"
		/>
	</defs>
	<g inkscape:groupmode="layer">
		<image
			display="none"
			x="0"
			y="0"
			width="32"
			height="32"
			preserveAspectRatio="none"
			xlink:href="stellar_ch_handwritten_squared_moooorning.png"
		/>
		<path
			d="m 24.474609,2.2597656 c -0.223272,-4.488e-4 -0.434404,0.045751 -0.640625,0.1269532 -0.401734,0.1581883 -0.689196,0.4254085 -0.871093,0.78125 -0.377871,0.7392214 -0.160633,1.5853528 0.355468,2.1093749 -0.630695,0.1799701 -1.280944,0.4596766 -1.822265,0.90625 -0.783399,0.6462784 -1.30642,1.5523757 -1.484375,2.5097657 -0.06016,-0.044051 -0.121744,-0.087192 -0.189453,-0.125 -0.249815,-0.1394943 -0.535495,-0.2217101 -0.841797,-0.2265625 -0.04376,-6.932e-4 -0.0883,0.00144 -0.132813,0.00391 -0.115817,0.00641 -0.235006,0.02249 -0.351562,0.050781 -1.737129,0.4216478 -1.706204,2.6091746 -0.150391,3.1699216 0.341852,0.123211 0.705502,0.143329 1.085938,0.05274 0.401805,-0.09569 0.708649,-0.288826 0.921875,-0.53711 0.175334,0.334118 0.404797,0.652409 0.703125,0.941407 0.107636,0.10427 0.220679,0.199256 0.335937,0.289062 -0.175625,-0.06401 -0.364716,-0.102444 -0.566406,-0.09961 -0.02313,3.25e-4 -0.04692,6.29e-4 -0.07031,0.002 -0.130297,0.0074 -0.251317,0.03118 -0.357422,0.06055 -0.399932,0.110682 -0.708621,0.333554 -0.925781,0.662109 -0.843789,1.276622 0.349333,3.052709 1.884766,2.585938 1.295807,-0.393924 1.467757,-1.967316 0.646484,-2.8125 0.608067,0.325946 1.27737,0.497546 1.945313,0.580078 -1.009165,0.776654 -0.706302,2.471357 0.574218,2.884765 0.348027,0.112358 0.72938,0.103844 1.09375,-0.0332 1.321288,-0.496963 1.393884,-2.09529 0.421875,-2.855469 0.127472,-0.0148 0.25846,-0.02866 0.378907,-0.04687 0.436523,-0.06601 0.811837,-0.219578 1.134765,-0.43164 -0.547993,0.822284 -0.235051,2.085045 0.873047,2.490234 0.348472,0.127423 0.725042,0.141081 1.107422,0.03516 1.524945,-0.42243 1.511339,-2.285983 0.324219,-3.003906 -0.267462,-0.16175 -0.587859,-0.259036 -0.939453,-0.248047 -0.114525,0.0036 -0.22491,0.01716 -0.34375,0.04492 -0.158523,0.03703 -0.29694,0.09433 -0.425782,0.160156 0.635217,-0.729472 0.924232,-1.743415 0.917969,-2.6289059 -0.0054,-0.764222 -0.214683,-1.5726506 -0.589844,-2.2988281 0.381581,0.199739 0.85045,0.2510537 1.34961,0.058594 1.312714,-0.506141 1.501161,-2.2112712 0.435547,-2.9882812 C 29.997474,4.2370087 29.679312,4.1253015 29.326172,4.1230469 29.076795,4.1214547 28.838328,4.1772298 28.617187,4.2695312 28.255095,4.4206634 27.972359,4.673269 27.791016,4.9921875 27.577872,5.3670307 27.527149,5.7674942 27.59375,6.1386719 27.10028,5.643928 26.49757,5.2718358 25.802734,5.1035156 26.350593,4.3656594 26.21859,3.2324449 25.496094,2.6308594 25.248192,2.4244445 24.934844,2.2853689 24.570312,2.2636719 c -0.03245,-0.00193 -0.06381,-0.00384 -0.0957,-0.00391 z m -4.957031,1.265625 c -0.246912,-0.00345 -0.485101,0.048449 -0.708984,0.1445313 -0.390705,0.1676768 -0.661974,0.442532 -0.830078,0.7929687 -0.662299,1.3806498 0.701776,3.0781035 2.193359,2.3476563 C 21.368479,6.2245558 21.426118,4.5842801 20.445312,3.84375 20.18945,3.6505682 19.872569,3.5303577 19.517578,3.5253906 Z m 5.216797,4.8710938 c 0.288417,-0.013305 0.413139,0.052875 0.560547,0.1972656 0.147408,0.1443904 0.296742,0.4141258 0.36914,0.7929688 0.03255,0.1703165 0.04392,0.3841637 0.02539,0.5136718 -0.0028,0.019426 -0.0064,0.037531 -0.0098,0.052734 -8.37e-4,0.0038 -0.0011,0.00626 -0.002,0.00977 -0.36654,0.063287 -0.876439,0.088382 -1.320312,0.027344 C 23.88814,9.9257012 23.527631,9.756441 23.400391,9.625 23.261342,9.4813607 23.252141,9.4168932 23.248047,9.3886719 c -0.0041,-0.028221 -0.0063,-0.058388 0.03906,-0.1464844 0.06809,-0.1321454 0.268506,-0.3516148 0.533203,-0.5195312 0.264698,-0.1679165 0.587683,-0.2834819 0.789063,-0.3125 0.04728,-0.00681 0.08938,-0.012029 0.125,-0.013672 z M 4.4628906,17.947266 c -0.5747866,-0.02361 -1.1727717,0.245757 -1.5117187,0.804687 -0.3513847,0.579441 -0.2603513,1.292244 -0.2441406,1.546875 -0.051126,0.01151 -0.1082319,0.02222 -0.1777344,0.03516 -0.2782324,0.05178 -0.9018495,0.135334 -1.3691407,0.53125 -0.97876666,0.829267 -0.76320785,2.506184 0.5761719,2.871094 0.011725,0.0032 0.023455,0.0049 0.035156,0.0078 -0.6448565,0.405355 -1.29229034,1.020247 -1.54687502,1.916015 -0.52988677,1.864435 1.17758042,3.369535 2.80273442,3.433594 0.6801603,0.02681 1.27001,-0.190653 1.7636718,-0.470703 0.5125412,0.428463 1.2032335,0.654302 1.8789063,0.248047 0.1614291,-0.09706 0.2943526,-0.218425 0.4023437,-0.353516 0.2269729,0.165248 0.4830527,0.281507 0.7773438,0.314453 1.1544677,0.129246 1.8712711,-0.981463 1.9394531,-1.816406 0.010723,-0.131316 0.010889,-0.26833 0.00391,-0.408203 0.9213132,0.817942 2.5492562,1.925278 3.8574222,1.263672 0.901235,-0.455802 1.250949,-1.648982 0.5625,-2.494141 -0.07125,-0.08746 -0.154967,-0.162791 -0.242188,-0.232422 0.236673,-0.10731 0.445098,-0.271886 0.611328,-0.476562 0.122897,0.151237 0.278919,0.285915 0.47461,0.394531 1.172119,0.650571 1.987476,-0.2534 2.355468,-0.65625 0.110448,0.153311 0.267381,0.37434 0.353516,0.482422 0.609896,0.765289 1.51312,1.324084 2.646484,1.234375 1.224495,-0.09693 2.347349,-1.15668 2.841797,-1.515625 0.108604,-0.07884 0.229493,-0.184603 0.31836,-0.261719 0.07399,0.09157 0.231954,0.295116 0.296875,0.371094 0.5113,0.598376 1.310757,1.204789 2.279296,1.320312 1.122739,0.133921 1.851038,-0.600455 2.277344,-1.08789 0.07644,0.09407 0.163534,0.204636 0.265625,0.326172 0.449638,0.535278 1.243947,1.248645 2.404297,0.796875 0.94445,-0.367716 1.287769,-1.496393 0.841797,-2.337891 -0.271497,-0.512283 -0.937676,-0.865922 -0.925781,-0.855469 -0.228708,-0.200994 -0.869903,-1.123997 -1.666016,-1.484375 -1.27207,-0.575833 -2.427304,0.182731 -3.0625,0.847656 -0.01447,0.01515 -0.02306,0.02724 -0.03711,0.04297 -0.07482,-0.09278 -0.14158,-0.178403 -0.183594,-0.224609 -0.563857,-0.620113 -1.464871,-1.303423 -2.587891,-1.265625 -0.167592,0.0056 -0.335966,0.02855 -0.5,0.06641 -1.028921,0.23745 -2.081959,1.264692 -2.486328,1.550781 -0.05323,0.03766 -0.150539,0.113811 -0.238281,0.181641 -0.103615,-0.153465 -0.28845,-0.435688 -0.384766,-0.554688 -0.687216,-0.849058 -1.851975,-1.364156 -3.007812,-1.117187 -0.403921,0.08631 -0.81672,0.270155 -1.195313,0.515625 -0.01158,-0.571151 -0.301434,-1.132826 -0.878906,-1.425781 -0.661719,-0.335694 -1.30422,-0.178666 -1.675781,-0.07813 -3.17e-4,8.6e-5 -0.352916,0.08412 -0.449219,0.107422 -0.0034,-0.0037 -0.0061,-0.0077 -0.0098,-0.01172 -0.11995,-0.132518 -0.518381,-0.698515 -1.095704,-0.916016 -0.21774,-0.08203 -0.452322,-0.135608 -0.691406,-0.136719 -0.373596,-0.0017 -0.756891,0.13693 -1.033203,0.431641 -0.3812853,0.406675 -0.4539555,0.946327 -0.3671875,1.455078 -0.1181798,0.0693 -0.2328761,0.151365 -0.3339844,0.25 -0.7704505,0.751605 -0.6079959,1.949905 0.171875,2.533203 -0.1969341,0.177919 -0.3390693,0.394502 -0.4277343,0.63086 -0.041626,-0.04833 -0.080699,-0.09895 -0.125,-0.144532 0.080882,-0.291897 0.1249157,-0.63781 0.029297,-0.992187 C 8.6978322,22.853182 8.556036,22.542557 8.3183594,22.300781 8.8490963,21.41207 8.3607272,20.2341 7.4160156,19.880859 6.998184,19.724625 6.5063931,19.704875 6.0566406,19.730469 6.0449316,19.458501 6.0087877,19.183084 5.9160156,18.957031 5.6527808,18.315622 5.0504968,17.971404 4.4628906,17.947266 Z M 29.36576,8.4235633 c -0.384033,0.1216068 -0.700526,0.3637807 -0.905681,0.6841857 -0.842962,1.316513 0.4218,3.099121 1.963236,2.510187 0.361851,-0.138252 0.648158,-0.378458 0.838597,-0.685574 0.796562,-1.2845951 -0.353758,-2.9972214 -1.896157,-2.508801"
			style="fill:url(#linearGradient3);fill-opacity:1;stroke:none"
			inkscape:path-effect="#path-effect2"
			inkscape:original-d="M 24.201029,3.3161519 C 23.363767,3.6458354 23.884245,5.0823425 24.730452,4.7178507 25.514103,4.380304 25.095337,2.9640055 24.201029,3.3161519 m -4.998148,1.2743836 c -0.784277,0.3365845 -0.278363,1.7169311 0.529423,1.321348 0.768498,-0.3763427 0.332119,-1.6910909 -0.529423,-1.321348 m 9.798148,0.6 C 28.199312,5.5251607 28.604818,6.8160502 29.46641,6.4838481 30.357239,6.1403727 29.912952,4.8099101 29.001029,5.1905355 M 24.6,6.0285502 c -0.838837,0.1198466 -1.801223,0.3777262 -2.466667,0.9266968 -1.315077,1.0848958 -1.6815,3.088704 -0.380708,4.348816 1.145804,1.109973 3.027187,1.173264 4.514042,0.948407 1.231976,-0.186312 1.807617,-1.46506 1.79969,-2.5858033 C 28.053457,7.8424866 26.616374,5.7404643 24.6,6.0285502 M 24.466667,7.4200094 C 25.673016,7.2461792 26.427948,8.0593363 26.645935,9.2 c 0.122174,0.6392965 0.08644,1.581093 -0.712602,1.73606 -0.964748,0.187103 -2.520078,0.141499 -3.25247,-0.615072 -1.2709,-1.3128581 0.525934,-2.7194357 1.785804,-2.9009786 m -5.733283,1.9488688 c -1.015212,0.2464192 -0.491272,1.5053078 0.466565,1.2772138 0.972005,-0.23147 0.462183,-1.5026451 -0.466565,-1.2772138 m 10.934259,0.00803 c -0.847927,0.268502 -0.447845,1.6303508 0.398767,1.3068868 0.793463,-0.303157 0.459719,-1.5787413 -0.398767,-1.3068907 M 28.800256,13.10247 c -0.9629,0.224929 -0.459135,1.524937 0.466154,1.26862 0.877513,-0.243083 0.350995,-1.459501 -0.466154,-1.26862 m -8.133333,0.135956 c -0.828056,0.229166 -0.461763,1.588849 0.398714,1.327264 0.808504,-0.245784 0.409434,-1.550922 -0.398714,-1.327264 m 4.06744,0.744393 c -0.802745,0.316217 -0.254374,1.519791 0.531994,1.224022 0.867764,-0.326384 0.307835,-1.554847 -0.531994,-1.224022 m -21.0676963,8.483848 0.2,1.466666 C 3.4112249,24.000594 3.0053767,24.207324 2.6,24.417232 1.9847529,24.735813 1.3824786,25.241681 1.1859055,25.933333 0.85800247,27.087077 1.9993631,28.051603 3.0666667,28.093673 3.8113383,28.123024 4.4415833,27.709517 5,27.266667 c 0.1779399,0.558349 1.0733922,1.274513 1.4171809,0.39897 0.2135879,-0.543953 -0.3733602,-0.851212 -0.3344137,-1.332304 0.024553,-0.303291 0.4320959,-0.604046 0.5838995,-0.866666 h 0.066667 c 0.2400889,0.344942 0.5708039,0.641078 0.6688273,1.066666 0.08841,0.38385 -0.1442998,0.85859 0.220782,1.151441 0.5758963,0.461957 1.125939,-0.201673 1.1708334,-0.751441 C 8.8652018,26.058683 8.3567657,24.851725 7.5333333,24.466667 7.6703191,24.137113 7.9107361,23.771753 7.8104426,23.400051 7.515831,22.308177 6.5275004,23.174414 6.3333333,23.8 L 5.2,23.666667 5,22.2 c 0.5719996,-3.78e-4 1.9534775,0.137097 2.3710907,-0.294598 0.3436788,-0.35527 0.1140411,-0.931244 -0.3046814,-1.08781 C 6.4813161,20.598816 5.607223,20.789925 5,20.866667 5,20.416992 5.1600001,19.750269 4.9900716,19.336214 4.7840261,18.834155 4.0767489,18.823073 3.8059669,19.269598 c -0.2991348,0.49328 0.1049752,1.275039 -0.2554524,1.701545 -0.3666064,0.433817 -1.2870974,0.2703 -1.7432614,0.656789 -0.3880479,0.328776 -0.3433686,0.996974 0.1930041,1.143107 0.514674,0.140222 1.1520988,-0.235114 1.6664095,-0.304372 m 7.1333333,-1 c -0.310581,0.0712 -0.737844,0.131164 -0.9737142,0.361265 -0.375295,0.366115 -0.1949493,1.000545 0.3070982,1.132922 0.539427,0.142232 1.164607,-0.484812 1.665638,-0.23395 0.590367,0.295592 0.673878,1.174577 1.20463,1.461162 0.575144,0.310555 1.055179,-0.23149 0.983745,-0.788066 -0.05724,-0.445955 -0.416892,-0.774426 -0.654064,-1.133333 0.332184,-0.02622 0.785946,-0.03291 1.062758,-0.237602 0.374852,-0.277193 0.363462,-0.906519 -0.06569,-1.124231 -0.62021,-0.314636 -1.301932,0.255375 -1.924435,0.134672 -0.490202,-0.09505 -0.728715,-0.81017 -1.205967,-0.98997 -1.071545,-0.40369 -0.84571,0.96038 -0.4,1.417131 m 12.4,0.368621 c -0.770369,0.177782 -1.498995,0.944212 -2.133333,1.393004 -0.24964,0.176619 -0.604071,0.527746 -0.933334,0.507304 -0.474117,-0.02944 -0.783825,-0.745766 -1.044598,-1.067953 -0.477952,-0.590511 -1.265715,-0.92807 -2.022068,-0.766459 -0.650374,0.138965 -1.383728,0.657379 -1.718107,1.232149 -0.197439,0.33938 -0.191696,0.841895 0.191769,1.054733 0.899361,0.49918 1.216198,-1.172797 2.059671,-0.913786 0.433718,0.133183 0.683706,0.661277 0.947378,0.99213 0.450233,0.564946 1.045853,0.919279 1.785955,0.860698 0.858543,-0.06796 1.665021,-0.842666 2.333334,-1.327828 0.250441,-0.18181 0.603027,-0.59054 0.933333,-0.588477 0.44422,0.0028 0.778967,0.562675 1.02927,0.855607 0.410793,0.480752 0.99398,0.902525 1.637397,0.979269 0.622485,0.07425 1.052437,-0.346544 1.428291,-0.779012 0.15338,-0.176483 0.433202,-0.593618 0.705042,-0.557923 0.844918,0.110946 1.19658,1.87382 2.332304,1.431637 0.363381,-0.14148 0.502781,-0.597195 0.322428,-0.9375 -0.147914,-0.279096 -0.476149,-0.372744 -0.702313,-0.571503 -0.487921,-0.428798 -0.801326,-1.047878 -1.419086,-1.327521 -0.71996,-0.325907 -1.438344,0.118543 -1.927366,0.630453 -0.186065,0.194775 -0.429543,0.636057 -0.7393,0.624845 C 25.890194,23.54553 25.547819,22.981718 25.322015,22.733384 24.789113,22.147314 24.029264,21.643915 23.2,21.835288 m -12.999743,2.414456 c -0.4921424,0.18389 -0.5705654,0.76311 -0.2406379,1.130245 0.5718319,0.636324 2.2981909,2.074707 3.2391459,1.598818 0.362409,-0.183289 0.503724,-0.646562 0.238992,-0.971554 -0.224641,-0.275775 -0.601855,-0.31035 -0.904424,-0.461265 -0.601822,-0.300175 -1.615968,-1.564197 -2.333076,-1.296244 M 4.2,25.2 c 0.034688,0.234882 0.2125854,0.564722 0.1191869,0.794033 C 4.1565374,26.393368 3.4206594,26.78278 3,26.717131 2.3432905,26.61464 2.5462814,26.081718 2.9335904,25.795164 3.07985,25.686953 3.2378052,25.598964 3.4,25.517336 3.6584808,25.387248 3.9253581,25.289516 4.2,25.2 Z"
		/>
		<path
			d="M 24.201029,3.3161519 C 23.363767,3.6458354 23.884245,5.0823425 24.730452,4.7178507 25.514103,4.380304 25.095337,2.9640055 24.201029,3.3161519 m -4.998148,1.2743836 c -0.784277,0.3365845 -0.278363,1.7169311 0.529423,1.321348 0.768498,-0.3763427 0.332119,-1.6910909 -0.529423,-1.321348 m 9.798148,0.6 C 28.199312,5.5251607 28.604818,6.8160502 29.46641,6.4838481 30.357239,6.1403727 29.912952,4.8099101 29.001029,5.1905355 M 24.6,6.0285502 c -0.838837,0.1198466 -1.801223,0.3777262 -2.466667,0.9266968 -1.315077,1.0848958 -1.6815,3.088704 -0.380708,4.348816 1.145804,1.109973 3.027187,1.173264 4.514042,0.948407 1.231976,-0.186312 1.807617,-1.46506 1.79969,-2.5858033 C 28.053457,7.8424866 26.616374,5.7404643 24.6,6.0285502 M 24.466667,7.4200094 C 25.673016,7.2461792 26.427948,8.0593363 26.645935,9.2 c 0.122174,0.6392965 0.08644,1.581093 -0.712602,1.73606 -0.964748,0.187103 -2.520078,0.141499 -3.25247,-0.615072 -1.2709,-1.3128581 0.525934,-2.7194357 1.785804,-2.9009786 m -5.733283,1.9488688 c -1.015212,0.2464192 -0.491272,1.5053078 0.466565,1.2772138 0.972005,-0.23147 0.462183,-1.5026451 -0.466565,-1.2772138 m 10.934259,0.00803 C 28.819716,9.6454102 29.219798,11.007259 30.06641,10.683795 30.859873,10.380638 30.526129,9.1050537 29.667643,9.3769043 M 28.800256,13.10247 c -0.9629,0.224929 -0.459135,1.524937 0.466154,1.26862 0.877513,-0.243083 0.350995,-1.459501 -0.466154,-1.26862 m -8.133333,0.135956 c -0.828056,0.229166 -0.461763,1.588849 0.398714,1.327264 0.808504,-0.245784 0.409434,-1.550922 -0.398714,-1.327264 m 4.06744,0.744393 c -0.802745,0.316217 -0.254374,1.519791 0.531994,1.224022 0.867764,-0.326384 0.307835,-1.554847 -0.531994,-1.224022 m -21.0676963,8.483848 0.2,1.466666 C 3.4112249,24.000594 3.0053767,24.207324 2.6,24.417232 1.9847529,24.735813 1.3824786,25.241681 1.1859055,25.933333 0.85800247,27.087077 1.9993631,28.051603 3.0666667,28.093673 3.8113383,28.123024 4.4415833,27.709517 5,27.266667 c 0.1779399,0.558349 1.0733922,1.274513 1.4171809,0.39897 0.2135879,-0.543953 -0.3733602,-0.851212 -0.3344137,-1.332304 0.024553,-0.303291 0.4320959,-0.604046 0.5838995,-0.866666 h 0.066667 c 0.2400889,0.344942 0.5708039,0.641078 0.6688273,1.066666 0.08841,0.38385 -0.1442998,0.85859 0.220782,1.151441 C 8.1988393,28.146731 8.748882,27.483101 8.7937764,26.933333 8.8652018,26.058683 8.3567657,24.851725 7.5333333,24.466667 7.6703191,24.137113 7.9107361,23.771753 7.8104426,23.400051 7.515831,22.308177 6.5275004,23.174414 6.3333333,23.8 L 5.2,23.666667 5,22.2 c 0.5719996,-3.78e-4 1.9534775,0.137097 2.3710907,-0.294598 0.3436788,-0.35527 0.1140411,-0.931244 -0.3046814,-1.08781 C 6.4813161,20.598816 5.607223,20.789925 5,20.866667 5,20.416992 5.1600001,19.750269 4.9900716,19.336214 4.7840261,18.834155 4.0767489,18.823073 3.8059669,19.269598 c -0.2991348,0.49328 0.1049752,1.275039 -0.2554524,1.701545 -0.3666064,0.433817 -1.2870974,0.2703 -1.7432614,0.656789 -0.3880479,0.328776 -0.3433686,0.996974 0.1930041,1.143107 0.514674,0.140222 1.1520988,-0.235114 1.6664095,-0.304372 m 7.1333333,-1 c -0.310581,0.0712 -0.737844,0.131164 -0.9737142,0.361265 -0.375295,0.366115 -0.1949493,1.000545 0.3070982,1.132922 0.539427,0.142232 1.164607,-0.484812 1.665638,-0.23395 0.590367,0.295592 0.673878,1.174577 1.20463,1.461162 0.575144,0.310555 1.055179,-0.23149 0.983745,-0.788066 -0.05724,-0.445955 -0.416892,-0.774426 -0.654064,-1.133333 0.332184,-0.02622 0.785946,-0.03291 1.062758,-0.237602 0.374852,-0.277193 0.363462,-0.906519 -0.06569,-1.124231 -0.62021,-0.314636 -1.301932,0.255375 -1.924435,0.134672 -0.490202,-0.09505 -0.728715,-0.81017 -1.205967,-0.98997 -1.071545,-0.40369 -0.84571,0.96038 -0.4,1.417131 m 12.4,0.368621 c -0.770369,0.177782 -1.498995,0.944212 -2.133333,1.393004 -0.24964,0.176619 -0.604071,0.527746 -0.933334,0.507304 -0.474117,-0.02944 -0.783825,-0.745766 -1.044598,-1.067953 -0.477952,-0.590511 -1.265715,-0.92807 -2.022068,-0.766459 -0.650374,0.138965 -1.383728,0.657379 -1.718107,1.232149 -0.197439,0.33938 -0.191696,0.841895 0.191769,1.054733 0.899361,0.49918 1.216198,-1.172797 2.059671,-0.913786 0.433718,0.133183 0.683706,0.661277 0.947378,0.99213 0.450233,0.564946 1.045853,0.919279 1.785955,0.860698 0.858543,-0.06796 1.665021,-0.842666 2.333334,-1.327828 0.250441,-0.18181 0.603027,-0.59054 0.933333,-0.588477 0.44422,0.0028 0.778967,0.562675 1.02927,0.855607 0.410793,0.480752 0.99398,0.902525 1.637397,0.979269 0.622485,0.07425 1.052437,-0.346544 1.428291,-0.779012 0.15338,-0.176483 0.433202,-0.593618 0.705042,-0.557923 0.844918,0.110946 1.19658,1.87382 2.332304,1.431637 0.363381,-0.14148 0.502781,-0.597195 0.322428,-0.9375 -0.147914,-0.279096 -0.476149,-0.372744 -0.702313,-0.571503 -0.487921,-0.428798 -0.801326,-1.047878 -1.419086,-1.327521 -0.71996,-0.325907 -1.438344,0.118543 -1.927366,0.630453 -0.186065,0.194775 -0.429543,0.636057 -0.7393,0.624845 C 25.890194,23.54553 25.547819,22.981718 25.322015,22.733384 24.789113,22.147314 24.029264,21.643915 23.2,21.835288 m -12.999743,2.414456 c -0.4921424,0.18389 -0.5705654,0.76311 -0.2406379,1.130245 0.5718319,0.636324 2.2981909,2.074707 3.2391459,1.598818 0.362409,-0.183289 0.503724,-0.646562 0.238992,-0.971554 -0.224641,-0.275775 -0.601855,-0.31035 -0.904424,-0.461265 -0.601822,-0.300175 -1.615968,-1.564197 -2.333076,-1.296244 M 4.2,25.2 c 0.034688,0.234882 0.2125854,0.564722 0.1191869,0.794033 C 4.1565374,26.393368 3.4206594,26.78278 3,26.717131 2.3432905,26.61464 2.5462814,26.081718 2.9335904,25.795164 3.07985,25.686953 3.2378052,25.598964 3.4,25.517336 3.6584808,25.387248 3.9253581,25.289516 4.2,25.2 Z"
			style="fill:#fea711;fill-opacity:1;;stroke:none"
		/>
	</g>
</svg>
