<?xml version="1.0" encoding="UTF-8" standalone="no"?>
<!-- Created with Inkscape (http://www.inkscape.org/) -->

<svg
	xmlns="http://www.w3.org/2000/svg"
	xmlns:cc="http://creativecommons.org/ns#"
	xmlns:dc="http://purl.org/dc/elements/1.1/"
	xmlns:inkscape="http://www.inkscape.org/namespaces/inkscape"
	xmlns:rdf="http://www.w3.org/1999/02/22-rdf-syntax-ns#"
	xmlns:sodipodi="http://sodipodi.sourceforge.net/DTD/sodipodi-0.dtd"
	xmlns:svg="http://www.w3.org/2000/svg"
	xmlns:xlink="http://www.w3.org/1999/xlink"
	width="32"
	height="32"
	viewBox="0 0 32 32"
	version="1.1"
	xml:space="preserve"
	inkscape:version="1.4 (e7c3feb100, 2024-10-09)"
	>
	<title>ぐ〜ぺこ</title>
	<metadata>
		<rdf:RDF>
			<cc:Work rdf:about="">
				<cc:license rdf:resource="http://www.opensource.org/licenses/mit-license.php" />
				<dc:title>ぐ〜ぺこ</dc:title>
				<dc:date>2025-06-02</dc:date>
				<dc:creator><cc:Agent><dc:title>zawa-ch.</dc:title></cc:Agent></dc:creator>
				<dc:rights><cc:Agent><dc:title>Copyright 2025 zawa-ch.</dc:title></cc:Agent></dc:rights>
				<dc:identifier>stellar_ch_handwritten_squared_gupeko</dc:identifier>
				<dc:language>ja_JP</dc:language>
			</cc:Work>
		</rdf:RDF>
	</metadata>
	<sodipodi:namedview
		pagecolor="#505050"
		bordercolor="#eeeeee"
		borderopacity="1"
		inkscape:showpageshadow="0"
		inkscape:pageopacity="0"
		inkscape:pagecheckerboard="0"
		inkscape:deskcolor="#d1d1d1"
		inkscape:document-units="px"
		showgrid="false"
	/>
	<defs>
		<linearGradient id="linearGradient3" inkscape:collect="always" >
			<stop style="stop-color:#265073;stop-opacity:1;" offset="0" />
			<stop style="stop-color:#266a73;stop-opacity:1;" offset="1" />
		</linearGradient>
		<linearGradient
			id="linearGradient4"
			inkscape:collect="always"
			xlink:href="#linearGradient3"
			x1="0"
			y1="0"
			x2="32"
			y2="32"
			gradientUnits="userSpaceOnUse"
		/>
		<inkscape:path-effect
			id="path-effect3"
			effect="offset"
			is_visible="true"
			lpeversion="1.3"
			linejoin_type="miter"
			unit="px"
			offset="1"
			miter_limit="4"
			attempt_force_join="false"
			update_on_knot_move="true"
		/>
	</defs>
	<g inkscape:groupmode="layer">
		<image
			display="none"
			x="-0.83970714"
			y="-0.86889875"
			width="33.737164"
			height="33.737164"
			preserveAspectRatio="none"
			xlink:href="stellar_ch_handwritten_squared_gupeko.png"
		/>
		<path
			display="none"
			d="M 9.0002989,5.4568194 9.1408704,5.5973909 M 4.5722962,7.4951064 C 3.9222167,8.1689342 3.2768243,8.8573326 2.7072902,9.6036791 2.4508079,9.9397865 2.1780637,10.346506 2.2612433,10.790515 c 0.088828,0.474163 0.544003,0.7923 0.9066655,1.06301 0.7923926,0.591481 1.6224721,1.130764 2.388388,1.756442 m 8.1531482,-3.233145 c 0.610527,-0.344352 1.250469,-0.6910899 1.968001,-0.7075031 0.936073,-0.021413 1.758954,0.4992591 2.670859,0.6557841 1.008455,0.173098 2.019319,-0.01611 2.952001,-0.4402809 M 18.364173,20.279957 c 0.498984,-0.140887 1.051878,0.302037 1.227302,0.728039 0.190972,0.463751 -0.05865,1.003389 -0.551211,1.148713 -1.235325,0.364473 -1.74942,-1.573703 -0.676091,-1.876752 m 7.223565,1.483158 c 0.584306,-0.281739 1.110256,-0.345453 1.757144,-0.350337 0.718706,-0.0054 1.343125,0.04565 2.038287,0.13948 M 9.2814419,25.136831 c 0.8817411,-0.572073 1.7998201,-1.062199 2.7411441,-1.528123 0.454287,-0.224855 0.95134,-0.503853 1.476001,-0.451593 0.615,0.06125 1.148631,0.533372 1.616573,0.897316 1.077776,0.838247 2.18924,1.840001 3.162859,2.769259 m 6.747433,0.210857 2.881713,0.483508 1.546289,-0.132079 M 7.1792196,5.9246436 7.3770757,6.0079305"
			style="fill:none;stroke:black;stroke-linejoin:round;stroke-linecap:round;stroke-width:1.5;stroke-dasharray:none"
			sodipodi:nodetypes="cccsssccssccsscccccscscccccc"
		/>
		<path
			d="M 9,3.7070313 C 8.536942,3.7071002 8.0929754,3.8905855 7.7636719,4.21875 7.7479345,4.2344908 7.7376711,4.25336 7.7226562,4.2695312 7.5497028,4.2127812 7.3707706,4.1744515 7.1875,4.1738281 6.9562771,4.1730416 6.7279847,4.2191321 6.5195312,4.3046875 6.0902056,4.4792076 5.7478737,4.8155863 5.5664062,5.2441406 5.464947,5.485052 5.4261393,5.734082 5.4335937,5.9785156 5.1625286,5.8248362 4.8563646,5.7395465 4.5410156,5.7460937 4.0778471,5.7545942 3.6372812,5.9474023 3.3144531,6.28125 2.6586466,6.9610141 1.9527388,7.7071331 1.3164062,8.5410156 1.0389341,8.9046294 0.30078075,9.8289655 0.54101562,11.111328 c 0.24905055,1.32943 1.34213508,1.966918 1.58007818,2.144531 0.8514815,0.635588 1.6634768,1.166392 2.3300781,1.710938 0.7513326,0.611822 1.8468577,0.500214 2.4589843,-0.25 C 7.5230626,13.966661 7.4144873,12.868731 6.6640625,12.253906 5.8679045,11.603523 4.9299565,10.981334 4.2480469,10.474609 4.7137723,9.88837 5.2556161,9.3063866 5.8300781,8.7109375 c 0.3435254,-0.3550832 0.50465,-0.815615 0.4902344,-1.2714844 0.058053,0.032662 0.1128821,0.069245 0.1757812,0.095703 l 0.2011719,0.085937 c 0.6735264,0.2836541 1.4200527,0.1164442 1.9082032,-0.3652343 0.604753,0.1959705 1.2912116,0.060248 1.7734372,-0.421875 0.685417,-0.6855637 0.685493,-1.7889702 0,-2.4746094 L 10.236328,4.2167969 C 9.9072144,3.8888212 9.4623284,3.7058949 9,3.7070313 Z m 6.636719,4.2128906 c -1.220876,0.027927 -2.183944,0.5925406 -2.785156,0.9316406 -0.84714,0.4760847 -1.143072,1.5409695 -0.664063,2.3867185 0.47762,0.842853 1.540069,1.138316 2.382813,0.66211 0.573903,-0.323695 0.999327,-0.477058 1.148437,-0.480469 0.07422,-0.0017 0.343079,0.05706 0.746094,0.193359 0.396717,0.134166 0.943758,0.327273 1.585937,0.4375 1.411927,0.242353 2.782784,-0.03024 3.97461,-0.572265 0.882787,-0.402388 1.269465,-1.437946 0.867187,-2.3183597 C 22.491918,8.2781395 21.46022,7.8907563 20.576172,8.2910156 19.896674,8.600042 19.251222,8.7037457 18.644531,8.5996094 18.47668,8.5707984 18.087208,8.4193575 17.576172,8.2480469 17.061143,8.0753979 16.415791,7.9021003 15.636719,7.9199219 Z m 2.65039,10.6171871 c -0.11737,0.0037 -0.242814,0.01934 -0.36914,0.05078 l -0.03125,0.0078 -0.03125,0.01172 c -0.371842,0.119362 -0.688692,0.357464 -0.90625,0.673828 -0.183788,0.124089 -0.579064,0.423407 -0.740235,0.845703 -0.248047,0.649933 -0.219559,1.295318 -0.04297,1.861328 0.176893,0.567001 0.534357,1.138833 1.132812,1.533203 0.624557,0.41157 1.473874,0.53941 2.236328,0.314453 1.479142,-0.436402 2.256537,-2.079109 1.673828,-3.49414 -0.244898,-0.594715 -0.640072,-1.038657 -1.148437,-1.373047 -0.337439,-0.221956 -0.801984,-0.267137 -1.009766,-0.279297 -0.240565,-0.106808 -0.500859,-0.160608 -0.763672,-0.152344 z m 9.044922,1.125 c -0.778584,0.0058 -1.616865,0.09673 -2.505859,0.525391 -0.871462,0.42129 -1.23511,1.460445 -0.816406,2.332031 0.41959,0.875699 1.462919,1.241954 2.33789,0.820313 0.329784,-0.159015 0.459638,-0.173581 1.009766,-0.177735 0.629358,-0.0047 1.149629,0.03647 1.791015,0.123047 0.960717,0.129954 1.838623,-0.537193 1.96875,-1.498047 0.129954,-0.960716 -0.538863,-1.838583 -1.5,-1.96875 -0.755934,-0.102032 -1.468349,-0.162386 -2.285156,-0.15625 z m -14.097656,1.738282 c -0.954325,0.03292 -1.711597,0.503677 -1.988281,0.640625 -0.970772,0.480499 -1.9551293,1.004216 -2.917969,1.628906 -0.8127734,0.527901 -1.0414085,1.606306 -0.5136719,2.419922 0.527902,0.812773 1.6067227,1.04309 2.4199219,0.515625 0.798691,-0.51819 1.654673,-0.977424 2.564453,-1.427735 0.226563,-0.11214 0.416076,-0.199406 0.535156,-0.24414 0,0 0.002,0 0.002,0 0.151398,0.08716 0.416328,0.277377 0.705078,0.501953 1.004015,0.780879 2.08215,1.752259 3.029296,2.65625 0.701854,0.669273 1.805836,0.641285 2.47461,-0.06055 0.669274,-0.701853 0.642914,-1.804193 -0.05859,-2.472656 -0.995998,-0.950618 -2.150606,-1.993248 -3.296875,-2.884766 -0.326775,-0.25415 -1.211432,-1.127729 -2.517578,-1.257812 -0.150373,-0.01498 -0.297219,-0.02046 -0.4375,-0.01563 z m 11.730469,3.884765 c -0.822497,0.02786 -1.526492,0.62987 -1.666016,1.460938 -0.159777,0.955584 0.479841,1.852798 1.435547,2.013672 l 2.882812,0.484375 c 0.144359,0.02433 0.291517,0.03001 0.439454,0.01758 l 1.546875,-0.132813 c 0.965649,-0.08236 1.675528,-0.924515 1.59375,-1.890625 -0.0823,-0.96751 -0.928316,-1.680017 -1.894532,-1.595703 l -1.322265,0.113281 -2.66211,-0.447265 c -0.124501,-0.02115 -0.244282,-0.02714 -0.353515,-0.02344 z"
			style="fill:url(#linearGradient4);fill-opacity:1;stroke-linecap:round;stroke-linejoin:round"
			inkscape:path-effect="#path-effect3"
			inkscape:original-d="m 9,4.7070312 a 0.75,0.75 0 0 0 -0.5292969,0.21875 0.75,0.75 0 0 0 0,1.0605469 l 0.140625,0.140625 a 0.75,0.75 0 0 0 1.0605469,0 0.75,0.75 0 0 0 0,-1.0605469 L 9.53125,4.9257812 A 0.75,0.75 0 0 0 9,4.7070312 Z M 6.8964844,5.2304687 A 0.75,0.75 0 0 0 6.4882812,5.6328125 0.75,0.75 0 0 0 6.8886719,6.6152344 l 0.1972656,0.083984 A 0.75,0.75 0 0 0 8.0683594,6.2988281 0.75,0.75 0 0 0 7.6679687,5.3164062 L 7.4707031,5.2324219 A 0.75,0.75 0 0 0 6.8964844,5.2304687 Z M 4.5585937,6.7460937 A 0.75,0.75 0 0 0 4.0332031,6.9746094 C 3.378122,7.6536216 2.7117036,8.3616749 2.1113281,9.1484375 1.8333887,9.5126635 1.3703573,10.110599 1.5234375,10.927734 1.686469,11.797995 2.3714334,12.195823 2.71875,12.455078 3.5372277,13.06603 4.3582054,13.600112 5.0820312,14.191406 A 0.75,0.75 0 0 0 6.1367187,14.083984 0.75,0.75 0 0 0 6.03125,13.029297 C 5.2232441,12.369235 4.383495,11.823963 3.6171875,11.251953 3.2391791,10.969788 3.0126713,10.730409 2.9980469,10.652344 2.9847679,10.581461 3.0677092,10.366583 3.3027344,10.058594 3.8414271,9.3526633 4.4662503,8.6842684 5.1113281,8.015625 A 0.75,0.75 0 0 0 5.09375,6.9550781 0.75,0.75 0 0 0 4.5585937,6.7460937 Z M 15.660156,8.9199219 c -0.948768,0.021703 -1.700145,0.4540466 -2.318359,0.8027344 a 0.75,0.75 0 0 0 -0.285156,1.0234377 0.75,0.75 0 0 0 1.021484,0.283203 c 0.60284,-0.340016 1.130892,-0.598251 1.617188,-0.609375 0.648129,-0.01483 1.414311,0.453819 2.52539,0.644531 1.18063,0.202651 2.348556,-0.02218 3.390625,-0.496094 A 0.75,0.75 0 0 0 21.982422,9.5742188 0.75,0.75 0 0 0 20.990234,9.2011719 C 20.166939,9.5755952 19.31089,9.7294823 18.474609,9.5859375 17.761879,9.4636 16.884173,8.8919221 15.660156,8.9199219 Z m 2.5,10.6386721 a 0.75,0.75 0 0 0 -0.458984,0.416015 c -0.200622,0.17223 -0.473129,0.285832 -0.558594,0.509766 -0.155472,0.407368 -0.140636,0.825111 -0.02148,1.207031 0.119152,0.381921 0.35166,0.745801 0.728515,0.994141 0.376855,0.248339 0.90693,0.337574 1.402344,0.191406 0.909924,-0.268462 1.3898,-1.288348 1.033203,-2.154297 -0.158499,-0.384902 -0.423203,-0.687594 -0.773437,-0.917969 -0.193377,-0.127197 -0.488201,-0.09148 -0.746094,-0.136718 A 0.75,0.75 0 0 0 18.16016,19.558594 Z m 9.179688,1.103515 c -0.693062,0.0052 -1.375065,0.08678 -2.078125,0.425782 a 0.75,0.75 0 0 0 -0.34961,1 0.75,0.75 0 0 0 1.001953,0.351562 c 0.465553,-0.224479 0.834833,-0.272808 1.435547,-0.277344 0.679931,-0.0051 1.261695,0.04212 1.933594,0.132813 a 0.75,0.75 0 0 0 0.84375,-0.642578 0.75,0.75 0 0 0 -0.642578,-0.84375 c -0.718425,-0.09697 -1.387049,-0.152176 -2.144531,-0.146485 z m -8.771485,0.339844 c -0.01802,0.0051 0.02433,-0.0057 0.119141,0.05664 0.09482,0.06237 0.194013,0.193275 0.210937,0.234375 0.02535,0.06155 0.0049,0.122345 -0.07031,0.144531 -0.122249,0.03607 -0.118912,0.01812 -0.152344,-0.0039 -0.03343,-0.02203 -0.09342,-0.09256 -0.123047,-0.1875 -0.02962,-0.09495 -0.01922,-0.19668 -0.0078,-0.226563 0.0114,-0.02988 -0.02864,-0.0029 0.02344,-0.01758 z m -4.996093,1.408203 c -0.833126,-0.08299 -1.454652,0.315421 -1.882813,0.527344 -0.954977,0.472682 -1.8993376,0.975319 -2.8164061,1.570312 a 0.75,0.75 0 0 0 -0.2207031,1.03711 0.75,0.75 0 0 0 1.0371093,0.220703 c 0.8464139,-0.549153 1.7383449,-1.025209 2.6660159,-1.484375 0.480413,-0.237787 0.852163,-0.398488 1.068359,-0.376953 0.279375,0.02782 0.732525,0.354909 1.230469,0.742187 1.046446,0.81388 2.143333,1.802405 3.105469,2.720703 a 0.75,0.75 0 0 0 1.060546,-0.02539 0.75,0.75 0 0 0 -0.02539,-1.060547 c -0.985102,-0.940218 -2.109644,-1.955745 -3.21875,-2.818359 -0.43794,-0.34061 -1.053282,-0.958059 -2.003906,-1.052735 z m 11.578125,3.884766 a 0.75,0.75 0 0 0 -0.865235,0.615234 0.75,0.75 0 0 0 0.615235,0.863281 l 2.882812,0.484375 a 0.750075,0.750075 0 0 0 0.1875,0.0078 l 1.546875,-0.132813 a 0.75,0.75 0 0 0 0.683594,-0.810546 0.75,0.75 0 0 0 -0.8125,-0.683594 l -1.451172,0.125 z"
		/>
		<path
			d="m 9,4.7070312 a 0.75,0.75 0 0 0 -0.5292969,0.21875 0.75,0.75 0 0 0 0,1.0605469 l 0.140625,0.140625 a 0.75,0.75 0 0 0 1.0605469,0 0.75,0.75 0 0 0 0,-1.0605469 L 9.53125,4.9257812 A 0.75,0.75 0 0 0 9,4.7070312 Z M 6.8964844,5.2304687 A 0.75,0.75 0 0 0 6.4882812,5.6328125 0.75,0.75 0 0 0 6.8886719,6.6152344 l 0.1972656,0.083984 A 0.75,0.75 0 0 0 8.0683594,6.2988281 0.75,0.75 0 0 0 7.6679687,5.3164062 L 7.4707031,5.2324219 A 0.75,0.75 0 0 0 6.8964844,5.2304687 Z M 4.5585937,6.7460937 A 0.75,0.75 0 0 0 4.0332031,6.9746094 C 3.378122,7.6536216 2.7117036,8.3616749 2.1113281,9.1484375 1.8333887,9.5126635 1.3703573,10.110599 1.5234375,10.927734 1.686469,11.797995 2.3714334,12.195823 2.71875,12.455078 3.5372277,13.06603 4.3582054,13.600112 5.0820312,14.191406 A 0.75,0.75 0 0 0 6.1367187,14.083984 0.75,0.75 0 0 0 6.03125,13.029297 C 5.2232441,12.369235 4.383495,11.823963 3.6171875,11.251953 3.2391791,10.969788 3.0126713,10.730409 2.9980469,10.652344 2.9847679,10.581461 3.0677092,10.366583 3.3027344,10.058594 3.8414271,9.3526633 4.4662503,8.6842684 5.1113281,8.015625 A 0.75,0.75 0 0 0 5.09375,6.9550781 0.75,0.75 0 0 0 4.5585937,6.7460937 Z M 15.660156,8.9199219 c -0.948768,0.021703 -1.700145,0.4540466 -2.318359,0.8027344 a 0.75,0.75 0 0 0 -0.285156,1.0234377 0.75,0.75 0 0 0 1.021484,0.283203 c 0.60284,-0.340016 1.130892,-0.598251 1.617188,-0.609375 0.648129,-0.01483 1.414311,0.453819 2.52539,0.644531 1.18063,0.202651 2.348556,-0.02218 3.390625,-0.496094 A 0.75,0.75 0 0 0 21.982422,9.5742188 0.75,0.75 0 0 0 20.990234,9.2011719 C 20.166939,9.5755952 19.31089,9.7294823 18.474609,9.5859375 17.761879,9.4636 16.884173,8.8919221 15.660156,8.9199219 Z m 2.5,10.6386721 a 0.75,0.75 0 0 0 -0.458984,0.416015 c -0.200622,0.17223 -0.473129,0.285832 -0.558594,0.509766 -0.155472,0.407368 -0.140636,0.825111 -0.02148,1.207031 0.119152,0.381921 0.35166,0.745801 0.728515,0.994141 0.376855,0.248339 0.90693,0.337574 1.402344,0.191406 0.909924,-0.268462 1.3898,-1.288348 1.033203,-2.154297 -0.158499,-0.384902 -0.423203,-0.687594 -0.773437,-0.917969 -0.193377,-0.127197 -0.488201,-0.09148 -0.746094,-0.136718 a 0.75,0.75 0 0 0 -0.605469,-0.109375 z m 9.179688,1.103515 c -0.693062,0.0052 -1.375065,0.08678 -2.078125,0.425782 a 0.75,0.75 0 0 0 -0.34961,1 0.75,0.75 0 0 0 1.001953,0.351562 c 0.465553,-0.224479 0.834833,-0.272808 1.435547,-0.277344 0.679931,-0.0051 1.261695,0.04212 1.933594,0.132813 a 0.75,0.75 0 0 0 0.84375,-0.642578 0.75,0.75 0 0 0 -0.642578,-0.84375 c -0.718425,-0.09697 -1.387049,-0.152176 -2.144531,-0.146485 z m -8.771485,0.339844 c -0.01802,0.0051 0.02433,-0.0057 0.119141,0.05664 0.09482,0.06237 0.194013,0.193275 0.210937,0.234375 0.02535,0.06155 0.0049,0.122345 -0.07031,0.144531 -0.122249,0.03607 -0.118912,0.01812 -0.152344,-0.0039 -0.03343,-0.02203 -0.09342,-0.09256 -0.123047,-0.1875 -0.02962,-0.09495 -0.01922,-0.19668 -0.0078,-0.226563 0.0114,-0.02988 -0.02864,-0.0029 0.02344,-0.01758 z m -4.996093,1.408203 c -0.833126,-0.08299 -1.454652,0.315421 -1.882813,0.527344 -0.954977,0.472682 -1.8993376,0.975319 -2.8164061,1.570312 a 0.75,0.75 0 0 0 -0.2207031,1.03711 0.75,0.75 0 0 0 1.0371093,0.220703 c 0.8464139,-0.549153 1.7383449,-1.025209 2.6660159,-1.484375 0.480413,-0.237787 0.852163,-0.398488 1.068359,-0.376953 0.279375,0.02782 0.732525,0.354909 1.230469,0.742187 1.046446,0.81388 2.143333,1.802405 3.105469,2.720703 a 0.75,0.75 0 0 0 1.060546,-0.02539 0.75,0.75 0 0 0 -0.02539,-1.060547 c -0.985102,-0.940218 -2.109644,-1.955745 -3.21875,-2.818359 -0.43794,-0.34061 -1.053282,-0.958059 -2.003906,-1.052735 z m 11.578125,3.884766 a 0.75,0.75 0 0 0 -0.865235,0.615234 0.75,0.75 0 0 0 0.615235,0.863281 l 2.882812,0.484375 a 0.750075,0.750075 0 0 0 0.1875,0.0078 l 1.546875,-0.132813 a 0.75,0.75 0 0 0 0.683594,-0.810546 0.75,0.75 0 0 0 -0.8125,-0.683594 l -1.451172,0.125 z"
			style="fill:#87ceeb;fill-opacity:1;stroke-linecap:round;stroke-linejoin:round"
		/>
	</g>
</svg>
