<?xml version="1.0" encoding="UTF-8" standalone="no"?>
<!-- Created with Inkscape (http://www.inkscape.org/) -->

<svg
	xmlns="http://www.w3.org/2000/svg"
	xmlns:cc="http://creativecommons.org/ns#"
	xmlns:dc="http://purl.org/dc/elements/1.1/"
	xmlns:inkscape="http://www.inkscape.org/namespaces/inkscape"
	xmlns:rdf="http://www.w3.org/1999/02/22-rdf-syntax-ns#"
	xmlns:sodipodi="http://sodipodi.sourceforge.net/DTD/sodipodi-0.dtd"
	xmlns:svg="http://www.w3.org/2000/svg"
	xmlns:xlink="http://www.w3.org/1999/xlink"
	width="32"
	height="32"
	viewBox="0 0 32 32"
	version="1.1"
	xml:space="preserve"
	inkscape:version="1.4 (e7c3feb100, 2024-10-09)"
	>
	<title>かわいいが過ぎる</title>
	<metadata>
		<rdf:RDF>
			<cc:Work rdf:about="">
				<cc:license rdf:resource="http://www.opensource.org/licenses/mit-license.php" />
				<dc:title>かわいいが過ぎる</dc:title>
				<dc:date>2025-06-02</dc:date>
				<dc:creator><cc:Agent><dc:title>zawa-ch.</dc:title></cc:Agent></dc:creator>
				<dc:rights><cc:Agent><dc:title>Copyright 2025 zawa-ch.</dc:title></cc:Agent></dc:rights>
				<dc:identifier>stellar_ch_handwritten_square_kawaiigasugiru</dc:identifier>
				<dc:language>ja_JP</dc:language>
			</cc:Work>
		</rdf:RDF>
	</metadata>
	<sodipodi:namedview
		pagecolor="#505050"
		bordercolor="#eeeeee"
		borderopacity="1"
		inkscape:showpageshadow="0"
		inkscape:pageopacity="0"
		inkscape:pagecheckerboard="0"
		inkscape:deskcolor="#d1d1d1"
		inkscape:document-units="px"
		showgrid="false"
	/>
	<defs>
		<inkscape:path-effect
			effect="offset"
			id="path-effect3"
			is_visible="true"
			lpeversion="1.3"
			linejoin_type="miter"
			unit="px"
			offset="1"
			miter_limit="4"
			attempt_force_join="false"
			update_on_knot_move="true"
		/>
	</defs>
	<g inkscape:groupmode="layer">
		<image
			display="none"
			x="-2.1485116"
			y="-3.3102777"
			width="36.553574"
			height="36.553574"
			preserveAspectRatio="none"
			xlink:href="stellar_ch_handwritten_square_kawaiigasugiru.png"
		/>
		<path
			display="none"
			d="m 4.7052834,2.9342911 c -0.073568,0.2300727 -0.172551,0.5509958 -0.2066594,0.7615328 -0.019205,0.118541 -0.066509,0.2746775 -0.019626,0.4395268 0.063731,0.2240906 0.2844784,0.227816 0.4548042,0.2436774 0.2374381,0.022111 0.6805258,0.1595366 0.9104899,0.3470984 0.3947778,0.3219875 0.5093174,0.7940713 0.5975329,1.2542958 0.041717,0.2176369 0.080215,0.3728089 0.087847,0.6092262 0.00946,0.2929675 -0.026906,0.4262287 -0.062932,0.6853795 -0.045668,0.3285063 -0.097697,0.6474423 -0.1622371,0.9899926 M 10.949852,3.0104444 c 0.05059,0.2125101 0.07487,0.5851332 0.07639,0.7615328 0.0019,0.2253294 0.152304,0.5153082 -0.118519,0.7947336 -0.20878,0.2154105 -0.481133,0.2042715 -0.719402,0.2714123 M 6.9898818,3.2389042 7.599108,4.000437 m 3.503051,0.3046131 c 0.130168,-0.010272 0.312524,-0.054166 0.609226,-0.068984 0.18425,-0.0092 0.358799,-0.022471 0.480248,0.1149341 0.156584,0.1771549 0.04164,0.4082177 -0.02333,0.6394291 -0.04159,0.1480025 -0.162327,0.4852332 -0.02333,0.6068186 0.177556,0.1553138 0.359459,0.054865 0.556402,0.010928 0.301933,-0.067359 1.000316,-0.2310418 1.370759,-0.235569 0.767324,-0.00938 1.447125,0.4917613 1.508963,1.2931951 0.0419,0.5430383 -0.162095,1.1637591 -0.518971,1.5992188 M 25.799742,4.2288969 c 0,0.6987588 -0.06301,0.6805409 0.0218,1.370759 0.05842,0.4754443 0.208466,0.9451717 0.435118,1.370759 M 2.4206851,4.53351 3.4868309,4.3844361 4.324517,4.3050501 M 4.0199039,4.4573567 C 3.9984718,4.6260568 3.9831148,4.7854633 3.9217155,5.0665829 3.8251876,5.5085383 3.2283588,6.8146386 3.1822178,7.275028 M 11.026006,4.7619698 c 0,0.7556135 -0.190929,1.0295799 0.309078,1.1048082 0.153776,0.023135 0.525987,-0.1524832 0.680914,-0.2671221 m 6.168416,-0.7615328 c 0.04645,0.3675218 0.07401,0.5136093 0.07609,0.837686 0.0012,0.1791257 -0.003,0.3568221 0.02298,0.533073 0.05481,0.3719398 0.175356,0.7965673 0.510156,0.9899926 m 2.969978,-2.3607516 0.456919,1.4469123 m 7.386868,-1.2946058 c 0.398945,0.5969369 0.388752,1.3180132 0.533073,1.903832 M 11.254465,5.904269 l -0.227344,0.5331891 -0.06023,0.5329568 0.135266,1.0661459 m -0.91384,-0.8376861 0.68538,-0.2284598 m 8.300707,5.2545761 v 0.152307 m -3.426897,0 c -0.235609,0.388888 -0.450169,0.628241 -0.375596,0.98012 0.04783,0.225701 0.431938,0.38765 0.67686,0.626267 0.632749,0.616457 0.650058,1.659347 0.460269,2.429736 m 3.655357,-3.95997 v 0.22846 m -2.817671,0.304613 0.761532,1.218452 m -4.569196,-0.533073 c 0.181976,-0.05769 0.522303,-0.142227 0.685379,-0.149015 0.440536,-0.01834 0.333357,0.01135 0.989993,-0.0033 m -0.45692,0.07615 c -0.021,0.155066 -0.0186,0.306343 -0.155009,0.609226 -0.210967,0.468441 -0.848571,1.320095 -0.98729,1.903832 m 12.793751,-1.294605 c 0.05433,0.291635 0.03876,0.728652 0.322006,0.900148 0.333252,0.201774 0.836022,0.0063 1.201059,-0.06246 M 3.1822178,15.575735 c 0.070905,0.365418 0.1130587,0.980337 0.5410647,1.161926 0.2536039,0.107595 0.4998692,0.0565 0.7535411,0.05653 m 15.6114224,2.969978 0.228459,0.304613 M 5.8475826,24.561822 c -0.039941,-0.316033 -0.077631,-0.826479 0.021976,-1.142299 0.06226,-0.197404 0.1231809,-0.31607 0.1377339,-0.533073 0.037672,-0.56173 -0.08435,-1.029928 -0.083557,-1.523066 3.695e-4,-0.2299 -0.017606,-0.497417 0.093546,-0.761474 0.3009161,-0.714862 2.1674564,-1.105457 2.7790659,-0.628911 0.1868391,0.145579 0.2355097,0.427584 0.2681226,0.628853 0.02931,0.180887 0.03269,0.321699 0.057997,0.533073 0.024825,0.20735 0.056145,0.32651 0.079385,0.533073 0.022602,0.200887 0.089788,0.407824 -0.052473,0.563568 -0.1639301,0.17947 -0.4949475,0.176147 -0.7125856,0.191148 -0.299133,0.02062 -0.6263507,0.0068 -0.837686,0.0068 -0.035336,-0.279843 -0.1534128,-0.604071 0.1003625,-0.905554 0.1294081,-0.153736 0.2328592,-0.208768 0.3566153,-0.256371 0.3792987,-0.145899 0.5961745,-0.0388 0.9137812,-0.13268 m 9.976079,-1.1423 0.22846,0.304614 m 3.503051,0.228459 c 0.435481,-0.13925 0.941072,-0.227913 1.294606,-0.228459 0.235636,-3.63e-4 0.684712,-0.08143 0.828462,0.176515 0.122085,0.219074 -0.01719,0.447352 -0.174696,0.661171 -0.225269,0.305812 -0.414676,0.491742 -0.495524,0.685379 -0.02234,0.05351 -0.107444,0.210723 -0.05112,0.369486 0.08583,0.241957 0.211499,0.219159 0.502105,0.239387 0.160699,0.01119 0.371591,0.02609 0.533073,0.0875 0.344247,0.130897 0.662207,0.410272 0.816533,0.750837 0.11046,0.243768 0.133224,0.447085 0.138674,0.685087 0.0049,0.215924 -0.09405,0.74965 -0.192791,0.904144 -0.06312,0.09876 -0.145593,0.187715 -0.306965,0.200432 -0.178303,0.01405 -0.266639,-0.05546 -0.455451,-0.135383 -0.54443,-0.230454 -1.057324,-0.299387 -1.599161,-0.135855 -0.346919,0.104704 -0.634744,0.380678 -0.579727,0.765881 0.07635,0.534565 0.626733,0.732399 1.036589,0.735327 0.19544,0.0014 0.348546,-0.03671 0.533073,-0.09361 0.667224,-0.205719 0.866552,-0.502974 1.066146,-0.946333 m -10.813766,-4.721504 0.478132,0.934231 0.664167,-0.139265 1.294606,-0.185739 m -14.0122032,0 0.4569197,0.456919 M 15.062129,21.439538 c -0.382401,0.220746 -0.835771,0.206939 -1.599219,0.609226 m 2.056139,-0.45692 c 0.05303,0.603626 0.246697,0.922671 0.304613,1.370759 0.36861,0.11182 0.349211,0.223361 0.411615,0.457273 0.0459,0.172059 0.103159,0.460992 0.121458,0.685027 M 9.3506334,22.353377 c 0.5080015,0.102577 0.7316456,0.571178 0.8051336,1.066146 0.02465,0.16606 0.03122,0.281552 0.054,0.45692 0.04828,0.371672 0.05471,0.55186 0.05471,0.989992 M 7.599108,22.42953 c -0.4823839,0.278464 -0.8853011,0.40476 -1.5230656,0.45692 m 10.1283856,0 c 0.309891,-0.06396 0.45996,-0.08643 1.1423,-0.304613 m -1.523066,0.380766 c -0.258569,0.140129 -0.561038,0.269758 -1.370759,0.304613 M 2.953758,23.191063 c 0.2692864,-0.08536 0.7864131,-0.258077 1.0096183,-0.0302 0.2574601,0.262844 0.1316885,1.043355 0.087729,1.324809 -0.040593,0.259899 -0.1562649,0.806807 -0.1835082,0.989993 -0.018625,0.125231 -0.025838,0.32479 -0.1475469,0.520146 -0.1366224,0.219294 -0.2932226,0.31714 -0.4264228,0.472844 -0.1586866,0.185494 -0.3740221,0.470792 -0.5683294,0.682382 m 5.2545762,-3.682916 c 0.3103034,-0.08972 0.5690475,-0.117632 0.8134768,0.08408 0.2621034,0.216306 0.1797543,0.658094 -0.1325629,0.803781 -0.3391584,0.15821 -1.0781523,0.309173 -1.2846752,-0.107118 -0.1941505,-0.391355 0.2959526,-0.691752 0.6037613,-0.780748 m 5.7114956,1.474471 1.523066,0.813946 1.218452,0.404506 m -12.5652907,0 c 0.2596923,-0.08212 0.4883915,-0.146239 0.9899927,-0.152014 0.2809784,-0.0032 0.9989993,0.07285 1.370759,0.161945 0.6106944,0.146352 1.3178302,0.307924 1.9038319,0.391461 0.2021555,0.02882 0.3372551,0.04961 0.533073,0.05441 0.5764646,0.01412 1.150654,0.0011 1.5992191,0.0011 m 17.819867,1.903832 c 3.5e-5,0.31928 -0.07598,0.957974 0.325531,1.231262 0.312641,0.212796 0.870945,-0.02563 1.197534,-0.08896"
			style="stroke-width:1.5;stroke-linecap:round;stroke-linejoin:round;stroke-dasharray:none"
		/>
		<path
			d="m 4.7226562,1.1835937 c -0.057597,-5.264e-4 -0.1162641,0.00266 -0.1738281,0.00781 -0.6840106,0.061175 -1.2905128,0.521364 -1.5117187,1.2089844 -0.023983,0.075003 -0.057333,0.1792679 -0.091797,0.2929688 L 2.1777344,2.8007813 C 1.2186608,2.9353657 0.55434095,3.8147914 0.6875,4.7753906 0.7729652,5.3860325 1.160417,5.8769804 1.6777344,6.1191406 1.5741595,6.4107365 1.475672,6.740172 1.4394531,7.1015625 1.343804,8.0660094 2.042829,8.9212944 3.0078125,9.0175781 3.6280333,9.0790886 4.2020637,8.8104572 4.5585937,8.3554688 4.5976099,9.1449277 5.1685935,9.8302918 5.9824219,9.984375 6.9341641,10.16266 7.8431413,9.5421147 8.0234375,8.5898438 8.0930603,8.2203147 8.1497661,7.8713558 8.1992188,7.515625 8.2230308,7.3443341 8.2945468,7.0054789 8.2792969,6.5332031 8.2662702,6.1296725 8.1912718,5.8162151 8.1601563,5.6542969 c -8.42e-5,-4.377e-4 8.34e-5,-0.00152 0,-0.00195 C 8.2997916,5.6046738 8.4347782,5.5380134 8.5625,5.453125 8.6470557,5.6602853 8.7617657,5.8483282 8.9101563,6.0039062 8.4864061,6.4560993 8.3180477,7.1181321 8.5273438,7.75 l 0.00781,0.021484 0.00781,0.021484 c 0.1789652,0.4680867 0.5408322,0.8188968 0.9785156,0.9960938 0.315592,0.665984 1.0302226,1.0837488 1.8027346,0.984375 0.962161,-0.1233917 1.637384,-0.9978608 1.513672,-1.9570313 l -0.05469,-0.4296875 c 0.158592,-0.031607 0.349802,-0.076394 0.38086,-0.085937 0.07605,-0.014503 0.262346,-0.050473 0.509765,-0.097656 -0.573734,0.7478496 -0.457208,1.8137504 0.277344,2.4160156 0.750759,0.6159434 1.851776,0.5066634 2.464844,-0.2441406 0.32692,-0.3989096 0.576352,-0.8559503 0.732421,-1.3457031 0.188759,0.2506104 0.431925,0.4896755 0.767579,0.6835937 0.839436,0.4865838 1.906764,0.201488 2.392578,-0.6386718 0.410846,-0.7109057 0.269586,-1.5834753 -0.292969,-2.1289063 0.0026,0.00579 -0.0053,-0.1869269 -0.0059,-0.2734375 v -0.00977 c -0.003,-0.4379839 -0.0457,-0.6936903 -0.08984,-1.0429688 -0.105097,-0.8344057 -0.780742,-1.4644247 -1.601563,-1.5273437 -0.05878,-0.00451 -0.118564,-0.0054 -0.177734,-0.00391 -0.05917,0.0015 -0.117503,0.00633 -0.175781,0.013672 -0.811331,0.1021894 -1.413754,0.739679 -1.511719,1.5136719 -0.623562,-0.6359865 -1.505688,-1.0031486 -2.402344,-0.9921875 -0.08642,0.00106 -0.170129,0.00702 -0.251953,0.013672 C 13.723728,3.481689 13.627667,3.331402 13.503906,3.1914063 13.262064,2.9177902 12.951126,2.7340619 12.65625,2.6230469 c -0.0015,-0.00658 -0.0023,-0.012926 -0.0039,-0.019531 -0.196229,-0.8196057 -0.93884,-1.3693272 -1.759766,-1.3417969 -0.104946,0.00352 -0.224295,0.016347 -0.351562,0.046875 -0.9255729,0.2221937 -1.4948951,1.1338539 -1.3007816,2.0605469 -0.00433,0.00278 -0.00742,0.00695 -0.011719,0.00977 C 9.1651051,3.2136023 9.0836408,3.0521587 8.9667969,2.90625 L 8.3574219,2.1445313 C 8.00584,1.7046137 7.4835489,1.4774876 6.9550781,1.4882812 6.9198467,1.4890008 6.884845,1.4912909 6.8496094,1.4941406 6.5596098,1.5175946 6.2752343,1.6160545 6.0214844,1.7851562 5.8196033,1.5533945 5.5559066,1.3704949 5.2402344,1.2695312 5.0686725,1.2144162 4.8954462,1.1851731 4.7226562,1.1835937 Z M 25.798828,2.4785156 c -0.96957,0 -1.75,0.7804299 -1.75,1.75 0,0.626533 -0.06893,0.7368092 0.03516,1.5839844 0.0854,0.6950795 0.301961,1.368276 0.626953,1.9785156 0.454841,0.8582013 1.512403,1.1815401 2.369141,0.7246094 0.856532,-0.4564787 1.177631,-1.514928 0.720703,-2.3691406 -0.124545,-0.2338643 -0.211015,-0.5060778 -0.242187,-0.7597657 -0.07355,-0.5986098 -0.0098,-0.3588413 -0.0098,-1.1582031 0,-0.9695701 -0.78043,-1.75 -1.75,-1.75 z m -4.064453,0.609375 c -0.05072,9.13e-4 -0.103141,0.00438 -0.154297,0.00977 -0.118525,0.012488 -0.233655,0.036771 -0.345703,0.072266 -0.924029,0.2930136 -1.431139,1.2720508 -1.138672,2.1953125 l 0.457031,1.4492187 C 20.845747,7.7384818 21.8256,8.2459536 22.75,7.953125 23.674029,7.6601114 24.181139,6.6810741 23.888672,5.7578125 L 23.431641,4.3085937 C 23.193034,3.5561398 22.495197,3.0741962 21.734375,3.0878906 Z m 7.869141,0.1523438 c -0.340621,0.00116 -0.679698,0.1028081 -0.96875,0.296875 -0.80454,0.5384877 -1.019977,1.6168296 -0.482422,2.4238281 -0.01406,-0.021042 0.03884,0.086863 0.08594,0.3300781 0.04415,0.2280139 0.105575,0.6255153 0.203125,1.0214844 0.231894,0.942059 1.176248,1.5137957 2.117188,1.28125 0.94206,-0.2318926 1.513841,-1.1760627 1.28125,-2.1171875 C 31.816291,6.3809575 31.74158,5.0346533 31.064453,4.0214844 30.807576,3.6346529 30.407508,3.3662149 29.947266,3.2734375 29.829162,3.250258 29.713667,3.2398593 29.603516,3.2402344 Z M 19.173828,10.474609 c -0.619374,0 -1.157887,0.319918 -1.46875,0.802735 -0.09762,-0.02064 -0.198514,-0.03768 -0.304687,-0.04102 -0.103498,-0.0033 -0.206886,0.0064 -0.308594,0.02149 -0.120384,-0.144181 -0.265548,-0.271647 -0.435547,-0.375 -0.295402,-0.179859 -0.638289,-0.270533 -0.984375,-0.25586 -0.122818,0.0052 -0.237348,0.02521 -0.341797,0.05078 -0.451035,0.110585 -0.839509,0.395829 -1.080078,0.792969 -0.03245,0.05357 -0.108371,0.168716 -0.193359,0.308594 -0.486805,0.03346 -0.836886,0.158038 -1.046875,0.224609 -0.924029,0.293013 -1.431411,1.273149 -1.138672,2.197266 l 0.01563,0.04883 0.01953,0.04687 c 0.08461,0.195 0.201467,0.367203 0.341797,0.513672 -0.130745,0.260607 -0.256359,0.559658 -0.335938,0.894531 -0.223035,0.943014 0.35571,1.882053 1.296875,2.105469 0.670916,0.160476 1.338282,-0.08757 1.75,-0.582031 0.224701,0.427181 0.624326,0.759599 1.132813,0.884765 0.94042,0.229896 1.883147,-0.340922 2.115234,-1.28125 0.06612,-0.268394 0.119838,-0.572795 0.146485,-0.896484 0.234696,-0.03352 0.466802,-0.112285 0.68164,-0.246094 0.47643,-0.297154 0.753355,-0.783243 0.808594,-1.298828 0.07652,0.01722 0.154729,0.03031 0.234375,0.03711 l 0.04297,0.0039 h 0.04297 c 0.969571,0 1.75,-0.78043 1.75,-1.75 v -0.228516 c 0,-0.96957 -0.780429,-1.75 -1.75,-1.75 h -0.06836 l -0.05859,0.0078 c -0.251988,-0.14653 -0.539966,-0.229898 -0.841797,-0.236329 h -0.01172 z m 7.1875,2.589844 c -0.08346,0.0021 -0.176149,0.01117 -0.273437,0.0293 -0.953194,0.177946 -1.576421,1.088353 -1.398438,2.041016 -0.02181,-0.117066 0.04092,0.350932 0.08984,0.564453 0.08812,0.384511 0.325933,1.076395 1.044922,1.511718 0.705228,0.426994 1.388702,0.358613 1.757812,0.302735 0.276113,-0.0418 0.695517,-0.14703 0.671875,-0.142578 0.953195,-0.177945 1.576402,-1.088457 1.398438,-2.041016 -0.15945,-0.856406 -0.90913,-1.444862 -1.75,-1.427734 -0.306546,-0.502054 -0.854049,-0.827015 -1.460938,-0.837891 -0.02554,-4.58e-4 -0.05226,-7.01e-4 -0.08008,0 z M 3.1992188,13.826172 c -0.1169193,-0.0012 -0.2315272,0.0084 -0.3496094,0.03125 -0.9518994,0.184313 -1.5711172,1.100464 -1.3867188,2.052734 9.225e-4,0.0048 0.067571,0.478102 0.1933594,0.861328 0.1564399,0.476613 0.5350209,1.216483 1.3828125,1.576172 0.7332173,0.311079 1.6738971,0.197294 1.4375,0.197266 0.9695701,0 1.75,-0.78043 1.75,-1.75 0,-0.837057 -0.5824242,-1.532396 -1.3652344,-1.707031 C 4.6461314,14.343963 3.9690095,13.83431 3.1992188,13.826172 Z m 4.8789062,4.158203 c -0.062571,-4.39e-4 -0.1252559,0.0011 -0.1875,0.0039 -0.3532602,0.01601 -0.6996098,0.0818 -0.9765625,0.142578 -0.7841047,0.172077 -1.9514872,0.500653 -2.4980469,1.765625 -0.3421712,-0.340453 -0.7836405,-0.509765 -1.2324218,-0.509765 -0.446673,0 -0.8950002,0.168511 -1.2382813,0.511718 -0.5732056,0.573328 -0.6648642,1.438349 -0.2792969,2.107422 -0.4112792,0.445989 -0.577977,1.092584 -0.3808594,1.714844 0.1549935,0.488777 0.5022652,0.859567 0.9316407,1.058594 -0.026296,0.139185 -0.048048,0.260719 -0.0625,0.345703 -0.054842,0.0562 -0.115922,0.119124 -0.1894532,0.205078 C 1.7727832,25.554584 1.514918,25.884445 1.4375,25.96875 c -0.65422523,0.713712 -0.60841355,1.813563 0.1054687,2.470703 0.713713,0.654228 1.814173,0.607746 2.4707032,-0.105469 0.1623304,-0.176769 0.3215031,-0.371478 0.4472656,-0.527343 0.14654,-0.05166 0.078901,-0.04287 0.4160156,-0.04687 -1.933e-4,2e-6 0.5641832,0.05661 0.5644531,0.05664 0.1843165,0.02248 0.3853474,0.05818 0.3789063,0.05664 0.6037861,0.144696 1.3858002,0.325131 2.0644531,0.421875 0.1923776,0.02743 0.4274454,0.0647 0.7363282,0.07227 0.6123447,0.01499 1.2439464,10e-7 1.6425782,0 0.96957,0 1.75,-0.780429 1.75,-1.75 0,-0.320911 -0.09263,-0.616968 -0.242188,-0.875 0.08972,-0.154797 0.16219,-0.321437 0.201172,-0.501953 0.08882,0.512453 0.398359,0.980883 0.894532,1.246094 l 1.519531,0.8125 c 0.08759,0.04718 0.179802,0.08643 0.277344,0.119141 l 1.21875,0.404297 c 0.920328,0.303988 1.906573,-0.191448 2.210937,-1.111329 0.192425,-0.580965 0.06443,-1.187086 -0.287109,-1.632812 0.178766,-0.2667 0.287421,-0.582572 0.296875,-0.921875 0.778203,-0.371862 1.181039,-1.26191 0.910156,-2.107422 l -0.0039,-0.01367 c 0.391893,0.03684 0.797598,-0.05159 1.146484,-0.289062 0.368357,0.05205 0.754395,-0.01386 1.097656,-0.205078 2.27e-4,3.18e-4 0.0017,-3.19e-4 0.002,0 0.25649,0.359988 0.635184,0.608047 1.060547,0.697265 0.01354,0.169784 0.04688,0.349954 0.113281,0.53711 0.05305,0.14957 0.137722,0.306855 0.242188,0.458984 -0.334966,0.148506 -0.662853,0.374467 -0.941406,0.708984 -0.399236,0.479448 -0.626512,1.161139 -0.527344,1.855469 0.119715,0.838187 0.662828,1.489751 1.238281,1.828125 0.533501,0.313707 1.048802,0.406807 1.517578,0.410156 0.444058,0.0032 0.818789,-0.09673 1.0625,-0.171875 1.099755,-0.339076 1.772173,-1.125683 2.107422,-1.820312 0.06664,-0.05449 0.146823,-0.130493 0.220703,-0.246094 0.319457,-0.499833 0.351188,-0.896452 0.376953,-1.023437 0.04703,-0.231764 0.101891,-0.504161 0.09375,-0.863282 -0.0081,-0.354157 -0.06311,-0.851305 -0.296875,-1.367187 -0.23874,-0.526851 -0.596572,-0.945291 -1.02539,-1.253906 0.139684,-0.472714 0.141096,-1.109855 -0.169922,-1.667969 -0.480076,-0.861451 -1.34608,-1.047858 -1.777344,-1.080078 -0.09158,-0.0068 -0.178205,-0.0094 -0.255859,-0.0098 -0.07765,-3.32e-4 -0.145357,0.0015 -0.201172,0.0039 -0.04241,0.0019 -0.15186,0.0079 -0.158203,0.0098 -0.588787,0.0055 -1.232299,0.131891 -1.791016,0.310547 -0.148407,0.04734 -0.280999,0.117546 -0.40625,0.197265 -0.0081,-0.01139 -0.01304,-0.02389 -0.02148,-0.03516 l -0.230469,-0.304687 c -0.337834,-0.449958 -0.851222,-0.693178 -1.378906,-0.699219 -0.03518,-4.03e-4 -0.07021,2.39e-4 -0.105469,0.002 -0.277734,0.0135 -0.553157,0.09286 -0.802734,0.240234 -0.444226,-0.06473 -0.914151,0.04223 -1.302735,0.333985 -0.281586,0.210732 -0.478744,0.489161 -0.591797,0.794922 -0.117608,-0.0071 -0.23803,-0.0019 -0.359375,0.01563 l -0.761718,0.109375 c -0.217351,-0.305163 -0.528267,-0.535187 -0.886719,-0.650391 -0.162173,-0.05273 -0.331281,-0.08216 -0.503906,-0.08594 -0.05754,-0.0013 -0.116084,0.0013 -0.173828,0.0059 -0.232349,0.01824 -0.454739,0.08193 -0.658203,0.185547 -0.539914,0.275964 -0.875021,0.790079 -0.941407,1.349609 -0.111053,0.05055 -0.230742,0.109637 -0.371093,0.183594 -0.858948,0.451523 -1.18639,1.506011 -0.734375,2.363281 0.164109,0.312192 0.410221,0.549157 0.695312,0.708985 -0.188093,0.148919 -0.348259,0.333256 -0.462891,0.548828 -0.06178,0.116135 -0.106891,0.235932 -0.140625,0.357422 -0.0066,-0.268457 -0.01968,-0.513414 -0.06055,-0.828125 -0.01235,-0.0951 -0.02775,-0.280528 -0.05859,-0.488282 -0.06172,-0.415658 -0.193136,-0.912475 -0.517578,-1.396484 -0.118734,-0.177129 -0.289832,-0.321179 -0.447266,-0.429688 -0.02501,-0.178362 -0.05542,-0.351055 -0.0625,-0.410156 -0.0133,-0.111103 -0.02717,-0.349302 -0.06836,-0.603515 0.0039,0.02438 -0.0198,-1.030647 -0.9179691,-1.730469 -0.5180543,-0.40365 -1.0739848,-0.569061 -1.6074219,-0.601563 -0.063092,-0.0038 -0.1249291,-0.0054 -0.1875,-0.0059 z m 20.005859,8.787109 c -0.96957,0 -1.75,0.78032 -1.75,1.75 -7e-6,-0.06321 -0.0268,0.459437 0.02734,0.865235 0.06641,0.497698 0.298356,1.291055 1.064453,1.8125 0.788139,0.536438 1.55716,0.395665 1.898438,0.332031 0.160784,-0.02998 0.598216,-0.138406 0.628906,-0.150391 0.944319,-0.190241 1.556508,-1.101401 1.373047,-2.048828 -0.154594,-0.79841 -0.824294,-1.361928 -1.597656,-1.414062 -0.244644,-0.670725 -0.887055,-1.146485 -1.644532,-1.146485 z"
			style="fill:#ffdbe8;fill-opacity:1;stroke-linecap:round;stroke-linejoin:round"
			inkscape:path-effect="#path-effect3"
			inkscape:original-d="m 4.9335937,2.2207031 a 0.75,0.75 0 0 0 -0.9433593,0.484375 c -0.075751,0.2368997 -0.1809229,0.5532118 -0.2324219,0.8710938 -1.818e-4,0.00112 4.82e-4,0.027322 0,0.029297 l -0.3417969,0.033203 a 0.750075,0.750075 0 0 0 -0.033203,0.00391 L 2.3164063,3.7910156 A 0.75,0.75 0 0 0 1.6777344,4.6367187 0.75,0.75 0 0 0 2.5253906,5.2753906 L 3.0839844,5.1972656 C 3.017991,5.3874878 2.9517481,5.5816284 2.8320313,5.8964844 2.662455,6.3424709 2.483597,6.7217336 2.4355469,7.2011719 a 0.75,0.75 0 0 0 0.671875,0.8203125 0.75,0.75 0 0 0 0.8203125,-0.671875 C 3.9258253,7.3686582 4.0698697,6.8623373 4.234375,6.4296875 4.3988803,5.9970377 4.5701388,5.6118823 4.6542969,5.2265625 c 0.013877,-0.063535 0.011098,-0.081493 0.021484,-0.1367188 0.057397,0.00578 0.164271,0.032811 0.1894532,0.035156 0.037541,0.0035 0.5025037,0.1789037 0.5058593,0.1816406 0.1715961,0.1399567 0.2505135,0.3789816 0.3339844,0.8144531 0.045369,0.2366897 0.06887,0.3264852 0.074219,0.4921875 0.00722,0.2236672 -0.014012,0.2659959 -0.054687,0.5585938 -0.044087,0.317131 -0.093814,0.6236954 -0.15625,0.9550781 a 0.75,0.75 0 0 0 0.5976562,0.875 0.75,0.75 0 0 0 0.875,-0.5976562 C 7.1076598,8.050579 7.161735,7.7187879 7.2089844,7.3789062 7.2403607,7.1532025 7.2909946,6.9286741 7.2792969,6.5664062 7.2693821,6.259274 7.2157993,6.0384279 7.1777344,5.8398437 7.0847743,5.3548663 6.936319,4.6485496 6.3183594,4.1445312 5.9512485,3.8451107 5.6098357,3.7903114 5.2617187,3.7324219 5.2918752,3.5971675 5.3577032,3.3566889 5.4199219,3.1621094 A 0.75,0.75 0 0 0 4.9335937,2.2207031 Z M 10.775391,2.28125 a 0.75,0.75 0 0 0 -0.554688,0.9023438 c 0.01737,0.072956 0.05368,0.4790169 0.05469,0.5957031 0.0019,0.1933926 0.01918,0.2264326 0.03125,0.2773437 0.005,-0.017107 0.01504,-0.034502 -0.322266,0.060547 A 0.75,0.75 0 0 0 9.4667969,5.0410156 0.75,0.75 0 0 0 10.25,5.5429687 c 0.0015,0.034785 -0.0072,0.051401 -0.0039,0.089844 0.008,0.093469 0.110433,0.2217781 0.162109,0.3457031 l -0.07031,0.1640625 a 0.750075,0.750075 0 0 0 -0.05664,0.2109375 l -0.002,0.025391 -0.3281251,0.109375 A 0.75,0.75 0 0 0 9.4765625,7.4355469 0.75,0.75 0 0 0 10.328125,7.9023437 l 0.0293,0.2285157 A 0.75,0.75 0 0 0 11.197266,8.78125 0.75,0.75 0 0 0 11.845703,7.9414062 l -0.123047,-0.9765625 0.03711,-0.3339843 0.05469,-0.1269532 c 0.03499,-0.017321 0.113351,-0.011772 0.150391,-0.027344 0.09388,-0.039469 0.172654,-0.095176 0.255859,-0.140625 0.09942,0.014751 0.210955,0.094935 0.285156,0.085937 0.222747,-0.027008 0.331559,-0.075826 0.359375,-0.082031 0.314064,-0.070065 1.055716,-0.2148282 1.216797,-0.2167968 0.435432,-0.00532 0.720705,0.1946213 0.751953,0.5996093 0.02416,0.3131687 -0.127353,0.7928264 -0.351562,1.0664063 a 0.75,0.75 0 0 0 0.103516,1.0566406 0.75,0.75 0 0 0 1.05664,-0.1054687 c 0.48954,-0.5973391 0.74518,-1.359904 0.685544,-2.132812 -0.09243,-1.1978796 -1.166409,-1.9978122 -2.265625,-1.984375 -0.40608,0.00496 -0.73972,0.1016468 -1.068359,0.1777343 0.0031,-0.016636 0.0069,-0.015405 0.0098,-0.033203 0.036,-0.2266494 -0.0042,-0.6360191 -0.25,-0.9140625 C 12.567205,3.6422463 12.28693,3.528641 12.089879,3.498047 11.927056,3.472767 11.831118,3.482859 11.746129,3.488277 11.737029,3.2846862 11.738529,3.0829413 11.679719,2.8359332 A 0.75,0.75 0 0 0 10.775391,2.28125 Z M 6.5214844,2.6523438 A 0.75,0.75 0 0 0 6.4042969,3.7070313 L 7.0136719,4.46875 A 0.75,0.75 0 0 0 8.0683594,4.5859375 0.75,0.75 0 0 0 8.1855469,3.53125 L 7.5761719,2.7695313 A 0.75,0.75 0 0 0 6.5214844,2.6523438 Z M 25.798828,3.4785156 a 0.75,0.75 0 0 0 -0.75,0.75 c 0,0.6536717 -0.06275,0.7296277 0.02734,1.4628906 0.07008,0.5703832 0.247855,1.1243966 0.517578,1.6308594 a 0.75,0.75 0 0 0 1.015625,0.3105469 0.75,0.75 0 0 0 0.308594,-1.015625 C 26.734388,6.2724757 26.613161,5.888318 26.566406,5.5078125 26.486885,4.8606393 26.548828,4.9723615 26.548828,4.2285156 a 0.75,0.75 0 0 0 -0.75,-0.75 z M 18.089844,4.09375 a 0.75,0.75 0 0 0 -0.650391,0.8378906 c 0.04798,0.3796065 0.0685,0.4650419 0.07031,0.7480469 a 0.750075,0.750075 0 0 0 0,0.00195 c 0.0011,0.1640803 -0.007,0.3769825 0.03125,0.6367188 0.06593,0.4474002 0.197986,1.1370348 0.876953,1.5292968 a 0.75,0.75 0 0 0 1.02539,-0.2734375 0.75,0.75 0 0 0 -0.27539,-1.0253906 c 0.0094,0.00541 -0.09889,-0.1527393 -0.142578,-0.4492187 -0.01361,-0.092344 -0.01434,-0.234918 -0.01563,-0.4277344 v -0.00195 c -0.0025,-0.3637248 -0.0372,-0.5710866 -0.08203,-0.9257813 A 0.75,0.75 0 0 0 18.089844,4.09375 Z m 3.447265,0.029297 a 0.75,0.75 0 0 0 -0.488281,0.9414062 l 0.457031,1.4472656 A 0.75,0.75 0 0 0 22.447266,7 0.75,0.75 0 0 0 22.935547,6.0585937 L 22.478516,4.6113281 A 0.75,0.75 0 0 0 21.537109,4.123047 Z m 8.216797,0.1308593 a 0.75,0.75 0 0 0 -0.5625,0.1132813 0.75,0.75 0 0 0 -0.207031,1.0390625 C 29.225,5.7662944 29.231633,6.3416424 29.412109,7.0742188 A 0.75,0.75 0 0 0 30.320312,7.623047 0.75,0.75 0 0 0 30.869141,6.7148438 C 30.760975,6.2757826 30.787734,5.4080482 30.230469,4.5742187 A 0.75,0.75 0 0 0 29.753906,4.2539063 Z M 19.173828,11.474609 a 0.75,0.75 0 0 0 -0.75,0.75 v 0.152344 a 0.75,0.75 0 0 0 0.75,0.75 0.75,0.75 0 0 0 0.363281,-0.15039 0.75,0.75 0 0 0 0.626953,0.455078 0.75,0.75 0 0 0 0.75,-0.75 v -0.228516 a 0.75,0.75 0 0 0 -0.75,-0.75 0.75,0.75 0 0 0 -0.355468,0.148438 0.75,0.75 0 0 0 -0.634766,-0.376954 z m -3.605469,0.173829 a 0.75,0.75 0 0 0 -0.46289,0.339843 c -0.100858,0.166473 -0.221825,0.326574 -0.337891,0.566407 -0.02624,0.05422 -0.0074,0.151277 -0.0293,0.216796 -0.127841,-0.0036 -0.290296,-0.0086 -0.544922,0.002 -0.378277,0.01574 -0.643303,0.108283 -0.880859,0.183593 a 0.75,0.75 0 0 0 -0.488281,0.941407 0.75,0.75 0 0 0 0.841797,0.435546 c -0.08439,0.143074 -0.129029,0.226417 -0.230469,0.398438 -0.212703,0.3607 -0.440631,0.739607 -0.550781,1.203125 a 0.75,0.75 0 0 0 0.55664,0.902344 0.75,0.75 0 0 0 0.904297,-0.556641 c 0.02857,-0.120219 0.189292,-0.458938 0.382813,-0.787109 0.193521,-0.328172 0.406822,-0.643469 0.558593,-0.980469 0.03116,-0.06918 0.01455,-0.07958 0.03711,-0.144531 0.07657,0.05595 0.175499,0.127332 0.201172,0.152343 0.334812,0.326192 0.40551,1.105428 0.255859,1.712891 a 0.75,0.75 0 0 0 0.548828,0.908203 0.75,0.75 0 0 0 0.90625,-0.548828 c 0.229927,-0.933315 0.266623,-2.239762 -0.664062,-3.146484 -0.168104,-0.163777 -0.300541,-0.244964 -0.40625,-0.31836 0.04597,-0.07901 0.111642,-0.180045 0.222656,-0.363281 a 0.75,0.75 0 0 0 -0.251953,-1.029297 0.75,0.75 0 0 0 -0.56836,-0.08789 z m 1.947266,0.607421 a 0.75,0.75 0 0 0 -0.566406,0.09375 0.75,0.75 0 0 0 -0.238282,1.035157 l 0.761719,1.216797 a 0.75,0.75 0 0 0 1.033203,0.240234 0.75,0.75 0 0 0 0.238282,-1.035156 l -0.761719,-1.216797 a 0.75,0.75 0 0 0 -0.466797,-0.333985 z m 8.755859,1.820313 a 0.75,0.75 0 0 0 -0.599609,0.875 c 0.01245,0.06683 0.02338,0.269439 0.08203,0.525391 0.05866,0.255951 0.199615,0.643818 0.587891,0.878906 0.401362,0.243012 0.801493,0.213574 1.089844,0.169922 0.28835,-0.04365 0.52165,-0.114676 0.638671,-0.136719 a 0.75,0.75 0 0 0 0.59961,-0.875 0.75,0.75 0 0 0 -0.876953,-0.599609 c -0.248016,0.04672 -0.448331,0.108074 -0.585938,0.128906 -0.0092,0.0014 0.0023,9.99e-4 -0.0059,0.002 -0.01269,-0.08887 -0.0216,-0.18956 -0.05469,-0.367188 a 0.75,0.75 0 0 0 -0.875,-0.601562 z M 3.0390625,14.839844 a 0.75,0.75 0 0 0 -0.59375,0.878906 c 0.025761,0.132764 0.054183,0.417375 0.1601563,0.740234 0.1059728,0.322859 0.3381555,0.76253 0.8242187,0.96875 0.4928997,0.20912 0.8939713,0.11717 1.046875,0.117188 a 0.75,0.75 0 0 0 0.75,-0.75 0.75,0.75 0 0 0 -0.75,-0.75 c -0.3544401,-4.2e-5 -0.4466294,0.008 -0.4609375,0.002 0.058057,0.02463 0.055457,0.06667 0.015625,-0.05469 C 3.991418,15.870879 3.963112,15.666291 3.9179688,15.433638 a 0.75,0.75 0 0 0 -0.8789063,-0.59375 z m 5.1660156,4.148437 c -0.35907,-0.02188 -0.7226552,0.04156 -1.0761719,0.119141 -0.7070333,0.155163 -1.4560938,0.379639 -1.8027343,1.203125 -0.1926434,0.457651 -0.1520386,0.86091 -0.1523438,1.050781 -9.932e-4,0.617621 0.1145126,1.048525 0.085937,1.474609 -0.00642,0.09579 -0.026929,0.1084 -0.1054687,0.357422 -0.1856587,0.588661 -0.095959,1.10542 -0.050781,1.462891 A 0.75,0.75 0 0 0 5.941406,25.306641 0.75,0.75 0 0 0 6.5917967,24.46875 c -0.034704,-0.274595 -0.021368,-0.78124 -0.00781,-0.824219 0.010177,-0.03227 0.024854,-0.11589 0.039063,-0.15625 0.074173,-0.01409 0.1393833,-0.04702 0.2109375,-0.06445 -0.078262,0.106539 -0.1678214,0.194112 -0.2109375,0.349609 -0.069396,0.250276 -0.039311,0.564001 0.082031,0.808594 0.1387893,0.27976 0.3954898,0.480963 0.6308594,0.576172 0.2353696,0.09521 0.4513902,0.113644 0.6484375,0.109375 0.3940946,-0.0085 0.7182581,-0.103729 0.9941406,-0.232422 0.2839305,-0.132445 0.3890567,-0.415973 0.5078125,-0.679687 0.00936,0.142249 0.027344,0.265268 0.027344,0.511718 a 0.75,0.75 0 0 0 0.7500003,0.75 0.75,0.75 0 0 0 0.75,-0.75 c 0,-0.445469 -0.0094,-0.693946 -0.06055,-1.08789 -0.01973,-0.151923 -0.02546,-0.27383 -0.05469,-0.470703 -0.04793,-0.322799 -0.143474,-0.664243 -0.359375,-0.986328 -0.114944,-0.171475 -0.360549,-0.246786 -0.5527351,-0.375 -0.00464,-0.196907 -0.033876,-0.317189 -0.039063,-0.363282 -0.028027,-0.249113 -0.060073,-0.371966 -0.080078,-0.539062 -0.02157,-0.180164 -0.024817,-0.329936 -0.0625,-0.5625 -0.033765,-0.208379 -0.039429,-0.706177 -0.546875,-1.101563 -0.3379798,-0.263342 -0.6936644,-0.3707 -1.0527344,-0.392578 z m 11.4335939,0.175781 a 0.75,0.75 0 0 0 -0.06055,0.421875 l -0.03125,-0.04297 A 0.75,0.75 0 0 0 18.496091,19.392576 0.75,0.75 0 0 0 18.3457,20.443357 l 0.228516,0.304688 a 0.75,0.75 0 0 0 1.050781,0.148437 0.75,0.75 0 0 0 0.244141,-0.355468 0.75,0.75 0 0 0 0.898437,0.126953 0.75,0.75 0 0 0 0.148438,-1.048828 L 20.6875,19.314453 a 0.75,0.75 0 0 0 -1.048828,-0.150391 z m 4.83789,0.376954 c -0.262612,-0.01962 -0.473315,0.0058 -0.505859,0.0059 -0.477824,7.38e-4 -1.01357,0.101261 -1.521484,0.263672 a 0.75,0.75 0 0 0 -0.486328,0.943359 0.75,0.75 0 0 0 0.943359,0.486328 c 0.285277,-0.09122 0.587906,-0.127779 0.837891,-0.152343 -0.1054,0.129602 -0.214276,0.222139 -0.306641,0.443359 0.03734,-0.08945 -0.252537,0.379997 -0.06445,0.910156 0.08395,0.236671 0.361527,0.565212 0.636719,0.660156 0.275191,0.09494 0.401169,0.06793 0.519531,0.07617 0.160035,0.01114 0.321985,0.04044 0.318359,0.03906 0.156279,0.05942 0.34227,0.231115 0.400391,0.359375 0.06174,0.13625 0.06769,0.194541 0.07227,0.394531 -5.04e-4,-0.01447 -0.01656,0.129172 -0.03516,0.25 -0.622088,-0.240763 -1.304898,-0.358006 -1.986328,-0.152344 -0.29303,0.08844 -0.577088,0.24699 -0.800781,0.515625 -0.223693,0.268636 -0.361625,0.675572 -0.304688,1.074219 0.07201,0.50418 0.41062,0.904416 0.75586,1.107422 0.345239,0.203006 0.694384,0.269175 1.017578,0.271484 0.295736,0.0021 0.553719,-0.06342 0.759765,-0.126953 0.821423,-0.253261 1.304487,-0.856096 1.529297,-1.355469 a 0.75,0.75 0 0 0 0.02539,-0.154296 c 0.05793,-0.05869 0.197499,-0.09515 0.226562,-0.140625 0.199203,-0.31168 0.194103,-0.465857 0.238282,-0.683594 0.04418,-0.217737 0.07958,-0.404173 0.07422,-0.640625 -0.0063,-0.276014 -0.04785,-0.62723 -0.207031,-0.978516 -0.250531,-0.55287 -0.700206,-0.938254 -1.232422,-1.140625 -0.127903,-0.04864 -0.187489,-0.0342 -0.292968,-0.05273 0.06332,-0.08394 0.05277,-0.06168 0.142578,-0.183594 0.09174,-0.124534 0.208847,-0.279595 0.294922,-0.523437 0.08608,-0.243843 0.103687,-0.635033 -0.07031,-0.947266 C 25.20528,19.661162 24.739183,19.560676 24.47657,19.541056 Z M 14.988281,19.8125 a 0.75,0.75 0 0 0 -0.572265,0.04492 0.75,0.75 0 0 0 -0.326172,1.009765 l 0.06445,0.123047 c -0.271693,0.07377 -0.460262,0.08851 -1.041016,0.394532 a 0.75,0.75 0 0 0 -0.314453,1.013671 0.75,0.75 0 0 0 1.013672,0.314454 c 0.438421,-0.23102 0.754991,-0.309877 1.097656,-0.421875 0.01119,0.04051 0.01634,0.08403 0.02734,0.121093 -0.142352,0.0346 -0.152855,0.08977 -0.517578,0.105469 a 0.75,0.75 0 0 0 -0.716797,0.78125 0.75,0.75 0 0 0 0.78125,0.716797 c 0.547667,-0.02358 0.754014,-0.145158 1.054688,-0.244141 0.02821,0.134947 0.06159,0.287744 0.07031,0.394532 a 0.75,0.75 0 0 0 0.808594,0.685546 0.75,0.75 0 0 0 0.685547,-0.808593 c -0.01773,-0.217048 -0.0638,-0.406353 -0.105469,-0.59375 0.175848,-0.04528 0.246086,-0.0468 0.576172,-0.152344 a 0.75,0.75 0 0 0 0.486328,-0.943359 0.75,0.75 0 0 0 -0.886719,-0.458985 l 0.126953,-0.01758 A 0.75,0.75 0 0 0 17.9375,21.029297 0.75,0.75 0 0 0 17.087891,20.392578 l -1.294922,0.185547 a 0.750075,0.750075 0 0 0 -0.04687,0.0078 l -0.103516,0.02148 -0.216797,-0.423828 A 0.75,0.75 0 0 0 14.988281,19.8125 Z M 7.7832031,20.570312 C 7.6091121,20.637899 7.3233805,20.805341 7.125,21.041016 6.9014572,21.306583 6.8404954,21.63551 6.8261719,21.898437 c -0.035415,0.01471 -0.087297,0.02274 -0.1230469,0.03516 -0.019269,-0.171709 -0.029511,-0.435099 -0.029297,-0.56836 4.339e-4,-0.269929 0.0055,-0.402193 0.035156,-0.472656 -0.045725,0.108624 0.2878193,-0.218645 0.7421875,-0.318359 0.1705148,-0.03742 0.1819067,-0.0115 0.3320312,-0.0039 z m -5.1308593,0.03516 a 0.75,0.75 0 0 0 0,1.060547 L 3.109375,22.12305 a 0.75,0.75 0 0 0 1.0605469,0 0.75,0.75 0 0 0 0,-1.0625 L 3.7128906,20.605469 a 0.75,0.75 0 0 0 -1.0605468,0 z m 14.1738282,1.339843 c -0.166996,0.04904 -0.336235,0.09477 -0.439453,0.117188 -0.0045,-0.01534 -0.0074,-0.03741 -0.01172,-0.05273 z M 3.3769531,22.314453 c -0.2888133,0.03839 -0.5228202,0.121671 -0.6503906,0.162109 a 0.75,0.75 0 0 0 -0.4882812,0.941407 0.75,0.75 0 0 0 0.9414062,0.488281 c 0.066661,-0.02113 0.1197573,-0.03065 0.1855469,-0.04883 -0.00816,0.179052 -0.034363,0.381587 -0.054687,0.511719 -0.031826,0.203766 -0.1448157,0.722214 -0.1855469,0.996093 -0.031535,0.212035 -0.033489,0.222294 -0.041016,0.234375 -0.053555,0.08596 -0.138309,0.122445 -0.359375,0.38086 -0.1877566,0.219475 -0.3969324,0.496529 -0.5507813,0.664062 a 0.75,0.75 0 0 0 0.044922,1.058594 0.75,0.75 0 0 0 1.0585938,-0.04492 c 0.2347657,-0.255647 0.4563208,-0.549659 0.5859375,-0.701172 0.011036,-0.0129 0.091156,-0.110061 0.1210937,-0.136719 a 0.75,0.75 0 0 0 0.109375,0.05664 c 0.2453996,-0.0776 0.3339887,-0.111986 0.7714844,-0.117187 0.1311252,-0.0015 0.9345165,0.08 1.1875,0.140625 0.6166367,0.147776 1.3363471,0.313588 1.9726562,0.404296 0.1984845,0.0283 0.3806869,0.05661 0.6210938,0.0625 0.5999352,0.01469 1.1831353,1e-6 1.6171874,0 a 0.75,0.75 0 0 0 0.75,-0.75 0.75,0.75 0 0 0 -0.75,-0.75 c -0.463078,0 -1.027084,0.01355 -1.580078,0 -0.151229,-0.0037 -0.239486,-0.01753 -0.4453125,-0.04687 C 7.7025872,25.743946 7.007096,25.586338 6.4023439,25.44141 5.911808,25.32385 5.2804411,25.254863 4.8496096,25.25977 c -0.086444,9.95e-4 -0.1078032,0.02452 -0.1855469,0.0293 0.042999,-0.221065 0.094426,-0.46674 0.1289062,-0.6875 0.021462,-0.137415 0.072078,-0.436849 0.078125,-0.771484 C 4.8771405,23.495443 4.9311327,23.076867 4.5,22.636719 4.1195111,22.248266 3.6657664,22.276067 3.3769531,22.314453 Z m 10.0957029,1.910156 a 0.75,0.75 0 0 0 -0.443359,0.365235 0.75,0.75 0 0 0 0.308594,1.013672 l 1.523437,0.814453 a 0.750075,0.750075 0 0 0 0.117188,0.05078 l 1.21875,0.404297 a 0.75,0.75 0 0 0 0.947265,-0.476563 0.75,0.75 0 0 0 -0.474609,-0.947265 L 15.511719,25.064453 14.044922,24.28125 a 0.75,0.75 0 0 0 -0.572266,-0.05664 z m 10.441406,1.296875 c 0.02895,-0.0052 0.06319,0.01292 0.0918,0.0098 -0.0084,1.68e-4 -0.0202,0.0059 -0.0293,0.0059 -0.02028,-1.45e-4 -0.039,-0.0123 -0.0625,-0.01563 z m 4.169922,2.25 a 0.75,0.75 0 0 0 -0.75,0.75 c 1.1e-5,0.100065 -0.02582,0.392535 0.01953,0.732422 0.04535,0.339887 0.191141,0.817188 0.634765,1.119141 0.435702,0.296556 0.858866,0.230502 1.152344,0.175781 0.293478,-0.05472 0.540352,-0.135053 0.609375,-0.148437 a 0.75,0.75 0 0 0 0.59375,-0.878907 0.75,0.75 0 0 0 -0.878906,-0.59375 c -0.257566,0.04995 -0.454128,0.119359 -0.59961,0.146485 -0.145481,0.02713 -0.156264,-0.02517 -0.0332,0.05859 0.04211,0.02867 0.02484,0.04948 0.0078,-0.07813 -0.01703,-0.127601 -0.0058,-0.313987 -0.0059,-0.533203 a 0.75,0.75 0 0 0 -0.75,-0.75 z"
		/>
		<path
			d="m 4.9335937,2.2207031 a 0.75,0.75 0 0 0 -0.9433593,0.484375 c -0.075751,0.2368997 -0.1809229,0.5532118 -0.2324219,0.8710938 -1.818e-4,0.00112 4.82e-4,0.027322 0,0.029297 l -0.3417969,0.033203 a 0.750075,0.750075 0 0 0 -0.033203,0.00391 L 2.3164063,3.7910156 A 0.75,0.75 0 0 0 1.6777344,4.6367187 0.75,0.75 0 0 0 2.5253906,5.2753906 L 3.0839844,5.1972656 C 3.017991,5.3874878 2.9517481,5.5816284 2.8320313,5.8964844 2.662455,6.3424709 2.483597,6.7217336 2.4355469,7.2011719 a 0.75,0.75 0 0 0 0.671875,0.8203125 0.75,0.75 0 0 0 0.8203125,-0.671875 C 3.9258253,7.3686582 4.0698697,6.8623373 4.234375,6.4296875 4.3988803,5.9970377 4.5701388,5.6118823 4.6542969,5.2265625 c 0.013877,-0.063535 0.011098,-0.081493 0.021484,-0.1367188 0.057397,0.00578 0.164271,0.032811 0.1894532,0.035156 0.037541,0.0035 0.5025037,0.1789037 0.5058593,0.1816406 0.1715961,0.1399567 0.2505135,0.3789816 0.3339844,0.8144531 0.045369,0.2366897 0.06887,0.3264852 0.074219,0.4921875 0.00722,0.2236672 -0.014012,0.2659959 -0.054687,0.5585938 -0.044087,0.317131 -0.093814,0.6236954 -0.15625,0.9550781 a 0.75,0.75 0 0 0 0.5976562,0.875 0.75,0.75 0 0 0 0.875,-0.5976562 C 7.1076598,8.050579 7.161735,7.7187879 7.2089844,7.3789062 7.2403607,7.1532025 7.2909946,6.9286741 7.2792969,6.5664062 7.2693821,6.259274 7.2157993,6.0384279 7.1777344,5.8398437 7.0847743,5.3548663 6.936319,4.6485496 6.3183594,4.1445312 5.9512485,3.8451107 5.6098357,3.7903114 5.2617187,3.7324219 5.2918752,3.5971675 5.3577032,3.3566889 5.4199219,3.1621094 A 0.75,0.75 0 0 0 4.9335937,2.2207031 Z M 10.775391,2.28125 a 0.75,0.75 0 0 0 -0.554688,0.9023438 c 0.01737,0.072956 0.05368,0.4790169 0.05469,0.5957031 0.0019,0.1933926 0.01918,0.2264326 0.03125,0.2773437 0.005,-0.017107 0.01504,-0.034502 -0.322266,0.060547 A 0.75,0.75 0 0 0 9.4667969,5.0410156 0.75,0.75 0 0 0 10.25,5.5429687 c 0.0015,0.034785 -0.0072,0.051401 -0.0039,0.089844 0.008,0.093469 0.110433,0.2217781 0.162109,0.3457031 l -0.07031,0.1640625 a 0.750075,0.750075 0 0 0 -0.05664,0.2109375 l -0.002,0.025391 -0.3281251,0.109375 A 0.75,0.75 0 0 0 9.4765625,7.4355469 0.75,0.75 0 0 0 10.328125,7.9023437 l 0.0293,0.2285157 A 0.75,0.75 0 0 0 11.197266,8.78125 0.75,0.75 0 0 0 11.845703,7.9414062 l -0.123047,-0.9765625 0.03711,-0.3339843 0.05469,-0.1269532 c 0.03499,-0.017321 0.113351,-0.011772 0.150391,-0.027344 0.09388,-0.039469 0.172654,-0.095176 0.255859,-0.140625 0.09942,0.014751 0.210955,0.094935 0.285156,0.085937 0.222747,-0.027008 0.331559,-0.075826 0.359375,-0.082031 0.314064,-0.070065 1.055716,-0.2148282 1.216797,-0.2167968 0.435432,-0.00532 0.720705,0.1946213 0.751953,0.5996093 0.02416,0.3131687 -0.127353,0.7928264 -0.351562,1.0664063 a 0.75,0.75 0 0 0 0.103516,1.0566406 0.75,0.75 0 0 0 1.05664,-0.1054687 C 16.132121,8.1428948 16.387761,7.3803299 16.328125,6.6074219 16.235698,5.4095423 15.161716,4.6096097 14.0625,4.6230469 c -0.40608,0.00496 -0.73972,0.1016468 -1.068359,0.1777343 0.0031,-0.016636 0.0069,-0.015405 0.0098,-0.033203 0.036,-0.2266494 -0.0042,-0.6360191 -0.25,-0.9140625 -0.186736,-0.2112694 -0.467011,-0.3248747 -0.664062,-0.3554687 -0.162823,-0.02528 -0.258761,-0.015188 -0.34375,-0.00977 -0.0091,-0.2035908 -0.0076,-0.4053357 -0.06641,-0.6523438 A 0.75,0.75 0 0 0 10.775391,2.28125 Z M 6.5214844,2.6523438 A 0.75,0.75 0 0 0 6.4042969,3.7070313 L 7.0136719,4.46875 A 0.75,0.75 0 0 0 8.0683594,4.5859375 0.75,0.75 0 0 0 8.1855469,3.53125 L 7.5761719,2.7695313 A 0.75,0.75 0 0 0 6.5214844,2.6523438 Z M 25.798828,3.4785156 a 0.75,0.75 0 0 0 -0.75,0.75 c 0,0.6536717 -0.06275,0.7296277 0.02734,1.4628906 0.07008,0.5703832 0.247855,1.1243966 0.517578,1.6308594 a 0.75,0.75 0 0 0 1.015625,0.3105469 0.75,0.75 0 0 0 0.308594,-1.015625 C 26.734388,6.2724757 26.613161,5.888318 26.566406,5.5078125 26.486885,4.8606393 26.548828,4.9723615 26.548828,4.2285156 a 0.75,0.75 0 0 0 -0.75,-0.75 z M 18.089844,4.09375 a 0.75,0.75 0 0 0 -0.650391,0.8378906 c 0.04798,0.3796065 0.0685,0.4650419 0.07031,0.7480469 a 0.750075,0.750075 0 0 0 0,0.00195 c 0.0011,0.1640803 -0.007,0.3769825 0.03125,0.6367188 0.06593,0.4474002 0.197986,1.1370348 0.876953,1.5292968 a 0.75,0.75 0 0 0 1.02539,-0.2734375 0.75,0.75 0 0 0 -0.27539,-1.0253906 c 0.0094,0.00541 -0.09889,-0.1527393 -0.142578,-0.4492187 -0.01361,-0.092344 -0.01434,-0.234918 -0.01563,-0.4277344 v -0.00195 c -0.0025,-0.3637248 -0.0372,-0.5710866 -0.08203,-0.9257813 A 0.75,0.75 0 0 0 18.089844,4.09375 Z m 3.447265,0.029297 a 0.75,0.75 0 0 0 -0.488281,0.9414062 l 0.457031,1.4472656 A 0.75,0.75 0 0 0 22.447266,7 0.75,0.75 0 0 0 22.935547,6.0585937 L 22.478516,4.6113281 A 0.75,0.75 0 0 0 21.537109,4.1230469 Z m 8.216797,0.1308593 a 0.75,0.75 0 0 0 -0.5625,0.1132813 0.75,0.75 0 0 0 -0.207031,1.0390625 c 0.240625,0.3600443 0.247258,0.9353923 0.427734,1.6679687 a 0.75,0.75 0 0 0 0.908203,0.5488282 0.75,0.75 0 0 0 0.548829,-0.9082032 C 30.760975,6.2757826 30.787734,5.4080482 30.230469,4.5742187 A 0.75,0.75 0 0 0 29.753906,4.2539062 Z M 19.173828,11.474609 a 0.75,0.75 0 0 0 -0.75,0.75 v 0.152344 a 0.75,0.75 0 0 0 0.75,0.75 0.75,0.75 0 0 0 0.363281,-0.15039 0.75,0.75 0 0 0 0.626953,0.455078 0.75,0.75 0 0 0 0.75,-0.75 v -0.228516 a 0.75,0.75 0 0 0 -0.75,-0.75 0.75,0.75 0 0 0 -0.355468,0.148438 0.75,0.75 0 0 0 -0.634766,-0.376954 z m -3.605469,0.173829 a 0.75,0.75 0 0 0 -0.46289,0.339843 c -0.100858,0.166473 -0.221825,0.326574 -0.337891,0.566407 -0.02624,0.05422 -0.0074,0.151277 -0.0293,0.216796 -0.127841,-0.0036 -0.290296,-0.0086 -0.544922,0.002 -0.378277,0.01574 -0.643303,0.108283 -0.880859,0.183593 a 0.75,0.75 0 0 0 -0.488281,0.941407 0.75,0.75 0 0 0 0.841797,0.435546 c -0.08439,0.143074 -0.129029,0.226417 -0.230469,0.398438 -0.212703,0.3607 -0.440631,0.739607 -0.550781,1.203125 a 0.75,0.75 0 0 0 0.55664,0.902344 0.75,0.75 0 0 0 0.904297,-0.556641 c 0.02857,-0.120219 0.189292,-0.458938 0.382813,-0.787109 0.193521,-0.328172 0.406822,-0.643469 0.558593,-0.980469 0.03116,-0.06918 0.01455,-0.07958 0.03711,-0.144531 0.07657,0.05595 0.175499,0.127332 0.201172,0.152343 0.334812,0.326192 0.40551,1.105428 0.255859,1.712891 a 0.75,0.75 0 0 0 0.548828,0.908203 0.75,0.75 0 0 0 0.90625,-0.548828 c 0.229927,-0.933315 0.266623,-2.239762 -0.664062,-3.146484 -0.168104,-0.163777 -0.300541,-0.244964 -0.40625,-0.31836 0.04597,-0.07901 0.111642,-0.180045 0.222656,-0.363281 a 0.75,0.75 0 0 0 -0.251953,-1.029297 0.75,0.75 0 0 0 -0.56836,-0.08789 z m 1.947266,0.607421 a 0.75,0.75 0 0 0 -0.566406,0.09375 0.75,0.75 0 0 0 -0.238282,1.035157 l 0.761719,1.216797 a 0.75,0.75 0 0 0 1.033203,0.240234 0.75,0.75 0 0 0 0.238282,-1.035156 l -0.761719,-1.216797 a 0.75,0.75 0 0 0 -0.466797,-0.333985 z m 8.755859,1.820313 a 0.75,0.75 0 0 0 -0.599609,0.875 c 0.01245,0.06683 0.02338,0.269439 0.08203,0.525391 0.05866,0.255951 0.199615,0.643818 0.587891,0.878906 0.401362,0.243012 0.801493,0.213574 1.089844,0.169922 0.28835,-0.04365 0.52165,-0.114676 0.638671,-0.136719 a 0.75,0.75 0 0 0 0.59961,-0.875 0.75,0.75 0 0 0 -0.876953,-0.599609 c -0.248016,0.04672 -0.448331,0.108074 -0.585938,0.128906 -0.0092,0.0014 0.0023,9.99e-4 -0.0059,0.002 -0.01269,-0.08887 -0.0216,-0.18956 -0.05469,-0.367188 a 0.75,0.75 0 0 0 -0.875,-0.601562 z M 3.0390625,14.839844 a 0.75,0.75 0 0 0 -0.59375,0.878906 c 0.025761,0.132764 0.054183,0.417375 0.1601563,0.740234 0.1059728,0.322859 0.3381555,0.76253 0.8242187,0.96875 0.4928997,0.20912 0.8939713,0.11717 1.046875,0.117188 a 0.75,0.75 0 0 0 0.75,-0.75 0.75,0.75 0 0 0 -0.75,-0.75 c -0.3544401,-4.2e-5 -0.4466294,0.008 -0.4609375,0.002 0.058057,0.02463 0.055457,0.06667 0.015625,-0.05469 -0.039832,-0.121353 -0.068138,-0.325941 -0.1132812,-0.558594 a 0.75,0.75 0 0 0 -0.8789063,-0.59375 z m 5.1660156,4.148437 c -0.35907,-0.02188 -0.7226552,0.04156 -1.0761719,0.119141 -0.7070333,0.155163 -1.4560938,0.379639 -1.8027343,1.203125 -0.1926434,0.457651 -0.1520386,0.86091 -0.1523438,1.050781 -9.932e-4,0.617621 0.1145126,1.048525 0.085937,1.474609 -0.00642,0.09579 -0.026929,0.1084 -0.1054687,0.357422 -0.1856587,0.588661 -0.095959,1.10542 -0.050781,1.462891 a 0.75,0.75 0 0 0 0.8378906,0.650391 0.75,0.75 0 0 0 0.6503907,-0.837891 c -0.034704,-0.274595 -0.021368,-0.78124 -0.00781,-0.824219 0.010177,-0.03227 0.024854,-0.11589 0.039063,-0.15625 0.074173,-0.01409 0.1393833,-0.04702 0.2109375,-0.06445 -0.078262,0.106539 -0.1678214,0.194112 -0.2109375,0.349609 -0.069396,0.250276 -0.039311,0.564001 0.082031,0.808594 0.1387893,0.27976 0.3954898,0.480963 0.6308594,0.576172 0.2353696,0.09521 0.4513902,0.113644 0.6484375,0.109375 0.3940946,-0.0085 0.7182581,-0.103729 0.9941406,-0.232422 0.2839305,-0.132445 0.3890567,-0.415973 0.5078125,-0.679687 0.00936,0.142249 0.027344,0.265268 0.027344,0.511718 a 0.75,0.75 0 0 0 0.7500001,0.75 0.75,0.75 0 0 0 0.75,-0.75 c 0,-0.445469 -0.0094,-0.693946 -0.06055,-1.08789 -0.01973,-0.151923 -0.02546,-0.27383 -0.05469,-0.470703 -0.04793,-0.322799 -0.143474,-0.664243 -0.359375,-0.986328 -0.114944,-0.171475 -0.360549,-0.246786 -0.5527349,-0.375 -0.00464,-0.196907 -0.033876,-0.317189 -0.039063,-0.363282 -0.028027,-0.249113 -0.060073,-0.371966 -0.080078,-0.539062 -0.02157,-0.180164 -0.024817,-0.329936 -0.0625,-0.5625 -0.033765,-0.208379 -0.039429,-0.706177 -0.546875,-1.101563 -0.3379798,-0.263342 -0.6936644,-0.3707 -1.0527344,-0.392578 z m 11.4335939,0.175781 a 0.75,0.75 0 0 0 -0.06055,0.421875 l -0.03125,-0.04297 a 0.75,0.75 0 0 0 -1.050781,-0.150391 0.75,0.75 0 0 0 -0.150391,1.050781 l 0.228516,0.304688 a 0.75,0.75 0 0 0 1.050781,0.148437 0.75,0.75 0 0 0 0.244141,-0.355468 0.75,0.75 0 0 0 0.898437,0.126953 0.75,0.75 0 0 0 0.148438,-1.048828 L 20.6875,19.314453 a 0.75,0.75 0 0 0 -1.048828,-0.150391 z m 4.83789,0.376954 c -0.262612,-0.01962 -0.473315,0.0058 -0.505859,0.0059 -0.477824,7.38e-4 -1.01357,0.101261 -1.521484,0.263672 a 0.75,0.75 0 0 0 -0.486328,0.943359 0.75,0.75 0 0 0 0.943359,0.486328 c 0.285277,-0.09122 0.587906,-0.127779 0.837891,-0.152343 -0.1054,0.129602 -0.214276,0.222139 -0.306641,0.443359 0.03734,-0.08945 -0.252537,0.379997 -0.06445,0.910156 0.08395,0.236671 0.361527,0.565212 0.636719,0.660156 0.275191,0.09494 0.401169,0.06793 0.519531,0.07617 0.160035,0.01114 0.321985,0.04044 0.318359,0.03906 0.156279,0.05942 0.34227,0.231115 0.400391,0.359375 0.06174,0.13625 0.06769,0.194541 0.07227,0.394531 -5.04e-4,-0.01447 -0.01656,0.129172 -0.03516,0.25 -0.622088,-0.240763 -1.304898,-0.358006 -1.986328,-0.152344 -0.29303,0.08844 -0.577088,0.24699 -0.800781,0.515625 -0.223693,0.268636 -0.361625,0.675572 -0.304688,1.074219 0.07201,0.50418 0.41062,0.904416 0.75586,1.107422 0.345239,0.203006 0.694384,0.269175 1.017578,0.271484 0.295736,0.0021 0.553719,-0.06342 0.759765,-0.126953 0.821423,-0.253261 1.304487,-0.856096 1.529297,-1.355469 a 0.75,0.75 0 0 0 0.02539,-0.154296 c 0.05793,-0.05869 0.197499,-0.09515 0.226562,-0.140625 0.199203,-0.31168 0.194103,-0.465857 0.238282,-0.683594 0.04418,-0.217737 0.07958,-0.404173 0.07422,-0.640625 -0.0063,-0.276014 -0.04785,-0.62723 -0.207031,-0.978516 -0.250531,-0.55287 -0.700206,-0.938254 -1.232422,-1.140625 -0.127903,-0.04864 -0.187489,-0.0342 -0.292968,-0.05273 0.06332,-0.08394 0.05277,-0.06168 0.142578,-0.183594 0.09174,-0.124534 0.208847,-0.279595 0.294922,-0.523437 0.08608,-0.243843 0.103687,-0.635033 -0.07031,-0.947266 -0.249806,-0.448253 -0.715903,-0.548739 -0.978516,-0.568359 z M 14.988281,19.8125 a 0.75,0.75 0 0 0 -0.572265,0.04492 0.75,0.75 0 0 0 -0.326172,1.009765 l 0.06445,0.123047 c -0.271693,0.07377 -0.460262,0.08851 -1.041016,0.394532 a 0.75,0.75 0 0 0 -0.314453,1.013671 0.75,0.75 0 0 0 1.013672,0.314454 c 0.438421,-0.23102 0.754991,-0.309877 1.097656,-0.421875 0.01119,0.04051 0.01634,0.08403 0.02734,0.121093 -0.142352,0.0346 -0.152855,0.08977 -0.517578,0.105469 a 0.75,0.75 0 0 0 -0.716797,0.78125 0.75,0.75 0 0 0 0.78125,0.716797 c 0.547667,-0.02358 0.754014,-0.145158 1.054688,-0.244141 0.02821,0.134947 0.06159,0.287744 0.07031,0.394532 a 0.75,0.75 0 0 0 0.808594,0.685546 0.75,0.75 0 0 0 0.685547,-0.808593 c -0.01773,-0.217048 -0.0638,-0.406353 -0.105469,-0.59375 0.175848,-0.04528 0.246086,-0.0468 0.576172,-0.152344 a 0.75,0.75 0 0 0 0.486328,-0.943359 0.75,0.75 0 0 0 -0.886719,-0.458985 l 0.126953,-0.01758 A 0.75,0.75 0 0 0 17.9375,21.029297 0.75,0.75 0 0 0 17.087891,20.392578 l -1.294922,0.185547 a 0.750075,0.750075 0 0 0 -0.04687,0.0078 l -0.103516,0.02148 -0.216797,-0.423828 A 0.75,0.75 0 0 0 14.988281,19.8125 Z M 7.7832031,20.570312 C 7.6091121,20.637899 7.3233805,20.805341 7.125,21.041016 6.9014572,21.306583 6.8404954,21.63551 6.8261719,21.898437 c -0.035415,0.01471 -0.087297,0.02274 -0.1230469,0.03516 -0.019269,-0.171709 -0.029511,-0.435099 -0.029297,-0.56836 4.339e-4,-0.269929 0.0055,-0.402193 0.035156,-0.472656 -0.045725,0.108624 0.2878193,-0.218645 0.7421875,-0.318359 0.1705148,-0.03742 0.1819067,-0.0115 0.3320312,-0.0039 z m -5.1308593,0.03516 a 0.75,0.75 0 0 0 0,1.060547 l 0.4570312,0.457031 a 0.75,0.75 0 0 0 1.0605469,0 0.75,0.75 0 0 0 0,-1.0625 L 3.7128906,20.605469 a 0.75,0.75 0 0 0 -1.0605468,0 z m 14.1738282,1.339843 c -0.166996,0.04904 -0.336235,0.09477 -0.439453,0.117188 -0.0045,-0.01534 -0.0074,-0.03741 -0.01172,-0.05273 z M 3.3769531,22.314453 c -0.2888133,0.03839 -0.5228202,0.121671 -0.6503906,0.162109 a 0.75,0.75 0 0 0 -0.4882812,0.941407 0.75,0.75 0 0 0 0.9414062,0.488281 c 0.066661,-0.02113 0.1197573,-0.03065 0.1855469,-0.04883 -0.00816,0.179052 -0.034363,0.381587 -0.054687,0.511719 -0.031826,0.203766 -0.1448157,0.722214 -0.1855469,0.996093 -0.031535,0.212035 -0.033489,0.222294 -0.041016,0.234375 -0.053555,0.08596 -0.138309,0.122445 -0.359375,0.38086 -0.1877566,0.219475 -0.3969324,0.496529 -0.5507813,0.664062 a 0.75,0.75 0 0 0 0.044922,1.058594 0.75,0.75 0 0 0 1.0585938,-0.04492 c 0.2347657,-0.255647 0.4563208,-0.549659 0.5859375,-0.701172 0.011036,-0.0129 0.091156,-0.110061 0.1210937,-0.136719 a 0.75,0.75 0 0 0 0.109375,0.05664 c 0.2453996,-0.0776 0.3339887,-0.111986 0.7714844,-0.117187 0.1311252,-0.0015 0.9345165,0.08 1.1875,0.140625 0.6166367,0.147776 1.3363471,0.313588 1.9726562,0.404296 0.1984845,0.0283 0.3806869,0.05661 0.6210938,0.0625 0.5999352,0.01469 1.1831353,10e-7 1.6171876,0 a 0.75,0.75 0 0 0 0.75,-0.75 0.75,0.75 0 0 0 -0.75,-0.75 c -0.4630782,0 -1.0270842,0.01355 -1.5800782,0 -0.151229,-0.0037 -0.239486,-0.01753 -0.4453125,-0.04687 -0.5356943,-0.07637 -1.2311855,-0.233978 -1.8359376,-0.378906 -0.4905359,-0.11756 -1.1219028,-0.186547 -1.5527343,-0.18164 -0.086444,9.95e-4 -0.1078032,0.02452 -0.1855469,0.0293 0.042999,-0.221065 0.094426,-0.46674 0.1289062,-0.6875 0.021462,-0.137415 0.072078,-0.436849 0.078125,-0.771484 C 4.8771405,23.495443 4.9311327,23.076867 4.5,22.636719 4.1195111,22.248266 3.6657664,22.276067 3.3769531,22.314453 Z m 10.0957029,1.910156 a 0.75,0.75 0 0 0 -0.443359,0.365235 0.75,0.75 0 0 0 0.308594,1.013672 l 1.523437,0.814453 a 0.750075,0.750075 0 0 0 0.117188,0.05078 l 1.21875,0.404297 a 0.75,0.75 0 0 0 0.947265,-0.476563 0.75,0.75 0 0 0 -0.474609,-0.947265 L 15.511719,25.064453 14.044922,24.28125 a 0.75,0.75 0 0 0 -0.572266,-0.05664 z m 10.441406,1.296875 c 0.02895,-0.0052 0.06319,0.01292 0.0918,0.0098 -0.0084,1.68e-4 -0.0202,0.0059 -0.0293,0.0059 -0.02028,-1.45e-4 -0.039,-0.0123 -0.0625,-0.01563 z m 4.169922,2.25 a 0.75,0.75 0 0 0 -0.75,0.75 c 1.1e-5,0.100065 -0.02582,0.392535 0.01953,0.732422 0.04535,0.339887 0.191141,0.817188 0.634765,1.119141 0.435702,0.296556 0.858866,0.230502 1.152344,0.175781 0.293478,-0.05472 0.540352,-0.135053 0.609375,-0.148437 a 0.75,0.75 0 0 0 0.59375,-0.878907 0.75,0.75 0 0 0 -0.878906,-0.59375 c -0.257566,0.04995 -0.454128,0.119359 -0.59961,0.146485 -0.145481,0.02713 -0.156264,-0.02517 -0.0332,0.05859 0.04211,0.02867 0.02484,0.04948 0.0078,-0.07813 -0.01703,-0.127601 -0.0058,-0.313987 -0.0059,-0.533203 a 0.75,0.75 0 0 0 -0.75,-0.75 z"
			style="fill:#ea618e;stroke-linecap:round;stroke-linejoin:round;fill-opacity:1"
		/>
	</g>
</svg>
