<?xml version="1.0" encoding="UTF-8" standalone="no"?>
<!-- Created with Inkscape (http://www.inkscape.org/) -->
<svg
	xmlns="http://www.w3.org/2000/svg"
	xmlns:cc="http://creativecommons.org/ns#"
	xmlns:dc="http://purl.org/dc/elements/1.1/"
	xmlns:inkscape="http://www.inkscape.org/namespaces/inkscape"
	xmlns:rdf="http://www.w3.org/1999/02/22-rdf-syntax-ns#"
	xmlns:sodipodi="http://sodipodi.sourceforge.net/DTD/sodipodi-0.dtd"
	xmlns:svg="http://www.w3.org/2000/svg"
	xmlns:xlink="http://www.w3.org/1999/xlink"
	width="80"
	height="24"
	viewBox="0 0 80 24"
	version="1.1"
	xml:space="preserve"
	inkscape:version="1.3.2 (091e20ef0f, 2023-11-25, custom)"
	>
	<title>Kiskuluva!</title>
	<metadata>
		<rdf:RDF>
			<cc:Work rdf:about="">
				<cc:license rdf:resource="http://www.opensource.org/licenses/mit-license.php" />
				<dc:title>Kiskuluva!</dc:title>
				<dc:date>2024-12-17</dc:date>
				<dc:creator><cc:Agent><dc:title>zawa-ch.</dc:title></cc:Agent></dc:creator>
				<dc:rights><cc:Agent><dc:title>Copyright 2024 zawa-ch.</dc:title></cc:Agent></dc:rights>
				<dc:identifier>stellar_ch-handwrittenkiskuluva</dc:identifier>
			</cc:Work>
		</rdf:RDF>
	</metadata>
	<sodipodi:namedview
		pagecolor="#505050"
		bordercolor="#eeeeee"
		borderopacity="1"
		inkscape:showpageshadow="0"
		inkscape:pageopacity="0"
		inkscape:pagecheckerboard="0"
		inkscape:deskcolor="#d1d1d1"
		inkscape:document-units="px"
		showgrid="false"
		>
		<inkscape:grid units="px" originx="0" originy="0" spacingx="1" spacingy="1" empspacing="8" dotted="false" gridanglex="30" gridanglez="30" visible="false" />
	</sodipodi:namedview>
	<defs />
	<g inkscape:groupmode="layer">
		<path
			d="m 56.301888,8.6037736 c 0,-1.6953183 -0.262777,-2.7560932 0.528301,-3.5471693 0.663163,-0.663163 1.244101,-0.5151827 2.18868,-0.5283024 2.091576,-0.02905 3.429967,-0.3994049 4.301888,0.9811326 0.49162,0.7784056 0.261792,1.792416 0.226415,2.6415089 -0.06146,1.47514 -0.127421,4.3924326 -0.981135,5.4339626 -1.102709,1.345303 -3.268478,0.90566 -4.905658,0.90566 M 6.4905634,18.566038 C 7.9640612,15.066479 6.5374721,8.7273024 8.5282994,5.9622647 9.1406266,5.1118106 14.526687,5.3807822 15.320753,6.7924528 c 0.969445,1.7234578 -0.07863,4.4676902 -0.226415,6.3396222 m 11.773586,0.905661 c 0.877633,-2.08438 0.05754,-5.3350008 1.132075,-7.2452832 1.092487,-1.9421997 4.925168,-1.8101634 6.037738,-0.4528302 1.839515,2.2442098 0.07547,9.2220654 0.07547,12.2264154 m 6.339623,-4.075472 c 0,-1.704253 0.45283,-4.311321 0.45283,-5.8867924 0,-1.03561 -0.224608,-1.4321111 0.07547,-2.264151 0.331601,-0.9194399 1.11579,-0.8707269 1.73585,-0.9056603 1.094253,-0.061648 3.222339,-0.2493603 4.000002,0.5283024 1.238916,1.2389158 0.696651,3.9751213 0.981131,5.8113203 0.317021,2.046223 0.729361,1.658313 2.264151,2.264151 M 72.150946,5.4339623 h 0.45283 M 20.981131,7.245283 v 5.886792"
			style="fill:none;stroke:#7d7dff;stroke-width:3;stroke-linecap:round;stroke-linejoin:round;stroke-dasharray:none"
		/>
		<circle
			style="fill:#7d7dff;fill-opacity:1;stroke:none"
			cx="68.490356"
			cy="4.8186493"
			r="1.5"
		/>
	</g>
</svg>
