<?xml version="1.0" encoding="UTF-8" standalone="no"?>
<!-- Created with Inkscape (http://www.inkscape.org/) -->

<svg
	xmlns="http://www.w3.org/2000/svg"
	xmlns:cc="http://creativecommons.org/ns#"
	xmlns:dc="http://purl.org/dc/elements/1.1/"
	xmlns:inkscape="http://www.inkscape.org/namespaces/inkscape"
	xmlns:rdf="http://www.w3.org/1999/02/22-rdf-syntax-ns#"
	xmlns:sodipodi="http://sodipodi.sourceforge.net/DTD/sodipodi-0.dtd"
	xmlns:svg="http://www.w3.org/2000/svg"
	xmlns:xlink="http://www.w3.org/1999/xlink"
	width="32"
	height="32"
	viewBox="0 0 32 32"
	version="1.1"
	xml:space="preserve"
	inkscape:version="1.4 (e7c3feb100, 2024-10-09)"
	>
	<title>これすき</title>
	<metadata>
		<rdf:RDF>
			<cc:Work rdf:about="">
				<cc:license rdf:resource="http://www.opensource.org/licenses/mit-license.php" />
				<dc:title>これすき</dc:title>
				<dc:date>2025-06-02</dc:date>
				<dc:creator><cc:Agent><dc:title>zawa-ch.</dc:title></cc:Agent></dc:creator>
				<dc:rights><cc:Agent><dc:title>Copyright 2025 zawa-ch.</dc:title></cc:Agent></dc:rights>
				<dc:identifier>stellar_ch_handwritten_squared_ilikeit</dc:identifier>
				<dc:language>ja_JP</dc:language>
			</cc:Work>
		</rdf:RDF>
	</metadata>
	<sodipodi:namedview
		pagecolor="#505050"
		bordercolor="#eeeeee"
		borderopacity="1"
		inkscape:showpageshadow="0"
		inkscape:pageopacity="0"
		inkscape:pagecheckerboard="0"
		inkscape:deskcolor="#d1d1d1"
		inkscape:document-units="px"
		showgrid="false"
	/>
	<defs>
		<linearGradient id="linearGradient2" inkscape:collect="always">
			<stop style="stop-color:#95414f;stop-opacity:1;" offset="0" />
			<stop style="stop-color:#954f41;stop-opacity:1;" offset="1" />
		</linearGradient>
		<inkscape:path-effect
			id="path-effect2"
			effect="offset"
			is_visible="true"
			lpeversion="1.3"
			linejoin_type="miter"
			unit="px"
			offset="1"
			miter_limit="4"
			attempt_force_join="false"
			update_on_knot_move="true"
		/>
		<linearGradient
			id="linearGradient3"
			inkscape:collect="always"
			xlink:href="#linearGradient2"
			x1="0"
			y1="0"
			x2="32"
			y2="32"
			gradientUnits="userSpaceOnUse"
		/>
	</defs>
	<g inkscape:groupmode="layer">
		<image
			display="none"
			x="-2.355279"
			y="-1.1924337"
			width="36.553574"
			height="36.553574"
			preserveAspectRatio="none"
			xlink:href="stellar_ch_handwritten_squared_ilikeit.png"
		/>
		<path
			style="fill:url(#linearGradient3);fill-opacity:1;stroke:none"
			d="m 15.085938,0.19726562 c -0.771721,-0.001237 -1.3598,0.56830774 -1.519532,0.68945313 -0.144746,0.10977952 -1.380773,0.83310065 -1.892578,1.58398435 -0.159326,0.2337526 -0.311048,0.5410625 -0.345703,0.90625 -0.04676,0.4927134 0.135331,0.9654291 0.476563,1.3339844 0.529091,0.5714564 1.281693,0.629261 1.767578,0.6113281 0.01284,-4.739e-4 0.03455,-0.00314 0.04883,-0.00391 -0.007,1.0109533 -0.0058,2.0914885 0.0957,3.1074219 0.101264,1.0141428 1.03954,2.0056317 2.257812,1.6464847 1.324456,-0.3904536 1.251953,-1.7295703 1.251953,-2.2031254 V 5.1796875 c 0.444621,-0.01632 0.945191,-0.097963 1.3125,-0.3535156 C 19.471693,4.1772914 19.466588,2.9006102 18.755859,2.1640625 18.361148,1.7550134 17.834084,1.4995565 17.460937,1.3359375 17.062915,1.1614105 16.726757,1.0258323 16.542969,0.90820313 16.542959,0.90819715 16.20529,0.62126401 16.205078,0.62109375 15.974092,0.43585487 15.613719,0.19811406 15.085938,0.19726562 Z M 7.1015625,11.615234 c -0.082586,-9.08e-4 -0.1870418,0.0012 -0.296875,0.01563 -1.2385329,0.162541 -3.0449247,0.192431 -4.5273437,0.978516 -0.7240856,0.383962 -1.36386779,1.368387 -1.1269532,2.304688 0.0739,0.292056 0.2209962,0.550995 0.4765625,0.771484 0.3030152,0.261425 0.6733763,0.376658 1.0390625,0.40625 0.5347337,0.04327 1.0105769,-0.14593 1.3203125,-0.279297 0.3303847,-0.142258 0.59751,-0.267612 0.703125,-0.296875 0.6293118,-0.174365 1.3746952,-0.271607 2.0859375,-0.320312 0.1669758,-0.01144 1.0796793,0.09721 1.7363282,-0.292969 1.105696,-0.656994 1.1792342,-1.767041 0.4648437,-2.507813 -0.4720457,-0.489477 -1.2501204,-0.772426 -1.875,-0.779297 z m 1.2304688,4.955078 c -0.062392,1.84e-4 -0.126537,0.0039 -0.1914063,0.0098 -1.3404282,0.121009 -2.5615043,0.295221 -3.7695313,0.265625 -0.1707868,-0.0042 -1.5834889,-0.381911 -2.3124999,0.666016 -0.7512617,1.079909 -0.1892908,2.051837 0.6035156,2.492187 0.3891074,0.216123 0.8361567,0.32843 1.1621094,0.375 1.3518334,0.193144 3.7635136,0.189937 5.234375,-0.396484 1.9284112,-0.768849 1.2075882,-3.417784 -0.7265625,-3.41211 z m 17.3632807,4.259766 c -0.258155,0.0045 -0.507859,0.06712 -0.736328,0.193359 -0.639338,0.353258 -0.874672,1.025723 -0.880859,1.642579 -0.701454,0.776063 -0.746868,2.027546 0.166016,2.654296 -0.148373,0.449065 -0.105464,0.940388 0.105468,1.355469 -0.8478,0.641528 -1.057895,1.967734 -0.171875,2.769531 0.329739,0.29839 0.915045,0.495552 0.941407,0.509766 0.382181,0.206082 1.639891,1.046238 2.683593,1.181641 0.304062,0.03945 0.662479,0.03261 1.013672,-0.08984 1.20446,-0.419969 1.605944,-1.987553 0.671875,-2.900391 0.293121,-0.286233 0.50485,-0.663622 0.570313,-1.083984 0.04084,-0.262202 0.01793,-0.534194 -0.02539,-0.777344 0.684881,-0.476533 1.302667,-1.264842 0.910156,-2.197265 -0.119886,-0.284795 -0.315946,-0.504854 -0.541015,-0.673829 0.307843,-0.770085 0.06333,-1.72297 -0.759766,-2.167968 -0.709136,-0.383386 -1.42442,-0.230633 -1.890625,-0.0957 -0.203567,0.05892 -0.447859,0.141037 -0.582031,0.179687 -0.054,0.01555 -0.0935,0.02422 -0.134766,0.0332 -0.116004,-0.105854 -0.333481,-0.293445 -0.638672,-0.40625 -0.17751,-0.06561 -0.376933,-0.115004 -0.589843,-0.125 -0.03717,-0.0017 -0.07445,-0.0026 -0.111329,-0.002 z M 12.342304,16.256674 h 0.07615 l -0.972809,-0.768393 c 0.01933,0.08118 0.01576,0.108814 0.01198,0.134871 -0.0076,0.05211 -0.05567,0.155475 -0.211751,0.424256 -0.160964,0.277181 -0.402146,0.701116 -0.424611,1.304348 -0.03655,0.981467 0.619096,1.372556 0.935747,1.541472 0.01594,0.0085 0.03021,0.01608 0.04279,0.02281 0.01132,0.0061 0.02127,0.01144 0.02986,0.01617 0.0077,0.0043 0.01434,0.008 0.01987,0.01114 0.005,0.0029 0.0091,0.0053 0.01227,0.0072 0.0029,0.0018 0.0051,0.0031 0.0066,0.0041 0.0014,8.76e-4 0.0022,0.0014 0.0025,0.0016 2.71e-4,1.84e-4 1.22e-4,8.8e-5 -4.18e-4,-3.02e-4 -0.0049,-0.0035 -0.04415,-0.03621 -0.07368,-0.08128 -0.05038,-0.0769 -0.05067,-0.09584 -0.0479,-0.08804 3.08e-4,8.68e-4 7.33e-4,0.0021 0.0013,0.0036 5.8e-4,0.0017 0.0013,0.0038 0.0021,0.0063 8.88e-4,0.0027 0.0019,0.0059 0.003,0.0096 0.0012,0.004 0.0026,0.0085 0.004,0.01349 0.01457,0.04973 0.03727,0.14261 0.06317,0.253954 0.04532,0.194852 0.128073,0.556038 0.241782,0.839016 0.159712,0.397464 0.549676,1.057742 1.363251,1.078203 0.513033,0.0129 0.923974,-0.248493 1.236903,-0.526459 0.739416,-0.656799 0.655124,-1.558594 0.574522,-2.092769 -0.0024,-0.01619 -0.102458,-0.72783 -0.104037,-0.724152 -0.04141,0.09645 -0.09301,0.149097 -0.11408,0.16835 -0.0023,0.0021 -0.0044,0.0039 -0.0061,0.0054 -0.0019,0.0016 -0.0034,0.0029 -0.0045,0.0038 -0.0012,9.9e-4 -0.002,0.0016 -0.0023,0.0018 -3.1e-4,2.29e-4 -2.9e-5,1.4e-5 8.23e-4,-5.71e-4 9.47e-4,-6.5e-4 0.0026,-0.0018 0.0049,-0.0032 0.0026,-0.0016 0.006,-0.0037 0.01012,-0.0062 0.0046,-0.0027 0.01017,-0.0059 0.01656,-0.0094 0.06396,-0.03492 0.198218,-0.08723 0.377982,-0.168191 0.109375,-0.04926 0.187667,-0.08541 0.227424,-0.0999 0.004,-0.0014 0.0075,-0.0027 0.01054,-0.0037 0.0027,-9.28e-4 0.0051,-0.0017 0.007,-0.0023 0.0017,-5.36e-4 0.003,-9.4e-4 0.004,-0.0012 8.67e-4,-2.51e-4 0.0014,-4.02e-4 0.0016,-4.61e-4 1.98e-4,-5.3e-5 1.24e-4,-3.1e-5 -2.38e-4,5.8e-5 -0.0033,7.93e-4 -0.03108,0.0087 -0.09142,0.0064 -0.215519,-0.0083 -0.414671,-0.203218 -0.415722,-0.20492 -1.17e-4,-1.9e-4 7.64e-4,0.0012 0.0024,0.0042 0.0018,0.0033 0.0044,0.0084 0.0077,0.01517 0.0036,0.0075 0.0079,0.01713 0.01274,0.02848 0.0053,0.01261 0.01123,0.02739 0.01746,0.04397 0.0069,0.01842 0.01428,0.03906 0.0219,0.06149 0.0085,0.02492 0.01727,0.05204 0.02638,0.08094 0.01013,0.03211 0.02063,0.06641 0.03174,0.102642 0.0243,0.07926 0.06282,0.205929 0.106356,0.315811 0.404892,1.021893 1.988399,2.708342 3.563364,2.467207 0.514892,-0.07883 0.951911,-0.339134 1.297413,-0.780311 0.54409,-0.694754 0.519942,-1.735067 -0.186392,-2.369032 -0.475729,-0.426993 -1.130003,-0.494826 -1.278945,-0.531319 -0.01138,-0.0028 -0.02138,-0.0054 -0.02997,-0.0078 -0.0077,-0.0021 -0.01433,-0.0041 -0.01979,-0.0058 -0.0049,-0.0015 -0.0089,-0.0029 -0.01201,-0.004 -0.0028,-9.83e-4 -0.0049,-0.0018 -0.0062,-0.0023 -0.0012,-4.87e-4 -0.0019,-7.78e-4 -0.0021,-8.44e-4 -1.36e-4,-5.9e-5 1.51e-4,6.3e-5 8.22e-4,3.87e-4 6.04e-4,2.9e-4 0.0015,7.44e-4 0.0027,0.0014 0.01607,0.0084 0.03507,0.01889 0.06329,0.05191 -0.169793,-0.1987 -0.295275,-0.445968 -0.437834,-0.766187 -0.12474,-0.280192 -0.331167,-0.769366 -0.613796,-1.127165 -0.471049,-0.596331 -1.150396,-0.951346 -2.179663,-0.959865 l 0.706201,1.699624 c 0.186159,-0.190103 0.425321,-0.433969 0.634219,-0.722674 0.141712,-0.19585 0.344625,-0.50258 0.434266,-0.89841 0.113161,-0.499685 0.107751,-1.032042 -0.174583,-1.497476 -0.529649,-0.873139 -1.584184,-0.865775 -2.194897,-0.803705 -0.484533,0.04924 -1.317434,0.233612 -1.450771,0.251567 l 1.129619,0.903533 c -0.07196,-0.819075 -0.750332,-1.856761 -1.715529,-2.03611 -0.31254,-0.05808 -0.637377,-0.02792 -0.961261,0.139968 -0.381412,0.197709 -0.633012,0.531465 -0.794136,0.884394 -0.217537,0.476498 -0.125717,0.932006 -0.07472,1.157313 0.0078,0.03434 0.01562,0.06703 0.02243,0.09514 0.0062,0.0257 0.0119,0.04884 0.01681,0.06933 0.0044,0.01844 0.0082,0.03472 0.01133,0.04867 0.0028,0.01255 0.005,0.02321 0.0067,0.03179 0.0015,0.0077 0.0026,0.01375 0.0032,0.01792 6.05e-4,0.0038 8.95e-4,0.006 9.68e-4,0.0066 6.6e-5,5.42e-4 -4.4e-5,-2.47e-4 -2.17e-4,-0.0025 -0.0015,-0.01988 0.01358,-0.206952 0.11227,-0.340314 -0.0081,0.01095 -0.137592,0.103404 -0.446419,0.314415 -0.33778,0.230793 -0.786203,0.598602 -0.9421906,1.316113 -0.471697,2.169721 2.3493016,3.051842 3.3554606,1.133919 m 2.425806,9.513953 c -0.701211,2.212037 1.345356,4.20555 3.557933,3.458012 L 17.899391,27.62032 c -0.02158,0.170601 -0.126921,0.548974 -0.224295,0.973941 -0.08825,0.385126 -0.202484,0.971296 -0.0676,1.521779 0.370235,1.510948 2.349076,1.824368 3.188411,0.530604 0.969784,-1.494848 0.536384,-3.634978 0.447389,-4.66249 -0.01494,-0.172529 0.09959,-1.086517 0.0026,-1.616681 l -0.801048,1.163081 c 0.209636,-0.03894 0.753832,-0.06383 1.250645,-0.126348 0.500988,-0.06304 1.212376,-0.197422 1.742581,-0.681278 0.999213,-0.911869 0.617866,-2.618247 -0.703907,-2.979737 -0.936547,-0.256139 -2.422753,0.174741 -2.914998,0.324314 l 1.25275,0.683806 c -0.04375,-0.15417 -0.162382,-1.157711 -0.596568,-1.708531 -0.81234,-1.030553 -2.423046,-0.85479 -2.975654,0.346265 -0.214954,0.467181 -0.126968,0.971089 -0.09239,1.18612 0.006,0.03703 0.01232,0.07497 0.01767,0.106991 0.005,0.02975 0.0095,0.05733 0.01353,0.08249 0.0036,0.02264 0.0067,0.04331 0.0093,0.06169 0.0023,0.01654 0.0042,0.03123 0.0056,0.04375 0.0013,0.01127 0.0022,0.02077 0.0027,0.02822 5.2e-4,0.0067 7.87e-4,0.01174 9.05e-4,0.01485 1.06e-4,0.0028 9.2e-5,0.004 9.5e-5,0.0035 2.8e-5,-0.0047 0.02821,-0.259878 0.242546,-0.43446 0.01656,-0.01349 -0.02339,0.01759 -0.131939,0.05025 -0.162826,0.04898 -0.453336,0.09395 -0.796282,0.163953 -0.589438,0.120309 -1.499774,0.373282 -1.876725,1.334876 -0.518851,1.323573 0.512282,2.246104 1.478418,2.478385"
			inkscape:path-effect="#path-effect2"
			inkscape:original-d="m 14.626902,4.214449 c 0,1.3575749 -0.05064,2.7625876 0.08415,4.1122771 0.04862,0.4869203 0.454955,0.9419041 0.980884,0.7868599 0.579114,-0.1707244 0.53419,-0.7581584 0.53419,-1.2437796 V 4.1382958 c 0.490238,0 1.323663,0.1592367 1.74324,-0.1326803 C 18.361078,3.7330808 18.350072,3.1849668 18.036407,2.859907 17.517366,2.3220117 16.626632,2.1489448 16.004477,1.7507506 15.698975,1.555222 15.484305,1.1977539 15.083822,1.1971101 c -0.358213,-5.74e-4 -0.647223,0.2841479 -0.91384,0.486358 -0.566275,0.4294777 -2.49186,1.4196888 -1.631771,2.3486481 0.469945,0.5075739 1.489949,0.2080434 2.088691,0.1823328 m -2.284598,11.042225 h 0.07615 c 0.229101,0.962284 -0.566338,1.285192 -0.597886,2.132292 -0.02407,0.646423 0.552059,0.53987 0.812713,0.937754 0.253601,0.38712 0.247641,2.384266 1.366999,1.389974 0.678575,-0.602757 -0.08429,-1.765113 0.215709,-2.463816 0.118282,-0.275482 0.538167,-0.411382 0.791676,-0.525553 0.179909,-0.08102 0.405356,-0.196375 0.608052,-0.188561 0.464619,0.01791 0.567817,0.739834 0.702067,1.078662 0.358736,0.905401 2.183018,2.665514 3.143791,1.438685 0.236203,-0.30161 0.224913,-0.746217 -0.06705,-1.008266 -0.396795,-0.356146 -1.013432,-0.170399 -1.374461,-0.592891 -0.913365,-1.06886 -0.642411,-2.487689 -2.47933,-2.502893 0.190248,-0.194278 0.378685,-0.388303 0.538538,-0.609226 0.117863,-0.16289 0.224228,-0.334832 0.269122,-0.533073 0.389424,-1.719568 -1.897071,-0.947356 -2.711492,-0.837686 -0.06493,-0.739022 -1.075173,-1.757068 -1.565079,-0.683969 -0.186326,0.408132 0.249533,0.916863 -0.007,1.263522 -0.36101,0.487855 -1.063526,0.550092 -1.215279,1.248126 -0.228807,1.052471 1.031822,1.335524 1.492746,0.456919 M 6.935421,12.623627 c -1.3924142,0.182735 -2.9149365,0.192826 -4.1884303,0.868124 -0.6386279,0.338646 -1.0553535,1.517755 0,1.603156 0.5415079,0.04382 1.1529228,-0.398248 1.6753721,-0.543004 0.7281983,-0.201764 1.5319421,-0.303016 2.2845984,-0.354558 0.420127,-0.02877 0.911994,0.07205 1.2931369,-0.154422 C 9.1697393,13.347934 7.7178176,12.520948 6.935421,12.623627 m 1.2946057,4.95302 c -1.3051259,0.117822 -2.5670868,0.300381 -3.8838172,0.268122 -0.4875176,-0.01194 -1.125751,-0.252007 -1.466538,0.237862 -0.5776612,0.830365 0.4652356,1.218287 1.0857716,1.306946 1.2931951,0.184766 3.4944439,0.152583 4.7212093,-0.336519 0.9452635,-0.376872 0.4560702,-1.558807 -0.4566257,-1.476411 m 8.3768603,7.96072 c -0.452061,1.426071 0.841751,2.695923 2.284599,2.208445 -0.0787,0.622173 -0.461463,1.525204 -0.312722,2.132234 0.161259,0.658107 1.015178,0.783948 1.378222,0.224346 0.733089,-1.13 0.39587,-2.810079 0.290041,-4.031952 -0.04476,-0.516805 0.109717,-1.006363 0.01522,-1.523066 0.729087,-0.135436 1.926138,-0.03778 2.501777,-0.563099 0.42416,-0.387083 0.26359,-1.124116 -0.293625,-1.276508 -0.59274,-0.16211 -1.77596,0.138936 -2.360459,0.316542 -0.116893,-0.411918 -0.15322,-1.024156 -0.4199,-1.362474 -0.354896,-0.450229 -1.041723,-0.376711 -1.281854,0.145197 -0.187093,0.406628 0.250784,1.183518 -0.07698,1.450496 -0.650796,0.530112 -2.140152,0.206772 -2.50548,1.138716 -0.239802,0.611727 0.246937,1.012684 0.781159,1.141123 m 8.529168,-2.436905 c -0.618862,0.291236 -0.900193,1.247693 -0.07586,1.5176 0.394836,0.12928 0.730047,-0.135618 1.065853,-0.299147 l 0.380767,0.609226 c -0.375031,0.05054 -0.843043,0.126905 -1.124907,0.401919 -0.371003,0.361991 -0.289811,1.019122 0.212243,1.216926 0.547361,0.215652 1.182,-0.376374 1.656803,-0.155774 0.394451,0.183269 0.19132,0.870341 0.566744,1.145767 0.524715,0.384951 1.164479,-0.06608 1.25212,-0.628853 0.0599,-0.384603 -0.117714,-0.773543 -0.202252,-1.142299 0.633477,-0.173332 1.837681,-1.100374 0.760064,-1.66174 -0.839022,-0.437072 -1.374875,0.760771 -1.978516,-0.318245 0.474851,-0.03879 1.206316,-0.132534 1.590933,-0.430477 0.403061,-0.312232 0.398625,-0.976804 -0.07204,-1.231263 -0.70958,-0.383625 -1.564661,0.257928 -2.279312,0.265653 -0.345202,0.0037 -0.529961,-0.381087 -0.839094,-0.495349 -0.846173,-0.312764 -1.109389,0.586953 -0.913546,1.206056 m 0.07621,4.239257 c -0.575742,0.166322 -0.834326,0.937225 -0.363432,1.363357 0.203384,0.184048 0.505634,0.242169 0.74414,0.370775 0.704325,0.37979 2.053943,1.321876 2.893532,1.029129 0.524311,-0.182816 0.708859,-0.871328 0.287513,-1.259116 -0.609621,-0.561065 -1.828446,-0.831283 -2.571819,-1.239487 -0.302159,-0.165925 -0.631606,-0.36817 -0.989934,-0.264658 z"
		/>
		<path
			d="m 14.626902,4.214449 c 0,1.3575749 -0.05064,2.7625876 0.08415,4.1122771 0.04862,0.4869203 0.454955,0.9419041 0.980884,0.7868599 0.579114,-0.1707244 0.53419,-0.7581584 0.53419,-1.2437796 V 4.1382958 c 0.490238,0 1.323663,0.1592367 1.74324,-0.1326803 C 18.361078,3.7330808 18.350072,3.1849668 18.036407,2.859907 17.517366,2.3220117 16.626632,2.1489448 16.004477,1.7507506 15.698975,1.555222 15.484305,1.1977539 15.083822,1.1971101 c -0.358213,-5.74e-4 -0.647223,0.2841479 -0.91384,0.486358 -0.566275,0.4294777 -2.49186,1.4196888 -1.631771,2.3486481 0.469945,0.5075739 1.489949,0.2080434 2.088691,0.1823328 m -2.284598,11.042225 h 0.07615 c 0.229101,0.962284 -0.566338,1.285192 -0.597886,2.132292 -0.02407,0.646423 0.552059,0.53987 0.812713,0.937754 0.253601,0.38712 0.247641,2.384266 1.366999,1.389974 0.678575,-0.602757 -0.08429,-1.765113 0.215709,-2.463816 0.118282,-0.275482 0.538167,-0.411382 0.791676,-0.525553 0.179909,-0.08102 0.405356,-0.196375 0.608052,-0.188561 0.464619,0.01791 0.567817,0.739834 0.702067,1.078662 0.358736,0.905401 2.183018,2.665514 3.143791,1.438685 0.236203,-0.30161 0.224913,-0.746217 -0.06705,-1.008266 -0.396795,-0.356146 -1.013432,-0.170399 -1.374461,-0.592891 -0.913365,-1.06886 -0.642411,-2.487689 -2.47933,-2.502893 0.190248,-0.194278 0.378685,-0.388303 0.538538,-0.609226 0.117863,-0.16289 0.224228,-0.334832 0.269122,-0.533073 0.389424,-1.719568 -1.897071,-0.947356 -2.711492,-0.837686 -0.06493,-0.739022 -1.075173,-1.757068 -1.565079,-0.683969 -0.186326,0.408132 0.249533,0.916863 -0.007,1.263522 -0.36101,0.487855 -1.063526,0.550092 -1.215279,1.248126 -0.228807,1.052471 1.031822,1.335524 1.492746,0.456919 M 6.935421,12.623627 c -1.3924142,0.182735 -2.9149365,0.192826 -4.1884303,0.868124 -0.6386279,0.338646 -1.0553535,1.517755 0,1.603156 0.5415079,0.04382 1.1529228,-0.398248 1.6753721,-0.543004 0.7281983,-0.201764 1.5319421,-0.303016 2.2845984,-0.354558 0.420127,-0.02877 0.911994,0.07205 1.2931369,-0.154422 C 9.1697393,13.347934 7.7178176,12.520948 6.935421,12.623627 m 1.2946057,4.95302 c -1.3051259,0.117822 -2.5670868,0.300381 -3.8838172,0.268122 -0.4875176,-0.01194 -1.125751,-0.252007 -1.466538,0.237862 -0.5776612,0.830365 0.4652356,1.218287 1.0857716,1.306946 1.2931951,0.184766 3.4944439,0.152583 4.7212093,-0.336519 0.9452635,-0.376872 0.4560702,-1.558807 -0.4566257,-1.476411 m 8.3768603,7.96072 c -0.452061,1.426071 0.841751,2.695923 2.284599,2.208445 -0.0787,0.622173 -0.461463,1.525204 -0.312722,2.132234 0.161259,0.658107 1.015178,0.783948 1.378222,0.224346 0.733089,-1.13 0.39587,-2.810079 0.290041,-4.031952 -0.04476,-0.516805 0.109717,-1.006363 0.01522,-1.523066 0.729087,-0.135436 1.926138,-0.03778 2.501777,-0.563099 0.42416,-0.387083 0.26359,-1.124116 -0.293625,-1.276508 -0.59274,-0.16211 -1.77596,0.138936 -2.360459,0.316542 -0.116893,-0.411918 -0.15322,-1.024156 -0.4199,-1.362474 -0.354896,-0.450229 -1.041723,-0.376711 -1.281854,0.145197 -0.187093,0.406628 0.250784,1.183518 -0.07698,1.450496 -0.650796,0.530112 -2.140152,0.206772 -2.50548,1.138716 -0.239802,0.611727 0.246937,1.012684 0.781159,1.141123 m 8.529168,-2.436905 c -0.618862,0.291236 -0.900193,1.247693 -0.07586,1.5176 0.394836,0.12928 0.730047,-0.135618 1.065853,-0.299147 l 0.380767,0.609226 c -0.375031,0.05054 -0.843043,0.126905 -1.124907,0.401919 -0.371003,0.361991 -0.289811,1.019122 0.212243,1.216926 0.547361,0.215652 1.182,-0.376374 1.656803,-0.155774 0.394451,0.183269 0.19132,0.870341 0.566744,1.145767 0.524715,0.384951 1.164479,-0.06608 1.25212,-0.628853 0.0599,-0.384603 -0.117714,-0.773543 -0.202252,-1.142299 0.633477,-0.173332 1.837681,-1.100374 0.760064,-1.66174 -0.839022,-0.437072 -1.374875,0.760771 -1.978516,-0.318245 0.474851,-0.03879 1.206316,-0.132534 1.590933,-0.430477 0.403061,-0.312232 0.398625,-0.976804 -0.07204,-1.231263 -0.70958,-0.383625 -1.564661,0.257928 -2.279312,0.265653 -0.345202,0.0037 -0.529961,-0.381087 -0.839094,-0.495349 -0.846173,-0.312764 -1.109389,0.586953 -0.913546,1.206056 m 0.07621,4.239257 c -0.575742,0.166322 -0.834326,0.937225 -0.363432,1.363357 0.203384,0.184048 0.505634,0.242169 0.74414,0.370775 0.704325,0.37979 2.053943,1.321876 2.893532,1.029129 0.524311,-0.182816 0.708859,-0.871328 0.287513,-1.259116 -0.609621,-0.561065 -1.828446,-0.831283 -2.571819,-1.239487 -0.302159,-0.165925 -0.631606,-0.36817 -0.989934,-0.264658 z"
			style="fill:#f08080;fill-opacity:1;stroke:none"
		/>
	</g>
</svg>
