<?xml version="1.0" encoding="UTF-8" standalone="no"?>
<!-- Created with Inkscape (http://www.inkscape.org/) -->

<svg
	xmlns="http://www.w3.org/2000/svg"
	xmlns:cc="http://creativecommons.org/ns#"
	xmlns:dc="http://purl.org/dc/elements/1.1/"
	xmlns:inkscape="http://www.inkscape.org/namespaces/inkscape"
	xmlns:rdf="http://www.w3.org/1999/02/22-rdf-syntax-ns#"
	xmlns:sodipodi="http://sodipodi.sourceforge.net/DTD/sodipodi-0.dtd"
	xmlns:svg="http://www.w3.org/2000/svg"
	xmlns:xlink="http://www.w3.org/1999/xlink"
	width="32"
	height="32"
	viewBox="0 0 32 32"
	version="1.1"
	xml:space="preserve"
	inkscape:version="1.4 (e7c3feb100, 2024-10-09)"
	>
	<title>カレーは飲み物</title>
	<metadata>
		<rdf:RDF>
			<cc:Work rdf:about="">
				<cc:license rdf:resource="http://www.opensource.org/licenses/mit-license.php" />
				<dc:title>カレーは飲み物</dc:title>
				<dc:date>2025-06-01</dc:date>
				<dc:creator><cc:Agent><dc:title>zawa-ch.</dc:title></cc:Agent></dc:creator>
				<dc:rights><cc:Agent><dc:title>Copyright 2025 zawa-ch.</dc:title></cc:Agent></dc:rights>
				<dc:identifier>stellar_ch_handwritten_square_karehanomimono</dc:identifier>
				<dc:language>ja_JP</dc:language>
			</cc:Work>
		</rdf:RDF>
	</metadata>
	<sodipodi:namedview
		pagecolor="#505050"
		bordercolor="#eeeeee"
		borderopacity="1"
		inkscape:showpageshadow="0"
		inkscape:pageopacity="0"
		inkscape:pagecheckerboard="0"
		inkscape:deskcolor="#d1d1d1"
		inkscape:document-units="px"
		showgrid="false"
	/>
	<defs>
		<inkscape:path-effect
			effect="offset"
			id="expansion"
			is_visible="true"
			lpeversion="1.3"
			linejoin_type="miter"
			unit="px"
			offset="1"
			miter_limit="4"
			attempt_force_join="false"
			update_on_knot_move="true"
		/>
	</defs>
	<g inkscape:groupmode="layer">
		<path
			display="none"
			style="stroke:#050505;stroke-width:1.5;stroke-linecap:round;stroke-linejoin:round;stroke-dasharray:none"
			d="M 26.333333,6.3333333 26.500309,7.2 l 0.09681,0.4666667 0.06358,0.8666666 0.0073,0.7989706 0.06723,0.2848775 0.598148,0.1547831 1.733334,0.3613685 M 5.3333333,6.6 c -0.00628,0.304128 -0.093001,0.6784505 -0.121965,1 -0.012131,0.1346781 -0.03554,0.3096171 0.05715,0.4264404 C 5.3714574,8.1561808 5.5294779,8.1277547 5.666718,8.1139913 5.9180934,8.0887817 6.2184321,8.0349569 6.4666667,8.011318 6.7142553,7.9877401 6.8510356,7.999528 7.1333333,8 c 0.3323675,5.554e-4 0.639266,-0.026325 0.8898148,0.2809163 0.2864502,0.3512655 0.309671,1.0017518 0.309671,1.3857504 0,0.6917483 -0.1708481,1.1953303 -0.2661524,1.9333333 M 11.066667,6.9333333 c 0.03235,0.4094239 0.104275,0.7586202 0.144393,1.1333334 0.01662,0.1552673 0.03868,0.2435811 0.04964,0.4 0.01091,0.1556823 0.0025,0.2450927 0.01728,0.4 0.03689,0.3861043 0.08447,0.8423441 0.150308,1.2666663 0.04965,0.320014 0.10624,0.982756 0.445577,1.081535 0.2821,0.08212 0.593053,-0.132855 0.859464,-0.241308 0.638376,-0.259874 1.364293,-0.56671 2,-0.77356 m 8.6,-3.2666667 c 0,0.4345988 -6.57e-4,0.4685262 -0.04763,0.8666667 -0.04894,0.4148173 -0.01903,0.6307617 -0.01903,1.1333333 0,0.3278504 -0.01469,0.4475627 0.01903,0.7333334 0.03079,0.2609192 0.04536,0.3639323 0.04763,0.6000003 0.0036,0.37079 0.02036,0.464632 0.133334,0.866666 M 26.6,7.1333333 C 26.873108,7.1216044 27.786715,7 28.466667,7 m -3.2,0.5333333 L 25.933232,7.343929 26.4,7.2666667 m -21.2,0.8 c -0.3487127,0.4083414 -0.2752279,0.3944397 -0.3430044,0.8 C 4.8279536,9.040448 4.7282847,9.3484436 4.6666667,9.5333333 4.4682485,10.128703 4.2848297,10.859458 4,11.4 M 3.4666667,8.5333333 c 0.81872,-0.1102498 0.9290705,-0.1575724 1.4666666,-0.2 M 17.2,8.8 l 1.2,-0.2476339 0.466667,-0.019033 0.6,-0.038375 L 20.2,8.4666667 m 6.4,1.2666666 c -0.0074,0.1713074 0.04776,0.3306867 -0.138324,0.7330767 -0.232524,0.502816 -0.949347,0.714106 -1.249691,0.132304 -0.312671,-0.6056801 0.42936,-0.9216673 0.854682,-0.9310179 0.30354,-0.00667 0.429083,0.034823 0.533333,0.065637 m -22.4,6.7333339 -1.2480453,2 -0.685288,1 M 22.733333,16.6 c -0.09706,0.470243 -0.239026,0.934314 -0.358024,1.4 -0.05139,0.201103 -0.149705,0.466191 -0.06744,0.645473 0.09257,0.20174 0.294579,0.166563 0.558798,0.135494 0.246325,-0.02896 0.670796,-0.0389 0.807407,-0.218569 0.169556,-0.222996 0.0593,-0.401188 0.05926,-0.762398 M 4.8666667,17.133333 7.0666667,18.8 M 26.6,17.2 26.206946,18.066667 26.030351,18.6 25.778601,19 25.466667,19.533333 m -16.7333337,-2.266666 -0.2,1.066666 c 0.600352,-0.005 0.7418437,-0.07966 1.5999997,-0.180967 0.176648,-0.02085 0.27929,-0.01789 0.466667,-0.01908 0.245408,-0.0016 0.530374,-0.111619 0.790175,0.02387 0.24021,0.125273 0.242347,0.353231 0.265123,0.576184 0.02492,0.243927 0.0078,0.495646 0.07803,0.733334 m 2,-0.733334 c 0.529572,-0.247658 1.960545,-0.936822 2.518158,-0.598148 0.412432,0.250496 0.434421,1.327832 0.490536,1.731482 0.03083,0.221777 0.05746,0.351762 0.05746,0.6 0,0.227848 -0.07148,0.76288 -0.06481,0.933024 0.0037,0.0955 -0.01539,0.189158 0.06718,0.293416 0.121034,0.152816 0.451877,0.115495 0.664815,0.100926 0.12338,-0.0084 0.210457,-0.02717 0.333333,-0.04167 0.193538,-0.02283 0.323328,-0.01895 0.533333,-0.01903 0.260053,-1.01e-4 0.414409,0 0.6,0 -0.07343,0.577959 -0.185406,1.347449 -0.533333,2.133334 M 8.5333333,18.333333 C 8.3926422,18.515741 8.3658407,18.643215 8.0666667,19.066667 M 23.8,18.533333 24.200309,18.504065 24.933333,18.4 m 1.2,0.266667 c 0.470726,-0.0097 0.640214,-0.10398 1.266667,-0.180917 0.425008,-0.0522 0.630172,-0.01928 1.133333,-0.01908 0.22979,8.9e-5 0.377859,-8.75e-4 0.6,0.02829 0.154505,0.02029 0.248072,0.02994 0.4,0.03843 0.158954,0.0089 0.318083,0.01513 0.456842,0.116099 0.209681,0.152578 0.243169,0.402053 0.265123,0.617182 0.02032,0.199139 0.01135,0.307889 0.01137,0.533333 1.2e-5,0.200411 0.01001,0.300053 -0.006,0.533333 -0.01047,0.152875 -0.03272,0.252588 -0.05036,0.4 -0.113932,0.9521 -0.378562,2.415817 -0.677006,3.333334 m -7.266666,-5.333334 -0.4,1.133334 m 1.866666,-1.133334 c -1.79e-4,0.271281 -0.0047,0.267676 -0.05535,0.8 -0.01839,0.193254 -0.0088,0.304651 -0.01158,0.533334 -0.0026,0.214083 -0.02204,0.318585 -0.04738,0.533333 -0.02015,0.170805 -0.01875,0.292171 -0.01903,0.466667 -3.82e-4,0.238277 0,0.406746 0,0.533333 L 24.066768,21.532357 25.333333,21.2 M 4.7333333,19.266667 c 0,0.485349 -0.1182652,0.564078 -0.00741,0.914762 0.071579,0.22643 0.3770106,0.193127 0.6073558,0.232562 0.3385177,0.05795 0.4121297,0.212291 0.5750513,0.442387 0.1442612,0.203742 0.3220754,0.698582 0.3068416,0.943571 -0.048227,0.77558 -0.919425,0.638914 -1.4818416,0.746503 -0.3317113,0.06345 -0.6549914,0.14198 -0.8650205,0.09969 -0.1865031,-0.03755 -0.2897153,-0.146922 -0.3349795,-0.179476 -0.085903,0.290621 -0.096707,0.734041 -0.1220164,1 C 3.39415,23.64706 3.3996829,23.794434 3.4,24 c 3.565e-4,0.231087 -0.029908,0.727557 0.2202161,0.820217 0.1860344,0.06892 0.3244497,-0.02516 0.5131172,-0.107512 0.4924576,-0.214957 0.8791631,-0.35957 1.3333334,-0.379372 m 22.0666663,-4.466666 -1.266666,2.6 m 2.666666,-2.6 c -0.04247,0.334338 -0.162587,0.936897 -0.289607,1.333333 -0.220927,0.68952 -0.485582,1.469954 -0.910393,2.066667 m -23.0666663,-3 c -0.353361,0.18881 -0.6866771,0.150901 -1.3333334,0.4 M 9.6666667,20.4 c -0.1077749,0.318266 -0.7110311,2.004224 -0.3785492,2.271759 0.1784271,0.143573 0.4038665,0.144932 0.6452158,0.238837 0.7842567,0.305143 1.7122927,1.118005 2.5333337,1.356071 M 19.133333,20.4 c -0.0019,0.693652 0.0079,0.788888 -0.133333,1.266667 m -13.1333333,-0.8 c -0.3591248,0.294315 -0.8922618,0.27552 -1.5333334,0.602982 -0.5721608,0.292263 -0.7995145,0.368705 -0.8,0.997018 m 19.9999997,-0.8 -0.0033,0.6 -0.05201,0.466666 -0.01394,0.4 -0.06404,0.6 m -6.666667,-2 C 16.40918,22.085384 16.212387,22.008197 15.8,22.100926 c -0.484669,0.108982 -1.368339,0.431817 -1.547839,0.965997 -0.230546,0.686088 0.790563,0.79141 1.214455,0.628859 0.793814,-0.304408 0.943258,-1.182092 1.000051,-1.629115 m 2.666666,-0.333334 c 0.296611,8.18e-4 0.808053,0.05852 1.4,0.133334 m 2,0.2 c 0.474526,-0.150476 0.602114,-0.157921 0.933334,-0.2 M 9.1333333,22.6 c -0.3973704,0.583211 -0.5160471,1.341636 -0.8666666,2 m -2.6,-1.2 C 6.0606761,23.66911 6.6282679,24.332627 7,24.6"
		/>
		<path
			d="M 26.351562,4.5839844 C 26.234642,4.5827483 26.118565,4.5922753 26,4.6152344 25.344277,4.7425347 24.853139,5.2191189 24.667969,5.8125 24.347459,5.4309422 23.873613,5.1835938 23.333984,5.1835937 c -0.96957,10e-8 -1.75,0.7804299 -1.75,1.75 0,0.2928155 -0.0013,0.3525965 -0.01172,0.4511719 C 21.238347,6.9610573 20.716983,6.6950515 20.132812,6.7167969 l -0.728515,0.029297 h -0.0059 -0.01953 l -0.617187,0.041016 -0.439453,0.017578 c -0.09501,0.00445 -0.190028,0.016546 -0.277344,0.035156 L 16.847656,7.0859375 C 16.081583,7.2432286 15.546088,7.8763574 15.466797,8.6132813 15.08114,8.4349807 14.631709,8.3927471 14.193359,8.5351563 c -0.375046,0.1220348 -0.767516,0.2717629 -1.144531,0.421875 -0.0088,-0.08601 -0.01951,-0.1757799 -0.02734,-0.2578125 2.7e-5,2.782e-4 -0.005,-0.2319789 -0.01367,-0.3554688 C 12.993835,8.1442606 12.953779,7.9032597 12.951172,7.8789062 12.900595,7.4064971 12.832265,7.071732 12.810547,6.796875 12.739931,5.890093 11.998078,5.2032583 11.109375,5.1835937 c -0.05925,-0.00131 -0.119296,0.0011 -0.179687,0.00586 -0.9672352,0.075323 -1.6836364,0.913462 -1.6074224,1.8808594 0.00126,0.015971 0.00448,0.030843 0.00586,0.046875 C 8.9567057,6.691655 8.4388948,6.4114722 7.9726562,6.3125 7.5688019,6.2267706 7.1968579,6.2501005 7.1367187,6.25 c -0.027339,-4.57e-5 -0.059925,3.195e-4 -0.087891,0 C 6.8906479,5.463366 6.207872,4.8668606 5.3710937,4.8496094 4.4014535,4.8291981 3.6039743,5.5928833 3.5839844,6.5625 3.5841441,6.5547627 3.5669308,6.6821061 3.5566406,6.7558594 3.4507393,6.7705215 3.3732019,6.7801333 3.234375,6.7988281 2.2738414,6.9267264 1.6033217,7.8025277 1.7304687,8.7636719 1.8079819,9.3473454 2.1636259,9.8223491 2.6445313,10.078125 2.566874,10.306286 2.497365,10.49632 2.4511719,10.583984 c -0.4526002,0.858381 -0.1254157,1.914296 0.7324219,2.365235 0.8583807,0.4526 1.9141724,0.12565 2.3652343,-0.732422 0.4063477,-0.771155 0.6308652,-1.685479 0.7792969,-2.130859 0.021468,-0.06442 0.058584,-0.1761091 0.099609,-0.3066411 0.058128,-0.00774 0.1226438,-0.014176 0.1503906,-0.017578 -0.019382,0.3650032 -0.1429452,0.8013642 -0.2480469,1.6152342 -0.124083,0.962074 0.5522228,1.835685 1.5136719,1.958985 0.9620738,0.124082 1.8357048,-0.550429 1.9589844,-1.511719 0.017934,-0.138875 0.05619,-0.330211 0.087891,-0.498047 0.057844,0.189045 0.141502,0.42506 0.318359,0.691406 0.212225,0.319611 0.607473,0.713476 1.175782,0.878906 0.698911,0.203455 1.266068,0.01519 1.560547,-0.09961 0.141189,-0.05504 0.509819,-0.228589 0.447265,-0.203125 0.652352,-0.265563 1.359764,-0.558957 1.88086,-0.728516 0.680246,-0.220089 1.128643,-0.813205 1.199218,-1.478515 0.327333,0.1497 0.700926,0.205808 1.082031,0.126953 l 1.050782,-0.21875 0.359375,-0.01367 0.0293,-0.002 c 0.0047,-4.64e-4 0.0091,-0.0015 0.01367,-0.002 l 0.535157,-0.0332 0.02539,-0.002 0.699219,-0.02539 c 0.511573,-0.01959 0.957809,-0.258924 1.263672,-0.6191407 0.0052,0.089346 0.0049,0.1656719 0.01758,0.2734375 0.03252,0.2756102 0.03344,0.2343292 0.03516,0.4121092 0.0047,0.485102 0.06049,0.835529 0.197266,1.322266 0.26185,0.934744 1.225618,1.475911 2.158203,1.21289 0.284714,-0.07976 0.526458,-0.230467 0.726563,-0.419921 0.466392,0.247276 1.00044,0.350615 1.498046,0.263671 0.663361,-0.115902 1.23368,-0.482692 1.619141,-1.009765 l 0.927734,0.193359 c 0.947971,0.197193 1.869396,-0.404532 2.06836,-1.351562 C 30.975862,9.5611172 30.395202,8.6519168 29.472656,8.4316406 29.923046,8.1156505 30.216797,7.5944001 30.216797,7 c 0,-0.9695701 -0.78043,-1.7499999 -1.75,-1.75 -0.244367,0 -0.494644,0.013039 -0.736328,0.029297 C 27.410066,4.8545818 26.904985,4.5898351 26.351562,4.5839844 Z M 4.1464844,14.716797 c -0.1190557,0.0037 -0.2340802,0.01985 -0.3417969,0.04492 -0.4521011,0.105083 -0.8430455,0.386229 -1.0878906,0.779297 l -1.2402344,1.986328 -0.65234375,0.949218 c -0.54924548,0.799118 -0.34716472,1.883722 0.45312495,2.433594 0.1172792,0.08035 0.2422472,0.138879 0.3691407,0.1875 0.016775,0.06535 0.02797,0.130727 0.052734,0.195313 l 0.048828,0.125 0.078125,0.109375 c 0.03868,0.05275 0.081354,0.100968 0.125,0.148437 -0.00429,0.02118 -0.008,0.04224 -0.011719,0.0625 l -0.023437,0.02734 -0.060547,0.205078 c -0.039191,0.132593 -0.056458,0.328614 -0.046875,0.28125 l -0.00586,0.02539 v 0.002 c -0.00116,0.0059 -0.00277,0.01163 -0.00391,0.01758 l -0.00977,0.05078 v 0.0098 c -0.073653,0.405813 -0.1080366,0.808103 -0.1210938,0.945312 -0.028117,0.295513 -0.017824,0.541372 -0.017578,0.701172 -5.91e-5,-0.03829 -0.017918,0.352673 0.033203,0.707031 0.026022,0.180376 0.073148,0.44887 0.2382813,0.771485 0.1836313,0.358751 0.5311074,0.77153 1.0898438,0.978515 0.4761396,0.176395 1.0223566,0.144116 1.3808593,0.0332 0.2350265,-0.07272 0.5024129,-0.204363 0.4414063,-0.177735 0.4476862,-0.19547 0.5766264,-0.228604 0.7089843,-0.234375 l 0.017578,-0.002 0.017578,-0.002 c 0.1299946,-0.01016 0.2566953,-0.0346 0.3789062,-0.07227 0.00707,0.0052 0.014408,0.01054 0.021484,0.01563 0.5009477,0.35982 1.1235895,0.416635 1.65625,0.208985 0.8155711,0.318098 1.7519124,-0.01364 2.1757813,-0.806641 0.086237,-0.161928 0.160802,-0.315351 0.2265621,-0.458984 0.07638,0.04651 0.139804,0.08334 0.21875,0.132812 0.424721,0.266135 1.017472,0.645137 1.722657,0.84961 0.732568,0.212839 1.481738,-0.07545 1.902343,-0.660157 0.06405,0.02588 0.129218,0.05508 0.1875,0.07422 0.688856,0.226227 1.340954,0.230472 2.023438,-0.03125 0.326771,-0.125308 0.609759,-0.297415 0.849609,-0.496094 0.178036,0.26871 0.430251,0.491674 0.748047,0.632813 0.887437,0.393588 1.919114,-0.0055 2.310547,-0.892578 0.155825,-0.351972 0.253035,-0.67577 0.322266,-0.970703 0.387029,0.04706 0.756144,-0.03933 1.070312,-0.216797 0.08274,0.07059 0.171856,0.133645 0.265625,0.1875 -0.08656,0.952612 0.601079,1.796307 1.554688,1.898437 0.96464,0.104028 1.824413,-0.589354 1.927734,-1.55664 l 0.01172,-0.103516 c 0.10464,0.08617 0.218315,0.16442 0.345703,0.226562 0.24814,0.121338 0.509676,0.177412 0.767578,0.177735 0.116906,0.180103 0.267037,0.341836 0.453125,0.474609 0.401077,0.284966 0.879318,0.377876 1.326172,0.296875 0.209785,0.338605 0.535081,0.608334 0.945312,0.742188 0.921591,0.300222 1.906088,-0.200726 2.207032,-1.123047 0.358843,-1.103204 0.627933,-2.645938 0.75,-3.666016 0.0042,-0.03481 0.04469,-0.256799 0.06055,-0.488281 0.02154,-0.31388 0.0098,-0.519372 0.0098,-0.652344 -1.5e-5,-0.172265 0.0106,-0.397081 -0.02148,-0.710937 -0.02348,-0.230079 -0.08668,-1.207928 -0.976563,-1.855469 -0.634002,-0.461335 -1.338115,-0.444544 -1.386719,-0.447266 l -0.0293,-0.002 c -0.09194,-0.0054 -0.117106,-0.009 -0.242188,-0.02539 -0.336839,-0.04422 -0.597164,-0.04288 -0.828125,-0.04297 -0.08519,-3.4e-5 -0.169035,-0.002 -0.251953,-0.0039 -0.137122,-0.47269 -0.472203,-0.885234 -0.957031,-1.105469 -0.883625,-0.402593 -1.917627,-0.01361 -2.31836,0.871094 l -0.04883,0.105468 c -0.147413,-0.15232 -0.321824,-0.276349 -0.515625,-0.367187 -0.14534,-0.651465 -0.656264,-1.1873 -1.353515,-1.330078 -0.117473,-0.02431 -0.234018,-0.03688 -0.351563,-0.03711 -0.823846,-0.0016 -1.547651,0.572419 -1.716797,1.398438 -0.07419,0.35942 -0.208165,0.803054 -0.339844,1.318359 0.0071,-0.02795 -0.07644,0.259484 -0.111328,0.451172 -0.01967,0.108018 -0.01791,0.216037 -0.01172,0.302734 l -0.269532,0.765625 c -0.306478,-0.269754 -0.707842,-0.434395 -1.15039,-0.435546 -0.270836,-7.07e-4 -0.525192,0.06162 -0.753907,0.169921 -0.0096,-0.0656 -0.01912,-0.135605 -0.0293,-0.191406 -0.06701,-0.367255 -0.152116,-1.357823 -1.19336,-1.990234 -0.464796,-0.282301 -0.927494,-0.35025 -1.302734,-0.347656 -0.122902,8.49e-4 -0.23428,0.0091 -0.324219,0.01758 -0.410743,0.03879 -0.781242,0.140317 -1.09375,0.242187 -0.62186,0.202711 -1.211575,0.487434 -1.447265,0.597656 -0.03218,0.01509 -0.05902,0.036 -0.08984,0.05273 -0.185636,-0.236002 -0.421153,-0.44865 -0.703125,-0.595703 -0.758439,-0.395533 -1.430566,-0.295579 -1.738281,-0.220703 -0.06728,5.1e-4 -0.134762,0.0022 -0.214844,0.0059 -0.2465214,-0.425564 -0.6678261,-0.746006 -1.1914065,-0.84375 -0.8444716,-0.15777 -1.653469,0.31361 -1.9511719,1.085937 l -1.3945312,-1.05664 h -0.00391 C 5.5652849,15.340161 5.3711756,15.133467 5.1269531,14.980469 4.8328571,14.797397 4.4910477,14.705971 4.1464844,14.716797 Z m 10.8593746,5.361328 c 0.0015,0.01112 0.0024,0.02006 0.0039,0.03125 0.03603,0.259147 0.03906,0.215539 0.03906,0.357422 0,-0.0058 -0.0015,0.02377 -0.002,0.02539 -0.293318,0.08757 -0.622956,0.210677 -0.955078,0.386719 -0.448134,0.237535 -1.129574,0.663691 -1.460938,1.542969 -0.151264,-0.0795 -0.33287,-0.1765 -0.515625,-0.291016 -0.255086,-0.15984 -0.598092,-0.385242 -0.980468,-0.58789 0.04967,-0.161729 0.0887,-0.274136 0.128906,-0.394532 0.305287,0.08491 0.635523,0.09288 0.962891,-0.0039 0.426475,-0.1254 0.765541,-0.399038 0.984375,-0.746094 0.402286,0.126347 0.849616,0.113043 1.263671,-0.08008 0.144245,-0.06746 0.334003,-0.156025 0.53125,-0.240234 z"
			style="fill:#6e4525;stroke-linecap:round;stroke-linejoin:round;fill-opacity:1"
			inkscape:path-effect="#expansion"
			inkscape:original-d="m 26.191406,5.5976562 a 0.75000006,0.75000006 0 0 0 -0.59375,0.8769532 l 0.0332,0.1757812 L 25.0625,6.8125 a 0.75000006,0.75000006 0 0 0 -0.517578,0.9257812 0.75000006,0.75000006 0 0 0 0.925781,0.5156251 l 0.408203,-0.1152344 0.03125,0.4257812 0.0039,0.4003907 c -0.341066,0.027184 -0.679326,0.092398 -1.013671,0.3535156 -0.189679,0.1481359 -0.382441,0.3700344 -0.46875,0.6777344 -0.08631,0.3077002 -0.03255,0.6647812 0.113281,0.9472652 0.278709,0.539894 0.934962,0.823886 1.447265,0.734375 0.512304,-0.08951 0.927688,-0.414905 1.150391,-0.896484 0.06451,-0.139501 0.02362,-0.144154 0.05469,-0.271484 l 1.716796,0.357422 a 0.75000006,0.75000006 0 0 0 0.886719,-0.580079 0.75000006,0.75000006 0 0 0 -0.580078,-0.8886715 l -1.716797,-0.3574219 -0.08789,-0.023437 -0.0059,-0.4902343 a 0.75007506,0.75007506 0 0 0 -0.002,-0.048828 l -0.04687,-0.6621094 c 0.03482,-0.00336 0.05142,-0.00447 0.08789,-0.00781 C 27.788045,7.777525 28.171532,7.75 28.466797,7.75 a 0.75000006,0.75000006 0 0 0 0.75,-0.75 0.75000006,0.75000006 0 0 0 -0.75,-0.75 c -0.384687,0 -0.798055,0.031787 -1.154297,0.064453 -0.102818,0.00943 -0.122598,0.010748 -0.214844,0.019531 L 27.070316,6.1914058 A 0.75000006,0.75000006 0 0 0 26.19141,5.5976558 Z M 5.3496094,5.8496094 a 0.75000006,0.75000006 0 0 0 -0.765625,0.734375 c -0.0036,0.1743454 -0.082842,0.5462435 -0.1191407,0.9492187 -0.00106,0.011716 0.026622,0.086932 0.023437,0.1054688 -0.3130154,0.038462 -0.5267145,0.072304 -1.1210937,0.1523437 a 0.75000006,0.75000006 0 0 0 -0.6445312,0.8417969 0.75000006,0.75000006 0 0 0 0.84375,0.6445313 C 3.8074709,9.2448818 3.832204,9.2432048 3.976562,9.2207028 3.967382,9.2497918 3.963202,9.2724958 3.955078,9.2968748 3.7422925,9.9353554 3.5527135,10.63939 3.3359375,11.050781 A 0.75000006,0.75000006 0 0 0 3.6503906,12.064453 0.75000006,0.75000006 0 0 0 4.6640625,11.75 c 0.3528834,-0.669692 0.530793,-1.42821 0.7148437,-1.9804687 0.063909,-0.1917628 0.1674714,-0.4724564 0.21875,-0.7792969 0.018595,-0.1112664 0.00886,-0.079165 0.015625,-0.1269531 0.034714,-0.00395 0.112739,-0.00228 0.1289063,-0.00391 0.2978232,-0.029868 0.596811,-0.082697 0.7949219,-0.1015625 0.1981522,-0.01887 0.2929321,-0.00832 0.5957031,-0.00781 0.1799609,3.007e-4 0.2803484,0.00516 0.3085937,0.00977 0.01331,0.01953 0.1406251,0.5539699 0.140625,0.90625 0,0.5682582 -0.1554301,1.0299532 -0.2597656,1.8378902 a 0.75000006,0.75000006 0 0 0 0.6484375,0.839844 0.75000006,0.75000006 0 0 0 0.8398438,-0.648437 c 0.086273,-0.668069 0.2714843,-1.214059 0.2714844,-2.0292972 0,-0.4142341 0.081988,-1.1720457 -0.4785157,-1.859375 C 8.3766851,7.5284844 8.0419457,7.3496724 7.765625,7.2910156 7.4893043,7.2323588 7.2803448,7.2502433 7.1347656,7.25 6.8729413,7.2495622 6.6935093,7.2373393 6.3964844,7.265625 6.2494437,7.2796274 6.1363607,7.2970222 6,7.3164062 6.0349815,7.1012804 6.0780159,6.9042749 6.0839844,6.6152344 A 0.75000006,0.75000006 0 0 0 5.3496094,5.8496094 Z M 23.333984,6.1835937 a 0.75000006,0.75000006 0 0 0 -0.75,0.75 c 0,0.433843 0.0035,0.385272 -0.04297,0.7792969 -0.05665,0.4802081 -0.02344,0.7478885 -0.02344,1.2207032 0,0.3054468 -0.01611,0.4851592 0.02344,0.8203125 0.03132,0.2654497 0.04097,0.3122207 0.04297,0.5195317 0.0038,0.392158 0.04419,0.649801 0.160157,1.0625 a 0.75000006,0.75000006 0 0 0 0.925781,0.519531 0.75000006,0.75000006 0 0 0 0.519531,-0.925781 c -0.109977,-0.39137 -0.102076,-0.320501 -0.105469,-0.669922 -0.0025,-0.2648261 -0.02248,-0.4252525 -0.05273,-0.681641 -0.02789,-0.2363882 -0.01367,-0.2942773 -0.01367,-0.6445312 0,-0.5323286 -0.02755,-0.6954954 0.01367,-1.0449219 0.04746,-0.4022561 0.05273,-0.5197235 0.05273,-0.9550782 a 0.75000006,0.75000006 0 0 0 -0.75,-0.75 z m -12.326171,0.00195 a 0.75000006,0.75000006 0 0 0 -0.689454,0.8066406 c 0.03659,0.4630625 0.111217,0.8248896 0.146485,1.1542969 0.02089,0.1951764 0.03944,0.2669922 0.04687,0.3730469 0.0076,0.1088937 -3.96e-4,0.2091192 0.01953,0.4179687 0.03738,0.3912 0.08632,0.8598335 0.15625,1.3105472 0.01942,0.125154 0.04612,0.40887 0.134766,0.716797 0.04432,0.153963 0.102084,0.321361 0.220703,0.5 0.118618,0.178639 0.325539,0.384669 0.621094,0.470703 0.380685,0.110818 0.703708,0.01322 0.917968,-0.07031 0.214261,-0.08353 0.36629,-0.169867 0.433594,-0.197265 0.645424,-0.262743 1.361282,-0.5626 1.949219,-0.753906 A 0.75000006,0.75000006 0 0 0 15.447266,9.96875 0.75000006,0.75000006 0 0 0 14.501953,9.4863281 C 13.818476,9.708722 13.0825,10.022292 12.451172,10.279297 c -0.104156,0.0424 -0.146391,0.0637 -0.216797,0.09766 -0.02146,-0.115154 -0.04399,-0.227493 -0.06445,-0.359375 C 12.108179,9.6196471 12.061794,9.1759305 12.025391,8.7949219 12.015757,8.6939568 12.023955,8.6165334 12.009766,8.4140625 11.995277,8.2072794 11.969379,8.1016863 11.957031,7.9863281 11.912063,7.566309 11.842565,7.2307853 11.814453,6.875 a 0.75000006,0.75000006 0 0 0 -0.80664,-0.6894531 z m 9.164062,1.53125 -0.734375,0.029297 a 0.75007506,0.75007506 0 0 0 -0.01953,0 l -0.589844,0.039063 -0.458984,0.017578 a 0.75007506,0.75007506 0 0 0 -0.121094,0.015625 l -1.199219,0.2480469 a 0.75000006,0.75000006 0 0 0 -0.583984,0.8847656 0.75000006,0.75000006 0 0 0 0.886718,0.5839844 l 1.140625,-0.2363282 0.404297,-0.015625 a 0.75007506,0.75007506 0 0 0 0.01758,-0.00195 l 0.591797,-0.037109 0.722657,-0.027344 A 0.75000006,0.75000006 0 0 0 20.949219,8.4375 0.75000006,0.75000006 0 0 0 20.171875,7.7167969 Z M 4.03125,15.736328 a 0.75000006,0.75000006 0 0 0 -0.4667969,0.333984 l -1.2402343,1.986329 -0.6757813,0.986328 a 0.75000006,0.75000006 0 0 0 0.1933594,1.042968 0.75000006,0.75000006 0 0 0 1.0429687,-0.195312 l 0.6855469,-1 a 0.75007506,0.75007506 0 0 0 0.017578,-0.02734 l 0.7675781,-1.230469 a 0.75000006,0.75000006 0 0 0 0.058594,0.09766 l 2.1992187,1.667968 A 0.75000006,0.75000006 0 0 0 7.3886719,19.291016 0.75000006,0.75000006 0 0 0 7.6347656,19.679687 0.75000006,0.75000006 0 0 0 8.6796875,19.5 c 0.2149445,-0.304233 0.2328545,-0.357751 0.2929688,-0.464844 0.3665165,-0.03069 0.6357301,-0.06639 1.2480467,-0.138672 0.134855,-0.01592 0.187751,-0.01242 0.384766,-0.01367 0.328567,-0.0021 0.293129,-0.02313 0.308594,-0.04297 0.01246,0.161961 -0.01646,0.447022 0.09961,0.839843 a 0.75000006,0.75000006 0 0 0 0.931641,0.50586 0.75000006,0.75000006 0 0 0 0.507812,-0.931641 c -0.02007,-0.06793 -0.01703,-0.267281 -0.05078,-0.597656 -0.009,-0.08813 -0.0084,-0.251073 -0.08594,-0.484375 -0.07754,-0.233302 -0.295401,-0.531224 -0.580078,-0.679688 -0.606773,-0.316438 -1.115573,-0.109538 -1.140625,-0.109375 -0.17774,0.0011 -0.33234,-3.92e-4 -0.550781,0.02539 -0.3452692,0.04076 -0.4108047,0.04064 -0.5878907,0.06836 l 0.013672,-0.07227 a 0.75000006,0.75000006 0 0 0 -0.5996093,-0.875 0.75000006,0.75000006 0 0 0 -0.8750001,0.599609 l -0.1738281,0.929688 c -0.051945,0.08131 -0.129924,0.197018 -0.1796875,0.283203 A 0.75000006,0.75000006 0 0 0 7.5195312,18.203125 L 5.3203125,16.535156 A 0.75000006,0.75000006 0 0 0 4.9394531,16.587891 0.75000006,0.75000006 0 0 0 4.5976562,15.830078 0.75000006,0.75000006 0 0 0 4.03125,15.736328 Z m 18.853516,0.128906 a 0.75000006,0.75000006 0 0 0 -0.886719,0.583985 c -0.08754,0.424119 -0.224777,0.876717 -0.34961,1.365234 -0.01686,0.06598 -0.06264,0.201181 -0.0957,0.382813 -0.01153,0.06333 0.03057,0.18401 0.02539,0.265625 a 0.75000006,0.75000006 0 0 0 -0.01953,0.02148 l -0.398438,1.132812 a 0.75000006,0.75000006 0 0 0 0.457031,0.957032 0.75000006,0.75000006 0 0 0 0.957032,-0.457032 L 22.78125,19.53125 c 0.04165,-0.0055 0.113558,-0.0013 0.148437,-0.0059 -0.01487,0.201923 -0.01144,0.348047 -0.01367,0.53125 -0.0021,0.171653 -0.01376,0.224118 -0.04102,0.455078 -0.02547,0.215871 -0.02512,0.384761 -0.02539,0.554687 -1.21e-4,0.07549 5e-6,0.105552 0,0.167969 -0.165687,0.03226 -0.285938,0.03568 -0.542968,0.117187 a 0.75000006,0.75000006 0 0 0 -0.488282,0.941407 0.75000006,0.75000006 0 0 0 0.908203,0.486328 l -0.01172,0.300781 -0.06055,0.574219 a 0.75000006,0.75000006 0 0 0 0.666015,0.824219 0.75000006,0.75000006 0 0 0 0.826172,-0.666016 l 0.0625,-0.599609 a 0.75007506,0.75007506 0 0 0 0.0039,-0.05273 l 0.01367,-0.373047 0.04883,-0.4375 a 0.75007506,0.75007506 0 0 0 0.0039,-0.07813 v -0.01953 l 1.24414,-0.326172 A 0.75000006,0.75000006 0 0 0 25.75,21.814453 l -0.158203,0.324219 a 0.75000006,0.75000006 0 0 0 0.345703,1.001953 0.75000006,0.75000006 0 0 0 1.003906,-0.345703 l 1.06836,-2.195313 c -0.03238,0.135616 -0.04866,0.273023 -0.08008,0.371094 -0.217997,0.680378 -0.475663,1.396419 -0.80664,1.861328 a 0.75000006,0.75000006 0 0 0 0.175781,1.044922 0.75000006,0.75000006 0 0 0 1.044922,-0.175781 c 0.470886,-0.661433 0.707231,-1.405634 0.919922,-2.0625 -0.133167,0.783138 -0.260133,1.632012 -0.44336,2.195312 a 0.75000006,0.75000006 0 0 0 0.480469,0.945313 0.75000006,0.75000006 0 0 0 0.945313,-0.480469 c 0.330681,-1.016624 0.589548,-2.478465 0.708984,-3.476562 0.01354,-0.113154 0.04079,-0.234542 0.05469,-0.4375 0.01847,-0.269113 0.0078,-0.408503 0.0078,-0.583985 -1.8e-5,-0.205528 0.0098,-0.360629 -0.01563,-0.609375 -0.02383,-0.233502 -0.07686,-0.789365 -0.570312,-1.148437 -0.347472,-0.25284 -0.704905,-0.249383 -0.855469,-0.257813 a 0.75007506,0.75007506 0 0 0 -0.002,0 c -0.137445,-0.0077 -0.197564,-0.01401 -0.34375,-0.0332 -0.266905,-0.03504 -0.469698,-0.03507 -0.697266,-0.03516 -0.470529,-1.87e-4 -0.732746,-0.03502 -1.224609,0.02539 -0.08063,0.0099 -0.07402,0.0098 -0.140625,0.01953 l 0.115234,-0.251953 a 0.75000006,0.75000006 0 0 0 -0.373047,-0.992188 0.75000006,0.75000006 0 0 0 -0.99414,0.373047 l -0.392579,0.867187 a 0.75007506,0.75007506 0 0 0 -0.0293,0.07227 l -0.08594,0.263672 a 0.75000006,0.75000006 0 0 0 -0.580078,-0.435547 l -0.382813,0.05469 a 0.75000006,0.75000006 0 0 0 -0.71289,-0.66211 0.75000006,0.75000006 0 0 0 -0.457031,0.457031 c 0.06755,-0.25055 0.137169,-0.483626 0.193359,-0.755859 a 0.75000006,0.75000006 0 0 0 -0.583984,-0.886719 z m -7.257813,1.439453 c -0.307405,0.02903 -0.597735,0.106248 -0.876953,0.197266 -0.558437,0.182036 -1.076202,0.432181 -1.333984,0.552734 a 0.75000006,0.75000006 0 0 0 -0.361328,0.996094 0.75000006,0.75000006 0 0 0 0.996093,0.361328 c 0.27179,-0.127104 0.735217,-0.344582 1.164063,-0.484375 0.214423,-0.0699 0.418454,-0.11818 0.552734,-0.130859 0.134281,-0.01268 0.172455,0.02632 0.09375,-0.02148 -0.196472,-0.11933 -0.02093,0.01675 0.03125,0.302734 0.05218,0.285979 0.06867,0.613852 0.107422,0.892578 0.03344,0.24053 0.04883,0.301494 0.04883,0.496094 0,0.03549 -0.01417,0.23402 -0.03125,0.417969 -0.01328,0.143062 -0.02232,0.2756 -0.02539,0.423828 -0.07426,0.0094 -0.152411,0.01445 -0.357422,0.06055 -0.301799,0.06786 -0.687028,0.187346 -1.074219,0.392578 -0.387191,0.205232 -0.825947,0.490311 -1.019531,1.066406 -0.112728,0.33547 -0.07932,0.770838 0.121093,1.068359 0.200416,0.297521 0.477029,0.436242 0.71875,0.515625 0.483442,0.158767 0.903025,0.157126 1.353516,-0.01563 0.607216,-0.232852 0.990645,-0.714881 1.189453,-1.148437 0.127283,-0.277577 0.142435,-0.474858 0.183594,-0.695313 0.176319,0.0055 0.331322,-0.0044 0.410156,-0.0098 0.175061,-0.01192 0.282073,-0.03442 0.371094,-0.04492 0.02926,-0.0035 0.06411,-0.0019 0.08984,-0.0039 -0.07378,0.358512 -0.0978,0.6937 -0.263672,1.068359 a 0.75000006,0.75000006 0 0 0 0.380859,0.990234 0.75000006,0.75000006 0 0 0 0.990234,-0.382812 c 0.279948,-0.632335 0.332311,-1.137872 0.417969,-1.650391 0.25933,0.01989 0.516456,0.03883 0.935547,0.0918 a 0.75000006,0.75000006 0 0 0 0.837891,-0.650391 0.75000006,0.75000006 0 0 0 -0.650391,-0.83789 c -0.326968,-0.04132 -0.548914,-0.05054 -0.816406,-0.07617 0.01516,-0.197503 0.07145,-0.344879 0.07227,-0.644531 a 0.75000006,0.75000006 0 0 0 -0.748046,-0.751953 0.75000006,0.75000006 0 0 0 -0.751954,0.748046 c -0.0011,0.388119 -0.04248,0.455474 -0.05664,0.583985 -0.197586,-3.1e-5 -0.374223,-0.0028 -0.613281,0.02539 -0.106223,0.01253 -0.147704,0.01817 -0.201172,0.02539 4.61e-4,-0.0052 -4.75e-4,-0.0047 0,-0.0098 0.017,-0.183065 0.03711,-0.364287 0.03711,-0.55664 0,-0.301876 -0.03623,-0.500101 -0.06445,-0.703125 -0.01737,-0.124924 -0.03929,-0.538852 -0.115234,-0.955078 -0.07595,-0.416226 -0.119612,-0.944628 -0.728516,-1.314453 -0.357511,-0.21714 -0.706267,-0.21848 -1.013672,-0.189454 z M 4.7324219,18.517578 a 0.75000006,0.75000006 0 0 0 -0.75,0.75 c 0,0.181757 -0.017521,0.241817 -0.039063,0.412109 -9.267e-4,0.0073 0.00473,0.02348 0.00391,0.03125 -0.2002087,0.04338 -0.351442,0.05117 -0.8828125,0.25586 A 0.75000006,0.75000006 0 0 0 2.6328125,20.935547 0.75000006,0.75000006 0 0 0 3.3125,21.238281 c -0.045244,0.03826 -0.088776,0.03788 -0.1347656,0.08594 -0.2099609,0.219383 -0.2518529,0.549753 -0.296875,0.861328 a 0.75007506,0.75007506 0 0 0 -0.066406,0.06836 c -0.024134,0.08165 -0.00927,0.117591 -0.025391,0.197266 -4.81e-5,0.0056 -0.00586,0.01004 -0.00586,0.01563 a 0.75000006,0.75000006 0 0 0 0.00195,0.002 c -0.072865,0.373387 -0.1050448,0.759086 -0.1210938,0.927734 -0.022252,0.233868 -0.013969,0.412808 -0.013672,0.605469 1.265e-4,0.08197 -0.014634,0.302507 0.023437,0.566406 0.019036,0.13195 0.048529,0.282876 0.1386719,0.458985 0.090143,0.176108 0.2751404,0.395428 0.546875,0.496093 0.2540837,0.09413 0.5561724,0.07197 0.7382812,0.01563 0.1821089,-0.05635 0.2759425,-0.112484 0.3359375,-0.138671 C 4.9071494,25.193684 5.1860734,25.095719 5.5,25.082031 a 0.75000006,0.75000006 0 0 0 0.5605469,-0.324219 c 0.1603773,0.156249 0.315269,0.316897 0.5019531,0.451172 a 0.75000006,0.75000006 0 0 0 1.046875,-0.171875 0.75000006,0.75000006 0 0 0 0.1308594,-0.345703 0.75000006,0.75000006 0 0 0 0.1738281,0.570313 0.75000006,0.75000006 0 0 0 1.0136719,-0.308594 c 0.3117524,-0.585383 0.4374701,-0.995552 0.5996094,-1.400391 0.026747,0.0048 0.1193381,0.05064 0.1347656,0.05664 0.275562,0.107217 0.6844076,0.364545 1.1249996,0.640625 0.440593,0.27608 0.913492,0.574761 1.470704,0.736328 A 0.75000006,0.75000006 0 0 0 13.1875,24.474609 0.75000006,0.75000006 0 0 0 12.675781,23.546875 c -0.263829,-0.0765 -0.667047,-0.302207 -1.091797,-0.568359 -0.424749,-0.266153 -0.870211,-0.569653 -1.378906,-0.767579 -0.2054811,-0.07995 -0.170304,-0.04832 -0.2382811,-0.06445 0.016217,-0.120208 0.033366,-0.245476 0.074219,-0.410156 0.11047,-0.445314 0.274741,-0.914986 0.335937,-1.095703 A 0.75000006,0.75000006 0 0 0 9.90625,19.689453 0.75000006,0.75000006 0 0 0 8.9570313,20.160156 C 8.9104529,20.297705 8.718965,20.830885 8.5839844,21.375 c -0.06749,0.272058 -0.1243813,0.54626 -0.140625,0.830078 -0.00207,0.03625 0.00841,0.0802 0.00781,0.117188 -0.43198,0.708436 -0.5871901,1.416886 -0.8300782,1.890625 A 0.75000006,0.75000006 0 0 0 7.4375,23.990234 C 7.3434852,23.922613 7.1067285,23.699671 6.8671875,23.464844 6.679857,23.2812 6.4745316,23.101003 6.2597656,22.929687 c 0.107835,-0.0592 0.2144991,-0.07121 0.3144531,-0.171875 0.2284291,-0.23005 0.3678499,-0.577252 0.3886719,-0.912109 0.020776,-0.334116 -0.052994,-0.542342 -0.1308594,-0.773437 -0.077865,-0.231096 -0.1588707,-0.431465 -0.3125,-0.648438 -0.066543,-0.09398 -0.1406088,-0.235388 -0.3242187,-0.404297 -0.1836099,-0.168909 -0.466831,-0.299568 -0.7363281,-0.345703 -0.00733,-0.0013 -0.00459,-7.75e-4 -0.011719,-0.002 0.015243,-0.110914 0.035156,-0.200216 0.035156,-0.404297 a 0.75000006,0.75000006 0 0 0 -0.75,-0.75 z m 20.0917971,0.65625 a 0.75000006,0.75000006 0 0 0 0.263672,1.007813 0.75000006,0.75000006 0 0 0 1.02539,-0.269532 l 0.306641,-0.523437 0.0078,-0.01172 c 0.242414,-0.02425 0.492771,-0.05671 0.726563,-0.09961 a 0.75000006,0.75000006 0 0 0 -0.294922,0.261718 l -0.791016,1.623047 a 0.75000006,0.75000006 0 0 0 -0.0098,-0.152343 0.75000006,0.75000006 0 0 0 -0.916016,-0.535157 l -0.779297,0.205078 c 0.02319,-0.195001 0.04966,-0.350257 0.05273,-0.603515 0.0031,-0.252607 -0.0057,-0.330939 0.0078,-0.472656 0.02178,-0.228918 0.01662,-0.267286 0.02539,-0.376954 z m 3.708984,0.04297 c 0.163412,6.3e-5 0.249894,0.0079 0.353516,0.01563 A 0.75000006,0.75000006 0 0 0 28.25,19.724609 a 0.75000006,0.75000006 0 0 0 -0.351563,-0.5 c 0.173798,-0.0012 0.308067,-0.0079 0.634766,-0.0078 z m 1.015625,0.03906 c -0.07409,-0.05392 -0.05914,-0.108865 -0.03906,0.08789 0.0017,0.01661 -0.0012,0.03595 0,0.05078 a 0.75000006,0.75000006 0 0 0 -0.142579,-0.125 c 0.04111,0.0032 0.07949,0.0092 0.125,0.01172 0.167344,0.0094 0.126595,0.02551 0.05664,-0.02539 z M 5.0996094,23.251953 a 0.75000006,0.75000006 0 0 0 0.076172,0.404297 c -0.3615933,0.04864 -0.6976094,0.149812 -1.0234375,0.28125 -7.924e-4,-0.168027 -0.00463,-0.290146 0.00586,-0.400391 0.00703,-0.07385 0.014366,-0.115844 0.021484,-0.195312 0.2362166,-0.02448 0.5098663,-0.02312 0.6953125,-0.05859 0.035171,-0.0067 0.1676234,-0.02684 0.2246094,-0.03125 z"
		/>
		<path
			d="m 26.191406,5.5976562 a 0.75000006,0.75000006 0 0 0 -0.59375,0.8769532 l 0.0332,0.1757812 L 25.0625,6.8125 a 0.75000006,0.75000006 0 0 0 -0.517578,0.9257812 0.75000006,0.75000006 0 0 0 0.925781,0.5156251 l 0.408203,-0.1152344 0.03125,0.4257812 0.0039,0.4003907 c -0.341066,0.027184 -0.679326,0.092398 -1.013671,0.3535156 -0.189679,0.1481359 -0.382441,0.3700344 -0.46875,0.6777344 -0.08631,0.3077002 -0.03255,0.6647812 0.113281,0.9472652 0.278709,0.539894 0.934962,0.823886 1.447265,0.734375 0.512304,-0.08951 0.927688,-0.414905 1.150391,-0.896484 0.06451,-0.139501 0.02362,-0.144154 0.05469,-0.271484 l 1.716796,0.357422 a 0.75000006,0.75000006 0 0 0 0.886719,-0.580079 0.75000006,0.75000006 0 0 0 -0.580078,-0.8886715 l -1.716797,-0.3574219 -0.08789,-0.023437 -0.0059,-0.4902343 a 0.75007506,0.75007506 0 0 0 -0.002,-0.048828 l -0.04687,-0.6621094 c 0.03482,-0.00336 0.05142,-0.00447 0.08789,-0.00781 C 27.788045,7.777525 28.171532,7.75 28.466797,7.75 a 0.75000006,0.75000006 0 0 0 0.75,-0.75 0.75000006,0.75000006 0 0 0 -0.75,-0.75 c -0.384687,0 -0.798055,0.031787 -1.154297,0.064453 -0.102818,0.00943 -0.122598,0.010748 -0.214844,0.019531 l -0.02734,-0.1425782 a 0.75000006,0.75000006 0 0 0 -0.878906,-0.59375 z M 5.3496094,5.8496094 a 0.75000006,0.75000006 0 0 0 -0.765625,0.734375 c -0.0036,0.1743454 -0.082842,0.5462435 -0.1191407,0.9492187 -0.00106,0.011716 0.026622,0.086932 0.023437,0.1054688 -0.3130154,0.038462 -0.5267145,0.072304 -1.1210937,0.1523437 a 0.75000006,0.75000006 0 0 0 -0.6445312,0.8417969 0.75000006,0.75000006 0 0 0 0.84375,0.6445313 c 0.2410651,-0.032462 0.2657982,-0.034139 0.4101562,-0.056641 -0.00918,0.029089 -0.01336,0.051793 -0.021484,0.076172 C 3.7422925,9.9353554 3.5527135,10.63939 3.3359375,11.050781 A 0.75000006,0.75000006 0 0 0 3.6503906,12.064453 0.75000006,0.75000006 0 0 0 4.6640625,11.75 c 0.3528834,-0.669692 0.530793,-1.42821 0.7148437,-1.9804687 0.063909,-0.1917628 0.1674714,-0.4724564 0.21875,-0.7792969 0.018595,-0.1112664 0.00886,-0.079165 0.015625,-0.1269531 0.034714,-0.00395 0.112739,-0.00228 0.1289063,-0.00391 0.2978232,-0.029868 0.596811,-0.082697 0.7949219,-0.1015625 0.1981522,-0.01887 0.2929321,-0.00832 0.5957031,-0.00781 0.1799609,3.007e-4 0.2803484,0.00516 0.3085937,0.00977 0.01331,0.01953 0.1406251,0.5539699 0.140625,0.90625 0,0.5682584 -0.1554301,1.0299534 -0.2597656,1.8378904 a 0.75000006,0.75000006 0 0 0 0.6484375,0.839844 0.75000006,0.75000006 0 0 0 0.8398438,-0.648437 c 0.086273,-0.668069 0.2714843,-1.214059 0.2714844,-2.0292974 0,-0.4142341 0.081988,-1.1720457 -0.4785157,-1.859375 C 8.3766851,7.5284844 8.0419457,7.3496724 7.765625,7.2910156 7.4893043,7.2323588 7.2803448,7.2502433 7.1347656,7.25 6.8729413,7.2495622 6.6935093,7.2373393 6.3964844,7.265625 6.2494437,7.2796274 6.1363607,7.2970222 6,7.3164062 6.0349815,7.1012804 6.0780159,6.9042749 6.0839844,6.6152344 A 0.75000006,0.75000006 0 0 0 5.3496094,5.8496094 Z M 23.333984,6.1835937 a 0.75000006,0.75000006 0 0 0 -0.75,0.75 c 0,0.433843 0.0035,0.385272 -0.04297,0.7792969 -0.05665,0.4802081 -0.02344,0.7478885 -0.02344,1.2207032 0,0.3054468 -0.01611,0.4851592 0.02344,0.8203125 0.03132,0.2654497 0.04097,0.3122207 0.04297,0.5195317 0.0038,0.392158 0.04419,0.649801 0.160157,1.0625 a 0.75000006,0.75000006 0 0 0 0.925781,0.519531 0.75000006,0.75000006 0 0 0 0.519531,-0.925781 c -0.109977,-0.39137 -0.102076,-0.320501 -0.105469,-0.669922 -0.0025,-0.2648261 -0.02248,-0.4252525 -0.05273,-0.681641 -0.02789,-0.2363882 -0.01367,-0.2942773 -0.01367,-0.6445312 0,-0.5323286 -0.02755,-0.6954954 0.01367,-1.0449219 0.04746,-0.4022561 0.05273,-0.5197235 0.05273,-0.9550782 a 0.75000006,0.75000006 0 0 0 -0.75,-0.75 z m -12.326171,0.00195 a 0.75000006,0.75000006 0 0 0 -0.689454,0.8066406 c 0.03659,0.4630625 0.111217,0.8248896 0.146485,1.1542969 0.02089,0.1951764 0.03944,0.2669922 0.04687,0.3730469 0.0076,0.1088937 -3.96e-4,0.2091192 0.01953,0.4179687 0.03738,0.3912 0.08632,0.8598335 0.15625,1.310547 0.01942,0.125154 0.04612,0.40887 0.134766,0.716797 0.04432,0.153963 0.102084,0.321361 0.220703,0.5 0.118618,0.178639 0.325539,0.384669 0.621094,0.470703 0.380685,0.110818 0.703708,0.01322 0.917968,-0.07031 0.214261,-0.08353 0.36629,-0.169867 0.433594,-0.197265 0.645424,-0.262743 1.361282,-0.5626 1.949219,-0.753906 A 0.75000006,0.75000006 0 0 0 15.447266,9.96875 0.75000006,0.75000006 0 0 0 14.501953,9.4863281 C 13.818476,9.708722 13.0825,10.022292 12.451172,10.279297 c -0.104156,0.0424 -0.146391,0.0637 -0.216797,0.09766 -0.02146,-0.115154 -0.04399,-0.227493 -0.06445,-0.359375 C 12.108179,9.6196471 12.061794,9.1759305 12.025391,8.7949219 12.015757,8.6939568 12.023955,8.6165334 12.009766,8.4140625 11.995277,8.2072794 11.969379,8.1016863 11.957031,7.9863281 11.912063,7.566309 11.842565,7.2307853 11.814453,6.875 a 0.75000006,0.75000006 0 0 0 -0.80664,-0.6894531 z m 9.164062,1.53125 -0.734375,0.029297 a 0.75007506,0.75007506 0 0 0 -0.01953,0 l -0.589844,0.039063 -0.458984,0.017578 a 0.75007506,0.75007506 0 0 0 -0.121094,0.015625 l -1.199219,0.2480469 a 0.75000006,0.75000006 0 0 0 -0.583984,0.8847656 0.75000006,0.75000006 0 0 0 0.886718,0.5839844 l 1.140625,-0.2363282 0.404297,-0.015625 a 0.75007506,0.75007506 0 0 0 0.01758,-0.00195 l 0.591797,-0.037109 0.722657,-0.027344 A 0.75000006,0.75000006 0 0 0 20.949219,8.4375 0.75000006,0.75000006 0 0 0 20.171875,7.7167969 Z M 4.03125,15.736328 a 0.75000006,0.75000006 0 0 0 -0.4667969,0.333984 l -1.2402343,1.986329 -0.6757813,0.986328 a 0.75000006,0.75000006 0 0 0 0.1933594,1.042968 0.75000006,0.75000006 0 0 0 1.0429687,-0.195312 l 0.6855469,-1 a 0.75007506,0.75007506 0 0 0 0.017578,-0.02734 l 0.7675781,-1.230469 a 0.75000006,0.75000006 0 0 0 0.058594,0.09766 l 2.1992187,1.667968 A 0.75000006,0.75000006 0 0 0 7.3886719,19.291016 0.75000006,0.75000006 0 0 0 7.6347656,19.679687 0.75000006,0.75000006 0 0 0 8.6796875,19.5 c 0.2149445,-0.304233 0.2328545,-0.357751 0.2929688,-0.464844 0.3665165,-0.03069 0.6357301,-0.06639 1.2480467,-0.138672 0.134855,-0.01592 0.187751,-0.01242 0.384766,-0.01367 0.328567,-0.0021 0.293129,-0.02313 0.308594,-0.04297 0.01246,0.161961 -0.01646,0.447022 0.09961,0.839843 a 0.75000006,0.75000006 0 0 0 0.931641,0.50586 0.75000006,0.75000006 0 0 0 0.507812,-0.931641 c -0.02007,-0.06793 -0.01703,-0.267281 -0.05078,-0.597656 -0.009,-0.08813 -0.0084,-0.251073 -0.08594,-0.484375 -0.07754,-0.233302 -0.295401,-0.531224 -0.580078,-0.679688 -0.606773,-0.316438 -1.115573,-0.109538 -1.140625,-0.109375 -0.17774,0.0011 -0.33234,-3.92e-4 -0.550781,0.02539 -0.3452692,0.04076 -0.4108047,0.04064 -0.5878907,0.06836 l 0.013672,-0.07227 a 0.75000006,0.75000006 0 0 0 -0.5996093,-0.875 0.75000006,0.75000006 0 0 0 -0.8750001,0.599609 l -0.1738281,0.929688 c -0.051945,0.08131 -0.129924,0.197018 -0.1796875,0.283203 A 0.75000006,0.75000006 0 0 0 7.5195312,18.203125 L 5.3203125,16.535156 A 0.75000006,0.75000006 0 0 0 4.9394531,16.587891 0.75000006,0.75000006 0 0 0 4.5976562,15.830078 0.75000006,0.75000006 0 0 0 4.03125,15.736328 Z m 18.853516,0.128906 a 0.75000006,0.75000006 0 0 0 -0.886719,0.583985 c -0.08754,0.424119 -0.224777,0.876717 -0.34961,1.365234 -0.01686,0.06598 -0.06264,0.201181 -0.0957,0.382813 -0.01153,0.06333 0.03057,0.18401 0.02539,0.265625 a 0.75000006,0.75000006 0 0 0 -0.01953,0.02148 l -0.398438,1.132812 a 0.75000006,0.75000006 0 0 0 0.457031,0.957032 0.75000006,0.75000006 0 0 0 0.957032,-0.457032 L 22.78125,19.53125 c 0.04165,-0.0055 0.113558,-0.0013 0.148437,-0.0059 -0.01487,0.201923 -0.01144,0.348047 -0.01367,0.53125 -0.0021,0.171653 -0.01376,0.224118 -0.04102,0.455078 -0.02547,0.215871 -0.02512,0.384761 -0.02539,0.554687 -1.21e-4,0.07549 5e-6,0.105552 0,0.167969 -0.165687,0.03226 -0.285938,0.03568 -0.542968,0.117187 a 0.75000006,0.75000006 0 0 0 -0.488282,0.941407 0.75000006,0.75000006 0 0 0 0.908203,0.486328 l -0.01172,0.300781 -0.06055,0.574219 a 0.75000006,0.75000006 0 0 0 0.666015,0.824219 0.75000006,0.75000006 0 0 0 0.826172,-0.666016 l 0.0625,-0.599609 a 0.75007506,0.75007506 0 0 0 0.0039,-0.05273 l 0.01367,-0.373047 0.04883,-0.4375 a 0.75007506,0.75007506 0 0 0 0.0039,-0.07813 v -0.01953 l 1.24414,-0.326172 A 0.75000006,0.75000006 0 0 0 25.75,21.814453 l -0.158203,0.324219 a 0.75000006,0.75000006 0 0 0 0.345703,1.001953 0.75000006,0.75000006 0 0 0 1.003906,-0.345703 l 1.06836,-2.195313 c -0.03238,0.135616 -0.04866,0.273023 -0.08008,0.371094 -0.217997,0.680378 -0.475663,1.396419 -0.80664,1.861328 a 0.75000006,0.75000006 0 0 0 0.175781,1.044922 0.75000006,0.75000006 0 0 0 1.044922,-0.175781 c 0.470886,-0.661433 0.707231,-1.405634 0.919922,-2.0625 -0.133167,0.783138 -0.260133,1.632012 -0.44336,2.195312 a 0.75000006,0.75000006 0 0 0 0.480469,0.945313 0.75000006,0.75000006 0 0 0 0.945313,-0.480469 c 0.330681,-1.016624 0.589548,-2.478465 0.708984,-3.476562 0.01354,-0.113154 0.04079,-0.234542 0.05469,-0.4375 0.01847,-0.269113 0.0078,-0.408503 0.0078,-0.583985 -1.8e-5,-0.205528 0.0098,-0.360629 -0.01563,-0.609375 -0.02383,-0.233502 -0.07686,-0.789365 -0.570312,-1.148437 -0.347472,-0.25284 -0.704905,-0.249383 -0.855469,-0.257813 a 0.75007506,0.75007506 0 0 0 -0.002,0 c -0.137445,-0.0077 -0.197564,-0.01401 -0.34375,-0.0332 -0.266905,-0.03504 -0.469698,-0.03507 -0.697266,-0.03516 -0.470529,-1.87e-4 -0.732746,-0.03502 -1.224609,0.02539 -0.08063,0.0099 -0.07402,0.0098 -0.140625,0.01953 l 0.115234,-0.251953 a 0.75000006,0.75000006 0 0 0 -0.373047,-0.992188 0.75000006,0.75000006 0 0 0 -0.99414,0.373047 l -0.392579,0.867187 a 0.75007506,0.75007506 0 0 0 -0.0293,0.07227 l -0.08594,0.263672 a 0.75000006,0.75000006 0 0 0 -0.580078,-0.435547 l -0.382813,0.05469 a 0.75000006,0.75000006 0 0 0 -0.71289,-0.66211 0.75000006,0.75000006 0 0 0 -0.457031,0.457031 c 0.06755,-0.25055 0.137169,-0.483626 0.193359,-0.755859 a 0.75000006,0.75000006 0 0 0 -0.583984,-0.886719 z m -7.257813,1.439453 c -0.307405,0.02903 -0.597735,0.106248 -0.876953,0.197266 -0.558437,0.182036 -1.076202,0.432181 -1.333984,0.552734 a 0.75000006,0.75000006 0 0 0 -0.361328,0.996094 0.75000006,0.75000006 0 0 0 0.996093,0.361328 c 0.27179,-0.127104 0.735217,-0.344582 1.164063,-0.484375 0.214423,-0.0699 0.418454,-0.11818 0.552734,-0.130859 0.134281,-0.01268 0.172455,0.02632 0.09375,-0.02148 -0.196472,-0.11933 -0.02093,0.01675 0.03125,0.302734 0.05218,0.285979 0.06867,0.613852 0.107422,0.892578 0.03344,0.24053 0.04883,0.301494 0.04883,0.496094 0,0.03549 -0.01417,0.23402 -0.03125,0.417969 -0.01328,0.143062 -0.02232,0.2756 -0.02539,0.423828 -0.07426,0.0094 -0.152411,0.01445 -0.357422,0.06055 -0.301799,0.06786 -0.687028,0.187346 -1.074219,0.392578 -0.387191,0.205232 -0.825947,0.490311 -1.019531,1.066406 -0.112728,0.33547 -0.07932,0.770838 0.121093,1.068359 0.200416,0.297521 0.477029,0.436242 0.71875,0.515625 0.483442,0.158767 0.903025,0.157126 1.353516,-0.01563 0.607216,-0.232852 0.990645,-0.714881 1.189453,-1.148437 0.127283,-0.277577 0.142435,-0.474858 0.183594,-0.695313 0.176319,0.0055 0.331322,-0.0044 0.410156,-0.0098 0.175061,-0.01192 0.282073,-0.03442 0.371094,-0.04492 0.02926,-0.0035 0.06411,-0.0019 0.08984,-0.0039 -0.07378,0.358512 -0.0978,0.6937 -0.263672,1.068359 a 0.75000006,0.75000006 0 0 0 0.380859,0.990234 0.75000006,0.75000006 0 0 0 0.990234,-0.382812 c 0.279948,-0.632335 0.332311,-1.137872 0.417969,-1.650391 0.25933,0.01989 0.516456,0.03883 0.935547,0.0918 a 0.75000006,0.75000006 0 0 0 0.837891,-0.650391 0.75000006,0.75000006 0 0 0 -0.650391,-0.83789 c -0.326968,-0.04132 -0.548914,-0.05054 -0.816406,-0.07617 0.01516,-0.197503 0.07145,-0.344879 0.07227,-0.644531 a 0.75000006,0.75000006 0 0 0 -0.748046,-0.751953 0.75000006,0.75000006 0 0 0 -0.751954,0.748046 c -0.0011,0.388119 -0.04248,0.455474 -0.05664,0.583985 -0.197586,-3.1e-5 -0.374223,-0.0028 -0.613281,0.02539 -0.106223,0.01253 -0.147704,0.01817 -0.201172,0.02539 4.61e-4,-0.0052 -4.75e-4,-0.0047 0,-0.0098 0.017,-0.183065 0.03711,-0.364287 0.03711,-0.55664 0,-0.301876 -0.03623,-0.500101 -0.06445,-0.703125 -0.01737,-0.124924 -0.03929,-0.538852 -0.115234,-0.955078 -0.07595,-0.416226 -0.119612,-0.944628 -0.728516,-1.314453 -0.357511,-0.21714 -0.706267,-0.21848 -1.013672,-0.189454 z M 4.7324219,18.517578 a 0.75000006,0.75000006 0 0 0 -0.75,0.75 c 0,0.181757 -0.017521,0.241817 -0.039063,0.412109 -9.267e-4,0.0073 0.00473,0.02348 0.00391,0.03125 -0.2002087,0.04338 -0.351442,0.05117 -0.8828125,0.25586 A 0.75000006,0.75000006 0 0 0 2.6328125,20.935547 0.75000006,0.75000006 0 0 0 3.3125,21.238281 c -0.045244,0.03826 -0.088776,0.03788 -0.1347656,0.08594 -0.2099609,0.219383 -0.2518529,0.549753 -0.296875,0.861328 a 0.75007506,0.75007506 0 0 0 -0.066406,0.06836 c -0.024134,0.08165 -0.00927,0.117591 -0.025391,0.197266 -4.81e-5,0.0056 -0.00586,0.01004 -0.00586,0.01563 a 0.75000006,0.75000006 0 0 0 0.00195,0.002 c -0.072865,0.373387 -0.1050448,0.759086 -0.1210938,0.927734 -0.022252,0.233868 -0.013969,0.412808 -0.013672,0.605469 1.265e-4,0.08197 -0.014634,0.302507 0.023437,0.566406 0.019036,0.13195 0.048529,0.282876 0.1386719,0.458985 0.090143,0.176108 0.2751404,0.395428 0.546875,0.496093 0.2540837,0.09413 0.5561724,0.07197 0.7382812,0.01563 0.1821089,-0.05635 0.2759425,-0.112484 0.3359375,-0.138671 C 4.9071494,25.193684 5.1860734,25.095719 5.5,25.082031 a 0.75000006,0.75000006 0 0 0 0.5605469,-0.324219 c 0.1603773,0.156249 0.315269,0.316897 0.5019531,0.451172 a 0.75000006,0.75000006 0 0 0 1.046875,-0.171875 0.75000006,0.75000006 0 0 0 0.1308594,-0.345703 0.75000006,0.75000006 0 0 0 0.1738281,0.570313 0.75000006,0.75000006 0 0 0 1.0136719,-0.308594 c 0.3117524,-0.585383 0.4374701,-0.995552 0.5996094,-1.400391 0.026747,0.0048 0.1193381,0.05064 0.1347656,0.05664 0.275562,0.107217 0.6844076,0.364545 1.1249996,0.640625 0.440593,0.27608 0.913492,0.574761 1.470704,0.736328 A 0.75000006,0.75000006 0 0 0 13.1875,24.474609 0.75000006,0.75000006 0 0 0 12.675781,23.546875 c -0.263829,-0.0765 -0.667047,-0.302207 -1.091797,-0.568359 -0.424749,-0.266153 -0.870211,-0.569653 -1.378906,-0.767579 -0.2054811,-0.07995 -0.170304,-0.04832 -0.2382811,-0.06445 0.016217,-0.120208 0.033366,-0.245476 0.074219,-0.410156 0.11047,-0.445314 0.274741,-0.914986 0.335937,-1.095703 A 0.75000006,0.75000006 0 0 0 9.90625,19.689453 0.75000006,0.75000006 0 0 0 8.9570313,20.160156 C 8.9104529,20.297705 8.718965,20.830885 8.5839844,21.375 c -0.06749,0.272058 -0.1243813,0.54626 -0.140625,0.830078 -0.00207,0.03625 0.00841,0.0802 0.00781,0.117188 -0.43198,0.708436 -0.5871901,1.416886 -0.8300782,1.890625 A 0.75000006,0.75000006 0 0 0 7.4375,23.990234 C 7.3434852,23.922613 7.1067285,23.699671 6.8671875,23.464844 6.679857,23.2812 6.4745316,23.101003 6.2597656,22.929687 c 0.107835,-0.0592 0.2144991,-0.07121 0.3144531,-0.171875 0.2284291,-0.23005 0.3678499,-0.577252 0.3886719,-0.912109 0.020776,-0.334116 -0.052994,-0.542342 -0.1308594,-0.773437 -0.077865,-0.231096 -0.1588707,-0.431465 -0.3125,-0.648438 -0.066543,-0.09398 -0.1406088,-0.235388 -0.3242187,-0.404297 -0.1836099,-0.168909 -0.466831,-0.299568 -0.7363281,-0.345703 -0.00733,-0.0013 -0.00459,-7.75e-4 -0.011719,-0.002 0.015243,-0.110914 0.035156,-0.200216 0.035156,-0.404297 a 0.75000006,0.75000006 0 0 0 -0.75,-0.75 z m 20.0917971,0.65625 a 0.75000006,0.75000006 0 0 0 0.263672,1.007813 0.75000006,0.75000006 0 0 0 1.02539,-0.269532 l 0.306641,-0.523437 0.0078,-0.01172 c 0.242414,-0.02425 0.492771,-0.05671 0.726563,-0.09961 a 0.75000006,0.75000006 0 0 0 -0.294922,0.261718 l -0.791016,1.623047 a 0.75000006,0.75000006 0 0 0 -0.0098,-0.152343 0.75000006,0.75000006 0 0 0 -0.916016,-0.535157 l -0.779297,0.205078 c 0.02319,-0.195001 0.04966,-0.350257 0.05273,-0.603515 0.0031,-0.252607 -0.0057,-0.330939 0.0078,-0.472656 0.02178,-0.228918 0.01662,-0.267286 0.02539,-0.376954 z m 3.708984,0.04297 c 0.163412,6.3e-5 0.249894,0.0079 0.353516,0.01563 A 0.75000006,0.75000006 0 0 0 28.25,19.724609 a 0.75000006,0.75000006 0 0 0 -0.351563,-0.5 c 0.173798,-0.0012 0.308067,-0.0079 0.634766,-0.0078 z m 1.015625,0.03906 c -0.07409,-0.05392 -0.05914,-0.108865 -0.03906,0.08789 0.0017,0.01661 -0.0012,0.03595 0,0.05078 a 0.75000006,0.75000006 0 0 0 -0.142579,-0.125 c 0.04111,0.0032 0.07949,0.0092 0.125,0.01172 0.167344,0.0094 0.126595,0.02551 0.05664,-0.02539 z M 5.0996094,23.251953 a 0.75000006,0.75000006 0 0 0 0.076172,0.404297 c -0.3615933,0.04864 -0.6976094,0.149812 -1.0234375,0.28125 -7.924e-4,-0.168027 -0.00463,-0.290146 0.00586,-0.400391 0.00703,-0.07385 0.014366,-0.115844 0.021484,-0.195312 0.2362166,-0.02448 0.5098663,-0.02312 0.6953125,-0.05859 0.035171,-0.0067 0.1676234,-0.02684 0.2246094,-0.03125 z"
			style="fill:#ff7d13;stroke-linecap:round;stroke-linejoin:round;fill-opacity:1"
		/>
	</g>
</svg>
