<?xml version="1.0" encoding="UTF-8" standalone="no"?>
<svg
	width="256"
	height="256"
	viewBox="0 0 32 32"
	version="1.1"
	inkscape:version="1.3.2 (091e20ef0f, 2023-11-25, custom)"
	aria-label="お前に逮捕状が出ている"
	sodipodi:docname="square_omaenitaihojougadeteiru.svg"
	xmlns:inkscape="http://www.inkscape.org/namespaces/inkscape"
	xmlns:sodipodi="http://sodipodi.sourceforge.net/DTD/sodipodi-0.dtd"
	xmlns="http://www.w3.org/2000/svg"
	xmlns:svg="http://www.w3.org/2000/svg"
	xmlns:rdf="http://www.w3.org/1999/02/22-rdf-syntax-ns#"
	xmlns:cc="http://creativecommons.org/ns#"
	xmlns:dc="http://purl.org/dc/elements/1.1/"
	>
	<title>square_omaenitaihojougadeteiru</title>
	<metadata>
		<rdf:RDF>
			<cc:Work>
				<dc:title>お前に逮捕状が出ている</dc:title>
				<dc:creator>
					<cc:Agent><dc:title>zawa-ch.</dc:title></cc:Agent>
				</dc:creator>
				<cc:license rdf:resource="http://www.opensource.org/licenses/mit-license.php" />
			</cc:Work>
		</rdf:RDF>
	</metadata>
	<style>
		.typography {
			-inkscape-font-specification:'源柔ゴシック, Black';
			font-family:'源柔ゴシック';
			font-stretch:normal;
			font-style:normal;
			font-variant:normal;
			font-weight:900;
			line-height:1;
			text-anchor:start;
		}
		.fg { 
			fill:lightpink;
			fill-opacity:1;
			stroke:none;
		}
	</style>
	<sodipodi:namedview
		pagecolor="#505050"
		bordercolor="#eeeeee"
		borderopacity="1"
		inkscape:showpageshadow="0"
		inkscape:pageopacity="0"
		inkscape:pagecheckerboard="0"
		inkscape:deskcolor="#505050"
		inkscape:document-units="px"
		showgrid="false"
		>
	<sodipodi:guide position="0,0" orientation="32,0" />
	<sodipodi:guide position="32,0" orientation="32,0" />
	<sodipodi:guide position="0,0" orientation="0,32" />
	<sodipodi:guide position="0,10.6667" orientation="0,32" />
	<sodipodi:guide position="0,21.3333" orientation="0,32" />
	<sodipodi:guide position="0,32" orientation="0,32" />
	</sodipodi:namedview>
	<g inkscape:groupmode="layer" display="none">
		<text xml:space="preserve" x="-0.37221682" y="9.1884146" class="typography fg" style="font-size:10.89px;"><tspan sodipodi:role="line" x="-0.37221682" y="9.1884146">お前に</tspan><tspan sodipodi:role="line" x="-0.37221682" y="20.078415">逮捕状が</tspan><tspan sodipodi:role="line" x="-0.37221682" y="30.968414">出ている</tspan></text>
	</g>
	<g inkscape:groupmode="layer">
		<g class="typography fg" style="font-size:10.89px;" aria-label="お前に&#10;逮捕状が&#10;出ている">
			<path
				d="m 2.2566224,8.0079556 q 0.1541108,0 0.2311662,-0.074443 0.088063,-0.085078 0.088063,-0.3509473 0,-0.1276172 -0.022016,-0.9252246 0,-0.031904 -0.022015,-0.042539 -0.022016,-0.010635 -0.044032,0 -0.8255935,0.4785645 -0.8255935,0.9252246 0,0.1807911 0.1981424,0.3296778 0.2091504,0.138252 0.3962849,0.1382515 z M 4.0729283,4.1475355 v 0.3296778 q 0,0.085078 0.088063,0.063809 1.0237361,-0.2126953 1.8823534,-0.2126953 0.891641,0 1.6071554,0.2871387 0.7265224,0.2765039 1.166839,0.8507813 0.4403166,0.5636426 0.4403166,1.3399805 0,1.0209375 -0.5724116,1.7334669 -0.5724115,0.7018945 -1.9373929,1.0315722 -0.385277,0.085078 -0.8586173,0.1276172 -0.05504,0.010635 -0.099071,0.010635 -0.2311663,0 -0.4293087,-0.1276172 Q 5.1186802,9.4223794 5.019609,9.167145 L 4.8324745,8.6566763 q -0.022016,-0.074443 -0.022016,-0.1488867 0,-0.138252 0.077055,-0.2552344 Q 5.0306168,8.0611294 5.272791,8.0611294 5.7241155,8.0398598 6.0213292,7.986686 6.6928119,7.8803384 7.1001047,7.5825649 7.5073976,7.2741567 7.5073976,6.7955922 q 0,-0.4785644 -0.4072929,-0.7550684 -0.3962848,-0.2765039 -1.0787755,-0.2765039 -0.8916411,0 -1.8273139,0.2233301 -0.088063,0.02127 -0.077055,0.095713 0.044032,1.5526758 0.044032,1.818545 0,1.0741114 -0.3522532,1.4782325 -0.3522533,0.4147558 -1.0127282,0.4147558 -0.6164431,0 -1.2659101,-0.2871386 Q 0.89164103,9.2309536 0.44031658,8.7204849 0,8.1993813 0,7.6144692 0,6.9125747 0.68249071,6.2213149 1.3759893,5.5300551 2.4437569,5.0727601 2.5208124,5.0408558 2.5208124,4.9557777 2.5098044,4.7005433 2.5098044,4.2007093 v -0.542373 q 0,-0.074443 -0.077055,-0.074443 -0.1541109,0.010635 -0.4072929,0.010635 -0.638459,0 -0.9797043,-0.010635 Q 0.770554,3.5732581 0.58341947,3.3818324 0.39628492,3.1797718 0.385277,2.9139027 V 2.5948597 Q 0.3742691,2.3502601 0.56140364,2.1801038 0.73753025,2.0205823 0.96869647,2.0205823 q 0.0220163,0 0.0440316,0 0.3852769,0.021269 0.9686964,0.021269 0.2972136,0 0.4513245,0 0.077055,-0.010635 0.077055,-0.085078 V 1.3505921 L 2.4877886,0.87202759 q 0,-0.22333008 0.1651188,-0.39348634 0.1651187,-0.19142579 0.4293087,-0.19142579 h 0.5503957 q 0.253182,0 0.4293086,0.19142579 0.1431029,0.15952149 0.1431029,0.37221681 0,0.0319043 0,0.0638086 Q 4.1830075,1.1591663 4.1719995,1.3399573 L 4.1389758,1.807887 q 0,0.031904 0.022015,0.053174 0.022016,0.02127 0.05504,0.02127 0.638459,-0.085078 1.2108706,-0.2126954 0.066048,-0.010635 0.1320949,-0.010635 0.1651188,0 0.3082217,0.1063476 0.1981424,0.1488868 0.2091503,0.3828516 V 2.5204163 Q 6.0873767,2.7862855 5.91125,3.0096156 5.7351234,3.2223109 5.4599255,3.2648499 4.887514,3.3605628 4.1719995,3.4350062 4.0839363,3.445641 4.0839363,3.5307191 4.0729283,3.7327796 4.0729283,4.1475355 Z M 7.1551444,2.9989808 Q 6.9129702,2.8819984 6.8359149,2.6373987 q -0.033023,-0.095713 -0.033023,-0.180791 0,-0.1488867 0.077055,-0.2871387 L 6.9900256,1.9993128 q 0.132095,-0.2339649 0.385277,-0.319043 0.1100791,-0.031904 0.2091504,-0.031904 0.1541108,0 0.2972137,0.074443 0.9686964,0.4572949 1.7172346,0.8826855 0.2311662,0.138252 0.2972137,0.3934864 0.022015,0.074443 0.022015,0.1595215 0,0.1701562 -0.088063,0.319043 L 9.6759568,3.7221449 q -0.132095,0.2126953 -0.385277,0.2765039 -0.066048,0.010635 -0.143103,0.010635 -0.1761265,0 -0.3302374,-0.095713 -0.7375303,-0.4466603 -1.662195,-0.91459 z M 13.033371,6.806227 q 0,0.085078 0.08806,0.085078 h 1.386998 q 0.08807,0 0.08807,-0.085078 V 6.4765493 q 0,-0.074443 -0.08807,-0.074443 h -1.386998 q -0.08806,0 -0.08806,0.074443 z m 1.563124,-1.9248926 q 0,-0.085078 -0.08807,-0.085078 h -1.386998 q -0.08807,0 -0.08807,0.085078 v 0.2977734 q 0,0.074443 0.08807,0.074443 h 1.386998 q 0.08807,0 0.08807,-0.074443 z m 0.924664,-1.4037891 q 0.275198,0 0.462332,0.1914257 0.187135,0.1807911 0.187135,0.4360254 v 4.636758 q 0,0.4891992 -0.121087,0.7657032 -0.110079,0.2871386 -0.4183,0.4466601 -0.352254,0.1914263 -0.946681,0.2339653 -0.03302,0 -0.05504,0 -0.253182,0 -0.451324,-0.148887 -0.231166,-0.1701564 -0.330237,-0.4360256 -0.02202,-0.085078 -0.05504,-0.1595214 -0.03302,-0.074443 -0.03302,-0.1488868 0,-0.1169824 0.07705,-0.2233301 0.121086,-0.180791 0.341245,-0.180791 0.165119,0 0.231167,-0.010635 0.110078,0 0.143103,-0.031904 0.04403,-0.042539 0.04403,-0.1276172 V 8.1143032 q 0,-0.085078 -0.08807,-0.085078 h -1.386998 q -0.08807,0 -0.08807,0.085078 v 1.4144239 q 0,0.2658691 -0.187135,0.4466602 -0.187134,0.1807907 -0.462332,0.1807907 h -0.242174 q -0.26419,0 -0.462332,-0.1807907 Q 11.492263,9.7945962 11.492263,9.5287271 V 4.1049964 q 0,-0.2552343 0.187134,-0.4360254 0.198143,-0.1914257 0.462333,-0.1914257 z m 3.621604,5.0621486 V 3.945475 q 0,-0.2552344 0.187135,-0.4360254 0.198142,-0.1914258 0.462332,-0.1914258 h 0.31923 q 0.26419,0 0.451324,0.1914258 0.198143,0.180791 0.198143,0.4360254 v 4.6154884 q 0,0.5636426 -0.143103,0.8720508 -0.132095,0.3084082 -0.484349,0.4891992 -0.462332,0.2233306 -1.26591,0.2658696 -0.02202,0 -0.04403,0 -0.253183,0 -0.462332,-0.159522 -0.220159,-0.1701562 -0.31923,-0.4466601 -0.05504,-0.1595215 -0.132096,-0.319043 -0.03302,-0.074443 -0.03302,-0.1488867 0,-0.1169824 0.07705,-0.2233301 0.11008,-0.1701562 0.31923,-0.1701562 0.011,0 0.011,0 0.176128,0.010635 0.308223,0.010635 0.198142,0 0.319229,-0.010635 0.132095,0 0.176126,-0.031904 0.05504,-0.042539 0.05504,-0.1488867 z M 17.755766,3.6051624 q 0.26419,0 0.451324,0.1807911 0.198143,0.180791 0.198143,0.4466601 V 7.444313 q 0,0.2552343 -0.198143,0.4466601 -0.187134,0.180791 -0.451324,0.180791 h -0.198142 q -0.275198,0 -0.462332,-0.180791 Q 16.908157,7.6995473 16.908157,7.444313 V 4.2326136 q 0,-0.2658691 0.187135,-0.4466601 0.187134,-0.1807911 0.462332,-0.1807911 z m 1.486068,-2.2333008 q -0.01101,0.02127 0,0.042539 0.01101,0.021269 0.03302,0.021269 h 1.364981 q 0.264191,0 0.451325,0.180791 0.198142,0.180791 0.198142,0.4466602 V 2.233277 q 0,0.2552344 -0.198142,0.4466602 -0.187134,0.180791 -0.451325,0.180791 h -9.059513 q -0.26419,0 -0.462332,-0.180791 Q 10.930859,2.488512 10.930859,2.2332776 V 2.0631214 q 0,-0.2658692 0.187135,-0.4466602 0.198143,-0.180791 0.462332,-0.180791 h 1.453045 q 0.03302,0 0.04403,-0.021269 0.011,-0.02127 0,-0.053174 Q 12.956315,1.1378971 12.76918,0.88266276 12.68111,0.75504557 12.68111,0.61679361 q 0,-0.0638086 0.02202,-0.13825196 0.06605,-0.22333008 0.286206,-0.29777344 l 0.341246,-0.10634766 q 0.15411,-0.05317383 0.319229,-0.05317383 0.121087,0 0.242174,0.02126953 0.297213,0.07444336 0.473341,0.29777344 0.176126,0.20206056 0.308221,0.39348635 0.07705,0.11698242 0.07705,0.23396485 0,0.0850781 -0.04403,0.15952151 -0.07705,0.2126953 -0.297213,0.2871387 -0.01101,0 -0.01101,0.010635 0,0.010635 0.01101,0.010635 h 2.818026 q 0.08807,0 0.132095,-0.063809 0.297214,-0.45729494 0.539388,-0.93585941 0.121087,-0.24459962 0.374269,-0.36158204 0.143103,-0.07444336601 0.308221,-0.07444336601 0.09907,0 0.198143,0.03190429601 l 0.550395,0.14888673 q 0.231167,0.0638086 0.31923,0.28713868 0.03303,0.0850781 0.03303,0.17015625 0,0.12761719 -0.08807,0.24459962 -0.17612,0.25523384 -0.352247,0.48919874 z M 27.409707,3.169137 Q 27.134509,3.1478675 26.936366,2.9564417 26.749232,2.7650159 26.749232,2.4991468 V 2.0737561 q 0,-0.2552343 0.187134,-0.4147558 0.176128,-0.1595215 0.407294,-0.1595215 0.02202,0 0.04403,0.010635 0.79257,0.053174 1.640179,0.053174 0.957689,0 1.981425,-0.074443 0.03302,0 0.05504,0 0.231166,0 0.407292,0.1488867 0.187135,0.1701563 0.187135,0.4253907 v 0.4360254 q 0,0.2658691 -0.187135,0.4572949 -0.187134,0.1914258 -0.462332,0.2020606 -0.935673,0.053174 -1.84933,0.053174 -0.891641,0 -1.750259,-0.042539 z m -1.188854,3.4882033 q 0.04403,-0.2658692 0.275197,-0.4253907 0.187135,-0.1382519 0.429309,-0.1382519 0.03302,0 0.07705,0 l 0.242174,0.021269 q 0.253182,0.02127 0.407293,0.2233301 0.143103,0.180791 0.143103,0.3934863 0,0.031904 0,0.063809 -0.01101,0.1169825 -0.01101,0.2339649 0,0.3509473 0.330238,0.5104687 0.341245,0.1488868 1.045752,0.1488868 1.111799,0 2.179567,-0.1701563 0.04403,-0.010635 0.09907,-0.010635 0.187135,0 0.352253,0.1169824 0.187135,0.1595215 0.198143,0.4041211 l 0.01101,0.5104688 q 0,0.2765039 -0.176127,0.4891992 -0.176127,0.2020605 -0.451324,0.2339648 -0.957689,0.1063477 -2.300654,0.1063477 -1.442037,0 -2.190575,-0.4785645 -0.737531,-0.4891992 -0.737531,-1.3718848 0,-0.4041211 0.07705,-0.861416 z M 23.32577,1.2655139 q 0.03302,-0.2552343 0.231167,-0.42539061 0.176127,-0.14888672 0.407293,-0.14888672 0.03302,0 0.05504,0 l 0.594428,0.0531738 q 0.242174,0.0106348 0.385277,0.21269532 0.08807,0.13825201 0.08807,0.28713871 0,0.074443 -0.02202,0.1488867 -0.07705,0.2977735 -0.121087,0.499834 -0.143103,0.6168165 -0.341245,1.9036231 -0.187135,1.2761719 -0.187135,1.9355274 0,0.1063477 0,0.1701563 0,0.02127 0.01101,0.031904 0.02202,0 0.03302,-0.021269 0.05504,-0.1169825 0.154111,-0.3084083 0.09907,-0.1701562 0.297213,-0.2126953 0.04403,-0.010635 0.09907,-0.010635 0.132096,0 0.253183,0.085078 0.187134,0.1382519 0.253182,0.361582 0.03302,0.1063477 0.03302,0.2126953 0,0.1063477 -0.03302,0.2233301 -0.220159,0.6593555 -0.396285,1.2868067 -0.176127,0.6274512 -0.253183,1.0103028 -0.04403,0.1595215 -0.06605,0.3722168 -0.02202,0.2658691 -0.209151,0.4572949 -0.176126,0.1914258 -0.429308,0.2126953 l -0.26419,0.010635 q -0.03302,0 -0.05504,0 -0.253181,0 -0.462332,-0.1382519 Q 23.149644,9.3160318 23.094604,9.0501626 22.79739,7.667643 22.79739,6.1043324 q 0,-0.5742773 0.05504,-1.2868066 0.06605,-0.7125294 0.110079,-1.1166505 0.05504,-0.4041211 0.165119,-1.1166504 0.110079,-0.7125293 0.110079,-0.7231641 0.08807,-0.5849121 0.08807,-0.5955469 z"
			/>
			<path
				d="m 5.2803967,12.389479 q -0.063523,0 -0.063523,0.08508 v 0.170157 q 0,0.08508 0.063523,0.08508 h 0.4605458 q 0.063523,0 0.063523,-0.08508 v -0.170157 q 0,-0.08508 -0.063523,-0.08508 z m 0.4605458,1.733467 q 0.063523,0 0.063523,-0.08508 v -0.159522 q 0,-0.08508 -0.063523,-0.08508 H 5.2803967 q -0.063523,0 -0.063523,0.08508 v 0.159522 q 0,0.08508 0.063523,0.08508 z m -0.4605458,1.095381 q -0.063523,0 -0.063523,0.08508 v 0.06381 q 0,0.08508 0.031762,0.148886 0.1111663,0.297774 0.2461538,0.531739 0.031762,0.06381 0.079404,0.01063 0.3334988,-0.372216 0.6034739,-0.776338 0.015881,-0.02127 0.00794,-0.04254 -0.00794,-0.02127 -0.023821,-0.02127 z M 2.0009924,13.006296 q 0,-0.03191 -0.01588,-0.04254 -0.015881,-0.01063 -0.031762,0.01064 l -0.3890819,0.393487 q -0.1191067,0.116982 -0.2540942,0.116982 -0.039702,0 -0.079405,-0.01063 Q 1.0481389,13.442321 0.92903218,13.24026 0.6908188,12.836139 0.34143917,12.378844 0.21439204,12.219323 0.21439204,11.995993 q 0,-0.265869 0.15880892,-0.425391 l 0.15086847,-0.148887 q 0.15880892,-0.159521 0.35732007,-0.159521 0.007941,0 0.0158812,0 0.2064517,0.01064 0.3652606,0.191426 0.5717121,0.69126 0.8655086,1.212363 0.031762,0.06381 0.095285,0.06381 h 1.7945408 q 0.063523,0 0.063523,-0.08508 v -0.170157 q 0,-0.08508 -0.063523,-0.08508 h -1.103722 q -0.1746898,0 -0.2937965,-0.159521 -0.1191067,-0.159522 -0.1191067,-0.382852 0,-0.233965 0.1191067,-0.393486 0.1191067,-0.159522 0.2937965,-0.159522 h 1.1196029 q 0.047643,0 0.047643,-0.06381 0,-0.191426 0.095285,-0.329678 0.1032258,-0.138252 0.2461538,-0.138252 h 0.4526055 q 0.142928,0 0.2382134,0.138252 0.1032258,0.138252 0.1032258,0.329678 0,0.06381 0.047643,0.06381 H 6.455583 q 0.1985112,0 0.3334988,0.180791 0.1349876,0.180791 0.1349876,0.44666 v 0.723165 q 0,0.08508 0.063523,0.08508 h 0.1429281 q 0.1667494,0 0.2779156,0.159521 0.1191068,0.148887 0.1191068,0.372217 0,0.22333 -0.1191068,0.382852 -0.1111662,0.148886 -0.2779156,0.148886 h -0.142928 q -0.063523,0 -0.063523,0.08508 v 0.71253 q 0,0.265869 -0.1349876,0.44666 -0.1349876,0.180791 -0.3334988,0.180791 H 6.423821 q -0.00794,0 -0.015881,0.02127 0,0.01063 0.00794,0.02127 l 0.3414392,0.276504 q 0.1667493,0.138252 0.1667493,0.393486 0,0.202061 -0.1270471,0.329678 -0.285856,0.308408 -0.587593,0.584912 -0.015881,0.01064 -0.015881,0.04254 0,0.0319 0.015881,0.04254 0.4129032,0.350947 0.9528535,0.542373 0.1429281,0.05317 0.1985112,0.255235 0.015881,0.06381 0.015881,0.127617 0,0.116982 -0.063523,0.233965 -0.071464,0.127617 -0.1429279,0.276504 -0.1191067,0.244599 -0.3096775,0.340312 -0.095285,0.05317 -0.1905707,0.05317 -0.087345,0 -0.1746898,-0.05317 -0.730521,-0.393486 -1.2387095,-1.127285 -0.00794,-0.02127 -0.023821,-0.01064 -0.015881,0.01064 -0.015881,0.0319 v 0.350948 q 0,0.489199 -0.079404,0.744433 -0.071464,0.255235 -0.2779156,0.404121 -0.2461539,0.170157 -0.6590571,0.212696 -0.023821,0 -0.039702,0 -0.1746899,0 -0.3176179,-0.148887 -0.1588089,-0.170156 -0.2302729,-0.44666 -0.00794,-0.02127 -0.015881,-0.05317 -0.023821,-0.07444 -0.023821,-0.148887 0,-0.116982 0.055583,-0.233965 0.095285,-0.170156 0.2540942,-0.170156 h 0.079404 q 0.071464,-0.01064 0.095285,-0.04254 0.023821,-0.04254 0.023821,-0.138252 v -2.626787 q 0,-0.08508 -0.063523,-0.08508 H 3.1920593 q -0.01588,0 -0.023821,0.02127 -0.00794,0.02127 0.00794,0.03191 0.1746898,0.20206 0.3255583,0.404121 0.1111662,0.159521 0.1111662,0.361582 0,0.04254 0,0.07444 -0.023821,0.255235 -0.1826302,0.404121 l -0.023821,0.02127 q -0.1191067,0.116982 -0.2699752,0.116982 -0.031762,0 -0.071464,0 Q 2.8744412,16.611479 2.747394,16.420055 2.67593,16.313708 2.5885851,16.196725 2.4774189,16.037204 2.4774189,15.824509 q 0,-0.26587 0.1588089,-0.414756 L 2.795037,15.250231 q 0.00794,0 0,-0.01063 0,-0.02127 -0.00794,-0.02127 -0.1270471,0 -0.2223325,-0.116983 -0.095285,-0.127617 -0.095285,-0.308408 v -0.116982 q 0,-0.233965 0.1191067,-0.393487 Q 2.707692,14.12295 2.8823817,14.12295 h 1.1354839 q 0.063523,0 0.063523,-0.08508 v -0.159522 q 0,-0.08508 -0.063523,-0.08508 H 2.4694787 q -0.1985111,0 -0.3334987,-0.180791 -0.1349876,-0.180791 -0.1349876,-0.44666 z m 1.4213398,3.796611 q 0.071464,-0.0319 0.1349876,-0.0319 0.087345,0 0.1667494,0.05317 0.1508685,0.09571 0.1905707,0.319043 0.023821,0.08508 0.023821,0.180791 0,0.138251 -0.055583,0.287138 -0.079404,0.22333 -0.2461538,0.329678 -0.3811415,0.2446 -0.7702233,0.489199 -0.1032258,0.05317 -0.1985111,0.05317 -0.087345,0 -0.1667494,-0.0319 Q 2.31861,18.355586 2.2312651,18.121618 l -0.015881,-0.0319 q -0.047643,-0.116983 -0.047643,-0.2446 0,-0.106348 0.039702,-0.20206 0.063524,-0.233965 0.2382134,-0.319043 0.3176179,-0.159522 0.9766749,-0.521104 z M 1.5086847,14.984362 q 0.1905708,0 0.3255583,0.180791 0.1429281,0.180791 0.1429281,0.44666 v 2.775674 q 0,0.08508 0.023821,0.148887 0.2064516,0.457295 0.5717121,0.680625 0.3652605,0.22333 0.9290322,0.255234 0.4764267,0.03191 1.1910669,0.03191 0.2620347,0 0.5558312,-0.01064 1.0957816,-0.01064 1.9771711,-0.08508 0.00794,0 0.023821,0 0.1429281,0 0.230273,0.159521 0.055581,0.106348 0.055581,0.233965 0,0.06381 -0.015881,0.138252 -0.047644,0.170156 -0.087344,0.350947 -0.055583,0.265869 -0.214392,0.436026 -0.1588089,0.180791 -0.3573201,0.191425 -0.9846153,0.05317 -1.8501239,0.05317 -0.817866,0 -1.5245657,-0.04254 -0.6987592,-0.04254 -1.1672456,-0.297773 -0.4605458,-0.2446 -0.801985,-0.808242 -0.039702,-0.06381 -0.079404,0 -0.3017369,0.382851 -0.64317608,0.786972 -0.1032258,0.116983 -0.2223325,0.116983 -0.0397022,0 -0.0873449,-0.01064 Q 0.31761515,20.663319 0.23821069,20.45062 L 0.0873449,20.003972 Q 0.03970222,19.86572 0.03970222,19.716833 q 0,-0.106348 0.02382134,-0.212695 0.05558312,-0.255235 0.22233249,-0.404122 0.25409427,-0.22333 0.50818856,-0.478564 0.047643,-0.04254 0.047643,-0.127617 v -1.978067 q 0,-0.07444 -0.0555829,-0.07444 h -0.3176184 q -0.19851115,0 -0.33349873,-0.180791 Q 0,16.069108 0,15.813874 v -0.202061 q 0,-0.265869 0.13498758,-0.44666 0.13498758,-0.180791 0.33349873,-0.180791 z m 8.8615373,0.553008 q 0.05558,-0.02127 0.103226,-0.02127 0.127048,0 0.238214,0.106348 0.150868,0.148887 0.174689,0.393486 l 0.02382,0.170157 q 0,0.05317 0,0.106347 0,0.202061 -0.08735,0.382852 -0.111166,0.22333 -0.309677,0.297773 -0.198512,0.06381 -0.301737,0.106348 -0.05558,0.01064 -0.05558,0.09571 v 2.339648 q 0,0.542373 -0.08734,0.840147 -0.087345,0.308408 -0.3017372,0.478564 -0.2937962,0.22333 -0.8416871,0.265869 -0.015881,0 -0.031762,0 -0.1826305,0 -0.3255587,-0.159521 Q 8.4168714,20.769672 8.3612886,20.503803 8.337463,20.38682 8.305708,20.269838 8.289827,20.195398 8.289827,20.131586 q 0,-0.127617 0.055581,-0.2446 0.095285,-0.180791 0.2540947,-0.180791 0.00794,0 0.00794,0 0.1111664,0 0.2540946,0 0.087345,0 0.1191063,-0.04254 0.031762,-0.05317 0.031762,-0.159521 v -1.946163 q 0,-0.08508 -0.055581,-0.06381 l -0.325558,0.106347 q -0.055581,0.02127 -0.1032258,0.02127 -0.1270477,0 -0.2382134,-0.106348 -0.158808,-0.138246 -0.1905697,-0.382845 l -0.039699,-0.287139 q -0.00794,-0.06381 -0.00794,-0.116982 0,-0.191426 0.087345,-0.350948 0.1111665,-0.212695 0.3017369,-0.265869 0.198511,-0.05317 0.5161292,-0.148887 0.055581,-0.01063 0.055581,-0.09571 v -1.573946 q 0,-0.08508 -0.055581,-0.08508 h -0.373201 q -0.198511,0 -0.3334986,-0.180791 Q 8.115142,13.846442 8.115142,13.580573 v -0.202061 q 0,-0.265869 0.1349876,-0.44666 0.1349876,-0.180791 0.3334986,-0.180791 h 0.373201 q 0.055581,0 0.055581,-0.08508 v -1.276172 q 0,-0.255234 0.1349875,-0.436025 0.1429282,-0.191426 0.3334994,-0.191426 H 9.687348 q 0.1905712,0 0.325558,0.191426 0.142929,0.180791 0.142929,0.436025 v 1.276172 q 0,0.08508 0.05558,0.08508 h 0.182631 q 0.19057,0 0.325558,0.180791 0.142928,0.180791 0.142928,0.44666 v 0.202061 q 0,0.265869 -0.142928,0.44666 -0.134988,0.180791 -0.325558,0.180791 h -0.182631 q -0.05558,0 -0.05558,0.08508 v 1.233633 q 0,0.07444 0.05558,0.05317 z m 4.073449,0.09571 q 0,-0.08508 -0.05558,-0.08508 H 13.8402 q -0.06353,0 -0.06353,0.08508 v 0.329677 q 0,0.07444 0.06353,0.07444 h 0.547891 q 0.05558,0 0.05558,-0.07444 z m -0.666997,2.116318 q 0,0.07444 0.06353,0.07444 h 0.547891 q 0.05558,0 0.05558,-0.07444 v -0.350947 q 0,-0.07444 -0.05558,-0.07444 h -0.547891 q -0.06353,0 -0.06353,0.07444 z m -1.659553,0 q 0,0.07444 0.05558,0.07444 h 0.460547 q 0.05558,0 0.05558,-0.07444 v -0.350947 q 0,-0.07444 -0.05558,-0.07444 h -0.460547 q -0.05558,0 -0.05558,0.07444 z m 0.571712,-2.116318 q 0,-0.08508 -0.05558,-0.08508 h -0.460546 q -0.05558,0 -0.05558,0.08508 v 0.329677 q 0,0.07444 0.05558,0.07444 h 0.460546 q 0.05558,0 0.05558,-0.07444 z m 2.596525,-4.32835 q 0.16675,0.116982 0.214393,0.361582 0.0079,0.07444 0.0079,0.138252 0,0.170156 -0.07146,0.308408 l -0.02382,0.03191 q -0.01588,0.04254 0.01588,0.04254 0.103226,0 0.16675,0.09571 0.07146,0.08508 0.07146,0.223331 v 0.489199 q 0,0.255234 -0.134987,0.44666 -0.134988,0.180791 -0.333499,0.180791 h -1.357816 q -0.06352,0 -0.06352,0.07444 v 0.414756 q 0,0.07444 0.06352,0.07444 h 1.230769 q 0.190571,0 0.325558,0.191425 0.142928,0.180791 0.142928,0.436026 v 4.97707 q 0,0.46793 -0.0794,0.71253 -0.07146,0.244599 -0.262035,0.393486 -0.214392,0.159521 -0.587593,0.20206 -0.01588,0 -0.0397,0 -0.16675,0 -0.301738,-0.159521 -0.158809,-0.170156 -0.214392,-0.436025 -0.0079,-0.06381 -0.0079,-0.127618 0,-0.138252 0.06353,-0.255234 0.09529,-0.170156 0.254095,-0.202061 0.0794,-0.01063 0.0794,-0.138252 v -0.595546 q 0,-0.07444 -0.05558,-0.07444 H 13.84021 q -0.06353,0 -0.06353,0.07444 v 1.191093 q 0,0.255235 -0.134987,0.436026 -0.134988,0.191426 -0.333499,0.191426 h -0.150869 q -0.19057,0 -0.333498,-0.191426 -0.134988,-0.180791 -0.134988,-0.436026 v -1.191093 q 0,-0.07444 -0.05558,-0.07444 h -0.460546 q -0.05558,0 -0.05558,0.07444 v 1.276171 q 0,0.26587 -0.142929,0.446661 -0.134987,0.180791 -0.325558,0.180791 h -0.150868 q -0.190571,0 -0.333499,-0.180791 Q 11.029292,20.72713 11.029292,20.46126 V 14.8142 q 0,-0.255235 0.134988,-0.436026 0.142928,-0.191425 0.333499,-0.191425 h 1.135484 q 0.05558,0 0.05558,-0.07444 v -0.414756 q 0,-0.07444 -0.05558,-0.07444 h -1.262531 q -0.190572,0 -0.333499,-0.180791 -0.134988,-0.191426 -0.134988,-0.44666 V 12.81487 q 0,-0.265869 0.134988,-0.44666 0.142927,-0.180791 0.333499,-0.180791 h 1.262531 q 0.05558,0 0.05558,-0.08508 v -0.723164 q 0,-0.255234 0.134988,-0.436025 0.142928,-0.191426 0.333498,-0.191426 h 0.150869 q 0.198511,0 0.333499,0.191426 0.134987,0.180791 0.134987,0.436025 v 0.723164 q 0,0.08508 0.06353,0.08508 h 0.643177 q 0.01588,0 0.01588,-0.01064 0.0079,-0.02127 -0.0079,-0.0319 -0.111166,-0.08508 -0.18263,-0.138252 -0.150868,-0.106348 -0.190571,-0.340313 -0.0079,-0.06381 -0.0079,-0.116982 0,-0.159522 0.0794,-0.297774 0.111166,-0.212695 0.301737,-0.276504 0.07146,-0.02127 0.134987,-0.02127 0.119107,0 0.230273,0.07444 0.230273,0.138252 0.428784,0.276504 z m 8.210422,0.91459 q 0.06352,0.148887 0.06352,0.308408 0,0.08508 -0.01588,0.170156 -0.05558,0.255235 -0.230272,0.393487 l -0.150869,0.116982 q -0.103226,0.08508 -0.206452,0.08508 -0.06352,0 -0.134987,-0.0319 -0.17469,-0.07444 -0.262035,-0.297774 -0.142928,-0.393486 -0.35732,-0.850781 -0.06353,-0.148887 -0.06353,-0.308408 0,-0.07444 0.01588,-0.159521 0.0397,-0.2446 0.206451,-0.361583 l 0.0794,-0.06381 q 0.119106,-0.08508 0.246153,-0.08508 0.06353,0 0.119107,0.02127 0.198511,0.05317 0.309678,0.276504 0.222332,0.436026 0.381141,0.786973 z m 0.285856,2.414092 q 0,0.265869 -0.142928,0.44666 -0.134988,0.180791 -0.325558,0.180791 h -1.381638 q -0.02383,0 -0.0397,0.0319 -0.0079,0.02127 0,0.05317 0.603474,2.679961 1.77866,4.019942 0.142928,0.170156 0.142928,0.42539 0,0.22333 -0.111167,0.382852 -0.127047,0.180791 -0.246153,0.382851 -0.119107,0.202061 -0.301737,0.233965 -0.03176,0.01064 -0.05558,0.01064 -0.150869,0 -0.262035,-0.148887 -0.881389,-1.127285 -1.468983,-3.105351 -0.0079,-0.02127 -0.02382,-0.01064 -0.01588,0 -0.01588,0.01064 -0.436725,1.80791 -1.397518,3.137256 -0.134988,0.180791 -0.325559,0.180791 0,0 -0.0079,0 -0.190571,-0.01064 -0.349379,-0.180791 -0.15881,-0.180791 -0.341439,-0.350948 -0.01588,-0.02127 -0.0397,-0.01063 -0.01588,0.02127 -0.01588,0.04254 v 0.09571 q 0,0.26587 -0.134988,0.446661 -0.134987,0.180791 -0.333498,0.180791 h -0.230273 q -0.19057,0 -0.333499,-0.180791 -0.134987,-0.180791 -0.134987,-0.446661 v -2.562978 q 0,-0.0319 -0.01588,-0.0319 -0.01588,-0.01064 -0.03176,0 -0.254094,0.297773 -0.500248,0.574277 -0.111166,0.116982 -0.246154,0.116982 -0.0397,0 -0.0794,-0.01063 -0.17469,-0.04254 -0.269976,-0.255235 L 16.42085,18.004641 q -0.07146,-0.148887 -0.07146,-0.329678 0,-0.07444 0.01588,-0.159522 0.04764,-0.255234 0.206452,-0.404121 0.436724,-0.42539 1.064019,-1.095381 0.04764,-0.05317 0.04764,-0.138252 v -1.329345 q 0,-0.02127 -0.01588,-0.03191 -0.01588,-0.02127 -0.03176,-0.01063 l -0.238213,0.191425 q -0.09529,0.07444 -0.198511,0.07444 -0.06353,0 -0.134988,-0.03191 -0.166749,-0.08508 -0.246154,-0.308408 -0.158808,-0.457295 -0.397022,-1.052842 -0.06352,-0.148886 -0.06352,-0.297773 0,-0.08508 0.01588,-0.180791 0.05558,-0.2446 0.222333,-0.372217 l 0.119107,-0.08508 q 0.111166,-0.09571 0.238213,-0.09571 0.06353,0 0.127048,0.02127 0.19057,0.06381 0.293796,0.287138 0.150868,0.329678 0.277916,0.648721 0.0079,0.01064 0.01588,0.01064 0.01588,-0.01064 0.01588,-0.02127 v -1.924892 q 0,-0.255235 0.134988,-0.436026 0.142928,-0.191426 0.333498,-0.191426 h 0.230273 q 0.198511,0 0.333499,0.191426 0.134987,0.180791 0.134987,0.436026 v 8.39083 q 0,0.02127 0.01588,0.0319 0.01588,0.01064 0.03176,-0.01064 1.333995,-1.765371 1.580149,-4.434697 0.0079,-0.08508 -0.04764,-0.08508 h -0.944913 q -0.190571,0 -0.333499,-0.180791 -0.134988,-0.180791 -0.134988,-0.44666 v -0.308408 q 0,-0.26587 0.134988,-0.446661 0.142928,-0.180791 0.333499,-0.180791 H 20.4943 q 0.05558,0 0.05558,-0.08508 v -2.190762 q 0,-0.265869 0.134988,-0.44666 0.142928,-0.180791 0.333498,-0.180791 h 0.238214 q 0.190571,0 0.325558,0.180791 0.142928,0.180791 0.142928,0.44666 v 2.190762 q 0,0.08508 0.05558,0.08508 h 1.532506 q 0.190571,0 0.325558,0.180791 0.142928,0.180791 0.142928,0.446661 z m 8.138958,-3.115984 q 0.04764,0.116983 0.04764,0.233965 0,0.08508 -0.02383,0.170156 -0.05558,0.212696 -0.214391,0.308409 -0.07941,0.04254 -0.16675,0.04254 -0.07941,0 -0.150869,-0.03191 -0.166749,-0.08508 -0.246154,-0.287138 -0.119106,-0.297774 -0.230272,-0.553008 -0.05558,-0.106348 -0.05558,-0.233965 0,-0.07444 0.01588,-0.148887 0.04764,-0.20206 0.198511,-0.287138 0.08735,-0.04254 0.182631,-0.04254 0.0794,0 0.150869,0.0319 0.174689,0.07444 0.269975,0.276504 0.111165,0.244599 0.222332,0.521103 z m -5.423325,0.457295 q 0.01588,-0.255234 0.150869,-0.42539 0.119106,-0.138252 0.277915,-0.138252 0.02383,0 0.04764,0 l 0.516129,0.07444 q 0.18263,0.02127 0.293796,0.233965 0.0794,0.148887 0.0794,0.319043 0,0.06381 -0.01588,0.127617 -0.02382,0.180791 -0.06352,0.414756 -0.04764,0.329678 -0.127047,0.797607 -0.0079,0.03191 0.0079,0.05317 0.01588,0.02127 0.0397,0.02127 0.277915,-0.03191 0.484367,-0.03191 1.540447,0 1.540447,2.201397 0,1.106016 -0.111167,2.201397 -0.103225,1.09538 -0.341439,1.754736 -0.198511,0.563643 -0.547891,0.797607 -0.341439,0.2446 -0.857568,0.2446 -0.230273,0 -0.516129,-0.04254 -0.206451,-0.0319 -0.35732,-0.2446 -0.142928,-0.20206 -0.17469,-0.478564 l -0.06353,-0.489199 q 0,-0.0319 0,-0.07444 0,-0.170156 0.09529,-0.297773 0.09529,-0.116983 0.214393,-0.116983 0.0397,0 0.07146,0.01064 0.35732,0.09571 0.52407,0.09571 0.397022,0 0.54789,-0.414756 0.142929,-0.382851 0.222333,-1.169824 0.07941,-0.786973 0.07941,-1.595215 0,-0.553008 -0.16675,-0.712529 -0.166749,-0.170157 -0.579652,-0.170157 -0.08735,0 -0.317618,0.01064 -0.05558,0.01063 -0.07146,0.08508 -0.635235,3.243604 -1.365757,5.125958 -0.09529,0.233964 -0.285855,0.329677 -0.08735,0.04254 -0.17469,0.04254 -0.103226,0 -0.206452,-0.06381 L 24.9409,20.237935 q -0.166749,-0.09571 -0.214392,-0.319043 -0.02382,-0.08508 -0.02382,-0.159521 0,-0.148887 0.06352,-0.276504 0.762283,-1.627119 1.310173,-4.275176 0.0079,-0.02127 -0.0079,-0.04254 -0.01588,-0.02127 -0.0397,-0.02127 -0.06353,0.02127 -0.444665,0.08508 -0.238214,0.04254 -0.52407,0.09571 -0.0397,0.01063 -0.07146,0.01063 -0.150868,0 -0.269975,-0.127617 -0.142927,-0.148887 -0.158809,-0.404121 l -0.03176,-0.499834 q -0.01588,-0.2446 0.111166,-0.425391 0.127047,-0.180791 0.317618,-0.191425 0.07146,0 0.142928,0 0.07941,0 0.17469,0 0.09529,-0.01064 0.150869,-0.01064 0.19057,-0.01063 0.865508,-0.07444 0.06353,0 0.07146,-0.08508 0.111166,-0.850781 0.134987,-1.542041 z m 4.478412,0.233965 q 0.05558,0.138252 0.01588,0.287139 -0.0397,0.138252 -0.142927,0.191426 -0.03176,0.02127 -0.01588,0.06381 0.285857,0.606182 0.603474,1.531406 0.317618,0.91459 0.532011,1.701563 Q 32,16.101014 32,16.217997 q 0,0.138252 -0.04764,0.265869 -0.0794,0.2446 -0.262034,0.361582 l -0.397022,0.2446 q -0.0794,0.05317 -0.15881,0.05317 -0.0794,0 -0.166749,-0.05317 Q 30.808936,16.9837 30.761293,16.749735 30.396033,14.984364 29.81638,13.708192 29.7608,13.56994 29.7608,13.421053 q 0,-0.07444 0.01588,-0.148886 0.04764,-0.233965 0.214392,-0.329678 l 0.214393,-0.116982 q 0.05558,-0.03191 0.03176,-0.106348 -0.198511,-0.510469 -0.317618,-0.786973 -0.04764,-0.116982 -0.04764,-0.233965 0,-0.07444 0.02383,-0.159521 0.04764,-0.202061 0.198511,-0.276504 0.08734,-0.05317 0.18263,-0.05317 0.07146,0 0.150869,0.0319 0.174689,0.07444 0.262034,0.276504 0.134988,0.308409 0.285856,0.69126 z"
			/>
			<path
				d="m 5.6121558,27.926872 q 0,-0.265869 0.1400979,-0.44666 0.1483389,-0.180791 0.3461241,-0.180791 h 0.31316 q 0.1977852,0 0.3378831,0.180791 0.1483389,0.180791 0.1483389,0.44666 v 3.445664 q 0,0.26587 -0.1483389,0.446661 -0.1400979,0.180791 -0.3378831,0.180791 H 6.0324495 q -0.1730621,0 -0.2966779,-0.159522 -0.1236158,-0.159521 -0.1236158,-0.382852 0,-0.06381 -0.049447,-0.06381 h -4.260623 q -0.049447,0 -0.049447,0.06381 0,0.223331 -0.1236157,0.382852 -0.1236157,0.159522 -0.29667782,0.159522 H 0.48622202 q -0.19778524,0 -0.34612415,-0.180791 Q 0,31.638406 0,31.372536 v -3.445664 q 0,-0.265869 0.14009787,-0.44666 0.14833891,-0.180791 0.34612415,-0.180791 h 0.2801957 q 0.19778525,0 0.33788318,0.180791 0.1483389,0.180791 0.1483389,0.44666 v 1.839815 q 0,0.08508 0.057687,0.08508 h 1.3680145 q 0.057687,0 0.057687,-0.08508 v -2.913926 q 0,-0.07444 -0.057687,-0.07444 H 0.82410512 q -0.19778525,0 -0.34612418,-0.180791 -0.14009785,-0.191425 -0.14009785,-0.44666 v -2.839482 q 0,-0.265869 0.14009785,-0.44666 0.14833893,-0.180791 0.34612418,-0.180791 H 1.0878187 q 0.1977853,0 0.3378831,0.180791 0.148339,0.180791 0.148339,0.44666 v 1.850449 q 0,0.07444 0.057687,0.07444 h 1.0466135 q 0.057687,0 0.057687,-0.07444 v -2.733135 q 0,-0.265869 0.1400978,-0.44666 0.1483389,-0.180791 0.3461242,-0.180791 h 0.3049188 q 0.1977853,0 0.3378831,0.180791 0.148339,0.180791 0.148339,0.44666 v 2.733135 q 0,0.07444 0.057687,0.07444 h 1.1290249 q 0.057687,0 0.057687,-0.07444 v -1.861084 q 0,-0.265869 0.1400979,-0.44666 0.1483389,-0.180791 0.3461242,-0.180791 h 0.329642 q 0.1977852,0 0.3378831,0.180791 0.1483389,0.180791 0.1483389,0.44666 v 2.850117 q 0,0.255235 -0.1483389,0.44666 -0.1400979,0.180791 -0.3378831,0.180791 H 4.0710793 q -0.057687,0 -0.057687,0.07444 v 2.913926 q 0,0.08508 0.057687,0.08508 h 1.4833892 q 0.057687,0 0.057687,-0.08508 z m 3.2140097,-2.913926 q -0.049447,0.01064 -0.090651,0.01064 -0.1400979,0 -0.2554728,-0.116982 -0.1565803,-0.148887 -0.173062,-0.404121 l -0.041202,-0.521104 q 0,-0.0319 0,-0.06381 0,-0.212695 0.1153749,-0.382851 0.1318567,-0.191426 0.3296416,-0.202061 0.2554728,-0.01063 0.3708477,-0.0319 0.1071337,-0.01064 1.3844961,-0.148887 1.285605,-0.138252 2.19212,-0.244599 0.840587,-0.08508 1.944889,-0.159522 0.01648,0 0.02472,0 0.189545,0 0.321401,0.170156 0.140098,0.180791 0.14834,0.436026 v 0.42539 q 0,0.255235 -0.140098,0.446661 -0.140098,0.180791 -0.346124,0.191425 -0.741695,0.02127 -1.112543,0.116983 -0.684007,0.191426 -1.186711,1.020937 -0.494463,0.829512 -0.494463,1.776006 0,0.999668 0.568633,1.552676 0.568631,0.542373 1.549317,0.712529 0.181304,0.0319 0.280196,0.223331 0.06593,0.127617 0.06593,0.265869 0,0.07444 -0.02472,0.159521 l -0.15658,0.627451 q -0.07417,0.26587 -0.247232,0.414756 -0.140098,0.116983 -0.296678,0.116983 -0.04945,0 -0.09889,-0.01063 -0.840588,-0.180791 -1.499871,-0.638086 -0.659284,-0.46793 -1.071337,-1.265537 -0.403812,-0.797608 -0.403812,-1.80791 0,-0.978399 0.304919,-1.786641 0.30492,-0.818877 0.708731,-1.308076 0.0082,-0.01064 0,-0.0319 -0.0082,-0.02127 -0.01648,-0.01063 -1.5987636,0.212695 -2.6536181,0.467929 z m 8.1503995,-1.350615 q 0,-0.22333 0.107134,-0.393486 0.123616,-0.180791 0.31316,-0.180791 0,0 0,0 l 0.585114,0.01063 q 0.189545,0 0.31316,0.191426 0.107134,0.159522 0.107134,0.361582 0,0.04254 -0.0082,0.07444 -0.04945,0.542373 -0.04945,0.850781 0,1.414424 0.05768,2.137588 0.08241,1.180459 0.247232,1.797275 0.16482,0.606182 0.502704,0.606182 0.362607,0 0.684007,-1.467598 0.0412,-0.191426 0.181303,-0.233965 0.03297,-0.01063 0.06593,-0.01063 0.09889,0 0.173062,0.116982 l 0.412053,0.638086 q 0.140098,0.233965 0.173062,0.510469 0.0082,0.08508 0.0082,0.159521 0,0.202061 -0.06593,0.393487 -0.379088,1.084746 -0.774658,1.552675 -0.38733,0.457295 -0.881792,0.457295 -0.799383,0 -1.343292,-0.967763 -0.535668,-0.978399 -0.700489,-3.073448 -0.09065,-1.127285 -0.09065,-2.94583 z m 4.582024,0.69126 q -0.06593,-0.127617 -0.06593,-0.265869 0,-0.06381 0.01648,-0.138252 0.04945,-0.22333 0.214267,-0.287139 l 0.362606,-0.159521 q 0.107134,-0.04254 0.222509,-0.04254 0.09889,0 0.197785,0.04254 0.214267,0.08508 0.329642,0.319043 0.420293,0.861416 0.758177,2.137587 0.337883,1.265538 0.461499,2.360919 0,0.05317 0,0.116982 0,0.202061 -0.09065,0.393486 -0.107134,0.233965 -0.31316,0.340313 l -0.436776,0.212695 q -0.06593,0.0319 -0.140098,0.0319 -0.09065,0 -0.189544,-0.07444 -0.15658,-0.116982 -0.181303,-0.361582 -0.304918,-3.020274 -1.145506,-4.626123 z m 7.079064,5.785313 q 0.131857,0 0.31316,-0.01064 0.06593,-0.01064 0.05768,-0.08508 -0.0412,-0.414756 -0.214268,-0.659356 -0.173062,-0.244599 -0.428535,-0.244599 -0.197785,0 -0.313159,0.127617 -0.115375,0.127617 -0.115375,0.297773 0,0.255235 0.189544,0.414756 0.197785,0.159522 0.510945,0.159522 z m 1.417461,-7.646397 q 0.04945,0 0.09889,0 0.173062,0 0.329643,0.08508 0.206026,0.106348 0.329642,0.329678 l 0.06593,0.127617 q 0.08241,0.159521 0.08241,0.329678 0,0.06381 -0.0082,0.127617 -0.0412,0.255234 -0.206027,0.393486 -0.123616,0.09571 -0.230749,0.191426 -0.206027,0.180791 -0.461499,0.436025 -0.255473,0.2446 -0.692248,0.69126 -0.436776,0.436026 -0.461499,0.46793 -0.0082,0.01064 -0.0082,0.02127 0.0082,0.01064 0.02472,0.01064 0.23075,-0.05317 0.519187,-0.05317 1.087819,0 1.821272,0.808242 Q 32,27.256894 32,28.458622 q 0,0.659356 -0.189545,1.222999 -0.181303,0.553007 -0.55215,0.999668 -0.362606,0.436025 -0.972444,0.680625 -0.601596,0.255234 -1.392738,0.255234 -0.914756,0 -1.541076,-0.510469 -0.618079,-0.510469 -0.618079,-1.382519 0,-0.733799 0.461499,-1.276172 0.46974,-0.553008 1.161988,-0.553008 0.725213,0 1.203194,0.478564 0.477981,0.46793 0.609838,1.233633 0,0.02127 0.01648,0.03191 0.02472,0.01063 0.0412,0 0.436776,-0.436026 0.436776,-1.201729 0,-0.66999 -0.46974,-1.084746 -0.46974,-0.414756 -1.17847,-0.414756 -0.749936,0 -1.376255,0.457295 -0.626321,0.44666 -1.211435,1.276172 -0.131857,0.191426 -0.321401,0.20206 -0.01648,0 -0.02472,0 -0.181303,0 -0.304919,-0.170156 l -0.247231,-0.329678 q -0.123616,-0.170156 -0.123616,-0.393486 0,-0.276504 0.16482,-0.457295 0.280196,-0.297773 0.85707,-0.91459 0.585114,-0.627451 0.774659,-0.818877 0.15658,-0.170156 0.758177,-0.797607 0.601596,-0.627451 0.840587,-0.893321 0.0082,-0.02127 0,-0.0319 0,-0.02127 -0.01648,-0.02127 -0.988927,0.0319 -1.672933,0.09571 -0.140098,0.01063 -0.263715,0.02127 -0.02472,0.01063 -0.04945,0.01063 -0.164821,0 -0.296678,-0.148887 -0.148339,-0.159521 -0.15658,-0.414756 l -0.0082,-0.436025 q -0.0082,-0.2446 0.131857,-0.414756 0.131856,-0.159522 0.31316,-0.159522 0.0082,0 0.02472,0 0.189544,0.02127 0.370847,0.02127 1.813031,0 2.612414,-0.09571 0.140097,-0.01064 0.263713,-0.0319 z"
			/>
		</g>
	</g>
</svg>
