<?xml version="1.0" encoding="UTF-8" standalone="no"?>
<svg
	width="256"
	height="256"
	viewBox="0 0 32 32"
	version="1.1"
	inkscape:version="1.3.2 (091e20ef0f, 2023-11-25, custom)"
	aria-label="にくたべよにく"
	sodipodi:docname="square_nikutabeyoniku.svg"
	xmlns:inkscape="http://www.inkscape.org/namespaces/inkscape"
	xmlns:sodipodi="http://sodipodi.sourceforge.net/DTD/sodipodi-0.dtd"
	xmlns="http://www.w3.org/2000/svg"
	xmlns:svg="http://www.w3.org/2000/svg"
	xmlns:rdf="http://www.w3.org/1999/02/22-rdf-syntax-ns#"
	xmlns:cc="http://creativecommons.org/ns#"
	xmlns:dc="http://purl.org/dc/elements/1.1/"
>
	<title>square_nikutabeyoniku</title>
	<metadata>
		<rdf:RDF>
			<cc:Work>
				<dc:title>にくたべよにく</dc:title>
				<dc:creator>
					<cc:Agent><dc:title>zawa-ch.</dc:title></cc:Agent>
				</dc:creator>
				<cc:license
					 rdf:resource="http://www.opensource.org/licenses/mit-license.php" />
			</cc:Work>
		</rdf:RDF>
	</metadata>
	<style>
		.typography {
			-inkscape-font-specification:'源柔ゴシック, Black';
			font-family:'源柔ゴシック';
			font-stretch:normal;
			font-style:normal;
			font-variant:normal;
			font-weight:900;
			line-height:1;
			text-anchor:middle;
			text-align:center;
		}
		.fg { 
			fill:#ee827c;
			fill-opacity:1;
			stroke:none;
		}
	</style>
	<sodipodi:namedview
		pagecolor="#505050"
		bordercolor="#eeeeee"
		borderopacity="1"
		inkscape:showpageshadow="0"
		inkscape:pageopacity="0"
		inkscape:pagecheckerboard="0"
		inkscape:deskcolor="#505050"
		inkscape:document-units="px"
		showgrid="false"
		>
		<sodipodi:guide position="0,0" orientation="32,0" />
		<sodipodi:guide position="16,0" orientation="32,0" />
		<sodipodi:guide position="32,0" orientation="32,0" />
		<sodipodi:guide position="0,0" orientation="0,32" />
		<sodipodi:guide position="0,10.6667" orientation="0,32" />
		<sodipodi:guide position="0,21.3333" orientation="0,32" />
		<sodipodi:guide position="0,32" orientation="0,32" />
	</sodipodi:namedview>
	<g inkscape:groupmode="layer" display="none">
		<text xml:space="preserve" x="16" y="9.1884146" class="typography fg" style="font-size:10.89px"><tspan sodipodi:role="line" x="16" y="9.1884146">にく</tspan><tspan sodipodi:role="line" x="16" y="20.078415">たべよ</tspan><tspan sodipodi:role="line" x="16" y="30.968414">にく</tspan></text>
	</g>
	<g inkscape:groupmode="layer">
		<g class="fg" aria-label="にく&#10;たべよ&#10;にく">
			<path d="M 10.586904,3.169137 Q 10.321035,3.1478675 10.129609,2.9564417 9.9488182,2.7650159 9.9488182,2.4991468 V 2.0737561 q 0,-0.2552343 0.1807908,-0.4147558 0.170156,-0.1595215 0.393487,-0.1595215 0.02127,0 0.04254,0.010635 0.765703,0.053174 1.58458,0.053174 0.925224,0 1.914258,-0.074443 0.0319,0 0.05317,0 0.223331,0 0.393487,0.1488867 0.180791,0.1701563 0.180791,0.4253907 v 0.4360254 q 0,0.2658691 -0.180791,0.4572949 -0.180791,0.1914258 -0.44666,0.2020606 -0.903956,0.053174 -1.786641,0.053174 -0.861416,0 -1.690928,-0.042539 z M 9.4383494,6.6573403 q 0.042539,-0.2658692 0.2658692,-0.4253907 0.180791,-0.1382519 0.4147554,-0.1382519 0.03191,0 0.07444,0 l 0.233965,0.021269 q 0.244599,0.02127 0.393486,0.2233301 0.138252,0.180791 0.138252,0.3934863 0,0.031904 0,0.063809 -0.01063,0.1169825 -0.01063,0.2339649 0,0.3509473 0.319043,0.5104687 0.329678,0.1488868 1.010303,0.1488868 1.074111,0 2.105684,-0.1701563 0.04254,-0.010635 0.09571,-0.010635 0.180791,0 0.340313,0.1169824 0.180791,0.1595215 0.191426,0.4041211 l 0.01063,0.5104688 q 0,0.2765039 -0.170157,0.4891992 -0.170156,0.2020605 -0.436025,0.2339648 -0.925225,0.1063477 -2.222666,0.1063477 -1.393155,0 -2.116319,-0.4785645 -0.712529,-0.4891992 -0.712529,-1.3718848 0,-0.4041211 0.074443,-0.861416 z M 6.641406,1.2655139 q 0.031904,-0.2552343 0.22333,-0.42539061 0.1701563,-0.14888672 0.3934864,-0.14888672 0.031904,0 0.053174,0 l 0.5742774,0.0531738 q 0.2339648,0.0106348 0.3722168,0.21269532 0.085078,0.13825198 0.085078,0.28713868 0,0.074443 -0.021269,0.1488867 -0.074443,0.2977735 -0.1169824,0.499834 -0.138252,0.6168165 -0.3296778,1.9036231 -0.180791,1.2761719 -0.180791,1.9355274 0,0.1063477 0,0.1701563 0,0.02127 0.010635,0.031904 0.021269,0 0.031904,-0.021269 0.053174,-0.1169825 0.1488868,-0.3084083 0.095713,-0.1701562 0.2871387,-0.2126953 0.042539,-0.010635 0.095713,-0.010635 0.1276172,0 0.2445997,0.085078 0.180791,0.1382519 0.2445996,0.361582 0.031904,0.1063477 0.031904,0.2126953 0,0.1063477 -0.031904,0.2233301 Q 8.5450291,6.9232094 8.3748728,7.5506606 8.2047166,8.1781118 8.1302732,8.5609634 8.0877341,8.7204849 8.0664646,8.9331802 8.0451951,9.1990493 7.864404,9.3904751 7.6942478,9.5819009 7.4496482,9.6031704 l -0.2552344,0.010635 q -0.031904,0 -0.053174,0 -0.2445997,0 -0.4466602,-0.1382519 Q 6.4712497,9.3160318 6.4180759,9.0501626 6.1309372,7.667643 6.1309372,6.1043324 q 0,-0.5742773 0.053174,-1.2868066 Q 6.2479196,4.1049964 6.2904587,3.7008753 6.3436325,3.2967542 6.4499802,2.5842249 6.5563278,1.8716956 6.5563278,1.8610608 6.641406,1.2761487 6.641406,1.2655139 Z M 22.231973,0.59552368 q 0.170156,-0.18079102 0.42539,-0.20206056 0.0319,-0.0106348 0.05317,-0.0106348 0.22333,0 0.393487,0.14888672 l 0.584912,0.52110352 q 0.170156,0.1488867 0.170156,0.3722168 0,0.2658692 -0.202061,0.4147559 -0.276503,0.2020605 -0.563642,0.4360254 -1.935528,1.4569629 -2.701231,2.1269532 -0.287138,0.2445996 -0.361582,0.3828516 -0.06381,0.1276172 0.01064,0.2658691 0.07444,0.1276172 0.361582,0.3722168 0.22333,0.1914258 1.510137,1.2442676 1.286807,1.0528419 1.935527,1.6164845 0.191426,0.1701562 0.191426,0.4253906 0,0.2552344 -0.191426,0.4253906 l -0.606181,0.5636426 q -0.180791,0.1595215 -0.414756,0.1595215 -0.02127,0 -0.0319,0 Q 22.540381,9.8477701 22.35959,9.6563443 22.157529,9.443649 21.732139,9.0076236 21.094053,8.3482681 18.605518,6.2106801 17.818545,5.5194203 17.818545,4.987682 q 0,-0.5742773 0.89332,-1.3080762 2.084414,-1.6909278 2.977735,-2.5417091 0.361582,-0.361582 0.542373,-0.54237302 z" />
			<path d="m 6.0564938,16.058473 q -0.021269,0 -0.053174,0 -0.2126953,0 -0.3828516,-0.148886 -0.180791,-0.159522 -0.180791,-0.414756 v -0.265869 q 0,-0.26587 0.180791,-0.457295 0.180791,-0.202061 0.4466602,-0.22333 0.818877,-0.06381 1.499502,-0.06381 0.6274512,0 1.2868067,0.04254 0.2658691,0.02127 0.4360254,0.22333 0.180791,0.191426 0.1701562,0.457295 V 15.5161 q -0.010635,0.255235 -0.2020605,0.425391 -0.1595215,0.138252 -0.3722168,0.138252 -0.031904,0 -0.063809,0 -0.7018946,-0.07444 -1.2549024,-0.07444 -0.8295118,0 -1.5101368,0.05317 z M 5.7587204,12.453288 q 0.063809,-0.01064 0.1169824,-0.01064 0.1701563,0 0.3084082,0.106348 0.1914258,0.148886 0.1914258,0.393486 v 0.372217 q 0,0.276504 -0.180791,0.499834 -0.1701563,0.212695 -0.4360254,0.265869 -0.6487207,0.116982 -1.3080762,0.191426 -0.085078,0.01063 -0.095713,0.09571 -0.2552344,1.063476 -0.3084082,1.276172 -0.6274512,2.392822 -1.4782325,4.445332 -0.095713,0.244599 -0.3403125,0.350947 -0.138252,0.06381 -0.2765039,0.06381 -0.1169825,0 -0.2233301,-0.03191 L 1.1006929,20.259206 q -0.23396486,-0.08508 -0.31904299,-0.308408 -0.0425391,-0.106348 -0.0425391,-0.202061 0,-0.127617 0.0638086,-0.244599 0.42539066,-0.861416 0.87205086,-2.084415 0.4572949,-1.233632 0.723164,-2.2333 0.1807911,-0.680625 0.1807911,-0.680625 0,-0.03191 -0.02127,-0.05317 -0.010635,-0.02127 -0.042539,-0.02127 -0.1595215,0.01063 -0.4679297,0.01063 -0.3615821,0 -0.7125294,-0.02127 -0.2658691,-0.01063 -0.4572949,-0.191425 -0.18079102,-0.191426 -0.18079102,-0.46793 l -0.0106348,-0.361582 q -0.0106348,-0.2446 0.17015625,-0.414756 0.17015623,-0.159521 0.38285153,-0.159521 0.031904,0 0.053174,0.01063 0.361582,0.02127 0.7657031,0.02127 0.2871387,0 0.7869727,-0.02127 0.074443,0 0.095713,-0.07444 0.031904,-0.202061 0.042539,-0.361582 0.042539,-0.287139 0.053174,-0.584912 0.010635,-0.2446 0.180791,-0.425391 0.1701563,-0.148887 0.3828516,-0.148887 0.021269,0 0.042539,0 l 0.7444336,0.05317 q 0.2445996,0.02127 0.3934863,0.22333 0.1063477,0.148887 0.1063477,0.308409 0,0.06381 -0.02127,0.127617 -0.021269,0.116982 -0.063809,0.297773 -0.031904,0.170156 -0.042539,0.202061 l -0.02127,0.106347 q -0.010635,0.03191 0.010635,0.05317 0.021269,0.02127 0.053174,0.01063 0.4891993,-0.07444 0.957129,-0.170156 z m -1.1591895,5.381191 q 0.042539,-0.265869 0.2552344,-0.42539 0.1914258,-0.138252 0.4147558,-0.138252 0.042539,0 0.074443,0 l 0.3084082,0.0319 q 0.2445996,0.02127 0.3828516,0.22333 0.1276172,0.159522 0.1276172,0.361582 0,0.04254 -0.010635,0.08508 -0.021269,0.138252 -0.021269,0.2446 0,0.361582 0.2765039,0.553008 0.2765039,0.180791 0.9571289,0.180791 0.7550684,0 1.6909278,-0.138252 0.042539,0 0.085078,0 0.1914257,0 0.3403125,0.127617 0.180791,0.159521 0.1701562,0.404121 l -0.02127,0.414756 q -0.010635,0.265869 -0.1914258,0.46793 -0.180791,0.20206 -0.4572949,0.22333 -0.8401465,0.08508 -1.6271192,0.08508 -1.3931544,0 -2.1163185,-0.46793 -0.7125293,-0.478564 -0.7125293,-1.318711 0,-0.404121 0.074443,-0.91459 z M 17.58458,13.46359 q -0.07444,-0.127617 -0.07444,-0.265869 0,-0.07444 0.02127,-0.159521 0.07444,-0.22333 0.287139,-0.319043 0.138252,-0.05317 0.276504,-0.05317 0.116982,0 0.22333,0.0319 0.255234,0.08508 0.393486,0.308409 0.212696,0.350947 0.404121,0.680625 0.07444,0.127617 0.07444,0.265869 0,0.09571 -0.04254,0.191426 -0.08508,0.244599 -0.319043,0.340312 l -0.01064,0.01064 q -0.127617,0.05317 -0.255234,0.05317 -0.116983,0 -0.22333,-0.04254 -0.2446,-0.09571 -0.361583,-0.329678 -0.20206,-0.404121 -0.393486,-0.71253 z m 1.520772,-0.584912 q -0.08508,-0.127617 -0.08508,-0.276504 0,-0.07444 0.02127,-0.148886 0.05317,-0.233965 0.276504,-0.329678 0.148887,-0.07444 0.297773,-0.07444 0.106348,0 0.202061,0.0319 0.265869,0.07444 0.404121,0.297773 0.22333,0.329678 0.404121,0.638086 0.08508,0.138252 0.08508,0.287139 0,0.08508 -0.0319,0.180791 -0.07444,0.2446 -0.308408,0.350947 -0.138252,0.06381 -0.276504,0.06381 -0.106348,0 -0.212695,-0.0319 -0.2446,-0.08508 -0.372217,-0.308409 -0.202061,-0.372216 -0.404121,-0.680625 z m -6.391495,5.072784 q -0.116982,0.20206 -0.350947,0.233965 -0.0319,0 -0.06381,0 -0.191425,0 -0.340312,-0.148887 l -0.701895,-0.733799 q -0.159521,-0.170156 -0.159521,-0.393486 0,-0.276504 0.20206,-0.46793 0.2446,-0.22333 0.510469,-0.499834 0.2446,-0.255234 0.93586,-1.106016 0.691259,-0.850781 0.999668,-1.201728 0.64872,-0.733799 1.297441,-0.733799 0.563643,0 1.127285,0.531738 0.46793,0.44666 1.297442,1.435694 0.840146,0.978398 0.967763,1.11665 1.095381,1.191094 2.148223,2.180127 0.202061,0.191426 0.202061,0.478565 0,0.233964 -0.159522,0.414755 l -0.542373,0.616817 q -0.170156,0.191426 -0.425391,0.20206 -0.01063,0 -0.02127,0 -0.2446,0 -0.414756,-0.180791 -0.531738,-0.563642 -1.80791,-2.105683 -0.180791,-0.233965 -0.925225,-1.13792 -0.733799,-0.903955 -1.031572,-1.244268 -0.2446,-0.255234 -0.414756,-0.255234 -0.01064,0 -0.02127,0 -0.180791,0.01063 -0.393487,0.287138 -0.606181,0.786973 -1.510137,2.07378 -0.148886,0.212695 -0.404121,0.638086 z m 13.421075,0.255234 v -0.116982 q 0,-0.08508 -0.07444,-0.09571 -0.350948,-0.05317 -0.723164,-0.05317 -0.521104,0 -0.829512,0.170156 -0.297774,0.159522 -0.297774,0.457295 0,0.606182 1.106016,0.606182 0.46793,0 0.638086,-0.212696 0.180791,-0.22333 0.180791,-0.755068 z m 4.466602,0.06381 q 0.20206,0.170156 0.244599,0.44666 0.01064,0.05317 0.01064,0.106348 0,0.20206 -0.127617,0.393486 l -0.319043,0.499834 q -0.127617,0.20206 -0.372217,0.233965 -0.04254,0 -0.07444,0 -0.191426,0 -0.350948,-0.138252 -0.786972,-0.69126 -1.616484,-1.15919 -0.02127,-0.01063 -0.05317,0.01064 -0.02127,0.01064 -0.02127,0.0319 v 0.07444 q 0,1.999336 -2.477901,1.999336 -0.616816,0 -1.127285,-0.116983 -0.510469,-0.106347 -0.925225,-0.350947 -0.414756,-0.233965 -0.64872,-0.648721 -0.233965,-0.42539 -0.233965,-0.999668 0,-0.957129 0.797607,-1.552676 0.797608,-0.606181 2.27584,-0.606181 0.159522,0 0.425391,0.02127 0.07444,0 0.07444,-0.07444 -0.07444,-1.403789 -0.07444,-2.169492 0,-0.701895 -0.02127,-1.616485 -0.02127,-0.467929 -0.04254,-0.755068 0,-0.0319 0,-0.05317 0,-0.212695 0.138252,-0.382852 0.159522,-0.180791 0.404121,-0.180791 h 0.701895 q 0.244599,0 0.414756,0.180791 0.148886,0.170157 0.148886,0.393487 l -0.04254,0.797607 q -0.01063,0.191426 -0.01063,0.521104 0,0.08508 0.07444,0.08508 1.308076,-0.0319 2.212031,-0.09571 0.03191,-0.01064 0.05317,-0.01064 0.22333,0 0.404121,0.159522 0.191426,0.170156 0.202061,0.42539 l 0.01063,0.297774 q 0.01064,0.265869 -0.170156,0.46793 -0.170156,0.191425 -0.436025,0.20206 -0.93586,0.06381 -2.254571,0.09571 -0.07444,0 -0.07444,0.08508 0.0319,0.66999 0.106348,1.871719 0,0.08508 0.07444,0.106348 1.499502,0.467929 2.701231,1.403789 z" />
			<path d="M 10.586904,24.949138 Q 10.321035,24.927868 10.129609,24.736442 9.9488182,24.545017 9.9488182,24.279147 v -0.42539 q 0,-0.255235 0.1807908,-0.414756 0.170156,-0.159522 0.393487,-0.159522 0.02127,0 0.04254,0.01064 0.765703,0.05317 1.58458,0.05317 0.925224,0 1.914258,-0.07444 0.0319,0 0.05317,0 0.223331,0 0.393487,0.148886 0.180791,0.170157 0.180791,0.425391 v 0.436025 q 0,0.26587 -0.180791,0.457295 -0.180791,0.191426 -0.44666,0.202061 -0.903956,0.05317 -1.786641,0.05317 -0.861416,0 -1.690928,-0.04254 z m -1.1485546,3.488203 q 0.042539,-0.265869 0.2658692,-0.425391 0.180791,-0.138252 0.4147554,-0.138252 0.03191,0 0.07444,0 l 0.233965,0.02127 q 0.244599,0.02127 0.393486,0.22333 0.138252,0.180791 0.138252,0.393486 0,0.03191 0,0.06381 -0.01063,0.116982 -0.01063,0.233965 0,0.350947 0.319043,0.510469 0.329678,0.148886 1.010303,0.148886 1.074111,0 2.105684,-0.170156 0.04254,-0.01063 0.09571,-0.01063 0.180791,0 0.340313,0.116983 0.180791,0.159521 0.191426,0.404121 l 0.01063,0.510469 q 0,0.276503 -0.170157,0.489199 -0.170156,0.20206 -0.436025,0.233965 -0.925225,0.106347 -2.222666,0.106347 -1.393155,0 -2.116319,-0.478564 -0.712529,-0.489199 -0.712529,-1.371885 0,-0.404121 0.074443,-0.861416 z M 6.641406,23.045515 q 0.031904,-0.255235 0.22333,-0.425391 0.1701563,-0.148887 0.3934864,-0.148887 0.031904,0 0.053174,0 l 0.5742774,0.05317 q 0.2339648,0.01064 0.3722168,0.212695 0.085078,0.138252 0.085078,0.287139 0,0.07444 -0.021269,0.148887 -0.074443,0.297773 -0.1169824,0.499834 -0.138252,0.616816 -0.3296778,1.903623 -0.180791,1.276172 -0.180791,1.935527 0,0.106348 0,0.170157 0,0.02127 0.010635,0.0319 0.021269,0 0.031904,-0.02127 0.053174,-0.116982 0.1488868,-0.308408 0.095713,-0.170156 0.2871387,-0.212695 0.042539,-0.01064 0.095713,-0.01064 0.1276172,0 0.2445997,0.08508 0.180791,0.138252 0.2445996,0.361582 0.031904,0.106348 0.031904,0.212696 0,0.106347 -0.031904,0.22333 -0.2126953,0.659355 -0.3828516,1.286806 -0.1701562,0.627451 -0.2445996,1.010303 -0.042539,0.159522 -0.063809,0.372217 -0.021269,0.265869 -0.2020606,0.457295 -0.1701562,0.191426 -0.4147558,0.212695 l -0.2552344,0.01064 q -0.031904,0 -0.053174,0 -0.2445997,0 -0.4466602,-0.138252 -0.2233301,-0.159522 -0.2765039,-0.425391 -0.2871387,-1.382519 -0.2871387,-2.94583 0,-0.574277 0.053174,-1.286807 0.063809,-0.712529 0.1063477,-1.11665 0.053174,-0.404121 0.1595215,-1.11665 0.1063476,-0.71253 0.1063476,-0.723164 0.085078,-0.584913 0.085078,-0.595547 z m 15.590567,-0.669991 q 0.170156,-0.180791 0.42539,-0.20206 0.0319,-0.01064 0.05317,-0.01064 0.22333,0 0.393487,0.148887 l 0.584912,0.521103 q 0.170156,0.148887 0.170156,0.372217 0,0.265869 -0.202061,0.414756 -0.276503,0.202061 -0.563642,0.436025 -1.935528,1.456963 -2.701231,2.126954 -0.287138,0.244599 -0.361582,0.382851 -0.06381,0.127617 0.01064,0.265869 0.07444,0.127617 0.361582,0.372217 0.22333,0.191426 1.510137,1.244268 1.286807,1.052842 1.935527,1.616484 0.191426,0.170156 0.191426,0.425391 0,0.255234 -0.191426,0.42539 l -0.606181,0.563643 q -0.180791,0.159522 -0.414756,0.159522 -0.02127,0 -0.0319,0 -0.255234,-0.01064 -0.436025,-0.202061 -0.202061,-0.212695 -0.627451,-0.648721 -0.638086,-0.659355 -3.126621,-2.796943 -0.786973,-0.69126 -0.786973,-1.222998 0,-0.574278 0.89332,-1.308077 2.084414,-1.690927 2.977735,-2.541709 0.361582,-0.361582 0.542373,-0.542373 z" />
		</g>
	</g>
</svg>
