<?xml version="1.0" encoding="UTF-8" standalone="no"?>
<svg
	width="256"
	height="256"
	viewBox="0 0 32 32"
	version="1.1"
	inkscape:version="1.3.2 (091e20ef0f, 2023-11-25, custom)"
	aria-label="だいたいそう"
	sodipodi:docname="square_daitaisou.svg"
	xmlns:inkscape="http://www.inkscape.org/namespaces/inkscape"
	xmlns:sodipodi="http://sodipodi.sourceforge.net/DTD/sodipodi-0.dtd"
	xmlns="http://www.w3.org/2000/svg"
	xmlns:svg="http://www.w3.org/2000/svg"
	xmlns:rdf="http://www.w3.org/1999/02/22-rdf-syntax-ns#"
	xmlns:cc="http://creativecommons.org/ns#"
	xmlns:dc="http://purl.org/dc/elements/1.1/"
	>
	<title>square_daitaisou</title>
	<metadata>
		<rdf:RDF>
			<cc:Work>
				<dc:title>だいたいそう</dc:title>
				<dc:creator>
					<cc:Agent><dc:title>zawa-ch.</dc:title></cc:Agent>
				</dc:creator>
				<cc:license
					 rdf:resource="http://www.opensource.org/licenses/mit-license.php" />
			</cc:Work>
		</rdf:RDF>
	</metadata>
	<style>
		.typography {
			-inkscape-font-specification:'源柔ゴシック, Black';
			font-family:'源柔ゴシック';
			font-stretch:normal;
			font-style:normal;
			font-variant:normal;
			font-weight:900;
			line-height:1;
			text-anchor:middle;
			text-align:center;
		}
		.fg { 
			fill:mediumseagreen;
			fill-opacity:1;
			stroke:none;
		}
	</style>
	<sodipodi:namedview
		pagecolor="#505050"
		bordercolor="#eeeeee"
		borderopacity="1"
		inkscape:showpageshadow="0"
		inkscape:pageopacity="0"
		inkscape:pagecheckerboard="0"
		inkscape:deskcolor="#505050"
		inkscape:document-units="px"
		showgrid="false"
		>
		<sodipodi:guide position="0,0" orientation="32,0" inkscape:locked="false" />
		<sodipodi:guide position="16,0" orientation="32,0" inkscape:locked="false" />
		<sodipodi:guide position="32,0" orientation="32,0" inkscape:locked="false" />
		<sodipodi:guide position="0,0" orientation="0,32" inkscape:locked="false" />
		<sodipodi:guide position="0,16" orientation="0,32" inkscape:locked="false" />
		<sodipodi:guide position="0,32" orientation="0,32" inkscape:locked="false" />
	</sodipodi:namedview>
	<g inkscape:groupmode="layer" display="none">
		<text xml:space="preserve" x="16" y="13.866094" class="typography fg" style="font-size:16.5px"><tspan sodipodi:role="line" x="16" y="13.866094">だいたい</tspan><tspan sodipodi:role="line" x="16" y="30.182392">そう</tspan></text>
	</g>
	<g inkscape:groupmode="layer">
		<g class="typography fg" aria-label="だいたい&#10;そう">
			<path d="m 7.3865893,1.9261522 q 0.048121,0.1611328 0.048121,0.3544922 0,0.1289063 -0.02406,0.2578125 -0.05614,0.3222656 -0.2165403,0.4511719 -0.08822,0.080566 -0.1684203,0.080566 -0.0802,0 -0.1604003,-0.064453 Q 6.7048884,2.8929491 6.6166682,2.5706835 6.4963681,2.1356249 6.3840878,1.7489061 6.3359678,1.57166 6.3359678,1.3783007 q 0,-0.09668 0.01604,-0.2094727 0.048121,-0.32226561 0.1924804,-0.43505858 0.09624,-0.0805664 0.1924802,-0.0805664 0.07218,0 0.1523803,0.0483398 0.1764403,0.11279297 0.2646604,0.41894538 0.1122802,0.3867187 0.2325802,0.805664 z M 6.3680479,2.715703 q 0.048121,0.1772461 0.048121,0.3706055 0,0.1289062 -0.02406,0.2578125 -0.06416,0.3222656 -0.2165404,0.4511719 -0.08822,0.080566 -0.1764402,0.080566 -0.0802,0 -0.1604003,-0.064453 Q 5.6703068,3.6986132 5.5901067,3.3763475 5.4698065,2.8929491 5.3735663,2.5545702 q -0.05614,-0.1772461 -0.05614,-0.3706055 0,-0.1127929 0.02406,-0.2255859 0.048121,-0.3061524 0.1924803,-0.4350586 0.09624,-0.080566 0.1924803,-0.080566 0.07218,0 0.1523802,0.04834 0.1684202,0.112793 0.2646604,0.4350586 0.10426,0.3544922 0.2245604,0.7895502 z M 4.1866045,7.9364061 q -0.02406,0.016113 -0.0401,0.016113 -0.1684203,0 -0.2887205,-0.2255859 Q 3.7134238,7.469121 3.7134238,7.0985155 V 6.6795702 q 0,-0.402832 0.1363402,-0.6928711 0.1363402,-0.3061523 0.3368405,-0.3383789 0.617541,-0.09668 1.1388417,-0.09668 0.4651607,0 0.9624016,0.064453 0.2005002,0.032227 0.3288204,0.3383789 0.1363403,0.2900391 0.1363403,0.6928711 l -0.00802,0.4833985 q 0,0.3706054 -0.1443603,0.6284179 -0.1283202,0.2094727 -0.2887204,0.2094727 -0.02406,0 -0.048121,0 -0.5293208,-0.112793 -0.9383415,-0.112793 -0.6335809,0 -1.1388418,0.080567 z M 3.9620441,2.4740038 q 0.0401,-0.016113 0.0802,-0.016113 0.1283202,0 0.2325804,0.1611328 0.1443602,0.2416992 0.1443602,0.5961914 v 0.5800782 q 0,0.4189453 -0.1283202,0.7412109 -0.1283202,0.3222656 -0.3368405,0.402832 -0.4892208,0.1933594 -0.9864614,0.3061524 -0.05614,0 -0.072181,0.1289062 -0.1924796,1.6274414 -0.23258,1.9335938 -0.4731803,3.6254875 -1.1067617,6.7353515 -0.080199,0.386718 -0.2646603,0.547851 -0.1042603,0.08057 -0.2085201,0.08057 -0.0802,0 -0.16842037,-0.04834 L 0.44125875,14.301155 Q 0.26481857,14.188362 0.2006586,13.83387 0.1685801,13.688851 0.1685801,13.527718 q 0,-0.177246 0.0481202,-0.370606 0.32080092,-1.305176 0.65764101,-3.1582026 0.34486099,-1.8691406 0.54536129,-3.383789 0.1363398,-1.03125 0.1363398,-1.03125 0.00802,-0.04834 -0.00802,-0.080566 -0.016042,-0.032227 -0.040102,-0.032227 -0.1203005,0.016113 -0.3448605,0.016113 -0.27268058,0 -0.54536125,-0.016113 Q 0.4252205,5.4549644 0.28086031,5.1649251 0.14451999,4.874886 0.13650012,4.472054 l -0.008018,-0.5639649 q -0.008018,-0.3706054 0.13634033,-0.6284179 0.12030007,-0.225586 0.28872037,-0.225586 0.0160419,0 0.0320787,0 0.27268067,0.032227 0.58546108,0.032227 0.2085202,0 0.5854607,-0.016113 0.06416,-0.016113 0.072181,-0.1289063 0.02406,-0.3061523 0.040102,-0.5478515 0.02406,-0.4350586 0.032079,-0.8701172 0.00802,-0.3867188 0.1443601,-0.64453125 0.1203006,-0.24169922 0.2807006,-0.24169922 0.016042,0 0.032079,0 l 0.561401,0.0805664 q 0.1844603,0.0322266 0.2967405,0.33837887 0.0802,0.225586 0.0802,0.4833985 0,0.080566 -0.00802,0.1933594 -0.024062,0.1611328 -0.056142,0.4350585 -0.02406,0.2578125 -0.02406,0.3061524 l -0.02406,0.1772461 q 0,0.032227 0.00802,0.064453 0.01604,0.032227 0.0401,0.032227 Q 3.6011443,2.6190276 3.9620449,2.4740081 Z M 3.0878629,10.627324 q 0.02406,-0.402832 0.1924803,-0.6445311 0.1363401,-0.2094727 0.3127804,-0.2094727 0.02406,0 0.048121,0 l 0.2325803,0.04834 q 0.1844603,0.032227 0.2967405,0.3383788 0.08822,0.241699 0.08822,0.547852 0,0.06445 -0.00802,0.128906 -0.00802,0.225586 -0.00802,0.370605 0,0.547852 0.2085203,0.837891 0.2085203,0.273926 0.7137811,0.273926 0.5694209,0 1.2751819,-0.209473 0.03208,0 0.06416,0 0.1443602,0 0.2566404,0.193359 0.1363402,0.2417 0.1283202,0.612305 l -0.00802,0.628418 q -0.00802,0.418945 -0.1523802,0.708984 -0.1363402,0.306153 -0.3368406,0.338379 -0.6335809,0.128907 -1.2350818,0.128907 -1.0426016,0 -1.5879624,-0.725098 -0.5453608,-0.708984 -0.5453608,-1.981934 0,-0.612304 0.064159,-1.385742 z M 8.6858314,2.7962694 q 0,-0.3383789 0.1042601,-0.5961914 0.1203001,-0.2739258 0.3047605,-0.2739258 0,0 0,0 l 0.5694209,0.016113 q 0.1844602,0 0.3047607,0.2900391 0.1042594,0.2416992 0.1042594,0.5478515 0,0.064453 -0.008,0.112793 -0.04812,0.8217773 -0.04812,1.2890625 0,2.1430664 0.05614,3.2387695 0.0802,1.7885743 0.240601,2.7231452 0.160399,0.918457 0.48922,0.918457 0.352881,0 0.665661,-2.2236334 0.0401,-0.2900391 0.17644,-0.3544922 0.03208,-0.016113 0.06417,-0.016113 0.09624,0 0.16842,0.1772461 l 0.401,0.9667969 q 0.136341,0.3544922 0.16842,0.7734376 0.008,0.128906 0.008,0.241699 0,0.306152 -0.06415,0.596192 -0.368921,1.643554 -0.753881,2.352539 -0.376941,0.692871 -0.858142,0.692871 -0.77794,0 -1.3072614,-1.466309 Q 8.9504918,11.320195 8.7900915,8.1458788 8.7018713,6.437871 8.7018713,3.6824999 Z m 4.4591266,1.0473633 q -0.06417,-0.1933594 -0.06417,-0.402832 0,-0.09668 0.01604,-0.2094727 0.04812,-0.3383789 0.208521,-0.4350586 L 13.65823,2.5545702 q 0.104259,-0.064453 0.216539,-0.064453 0.09624,0 0.192482,0.064453 0.208519,0.1289062 0.3208,0.4833984 0.409021,1.3051758 0.737841,3.2387696 0.32882,1.9174804 0.449121,3.5771484 0,0.080566 0,0.1772464 0,0.306152 -0.08822,0.596191 -0.10426,0.354492 -0.304761,0.515625 l -0.42506,0.322266 q -0.06416,0.04834 -0.13634,0.04834 -0.08822,0 -0.184461,-0.112793 Q 14.283799,11.223516 14.25974,10.85291 13.962999,6.2767382 13.144958,3.8436327 Z m 7.707232,3.9316406 q -0.01604,0 -0.0401,0 -0.1604,0 -0.288721,-0.2255859 Q 20.38703,7.3079882 20.38703,6.9212694 v -0.402832 q 0,-0.402832 0.136339,-0.6928711 0.13634,-0.3061524 0.336841,-0.3383789 0.617541,-0.09668 1.130822,-0.09668 0.47318,0 0.970421,0.064453 0.200501,0.032227 0.328821,0.3383789 0.13634,0.2900391 0.12832,0.6928711 V 6.953496 q -0.008,0.3867187 -0.152381,0.6445312 -0.1203,0.2094727 -0.2807,0.2094727 -0.02406,0 -0.04812,0 -0.529321,-0.112793 -0.946361,-0.112793 -0.625562,0 -1.138842,0.080566 z M 20.627629,2.312871 q 0.04812,-0.016113 0.08822,-0.016113 0.128321,0 0.232581,0.1611328 0.14436,0.2255859 0.14436,0.5961914 v 0.5639649 q 0,0.4189453 -0.13634,0.7573242 -0.128321,0.3222656 -0.32882,0.402832 -0.489222,0.1772461 -0.986461,0.2900391 -0.06417,0.016113 -0.07218,0.1450195 -0.192481,1.6113281 -0.232581,1.9335938 -0.47318,3.6254883 -1.114781,6.7353513 -0.07219,0.370605 -0.256641,0.531738 -0.10426,0.09668 -0.20852,0.09668 -0.08822,0 -0.16842,-0.04834 l -0.473181,-0.322266 q -0.17644,-0.128906 -0.2406,-0.467285 -0.03208,-0.161133 -0.03208,-0.306152 0,-0.193359 0.04812,-0.370606 0.3208,-1.305175 0.657641,-3.1582024 0.34486,-1.8691406 0.54536,-3.383789 0.136341,-1.03125 0.136341,-1.03125 0,-0.04834 -0.01604,-0.080566 -0.008,-0.032227 -0.03208,-0.032227 -0.120299,0.016113 -0.35288,0.016113 -0.272681,0 -0.537341,-0.032227 -0.200502,-0.016113 -0.344862,-0.2900387 -0.136341,-0.290039 -0.136341,-0.7089843 l -0.008,-0.5478516 q -0.008,-0.3706055 0.12832,-0.628418 0.12832,-0.2416992 0.288721,-0.2416992 0.02406,0 0.04011,0.016113 0.272681,0.032227 0.577441,0.032227 0.21654,0 0.593481,-0.032227 0.05614,0 0.07219,-0.112793 0.02406,-0.3061523 0.03208,-0.5478515 0.03208,-0.4350586 0.04011,-0.8862305 0.008,-0.37060546 0.13634,-0.64453125 0.12832,-0.22558593 0.28872,-0.22558593 0.01604,0 0.03208,0 l 0.561401,0.0805664 q 0.18446,0.0322266 0.29674,0.33837891 0.0802,0.22558597 0.0802,0.46728517 0,0.09668 -0.01604,0.1933594 -0.01604,0.1772461 -0.04812,0.4511718 -0.02406,0.2578125 -0.03208,0.3061524 l -0.01604,0.1611328 q -0.008,0.04834 0.008,0.080566 0.01604,0.032227 0.04011,0.016113 0.368921,-0.112793 0.721801,-0.2578125 z m -0.874182,8.15332 q 0.03208,-0.402832 0.192481,-0.644531 0.144361,-0.2094726 0.312781,-0.2094726 0.03208,0 0.05614,0 l 0.23258,0.04834 q 0.184461,0.032227 0.288721,0.3383789 0.09624,0.2416987 0.09624,0.5478517 0,0.06445 -0.008,0.128906 -0.01604,0.209473 -0.01604,0.370605 0,0.547852 0.20852,0.837891 0.208521,0.273926 0.721802,0.273926 0.569421,0 1.275182,-0.209473 0.03208,0 0.06415,0 0.14436,0 0.25664,0.19336 0.13634,0.241699 0.128321,0.612304 l -0.01604,0.628418 q -0.008,0.402832 -0.144361,0.708985 -0.13634,0.306152 -0.344861,0.338378 -0.633581,0.128907 -1.227062,0.128907 -1.050621,0 -1.595982,-0.708985 -0.53734,-0.725097 -0.53734,-1.998047 0,-0.612304 0.05614,-1.385742 z m 5.357369,-7.6699216 q 0,-0.3383789 0.10426,-0.5961914 0.120301,-0.2739258 0.30476,-0.2739258 0,0 0,0 l 0.569422,0.016113 q 0.18446,0 0.30476,0.2900391 0.10426,0.2416992 0.10426,0.5478515 0,0.064453 -0.008,0.112793 -0.04812,0.8217773 -0.04812,1.2890625 0,2.1430664 0.05613,3.2387695 0.08021,1.7885743 0.2406,2.7231452 0.160401,0.918457 0.489222,0.918457 0.35288,0 0.66566,-2.2236334 0.0401,-0.2900391 0.17644,-0.3544922 0.03208,-0.016113 0.06415,-0.016113 0.09624,0 0.16842,0.1772461 l 0.401001,0.9667969 q 0.13634,0.3544922 0.168421,0.7734376 0.008,0.128906 0.008,0.241699 0,0.306152 -0.06415,0.596192 -0.368921,1.643554 -0.753882,2.352539 -0.37694,0.692871 -0.858141,0.692871 -0.777942,0 -1.307262,-1.466309 -0.521299,-1.482422 -0.6817,-4.6567382 -0.08822,-1.7080078 -0.08822,-4.4633789 z m 4.459127,1.0473633 q -0.06416,-0.1933594 -0.06416,-0.402832 0,-0.09668 0.01604,-0.2094727 0.04812,-0.3383789 0.208521,-0.4350586 l 0.352881,-0.2416992 q 0.104259,-0.064453 0.216539,-0.064453 0.09624,0 0.192481,0.064453 0.20852,0.1289062 0.3208,0.4833984 0.409021,1.3051758 0.737841,3.2387696 Q 31.8797,8.1942186 32,9.8538866 q 0,0.080566 0,0.1772464 0,0.306152 -0.08822,0.596191 -0.104261,0.354492 -0.304761,0.515625 l -0.425061,0.322266 q -0.06417,0.04834 -0.13634,0.04834 -0.08822,0 -0.18446,-0.112793 -0.15237,-0.177246 -0.176429,-0.547852 -0.296741,-4.5761718 -1.114782,-7.0092773 z" />
			<path d="m 4.5112305,20.021367 q -0.064453,0 -0.112793,0 -0.3222656,0 -0.5800781,-0.209473 Q 3.5283203,19.554082 3.512207,19.167363 l -0.032227,-0.612305 q -0.016113,-0.370605 0.2578125,-0.628417 0.2578125,-0.257813 0.6284179,-0.257813 0.016113,0 0.032227,0 0.3383789,0.01611 0.7412109,0.01611 0.5639649,0 2.2075196,-0.09668 1.6596679,-0.09668 2.4008789,-0.177246 0.1772461,-0.01611 0.3383791,-0.03223 0.161133,-0.03223 0.306152,-0.03223 0.773438,0 1.240723,0.563965 l 0.322265,0.370606 q 0.19336,0.241699 0.19336,0.531738 0,0.06445 0,0.14502 -0.06445,0.370605 -0.370606,0.580078 -0.467285,0.322265 -0.725097,0.531738 -0.596192,0.467285 -1.7080082,1.369629 -1.1118164,0.88623 -1.5307617,1.224609 -0.016113,0.01611 -0.016113,0.04834 0.016113,0.01611 0.032227,0.01611 2.7553716,-0.257812 5.3173826,-0.322265 0.01611,0 0.03223,0 0.370605,0 0.644531,0.273925 0.273926,0.273926 0.290039,0.660645 v 0.435059 q 0,0.386718 -0.273926,0.644531 -0.273925,0.257812 -0.628418,0.257812 -0.01611,0 -0.04834,0 -0.773438,-0.03223 -1.401856,-0.03223 -1.144043,0 -1.8852539,0.09668 -1.0957031,0.14502 -1.8208008,0.789551 -0.7089843,0.628418 -0.7089843,1.530762 0,0.789551 0.5800781,1.192383 0.5800781,0.402832 1.7241211,0.531738 0.7089848,0.06445 1.5307618,0.06445 h 0.08057 q 0.354493,0 0.596192,0.273926 0.177246,0.209473 0.177246,0.467285 0,0.08057 -0.01611,0.161133 L 11.875,30.495 q -0.08057,0.402832 -0.402832,0.676758 -0.306152,0.273925 -0.725098,0.273925 0,0 0,0 -2.8520505,-0.03223 -4.3989255,-1.03125 -1.5307617,-0.98291 -1.5307617,-2.916503 0,-0.563965 0.1933594,-1.160157 0.1933594,-0.596191 0.4995117,-1.047363 0.032227,-0.01611 0.016113,-0.04834 -0.016113,-0.03223 -0.064453,-0.03223 -1.4018555,0.112793 -3.3676758,0.435058 -0.09668,0.01611 -0.1611328,0.01611 -0.2900391,0 -0.5317383,-0.177247 Q 1.0952148,25.24207 1.0629883,24.871465 l -0.04834,-0.515625 q -0.0161132,-0.06445 -0.0161132,-0.112793 0,-0.322266 0.22558594,-0.596192 0.2416992,-0.306152 0.6445312,-0.338379 0.3544922,-0.04834 0.9829102,-0.112793 0.6445313,-0.08057 0.8378906,-0.112792 0.112793,-0.01611 0.225586,-0.08057 1.4663086,-0.93457 3.9638671,-3.158203 0.016113,-0.03223 0,-0.04834 0,-0.03223 -0.032227,-0.03223 -0.2416992,0.01611 -0.8378906,0.06445 -0.5961914,0.03223 -1.0957032,0.06445 -0.4995117,0.03223 -0.7734375,0.06445 -0.2416992,0.01611 -0.6284179,0.06445 z m 22.4296875,4.962891 q 0,-0.725098 -0.547852,-1.22461 -0.547851,-0.499511 -1.579101,-0.499511 -0.322266,0 -0.660645,0.03223 -0.338379,0.01611 -0.612304,0.04834 -0.273926,0.03223 -0.612305,0.112793 -0.338379,0.06445 -0.547852,0.112793 -0.209472,0.04834 -0.531738,0.145019 -0.322266,0.08057 -0.451172,0.112793 -0.128906,0.03223 -0.418945,0.128907 -0.273926,0.08057 -0.306152,0.09668 -0.273926,0.08057 -0.805665,0.273926 -0.161132,0.06445 -0.306152,0.06445 -0.209473,0 -0.402832,-0.112793 -0.338379,-0.177246 -0.418945,-0.531738 l -0.257813,-0.966797 q -0.03223,-0.112793 -0.03223,-0.225586 0,-0.241699 0.145019,-0.451172 0.225586,-0.306152 0.596192,-0.370605 0.515625,-0.08057 0.98291,-0.177246 0.08057,-0.01611 0.547851,-0.112793 0.467286,-0.112793 0.660645,-0.14502 0.193359,-0.03223 0.644531,-0.112793 0.451172,-0.09668 0.757324,-0.128906 0.322266,-0.04834 0.741211,-0.09668 0.418946,-0.06445 0.821778,-0.08057 0.418945,-0.03223 0.805664,-0.03223 2.094726,0 3.351562,1.144043 1.256836,1.12793 1.256836,3.09375 0,2.384766 -1.91748,4.012207 -1.901367,1.611329 -5.140137,2.20752 -0.128906,0.03223 -0.241699,0.03223 -0.290039,0 -0.563965,-0.128907 -0.402832,-0.193359 -0.612305,-0.580078 l -0.467285,-0.821777 q -0.09668,-0.14502 -0.09668,-0.306153 0,-0.145019 0.08057,-0.290039 0.145019,-0.290039 0.483398,-0.338379 5.655762,-0.83789 5.655762,-3.8833 z m -5.607422,-5.591309 q -0.402832,-0.06445 -0.628418,-0.370605 -0.177246,-0.257813 -0.177246,-0.547852 0,-0.08057 0.01611,-0.161133 l 0.08057,-0.499511 q 0.04834,-0.386719 0.370605,-0.612305 0.257813,-0.177246 0.547852,-0.177246 0.08057,0 0.161133,0.01611 2.642578,0.418945 5.687988,0.531738 0.370605,0.01611 0.612305,0.306153 0.193359,0.225586 0.193359,0.515625 0,0.06445 -0.01611,0.145019 l -0.08057,0.547852 q -0.06445,0.386719 -0.386719,0.644531 -0.273925,0.225586 -0.628418,0.225586 -0.04834,0 -0.08057,0 -3.480469,-0.273926 -5.671875,-0.563965 z" />
		</g>
	</g>
</svg>
