<?xml version="1.0" encoding="UTF-8" standalone="no"?>
<!-- Created with Inkscape (http://www.inkscape.org/) -->

<svg
   width="248"
   height="24"
   viewBox="0 0 247.99998 24"
   version="1.1"
   id="svg1"
   sodipodi:docname="thiswillmakeitahangoroshi.svg"
   inkscape:version="1.3.2 (091e20ef0f, 2023-11-25, custom)"
   xmlns:inkscape="http://www.inkscape.org/namespaces/inkscape"
   xmlns:sodipodi="http://sodipodi.sourceforge.net/DTD/sodipodi-0.dtd"
   xmlns="http://www.w3.org/2000/svg"
   xmlns:svg="http://www.w3.org/2000/svg">
  <sodipodi:namedview
     id="namedview1"
     pagecolor="#505050"
     bordercolor="#eeeeee"
     borderopacity="1"
     inkscape:showpageshadow="0"
     inkscape:pageopacity="0"
     inkscape:pagecheckerboard="0"
     inkscape:deskcolor="#d1d1d1"
     inkscape:document-units="px"
     showgrid="false"
     inkscape:zoom="3.2244069"
     inkscape:cx="85.907271"
     inkscape:cy="36.44081"
     inkscape:window-width="2560"
     inkscape:window-height="1386"
     inkscape:window-x="1920"
     inkscape:window-y="24"
     inkscape:window-maximized="1"
     inkscape:current-layer="layer1">
    <inkscape:grid
       id="grid3"
       units="px"
       originx="0"
       originy="0"
       spacingx="0.99999997"
       spacingy="0.99999998"
       empcolor="#0099e5"
       empopacity="0.30196078"
       color="#0099e5"
       opacity="0.14901961"
       empspacing="8"
       dotted="false"
       gridanglex="30"
       gridanglez="30"
       visible="false" />
  </sodipodi:namedview>
  <defs
     id="defs1">
    <inkscape:path-effect
       effect="offset"
       id="path-effect12"
       is_visible="true"
       lpeversion="1.2"
       linejoin_type="miter"
       unit="px"
       offset="2"
       miter_limit="4"
       attempt_force_join="false"
       update_on_knot_move="true" />
    <inkscape:path-effect
       effect="offset"
       id="path-effect5"
       is_visible="true"
       lpeversion="1.2"
       linejoin_type="miter"
       unit="px"
       offset="1"
       miter_limit="4"
       attempt_force_join="false"
       update_on_knot_move="true" />
    <inkscape:path-effect
       effect="clone_original"
       css_properties=""
       attributes="style,clip-path,mask"
       linkeditem=""
       is_visible="true"
       method="d"
       allow_transforms="true"
       id="path-effect3"
       lpeversion="1" />
    <inkscape:path-effect
       effect="clone_original"
       css_properties=""
       attributes="style,clip-path,mask"
       linkeditem=""
       is_visible="true"
       method="d"
       allow_transforms="true"
       id="path-effect11"
       lpeversion="1" />
    <inkscape:path-effect
       effect="offset"
       id="path-effect10"
       is_visible="true"
       lpeversion="1.2"
       linejoin_type="miter"
       unit="mm"
       offset="6.3"
       miter_limit="4"
       attempt_force_join="false"
       update_on_knot_move="true" />
    <inkscape:path-effect
       effect="clone_original"
       css_properties=""
       attributes="style,clip-path,mask"
       linkeditem="#g6"
       is_visible="true"
       method="d"
       allow_transforms="true"
       id="path-effect8"
       lpeversion="1" />
    <inkscape:path-effect
       effect="offset"
       id="path-effect7"
       is_visible="true"
       lpeversion="1.2"
       linejoin_type="miter"
       unit="mm"
       offset="0.8"
       miter_limit="4"
       attempt_force_join="false"
       update_on_knot_move="true" />
    <inkscape:path-effect
       effect="offset"
       id="path-effect6"
       is_visible="true"
       lpeversion="1.2"
       linejoin_type="miter"
       unit="px"
       offset="10.1"
       miter_limit="4"
       attempt_force_join="false"
       update_on_knot_move="true" />
  </defs>
  <g
     inkscape:label="Layer 1"
     inkscape:groupmode="layer"
     id="layer1"
     transform="translate(-15.177782,-66.753538)">
    <g
       id="g11"
       style="display:inline;stroke-width:1;stroke-dasharray:none"
       inkscape:path-effect="#path-effect12">
      <path
         d="m 38.175781,68.451172 0.386719,2.40039 c 0.05988,0.371246 0.05684,0.758757 0.05469,1.234375 -0.182874,0.01775 -0.387895,0.04063 -0.535156,0.05078 -0.614289,0.03449 -1.022317,0.03722 -1.535156,0.01953 l -2.289063,-0.08008 0.699219,6.888672 2.13086,-0.28125 c -0.934766,1.263958 -1.94645,2.573285 -2.640625,3.425781 l -0.458985,0.564453 -0.0078,-1.203125 -2.529297,0.71875 c -1.544371,0.438742 -3.884062,0.72461 -6.472656,0.724609 -1.215806,0 -1.82581,-0.18809 -2.087891,-0.332031 0.01532,-0.366396 0.08865,-0.75158 0.255859,-1.353515 l 0.640625,-2.308594 -6.769531,-0.619141 -0.375,1.730469 c -0.150988,0.698318 -0.445312,1.900964 -0.445312,3.302734 0,4.279502 3.6847,6.279297 8.880859,6.279297 2.89274,0 5.499544,-0.275617 7.408203,-0.736328 l 1.542969,-0.371094 -0.03125,-4.484375 3.558594,4.908203 0.330078,-0.445312 -0.111328,1.289062 h 7.220703 l -0.294922,-2.257812 c -0.05389,-0.413134 -0.109071,-1.070693 -0.126953,-1.392578 v -0.0078 -0.0078 c -0.114628,-1.795837 -0.117151,-3.401431 -0.117188,-5.023438 v -0.0098 l 0.02148,-0.837891 c 0.965039,-0.975687 1.947626,-1.753108 2.609375,-2.15625 -0.159341,1.647856 -0.669922,4.084267 -0.669922,6.113281 0,2.874859 1.68,5 4.5,5 2.194505,0 3.874628,-0.850705 5.125,-2.019531 l 0.736328,-0.6875 -0.902344,-7.941406 -2.697266,2.697265 c 0.195586,-1.582594 0.478516,-3.36896 0.478516,-4.888671 0,-2.750126 -1.893412,-4.960938 -5.140625,-4.960938 -1.145481,0 -2.26941,0.353235 -3.318359,0.861328 0.07937,-0.506423 0.154841,-0.930273 0.21289,-1.201172 l 0.501953,-2.33789 z m 36.023438,1.296875 -2.066407,0.08789 c -1.439198,0.06081 -3.653998,0.18226 -5.748046,0.365235 l 0.0098,-0.002 c -3.665347,0.300438 -6.972471,0.603012 -8.642578,0.742187 h -0.02148 l -0.02148,0.0039 c -0.306496,0.03226 -1.019458,0.06831 -1.802734,0.08789 l -2.142578,0.05469 0.673828,7.115234 2.201172,-0.474609 c 0.963193,-0.207585 2.276421,-0.402582 3.597656,-0.578125 -0.441871,1.097985 -0.71875,2.333928 -0.71875,3.664062 0,5.70871 5.126541,8.528749 10.027344,8.855469 l 1.527344,0.101562 2.294921,-6.695312 -2.644531,-0.140625 c -2.903465,-0.153713 -4.583984,-0.916924 -4.583984,-2.66211 0,-0.542752 0.168085,-1.123131 0.451172,-1.662109 0.374868,0.58169 0.679855,1.163259 1.046875,1.970703 l 0.822265,1.808594 2.361328,-1.054688 0.06836,0.134766 5.162109,-2.480469 -0.992187,-1.84375 C 74.847665,76.75476 74.551086,76.265596 74.25,75.787109 Z m -41.421875,0.207031 -2.207032,0.228516 c -1.464939,0.152201 -3.672051,0.269531 -5.591796,0.269531 -2.055421,0 -3.8403,-0.07865 -5.226563,-0.228516 L 17.537109,69.984375 V 76.6875 l 1.828125,0.158203 c 1.680314,0.145212 3.478374,0.228516 5.632813,0.228516 1.942184,0 4.50576,-0.124322 5.949219,-0.248047 l 1.830078,-0.15625 z"
         id="path9"
         style="font-weight:bold;font-size:20px;line-height:1;font-family:'Noto Sans CJK JP';-inkscape-font-specification:'Noto Sans CJK JP, Bold';letter-spacing:0px;fill:#ffffff;fill-opacity:1;stroke:#aa00cc;stroke-width:1;stroke-linecap:round;stroke-linejoin:bevel;stroke-dasharray:none;stroke-opacity:1"
         aria-label="これで"
         inkscape:original-d="m 19.537782,72.21354 v 2.64 c 1.62,0.14 3.36,0.22 5.46,0.22 1.9,0 4.38,-0.12 5.78,-0.24 v -2.66 c -1.54,0.16 -3.82,0.28 -5.8,0.28 -2.1,0 -3.96,-0.08 -5.44,-0.24 z m 1.68,8.48 -2.62,-0.24 c -0.16,0.74 -0.4,1.72 -0.4,2.88 0,2.74 2.3,4.28 6.88,4.28 2.8,0 5.2,-0.26 6.94,-0.68 l -0.02,-2.82 c -1.76,0.5 -4.32,0.8 -7.02,0.8 -2.88,0 -4.1,-0.92 -4.1,-2.2 0,-0.68 0.14,-1.3 0.34,-2.02 z m 19.4,-8.36 -0.08,1.54 c -0.86,0.12 -1.74,0.22 -2.32,0.26 -0.7,0.04 -1.16,0.04 -1.74,0.02 l 0.26,2.56 3.64,-0.48 -0.1,1.42 c -1.12,1.68 -3.14,4.32 -4.28,5.72 l 1.58,2.18 c 0.7,-0.94 1.68,-2.4 2.52,-3.66 l -0.08,4.4 c 0,0.32 -0.02,1.02 -0.06,1.48 h 2.76 c -0.06,-0.46 -0.12,-1.18 -0.14,-1.54 -0.12,-1.88 -0.12,-3.56 -0.12,-5.2 l 0.04,-1.62 c 1.64,-1.8 3.8,-3.64 5.28,-3.64 0.84,0 1.36,0.5 1.36,1.48 0,1.82 -0.72,4.76 -0.72,6.94 0,1.92 1,3 2.5,3 1.62,0 2.84,-0.62 3.76,-1.48 l -0.32,-2.82 c -0.92,0.92 -1.86,1.44 -2.6,1.44 -0.5,0 -0.76,-0.38 -0.76,-0.9 0,-2.06 0.66,-5 0.66,-7.08 0,-1.68 -0.98,-2.96 -3.14,-2.96 -1.94,0 -4.24,1.62 -5.82,3 l 0.04,-0.44 c 0.34,-0.52 0.74,-1.18 1.02,-1.54 l -0.74,-0.96 c 0.14,-1.24 0.32,-2.26 0.44,-2.82 l -2.92,-0.1 c 0.1,0.62 0.08,1.22 0.08,1.8 z m 15.339986,0.7 0.26,2.74 c 2.32,-0.5 6.4,-0.94 8.28,-1.14 -1.36,1.02 -2.98,3.3 -2.98,6.18 0,4.34 3.96,6.58 8.16,6.86 l 0.94,-2.74 c -3.4,-0.18 -6.48,-1.36 -6.48,-4.66 0,-2.38 1.82,-4.96 4.24,-5.6 1.06,-0.26 2.78,-0.26 3.86,-0.28 l -0.02,-2.56 c -1.42,0.06 -3.6,0.18 -5.66,0.36 -3.66,0.3 -6.96,0.6 -8.64,0.74 -0.38,0.04 -1.16,0.08 -1.96,0.1 z m 13.42,3.32 -1.48,0.62 c 0.64,0.9 1.06,1.68 1.56,2.78 l 1.52,-0.68 c -0.38,-0.78 -1.12,-2 -1.6,-2.72 z m 2.24,-0.92 -1.46,0.68 c 0.64,0.88 1.1,1.62 1.64,2.7 l 1.5,-0.72 c -0.42,-0.78 -1.18,-1.96 -1.68,-2.66 z" />
      <path
         d="m 137.96484,67.007812 -2.34375,0.939454 -0.0332,-0.04883 -5.38867,2.185547 0.375,0.53711 c -0.68509,0.0254 -1.37826,0.05273 -2.03711,0.05273 -2.06201,0 -3.81402,-0.07786 -5.19727,-0.246094 l -2.24218,-0.271484 v 6.775391 l 1.85156,0.136718 c 1.64774,0.122055 3.43884,0.22461 5.60937,0.22461 1.94921,0 4.50446,-0.14485 5.92188,-0.246094 l 1.85742,-0.132813 v -1.496093 l 5.20313,-2.210938 0.0547,3.457031 2.32032,-0.423828 c 0.10488,-0.01907 0.30668,-0.0296 0.45507,-0.04687 -1.67081,1.382007 -3.45064,2.80494 -4.71093,3.771485 l -1.75391,1.345703 4.79492,5.103515 0.50391,-0.509765 1.02539,3.808594 1.4043,0.115234 c 8.05241,0.652898 13.02343,-2.074946 13.02343,-7.673828 0,-2.927566 -1.80929,-5.185554 -4.45312,-6.234375 0.16628,-0.126702 0.46023,-0.360323 0.60351,-0.466797 0.28191,-0.181835 0.6382,-0.415751 0.91993,-0.572266 l 2.01953,-1.121093 -3.54688,-4.660157 -1.29297,0.339844 c -0.2527,0.0665 -0.67094,0.12165 -1.08203,0.158203 -1.21384,0.07289 -5.64939,0.136719 -6.6875,0.136719 -0.61951,0 -1.13458,-0.03464 -1.37305,-0.06445 l -2.2832,-0.285156 0.0566,3.628906 -0.90234,-1.753906 c -0.38773,-0.753913 -1.18596,-2.13768 -1.76172,-2.957032 z m -31.19336,1.148438 -0.74804,1.847656 c -0.31141,0.769359 -0.64113,1.326622 -0.92774,1.921875 -0.89815,1.623082 -3.46178,6.695379 -5.304684,10.845703 -0.806158,-0.733761 -1.871263,-1.59616 -3.220704,-2.320312 -0.03228,-0.565481 -0.05866,-1.167397 -0.08594,-1.808594 0.452013,-0.05275 0.899173,-0.108221 1.322266,-0.169922 l 1.710937,-0.25 v -6.6875 l -2.408203,0.501953 c -0.192976,0.0402 -0.403295,0.0709 -0.603516,0.107422 0.01874,-0.26395 0.03526,-0.541016 0.06641,-0.738281 l 0.365234,-2.3125 h -7.638672 l 0.478516,2.392578 c 0.05945,0.297242 0.09961,0.758117 0.09961,0.927734 v 0.0098 l 0.002,0.214844 c -0.909171,-0.01746 -1.800989,-0.06262 -2.671875,-0.154297 l -0.603515,-0.06445 c 0.03534,-0.12898 0.07291,-0.316053 0.0918,-0.363281 l 1,-2.501954 -7.550781,-0.65625 -0.06641,2.113282 c -0.01748,0.559436 -0.102838,1.186661 -0.181641,1.738281 -0.216496,1.515478 -0.83789,5.470965 -0.83789,8.623047 0,2.85927 0.405327,5.38299 0.882812,6.974609 l 0.464844,1.546875 5.847656,-0.464844 -0.08008,-1.121093 c 1.188801,0.911619 2.837781,1.365234 4.623047,1.365234 2.184081,0 3.778438,-0.765088 4.757812,-1.994141 0.07722,0.07089 0.143168,0.125408 0.222657,0.199219 l 1.734375,1.611328 0.783203,-1.193359 6.132808,2.089844 0.57422,-2.027344 c 0.28965,-1.023409 0.96094,-3.160726 1.42383,-4.193359 0.20794,-0.467857 0.40967,-0.800512 0.60156,-1.076172 0.0126,0.669532 0.03,1.38566 0.0742,1.992187 7e-5,0.0013 -7e-5,0.0026 0,0.0039 0.14206,2.557671 2.12566,4.667969 5.33594,4.667969 3.74807,0 6.03607,-2.430105 7.35156,-5.646484 0.32005,3.890466 3.89277,5.726562 8.84961,5.726562 2.91715,0 5.48467,-0.29351 7.4082,-0.757812 l 1.54297,-0.371094 -0.0488,-6.984375 -2.50782,0.683594 c -1.55627,0.424438 -3.90695,0.708984 -6.49609,0.708984 -1.2149,0 -1.82742,-0.183752 -2.08789,-0.324219 0.0147,-0.364705 0.0902,-0.764883 0.25586,-1.361328 l 0.64062,-2.310547 -6.84375,-0.61914 -0.33007,1.792969 c -0.025,0.135528 -0.0674,0.369444 -0.10157,0.542968 l -5.05078,-4.113281 -0.72851,3.117188 c -0.2404,1.027891 -0.5333,1.754131 -0.79493,2.269531 -0.001,-0.556046 0.001,-1.143445 -0.0195,-1.609375 -0.1021,-2.11858 -1.26522,-3.753777 -3.11914,-4.294922 0.49548,-0.853818 0.97673,-1.659707 1.36914,-2.236328 0.2313,-0.336427 0.44044,-0.661921 0.61914,-0.91211 l 1.48047,-2.072265 z m 54.09766,0.666016 0.55664,2.470703 c 0.13914,0.618391 0.21289,1.421191 0.21289,2.259765 0,1.642023 -0.20117,6.930119 -0.20117,9.660157 0,4.659989 3.24154,6.861328 7.40039,6.861328 5.36858,0 8.77444,-3.138222 10.34375,-5.492188 l 0.82617,-1.238281 -4.49219,-5.425781 -1.48632,2.253906 c -1.19217,1.804815 -2.83152,3.181641 -5.17188,3.181641 -0.60852,0 -0.75976,0.0039 -0.75976,-0.679688 0,-2.429926 0.15812,-6.856355 0.23828,-9.021484 0.037,-0.739279 0.12977,-1.689658 0.24218,-2.476563 l 0.32227,-2.255859 z m -74.882812,9.966796 0.876953,0.06055 c 1.053041,0.07139 2.077919,0.103424 3.123047,0.113282 0.0012,0.02992 7.76e-4,0.05806 0.002,0.08789 -1.010241,0.0889 -1.958329,0.331132 -2.771484,0.748047 z m 64.191402,2.583985 c 1.50384,0 1.74024,0.566069 1.74024,0.759765 0,0.659184 -1.39215,1.681547 -6.02539,1.171875 1.38795,-1.192089 2.70078,-1.93164 4.28515,-1.93164 z"
         id="path10"
         style="font-weight:bold;font-size:20px;line-height:1;font-family:'Noto Sans CJK JP';-inkscape-font-specification:'Noto Sans CJK JP, Bold';letter-spacing:0px;fill:#ffffff;fill-opacity:1;stroke:#aa00cc;stroke-width:1;stroke-linecap:round;stroke-linejoin:round;stroke-dasharray:none;stroke-opacity:1"
         aria-label="はんごろし"
         inkscape:original-d="m 84.83778,71.31354 -2.76,-0.24 c -0.02,0.64 -0.12,1.4 -0.2,1.96 -0.22,1.54 -0.82,5.32 -0.82,8.34 0,2.72 0.38,5 0.8,6.4 l 2.26,-0.18 c -0.02,-0.28 -0.04,-0.62 -0.04,-0.82 0,-0.22 0.04,-0.66 0.1,-0.94 0.24,-1.08 0.88,-3.12 1.44,-4.76 l -1.22,-1 c -0.3,0.68 -0.64,1.36 -0.9,2.06 -0.06,-0.4 -0.08,-0.9 -0.08,-1.3 0,-2 0.66,-6.4 0.96,-7.74 0.06,-0.36 0.3,-1.38 0.46,-1.78 z m 7.32,11.82 v 0.36 c 0,1.18 -0.42,1.82 -1.64,1.82 -1.06,0 -1.86,-0.34 -1.86,-1.16 0,-0.76 0.76,-1.24 1.9,-1.24 0.54,0 1.08,0.08 1.6,0.22 z m 2.44,-12.04 h -2.86 c 0.08,0.4 0.14,1.02 0.14,1.32 l 0.02,2.22 -1.4,0.02 c -1.2,0 -2.36,-0.06 -3.5,-0.18 v 2.38 c 1.18,0.08 2.32,0.12 3.5,0.12 l 1.42,-0.02 c 0.02,1.42 0.1,2.88 0.14,4.12 -0.4,-0.06 -0.84,-0.08 -1.3,-0.08 -2.72,0 -4.44,1.4 -4.44,3.42 0,2.1 1.72,3.26 4.48,3.26 2.72,0 3.8,-1.36 3.9,-3.28 0.8,0.54 1.6,1.24 2.44,2.02 l 1.38,-2.1 c -0.96,-0.88 -2.22,-1.9 -3.88,-2.58 -0.08,-1.36 -0.18,-2.96 -0.22,-4.9 1.1,-0.08 2.14,-0.2 3.1,-0.34 v -2.5 c -0.96,0.2 -2,0.36 -3.1,0.46 0.02,-0.88 0.04,-1.62 0.06,-2.06 0.02,-0.44 0.06,-0.92 0.12,-1.3 z m 16.12,0.8 -2.84,-1.14 c -0.34,0.84 -0.72,1.5 -0.98,2.04 -1.06,1.9 -5.16,10.06 -6.64,14.06 l 2.82,0.96 c 0.3,-1.06 1,-3.3 1.52,-4.46 0.72,-1.62 1.84,-3.02 3.2,-3.02 0.72,0 1.12,0.42 1.18,1.12 0.06,0.82 0.04,2.46 0.12,3.52 0.08,1.46 1.12,2.78 3.34,2.78 3.06,0 4.92,-2.28 5.96,-5.7 l -2.16,-1.76 c -0.58,2.48 -1.64,4.72 -3.38,4.72 -0.66,0 -1.22,-0.3 -1.3,-1.08 -0.1,-0.84 -0.04,-2.44 -0.08,-3.34 -0.08,-1.66 -0.98,-2.6 -2.48,-2.6 -0.76,0 -1.56,0.18 -2.3,0.6 1,-1.76 2.4,-4.32 3.38,-5.76 0.22,-0.32 0.44,-0.66 0.64,-0.94 z m 14.06,9 -2.64,-0.24 c -0.14,0.76 -0.38,1.74 -0.38,2.88 0,2.76 2.3,4.3 6.88,4.3 2.8,0 5.2,-0.28 6.94,-0.7 l -0.02,-2.8 c -1.76,0.48 -4.32,0.78 -7.02,0.78 -2.88,0 -4.1,-0.9 -4.1,-2.2 0,-0.66 0.14,-1.3 0.34,-2.02 z m 12.46,-11.44 -1.6,0.64 c 0.56,0.76 1.2,1.92 1.62,2.76 l 1.6,-0.68 c -0.36,-0.7 -1.1,-1.98 -1.62,-2.72 z m -2.38,0.9 -1.58,0.64 c 0.28,0.4 0.58,0.9 0.86,1.42 -1.54,0.14 -3.7,0.26 -5.6,0.26 -2.1,0 -3.96,-0.08 -5.44,-0.26 v 2.66 c 1.62,0.12 3.36,0.22 5.46,0.22 1.9,0 4.38,-0.14 5.78,-0.24 v -2.24 l 0.5,0.98 1.62,-0.7 c -0.38,-0.74 -1.1,-2.02 -1.6,-2.74 z m 8.66,1.3 0.04,2.62 c 0.44,-0.08 1.16,-0.14 1.66,-0.18 0.96,-0.06 3.74,-0.2 4.84,-0.24 -1.58,1.64 -6.52,5.66 -9.18,7.7 l 1.86,1.98 c 2.16,-2.18 4.34,-4.16 7.44,-4.16 2.28,0 3.74,1.18 3.74,2.76 0,2.64 -3.28,3.82 -8.82,3.1 l 0.7,2.6 c 7.4,0.6 10.86,-1.72 10.86,-5.68 0,-2.8 -2.4,-4.88 -5.92,-4.88 -0.5,0 -1.24,0.06 -1.9,0.26 1.74,-1.32 3.66,-2.86 4.82,-3.72 0.28,-0.18 0.74,-0.48 1.1,-0.68 l -1.34,-1.76 c -0.38,0.1 -0.98,0.18 -1.44,0.22 -1.3,0.08 -5.76,0.14 -6.84,0.14 -0.66,0 -1.3,-0.04 -1.62,-0.08 z m 23.08,-0.76 -3.22,-0.04 c 0.18,0.8 0.26,1.76 0.26,2.7 0,1.72 -0.2,6.98 -0.2,9.66 0,3.42 2.12,4.86 5.4,4.86 4.56,0 7.4,-2.68 8.68,-4.6 l -1.82,-2.2 c -1.44,2.18 -3.54,4.08 -6.84,4.08 -1.56,0 -2.76,-0.66 -2.76,-2.68 0,-2.48 0.16,-6.96 0.24,-9.12 0.04,-0.8 0.14,-1.82 0.26,-2.66 z" />
      <path
         d="m 227.95312,68.574219 0.47657,2.261718 c -1.07929,-0.07053 -2.3557,-0.200884 -3.28321,-0.355468 l -2.39062,-0.398438 0.11133,4.316406 -0.16797,-0.03125 0.0527,6.539063 1.20313,0.146484 c -0.94595,0.896733 -1.51758,2.0992 -1.51758,3.580078 0,3.573572 2.982,5.339844 6.88086,5.339844 2.41749,0 4.34522,-0.992202 5.29492,-2.597656 0.46191,0.349483 0.90259,0.713628 1.30469,1.085937 l 1.75,1.621094 3.69336,-5.738281 -1.36719,-1.130859 c -0.75483,-0.624684 -1.82697,-1.405581 -3.1582,-2.111329 0.54195,-0.05114 1.07636,-0.09724 1.64258,-0.160156 l 1.77929,-0.197265 v -6.439454 l -0.23828,0.0332 0.0371,-4.4375 -2.35547,0.402343 c -0.87907,0.149841 -1.73108,0.258599 -2.57226,0.34375 l 0.31054,-2.072265 z m 20.82227,0.05859 0.60156,2.396485 c -2.2958,0.03937 -4.72935,0.08398 -6.43945,0.08398 h -2.05078 l 0.16406,6.533203 2.06055,-0.117187 c 0.7331,-0.04172 1.60759,-0.07494 2.43945,-0.111328 -0.46313,0.810953 -0.73242,1.765475 -0.73242,2.835937 0,1.571156 0.54311,2.863975 1.38086,3.81836 -0.11416,0.02598 -0.2091,0.05728 -0.32813,0.08203 l -3.64648,0.759765 5.61133,5.558594 1.11914,-0.3125 c 5.76456,-1.606516 7.86328,-5.632424 7.86328,-9.207031 0,-1.125494 -0.22435,-2.244281 -0.72461,-3.240234 l -0.002,-0.484375 c 1.55368,0.01562 2.84941,0.04315 3.66601,0.08398 l 2.08203,0.103516 0.0527,-6.423829 -1.97656,-0.03906 c -0.69644,-0.01339 -2.29163,0.0017 -3.69922,0.01172 0.002,-0.01563 0.004,-0.073 0.006,-0.08398 l 0.28125,-2.248047 z m -45.90625,0.189454 0.55664,2.470703 c 0.13914,0.618391 0.21289,1.421191 0.21289,2.259765 0,1.642023 -0.20117,6.930119 -0.20117,9.660157 0,4.659989 3.24154,6.861328 7.40039,6.861328 5.36858,0 8.77444,-3.138222 10.34375,-5.492188 l 0.82617,-1.238281 -4.49219,-5.425781 -1.48632,2.253906 c -1.19217,1.804815 -2.83152,3.181641 -5.17188,3.181641 -0.60852,0 -0.75976,0.0039 -0.75976,-0.679688 0,-2.429926 0.15812,-6.856355 0.23828,-9.021484 0.037,-0.739279 0.12977,-1.689658 0.24218,-2.476563 l 0.32227,-2.255859 z m -20.54492,0.197265 -0.0664,2.111328 c -0.0163,0.520302 -0.1145,1.154742 -0.17969,1.740235 -0.21178,1.482461 -0.85937,5.065388 -0.85937,8.203125 0,2.859442 0.39644,5.50532 0.85742,7.095703 l 0.44922,1.548828 5.93164,-0.408203 -0.14453,-2 c -0.0106,-0.148532 -0.0129,-0.243327 -0.0195,-0.365235 1.2449,1.354898 3.36588,2.027344 5.9043,2.027344 2.34226,0 4.07019,-0.143818 5.52343,-0.412109 l 1.67383,-0.308594 -0.15234,-6.804687 -2.34961,0.486328 c -1.60982,0.333066 -2.96691,0.480469 -4.59571,0.480468 -0.31046,0 -0.53785,-0.01758 -0.73437,-0.04102 0.0287,-0.170765 0.0614,-0.349589 0.11914,-0.587891 l 0.54297,-2.242187 -5.41992,-0.519532 -1.00977,-0.796875 c 0.10053,-0.817041 0.2169,-1.630107 0.34375,-2.414062 v 1.339844 l 1.81055,0.171875 c 2.61518,0.249065 6.42547,0.229226 8.9668,0.002 l 1.82226,-0.16211 V 70.498047 L 198.5,70.767578 c -2.04537,0.246202 -5.799,0.341741 -8.08789,0.02539 l -0.91992,-0.126953 0.3789,-0.998047 z"
         id="path11"
         style="font-weight:bold;font-size:20px;line-height:1;font-family:'Noto Sans CJK JP';-inkscape-font-specification:'Noto Sans CJK JP, Bold';letter-spacing:0px;fill:#ffffff;fill-opacity:1;stroke:#aa00cc;stroke-width:1;stroke-linecap:round;stroke-linejoin:bevel;stroke-dasharray:none;stroke-opacity:1"
         aria-label="にします"
         inkscape:original-d="m 190.13778,72.77354 v 2.56 c 2.52,0.24 6.14,0.22 8.6,0 v -2.58 c -2.16,0.26 -6.14,0.36 -8.6,0.02 z m 1.6,8.54 -2.3,-0.22 c -0.22,1.02 -0.34,1.82 -0.34,2.6 0,2.06 1.66,3.28 5.1,3.28 2.26,0 3.86,-0.14 5.16,-0.38 l -0.06,-2.7 c -1.74,0.36 -3.22,0.52 -5,0.52 -2.04,0 -2.8,-0.54 -2.8,-1.42 0,-0.54 0.08,-1.02 0.24,-1.68 z m -4.68,-9.88 -2.8,-0.24 c -0.02,0.64 -0.14,1.4 -0.2,1.96 -0.22,1.54 -0.84,4.92 -0.84,7.92 0,2.72 0.38,5.16 0.78,6.54 l 2.32,-0.16 c -0.02,-0.28 -0.04,-0.6 -0.04,-0.82 0,-0.2 0.04,-0.64 0.1,-0.94 0.22,-1.06 0.88,-3.22 1.44,-4.9 l -1.24,-0.98 c -0.28,0.66 -0.6,1.36 -0.9,2.04 -0.06,-0.4 -0.08,-0.92 -0.08,-1.3 0,-2 0.7,-6 0.96,-7.34 0.08,-0.36 0.34,-1.36 0.5,-1.78 z m 21.54,-0.54 -3.22,-0.04 c 0.18,0.8 0.26,1.76 0.26,2.7 0,1.72 -0.2,6.98 -0.2,9.66 0,3.42 2.12,4.86 5.4,4.86 4.56,0 7.4,-2.68 8.68,-4.6 l -1.82,-2.2 c -1.44,2.18 -3.54,4.08 -6.84,4.08 -1.56,0 -2.76,-0.66 -2.76,-2.68 0,-2.48 0.16,-6.96 0.24,-9.12 0.04,-0.8 0.14,-1.82 0.26,-2.66 z m 22.1,12.5 0.02,0.86 c 0,1.16 -0.7,1.46 -1.76,1.46 -1.38,0 -2.1,-0.46 -2.1,-1.22 0,-0.68 0.78,-1.24 2.2,-1.24 0.56,0 1.12,0.06 1.64,0.14 z m -5.98,-6.62 0.02,2.36 c 1.32,0.16 3.6,0.26 4.76,0.26 h 1.04 l 0.08,1.86 c -0.4,-0.04 -0.82,-0.06 -1.24,-0.06 -3.08,0 -4.94,1.42 -4.94,3.44 0,2.12 1.68,3.34 4.88,3.34 2.64,0 3.94,-1.32 3.94,-3.02 l -0.02,-0.74 c 1.6,0.72 2.96,1.78 4.04,2.78 l 1.44,-2.24 c -1.16,-0.96 -3.08,-2.3 -5.6,-3.02 l -0.14,-2.38 c 1.92,-0.06 3.48,-0.2 5.28,-0.4 v -2.36 c -1.62,0.22 -3.3,0.38 -5.32,0.48 v -2.06 c 1.94,-0.1 3.76,-0.28 5.08,-0.44 l 0.02,-2.3 c -1.76,0.3 -3.42,0.46 -5.06,0.54 l 0.02,-0.82 c 0.02,-0.52 0.06,-1.02 0.12,-1.42 h -2.7 c 0.08,0.38 0.12,1 0.12,1.38 v 0.94 h -0.78 c -1.22,0 -3.5,-0.2 -4.94,-0.44 l 0.06,2.28 c 1.32,0.18 3.64,0.36 4.9,0.36 h 0.74 l -0.02,2.06 h -0.96 c -1.06,0 -3.52,-0.14 -4.82,-0.38 z m 27.36,2.56 c 0.26,1.74 -0.48,2.38 -1.32,2.38 -0.8,0 -1.54,-0.58 -1.54,-1.5 0,-1.06 0.76,-1.6 1.54,-1.6 0.56,0 1.02,0.24 1.32,0.72 z m -9.14,-6.22 0.06,2.42 c 2.46,-0.14 5.58,-0.26 8.6,-0.3 l 0.02,1.34 c -0.26,-0.04 -0.52,-0.06 -0.8,-0.06 -2.18,0 -4,1.48 -4,3.74 0,2.44 1.9,3.68 3.44,3.68 0.32,0 0.62,-0.04 0.9,-0.1 -1.1,1.2 -2.86,1.86 -4.88,2.28 l 2.14,2.12 c 4.88,-1.36 6.4,-4.68 6.4,-7.28 0,-1.04 -0.24,-1.98 -0.72,-2.72 l -0.02,-3.02 c 2.72,0 4.58,0.04 5.78,0.1 l 0.02,-2.36 c -1.04,-0.02 -3.78,0.02 -5.8,0.02 l 0.02,-0.62 c 0.02,-0.32 0.1,-1.4 0.14,-1.72 h -2.9 c 0.06,0.24 0.14,0.92 0.2,1.74 l 0.04,0.62 c -2.72,0.04 -6.36,0.12 -8.64,0.12 z" />
    </g>
    <g
       id="g9"
       style="display:inline">
      <path
         d="m 19.537782,72.21354 v 2.64 c 1.62,0.14 3.36,0.22 5.46,0.22 1.9,0 4.38,-0.12 5.78,-0.24 v -2.66 c -1.54,0.16 -3.82,0.28 -5.8,0.28 -2.1,0 -3.96,-0.08 -5.44,-0.24 z m 1.68,8.48 -2.62,-0.24 c -0.16,0.74 -0.4,1.72 -0.4,2.88 0,2.74 2.3,4.28 6.88,4.28 2.8,0 5.2,-0.26 6.94,-0.68 l -0.02,-2.82 c -1.76,0.5 -4.32,0.8 -7.02,0.8 -2.88,0 -4.1,-0.92 -4.1,-2.2 0,-0.68 0.14,-1.3 0.34,-2.02 z m 19.4,-8.36 -0.08,1.54 c -0.86,0.12 -1.74,0.22 -2.32,0.26 -0.7,0.04 -1.16,0.04 -1.74,0.02 l 0.26,2.56 3.64,-0.48 -0.1,1.42 c -1.12,1.68 -3.14,4.32 -4.28,5.72 l 1.58,2.18 c 0.7,-0.94 1.68,-2.4 2.52,-3.66 l -0.08,4.4 c 0,0.32 -0.02,1.02 -0.06,1.48 h 2.76 c -0.06,-0.46 -0.12,-1.18 -0.14,-1.54 -0.12,-1.88 -0.12,-3.56 -0.12,-5.2 l 0.04,-1.62 c 1.64,-1.8 3.8,-3.64 5.28,-3.64 0.84,0 1.36,0.5 1.36,1.48 0,1.82 -0.72,4.76 -0.72,6.94 0,1.92 1,3 2.5,3 1.62,0 2.84,-0.62 3.76,-1.48 l -0.32,-2.82 c -0.92,0.92 -1.86,1.44 -2.6,1.44 -0.5,0 -0.76,-0.38 -0.76,-0.9 0,-2.06 0.66,-5 0.66,-7.08 0,-1.68 -0.98,-2.96 -3.14,-2.96 -1.94,0 -4.24,1.62 -5.82,3 l 0.04,-0.44 c 0.34,-0.52 0.74,-1.18 1.02,-1.54 l -0.74,-0.96 c 0.14,-1.24 0.32,-2.26 0.44,-2.82 l -2.92,-0.1 c 0.1,0.62 0.08,1.22 0.08,1.8 z m 15.339986,0.7 0.26,2.74 c 2.32,-0.5 6.4,-0.94 8.28,-1.14 -1.36,1.02 -2.98,3.3 -2.98,6.18 0,4.34 3.96,6.58 8.16,6.86 l 0.94,-2.74 c -3.4,-0.18 -6.48,-1.36 -6.48,-4.66 0,-2.38 1.82,-4.96 4.24,-5.6 1.06,-0.26 2.78,-0.26 3.86,-0.28 l -0.02,-2.56 c -1.42,0.06 -3.6,0.18 -5.66,0.36 -3.66,0.3 -6.96,0.6 -8.64,0.74 -0.38,0.04 -1.16,0.08 -1.96,0.1 z m 13.42,3.32 -1.48,0.62 c 0.64,0.9 1.06,1.68 1.56,2.78 l 1.52,-0.68 c -0.38,-0.78 -1.12,-2 -1.6,-2.72 z m 2.24,-0.92 -1.46,0.68 c 0.64,0.88 1.1,1.62 1.64,2.7 l 1.5,-0.72 c -0.42,-0.78 -1.18,-1.96 -1.68,-2.66 z"
         id="text7"
         style="font-weight:bold;font-size:20px;line-height:1;font-family:'Noto Sans CJK JP';-inkscape-font-specification:'Noto Sans CJK JP, Bold';letter-spacing:0px;fill:#aa00cc;stroke-width:0.79375;stroke-linecap:round;stroke-linejoin:round"
         aria-label="これで" />
      <path
         d="m 84.83778,71.31354 -2.76,-0.24 c -0.02,0.64 -0.12,1.4 -0.2,1.96 -0.22,1.54 -0.82,5.32 -0.82,8.34 0,2.72 0.38,5 0.8,6.4 l 2.26,-0.18 c -0.02,-0.28 -0.04,-0.62 -0.04,-0.82 0,-0.22 0.04,-0.66 0.1,-0.94 0.24,-1.08 0.88,-3.12 1.44,-4.76 l -1.22,-1 c -0.3,0.68 -0.64,1.36 -0.9,2.06 -0.06,-0.4 -0.08,-0.9 -0.08,-1.3 0,-2 0.66,-6.4 0.96,-7.74 0.06,-0.36 0.3,-1.38 0.46,-1.78 z m 7.32,11.82 v 0.36 c 0,1.18 -0.42,1.82 -1.64,1.82 -1.06,0 -1.86,-0.34 -1.86,-1.16 0,-0.76 0.76,-1.24 1.9,-1.24 0.54,0 1.08,0.08 1.6,0.22 z m 2.44,-12.04 h -2.86 c 0.08,0.4 0.14,1.02 0.14,1.32 l 0.02,2.22 -1.4,0.02 c -1.2,0 -2.36,-0.06 -3.5,-0.18 v 2.38 c 1.18,0.08 2.32,0.12 3.5,0.12 l 1.42,-0.02 c 0.02,1.42 0.1,2.88 0.14,4.12 -0.4,-0.06 -0.84,-0.08 -1.3,-0.08 -2.72,0 -4.44,1.4 -4.44,3.42 0,2.1 1.72,3.26 4.48,3.26 2.72,0 3.8,-1.36 3.9,-3.28 0.8,0.54 1.6,1.24 2.44,2.02 l 1.38,-2.1 c -0.96,-0.88 -2.22,-1.9 -3.88,-2.58 -0.08,-1.36 -0.18,-2.96 -0.22,-4.9 1.1,-0.08 2.14,-0.2 3.1,-0.34 v -2.5 c -0.96,0.2 -2,0.36 -3.1,0.46 0.02,-0.88 0.04,-1.62 0.06,-2.06 0.02,-0.44 0.06,-0.92 0.12,-1.3 z m 16.12,0.8 -2.84,-1.14 c -0.34,0.84 -0.72,1.5 -0.98,2.04 -1.06,1.9 -5.16,10.06 -6.64,14.06 l 2.82,0.96 c 0.3,-1.06 1,-3.3 1.52,-4.46 0.72,-1.62 1.84,-3.02 3.2,-3.02 0.72,0 1.12,0.42 1.18,1.12 0.06,0.82 0.04,2.46 0.12,3.52 0.08,1.46 1.12,2.78 3.34,2.78 3.06,0 4.92,-2.28 5.96,-5.7 l -2.16,-1.76 c -0.58,2.48 -1.64,4.72 -3.38,4.72 -0.66,0 -1.22,-0.3 -1.3,-1.08 -0.1,-0.84 -0.04,-2.44 -0.08,-3.34 -0.08,-1.66 -0.98,-2.6 -2.48,-2.6 -0.76,0 -1.56,0.18 -2.3,0.6 1,-1.76 2.4,-4.32 3.38,-5.76 0.22,-0.32 0.44,-0.66 0.64,-0.94 z m 14.06,9 -2.64,-0.24 c -0.14,0.76 -0.38,1.74 -0.38,2.88 0,2.76 2.3,4.3 6.88,4.3 2.8,0 5.2,-0.28 6.94,-0.7 l -0.02,-2.8 c -1.76,0.48 -4.32,0.78 -7.02,0.78 -2.88,0 -4.1,-0.9 -4.1,-2.2 0,-0.66 0.14,-1.3 0.34,-2.02 z m 12.46,-11.44 -1.6,0.64 c 0.56,0.76 1.2,1.92 1.62,2.76 l 1.6,-0.68 c -0.36,-0.7 -1.1,-1.98 -1.62,-2.72 z m -2.38,0.9 -1.58,0.64 c 0.28,0.4 0.58,0.9 0.86,1.42 -1.54,0.14 -3.7,0.26 -5.6,0.26 -2.1,0 -3.96,-0.08 -5.44,-0.26 v 2.66 c 1.62,0.12 3.36,0.22 5.46,0.22 1.9,0 4.38,-0.14 5.78,-0.24 v -2.24 l 0.5,0.98 1.62,-0.7 c -0.38,-0.74 -1.1,-2.02 -1.6,-2.74 z m 8.66,1.3 0.04,2.62 c 0.44,-0.08 1.16,-0.14 1.66,-0.18 0.96,-0.06 3.74,-0.2 4.84,-0.24 -1.58,1.64 -6.52,5.66 -9.18,7.7 l 1.86,1.98 c 2.16,-2.18 4.34,-4.16 7.44,-4.16 2.28,0 3.74,1.18 3.74,2.76 0,2.64 -3.28,3.82 -8.82,3.1 l 0.7,2.6 c 7.4,0.6 10.86,-1.72 10.86,-5.68 0,-2.8 -2.4,-4.88 -5.92,-4.88 -0.5,0 -1.24,0.06 -1.9,0.26 1.74,-1.32 3.66,-2.86 4.82,-3.72 0.28,-0.18 0.74,-0.48 1.1,-0.68 l -1.34,-1.76 c -0.38,0.1 -0.98,0.18 -1.44,0.22 -1.3,0.08 -5.76,0.14 -6.84,0.14 -0.66,0 -1.3,-0.04 -1.62,-0.08 z m 23.08,-0.76 -3.22,-0.04 c 0.18,0.8 0.26,1.76 0.26,2.7 0,1.72 -0.2,6.98 -0.2,9.66 0,3.42 2.12,4.86 5.4,4.86 4.56,0 7.4,-2.68 8.68,-4.6 l -1.82,-2.2 c -1.44,2.18 -3.54,4.08 -6.84,4.08 -1.56,0 -2.76,-0.66 -2.76,-2.68 0,-2.48 0.16,-6.96 0.24,-9.12 0.04,-0.8 0.14,-1.82 0.26,-2.66 z"
         id="text8"
         style="font-weight:bold;font-size:20px;line-height:1;font-family:'Noto Sans CJK JP';-inkscape-font-specification:'Noto Sans CJK JP, Bold';letter-spacing:0px;fill:#cc0000;stroke-width:3;stroke-linecap:round;stroke-linejoin:round"
         aria-label="はんごろし" />
      <path
         d="m 190.13778,72.77354 v 2.56 c 2.52,0.24 6.14,0.22 8.6,0 v -2.58 c -2.16,0.26 -6.14,0.36 -8.6,0.02 z m 1.6,8.54 -2.3,-0.22 c -0.22,1.02 -0.34,1.82 -0.34,2.6 0,2.06 1.66,3.28 5.1,3.28 2.26,0 3.86,-0.14 5.16,-0.38 l -0.06,-2.7 c -1.74,0.36 -3.22,0.52 -5,0.52 -2.04,0 -2.8,-0.54 -2.8,-1.42 0,-0.54 0.08,-1.02 0.24,-1.68 z m -4.68,-9.88 -2.8,-0.24 c -0.02,0.64 -0.14,1.4 -0.2,1.96 -0.22,1.54 -0.84,4.92 -0.84,7.92 0,2.72 0.38,5.16 0.78,6.54 l 2.32,-0.16 c -0.02,-0.28 -0.04,-0.6 -0.04,-0.82 0,-0.2 0.04,-0.64 0.1,-0.94 0.22,-1.06 0.88,-3.22 1.44,-4.9 l -1.24,-0.98 c -0.28,0.66 -0.6,1.36 -0.9,2.04 -0.06,-0.4 -0.08,-0.92 -0.08,-1.3 0,-2 0.7,-6 0.96,-7.34 0.08,-0.36 0.34,-1.36 0.5,-1.78 z m 21.54,-0.54 -3.22,-0.04 c 0.18,0.8 0.26,1.76 0.26,2.7 0,1.72 -0.2,6.98 -0.2,9.66 0,3.42 2.12,4.86 5.4,4.86 4.56,0 7.4,-2.68 8.68,-4.6 l -1.82,-2.2 c -1.44,2.18 -3.54,4.08 -6.84,4.08 -1.56,0 -2.76,-0.66 -2.76,-2.68 0,-2.48 0.16,-6.96 0.24,-9.12 0.04,-0.8 0.14,-1.82 0.26,-2.66 z m 22.1,12.5 0.02,0.86 c 0,1.16 -0.7,1.46 -1.76,1.46 -1.38,0 -2.1,-0.46 -2.1,-1.22 0,-0.68 0.78,-1.24 2.2,-1.24 0.56,0 1.12,0.06 1.64,0.14 z m -5.98,-6.62 0.02,2.36 c 1.32,0.16 3.6,0.26 4.76,0.26 h 1.04 l 0.08,1.86 c -0.4,-0.04 -0.82,-0.06 -1.24,-0.06 -3.08,0 -4.94,1.42 -4.94,3.44 0,2.12 1.68,3.34 4.88,3.34 2.64,0 3.94,-1.32 3.94,-3.02 l -0.02,-0.74 c 1.6,0.72 2.96,1.78 4.04,2.78 l 1.44,-2.24 c -1.16,-0.96 -3.08,-2.3 -5.6,-3.02 l -0.14,-2.38 c 1.92,-0.06 3.48,-0.2 5.28,-0.4 v -2.36 c -1.62,0.22 -3.3,0.38 -5.32,0.48 v -2.06 c 1.94,-0.1 3.76,-0.28 5.08,-0.44 l 0.02,-2.3 c -1.76,0.3 -3.42,0.46 -5.06,0.54 l 0.02,-0.82 c 0.02,-0.52 0.06,-1.02 0.12,-1.42 h -2.7 c 0.08,0.38 0.12,1 0.12,1.38 v 0.94 h -0.78 c -1.22,0 -3.5,-0.2 -4.94,-0.44 l 0.06,2.28 c 1.32,0.18 3.64,0.36 4.9,0.36 h 0.74 l -0.02,2.06 h -0.96 c -1.06,0 -3.52,-0.14 -4.82,-0.38 z m 27.36,2.56 c 0.26,1.74 -0.48,2.38 -1.32,2.38 -0.8,0 -1.54,-0.58 -1.54,-1.5 0,-1.06 0.76,-1.6 1.54,-1.6 0.56,0 1.02,0.24 1.32,0.72 z m -9.14,-6.22 0.06,2.42 c 2.46,-0.14 5.58,-0.26 8.6,-0.3 l 0.02,1.34 c -0.26,-0.04 -0.52,-0.06 -0.8,-0.06 -2.18,0 -4,1.48 -4,3.74 0,2.44 1.9,3.68 3.44,3.68 0.32,0 0.62,-0.04 0.9,-0.1 -1.1,1.2 -2.86,1.86 -4.88,2.28 l 2.14,2.12 c 4.88,-1.36 6.4,-4.68 6.4,-7.28 0,-1.04 -0.24,-1.98 -0.72,-2.72 l -0.02,-3.02 c 2.72,0 4.58,0.04 5.78,0.1 l 0.02,-2.36 c -1.04,-0.02 -3.78,0.02 -5.8,0.02 l 0.02,-0.62 c 0.02,-0.32 0.1,-1.4 0.14,-1.72 h -2.9 c 0.06,0.24 0.14,0.92 0.2,1.74 l 0.04,0.62 c -2.72,0.04 -6.36,0.12 -8.64,0.12 z"
         id="text9"
         style="font-weight:bold;font-size:20px;line-height:1;font-family:'Noto Sans CJK JP';-inkscape-font-specification:'Noto Sans CJK JP, Bold';letter-spacing:0px;fill:#aa00cc;stroke-width:3;stroke-linecap:round;stroke-linejoin:round"
         aria-label="にします" />
    </g>
    <g
       id="g6"
       style="display:inline">
      <text
         xml:space="preserve"
         style="font-style:normal;font-variant:normal;font-weight:bold;font-stretch:normal;font-size:20px;line-height:1;font-family:'Noto Sans CJK JP';-inkscape-font-specification:'Noto Sans CJK JP, Bold';font-variant-ligatures:normal;font-variant-caps:normal;font-variant-numeric:normal;font-variant-east-asian:normal;text-align:start;letter-spacing:0px;text-anchor:start;fill:#aa00cc;fill-opacity:1;stroke-width:0.79375;stroke-linecap:round;stroke-linejoin:round"
         x="15.177782"
         y="86.75354"
         id="text4"><tspan
           sodipodi:role="line"
           id="tspan4"
           style="font-style:normal;font-variant:normal;font-weight:bold;font-stretch:normal;font-size:20px;font-family:'Noto Sans CJK JP';-inkscape-font-specification:'Noto Sans CJK JP, Bold';font-variant-ligatures:normal;font-variant-caps:normal;font-variant-numeric:normal;font-variant-east-asian:normal;text-align:start;text-anchor:start;fill:#aa00cc;fill-opacity:1;stroke-width:0.79375"
           x="15.177782"
           y="86.75354">これで</tspan></text>
      <text
         xml:space="preserve"
         style="font-style:normal;font-variant:normal;font-weight:bold;font-stretch:normal;font-size:20px;line-height:1;font-family:'Noto Sans CJK JP';-inkscape-font-specification:'Noto Sans CJK JP, Bold';font-variant-ligatures:normal;font-variant-caps:normal;font-variant-numeric:normal;font-variant-east-asian:normal;text-align:start;letter-spacing:0px;text-anchor:start;fill:#cc0000;fill-opacity:1;stroke-width:3;stroke-linecap:round;stroke-linejoin:round"
         x="79.17778"
         y="86.75354"
         id="text5"><tspan
           sodipodi:role="line"
           id="tspan5"
           x="79.17778"
           y="86.75354">はんごろし</tspan></text>
      <text
         xml:space="preserve"
         style="font-style:normal;font-variant:normal;font-weight:bold;font-stretch:normal;font-size:20px;line-height:1;font-family:'Noto Sans CJK JP';-inkscape-font-specification:'Noto Sans CJK JP, Bold';font-variant-ligatures:normal;font-variant-caps:normal;font-variant-numeric:normal;font-variant-east-asian:normal;text-align:start;letter-spacing:0px;text-anchor:start;fill:#aa00cc;fill-opacity:1;stroke-width:3;stroke-linecap:round;stroke-linejoin:round"
         x="181.17778"
         y="86.75354"
         id="text6"><tspan
           sodipodi:role="line"
           id="tspan6"
           x="181.17778"
           y="86.75354">にします</tspan></text>
    </g>
  </g>
</svg>
